<svg xmlns="http://www.w3.org/2000/svg" viewBox="0 0 107.77 107.77"><defs><style>.cls-1{fill:#f7f7f7;}.cls-2,.cls-6{fill:#bcb9b4;}.cls-2,.cls-3,.cls-4,.cls-5{stroke:#008dd1;stroke-miterlimit:10;stroke-width:4px;}.cls-3,.cls-7{fill:#ebe5dd;}.cls-4,.cls-8{fill:#837d76;}.cls-5,.cls-9{fill:#4b4339;}</style></defs><g id="Layer_2" data-name="Layer 2"><g id="bruleur"><g id="fond"><rect class="cls-1" width="107.77" height="107.77" rx="10"/></g><g id="Layer_48" data-name="Layer 48"><path class="cls-2" d="M29.77,38.33H71.13v22.3H64.41l-13.11,27H25.51C24.45,87.2,13.73,82.83,10.7,71.1c-3.36-13.06,6-22.79,6.47-23.23Z"/><path class="cls-3" d="M30.27,39.19H70v20l-6.46-.09L50.36,86.16H26.21c-1-.39-11.23-4.55-14.11-15.74C8.89,58,17.84,48.7,18.26,48.27Z"/><rect class="cls-4" x="71.05" y="42.08" width="15.15" height="15.15"/><rect class="cls-5" x="70.02" y="36.38" width="2.21" height="26.3"/></g><g id="Layer_23" data-name="Layer 23"><path class="cls-6" d="M29.77,38.37H71.13v22.3H64.41l-13.11,27H25.51c-1.06-.41-11.78-4.78-14.81-16.51-3.36-13.06,6-22.79,6.47-23.24Z"/></g><g id="Layer_24" data-name="Layer 24"><path class="cls-7" d="M30.27,39.22H70v20l-6.46-.09L50.36,86.2H26.21c-1-.39-11.23-4.55-14.11-15.74C8.89,58,17.84,48.74,18.26,48.31Z"/></g><g id="Layer_22" data-name="Layer 22"><rect class="cls-8" x="71.05" y="42.12" width="15.15" height="15.15"/></g><g id="Layer_21" data-name="Layer 21"><rect class="cls-9" x="70.02" y="36.42" width="2.21" height="26.3"/></g><g id="Layer_25" data-name="Layer 25"><circle class="cls-6" cx="33" cy="65.01" r="14.64"/></g><g id="Layer_26" data-name="Layer 26"><path class="cls-8" d="M33.89,64.16c.43.61,3.26-.39,5.4-2.06.89-.7,3.72-2.91,3.21-5a4.55,4.55,0,0,0-1.9-2.79c-1.12-.85-2.77-1.48-3.49-1.06s-.14,1.45-.54,3.92A16.48,16.48,0,0,1,35.41,61C34.47,63.17,33.62,63.79,33.89,64.16Z"/><path class="cls-8" d="M34.46,65.18c-.33.67,1.87,2.69,4.36,3.8,1,.46,4.3,1.92,5.94.47a4.46,4.46,0,0,0,1.58-3c.23-1.39,0-3.15-.7-3.59s-1.35.56-3.71,1.37A16.64,16.64,0,0,1,38,65C35.6,65.22,34.66,64.77,34.46,65.18Z"/><path class="cls-8" d="M33.72,66.43c-.75,0-1.47,2.95-1.24,5.66.1,1.12.4,4.7,2.46,5.44a4.51,4.51,0,0,0,3.37-.06c1.33-.47,2.76-1.51,2.8-2.34s-1.14-.91-3-2.6a16.32,16.32,0,0,1-2.61-3.1C34.23,67.46,34.17,66.41,33.72,66.43Z"/><path class="cls-8" d="M32.29,66.08c-.43-.61-3.26.37-5.41,2-.89.69-3.73,2.89-3.23,5a4.55,4.55,0,0,0,1.89,2.8c1.12.85,2.77,1.49,3.49,1.08s.14-1.46.55-3.92a16.54,16.54,0,0,1,1.18-3.88C31.71,67.07,32.56,66.44,32.29,66.08Z"/><path class="cls-8" d="M31.7,64.85c.28-.7-2.07-2.55-4.64-3.46-1.06-.37-4.44-1.57-6,0a4.54,4.54,0,0,0-1.33,3.1c-.12,1.4.24,3.13,1,3.52s1.3-.67,3.59-1.65a16.17,16.17,0,0,1,3.9-1.1C30.56,64.89,31.54,65.27,31.7,64.85Z"/><path class="cls-8" d="M32.62,63.55c.73-.14,1-3.12.36-5.77-.26-1.1-1.09-4.59-3.24-5a4.54,4.54,0,0,0-3.33.57c-1.24.66-2.5,1.91-2.42,2.73s1.27.73,3.34,2.12a16.32,16.32,0,0,1,3.05,2.67C32,62.61,32.17,63.64,32.62,63.55Z"/></g><g id="Layer_28" data-name="Layer 28"><path class="cls-9" d="M88.75,50.29a8.5,8.5,0,0,1-.47-2.79,6.16,6.16,0,0,1,.7-3.19c1.09-2.19,2.59-2.72,4.7-6.11a16.23,16.23,0,0,0,2-5.61,29.68,29.68,0,0,0,0-12.6s1,4.21,2.87,11.57c2.51,10.11,2.32,12.75,1.36,15.15-.33.85-1.79,4.34-5.1,5.79-1.55.67-4.69-.15-4.69-.15s2,0,2.43-1.21a3.23,3.23,0,0,0-.06-2.23,2.24,2.24,0,0,0-1.86-.45C89.71,48.68,89,48.87,88.75,50.29Z"/></g></g></g></svg>