<svg xmlns="http://www.w3.org/2000/svg" viewBox="0 0 107.77 107.77"><defs><style>.cls-1{fill:#f7f7f7;}.cls-2{fill:#837d76;}.cls-3{fill:none;stroke:#008dd1;stroke-miterlimit:10;stroke-width:4px;}.cls-4{fill:#4b4339;}.cls-5{fill:#bcb9b4;}.cls-6{fill:#ebe5dd;}.cls-7{fill:#ccc7c0;}</style></defs><g id="Layer_2" data-name="Layer 2"><g id="chauffe-eau"><rect class="cls-1" width="107.77" height="107.77" rx="10"/><g id="Layer_49" data-name="Layer 49"><path class="cls-2" d="M56.52,99a2.73,2.73,0,1,1-5.44,0V89a2.73,2.73,0,1,1,5.44,0Z"/><path class="cls-3" d="M56.52,99a2.73,2.73,0,1,1-5.44,0V89a2.73,2.73,0,1,1,5.44,0Z"/><rect class="cls-4" x="46.65" y="86.97" width="14.3" height="5.79" rx="2"/><rect class="cls-3" x="46.65" y="86.97" width="14.3" height="5.79" rx="2"/><rect class="cls-5" x="28.54" y="10.88" width="49.87" height="78.98" rx="3"/><rect class="cls-3" x="28.54" y="10.88" width="49.87" height="78.98" rx="3"/></g><g id="Layer_18" data-name="Layer 18"><path class="cls-2" d="M56.61,99a2.74,2.74,0,1,1-5.45,0V89a2.74,2.74,0,1,1,5.45,0Z"/><rect class="cls-4" x="46.73" y="86.97" width="14.3" height="5.79" rx="2"/><rect class="cls-5" x="28.62" y="10.88" width="49.87" height="78.98" rx="3"/><rect class="cls-6" x="30.15" y="12.07" width="46.65" height="76.43" rx="2"/><path class="cls-7" d="M76.79,64.5v22a2,2,0,0,1-2,2H32.15a2,2,0,0,1-2-2v-22"/><rect class="cls-4" x="47.94" y="54.97" width="11.74" height="5.45" rx="2"/><path class="cls-4" d="M64.35,41.24A8.89,8.89,0,0,1,62,45.84c-2.31,2.38-6.3,2.55-6.3,2.55A6.19,6.19,0,0,0,57,45.27a2.91,2.91,0,0,0-1.85-3.13c-1.52-.57-3-.51-4,.76A4.57,4.57,0,0,0,50.15,45a4.07,4.07,0,0,0,.76,2.87,14.3,14.3,0,0,1-3.71-.76,6.87,6.87,0,0,1-3.78-3.49,5.64,5.64,0,0,1,1.19-5.45c.66-.71,3.12-3,4.59-4.51a5.57,5.57,0,0,0,1.92-4.41,15.75,15.75,0,0,0-1.63-6.06,22.34,22.34,0,0,1,7.37,4,25.54,25.54,0,0,1,5.49,6.28A10.68,10.68,0,0,1,64.35,41.24Z"/><g id="Layer_19" data-name="Layer 19"><path class="cls-4" d="M59.86,78.25s-.55,1-.79,1.56a3.13,3.13,0,0,0-.4,1.6,1.32,1.32,0,0,0,1,1.29,1.4,1.4,0,0,0,1.54-1,2.56,2.56,0,0,0-.26-1.6A10.34,10.34,0,0,0,59.86,78.25Z"/><path class="cls-4" d="M47.94,76l5.17-2.11s0-1.24.44-1.46c2-1.09,6.32-1.41,6.32-1.41V69.43L54.64,70l-1.41.24a53.64,53.64,0,0,0-6,1.5C47.47,73.15,47.7,74.57,47.94,76Z"/><path class="cls-4" d="M47.94,76.89a23.65,23.65,0,0,1,6.25-2.17c5.22-1.22,7.15-.89,7.15-.89l.13,2.43s-4,.57-6,2c-1.57,1.08-2.07,5.11-2.07,5.11H48.7a17.16,17.16,0,0,0,.13-3.25A10,10,0,0,0,47.94,76.89Z"/></g></g></g></g></svg>