<svg xmlns="http://www.w3.org/2000/svg" viewBox="0 0 107.77 107.77"><defs><style>.cls-1{fill:#f7f7f7;}.cls-2{fill:#837d76;}.cls-3{fill:none;stroke:#008dd1;stroke-miterlimit:10;stroke-width:4px;}.cls-4{fill:#4b4339;}.cls-5{fill:#bcb9b4;}.cls-6{fill:#ebe5dd;}.cls-7{fill:#ccc7c0;}</style></defs><g id="Layer_2" data-name="Layer 2"><g id="chaudiere"><g id="Layer_6" data-name="Layer 6"><rect class="cls-1" width="107.77" height="107.77" rx="10"/></g><g id="Layer_9" data-name="Layer 9"><g id="Layer_50" data-name="Layer 50"><path class="cls-2" d="M43.82,99a2.73,2.73,0,1,1-5.44,0V89a2.73,2.73,0,1,1,5.44,0Z"/><path class="cls-3" d="M43.82,99a2.73,2.73,0,1,1-5.44,0V89a2.73,2.73,0,1,1,5.44,0Z"/><path class="cls-2" d="M69,99a2.73,2.73,0,1,1-5.44,0V89A2.73,2.73,0,1,1,69,89Z"/><path class="cls-3" d="M69,99a2.73,2.73,0,1,1-5.44,0V89A2.73,2.73,0,1,1,69,89Z"/><rect class="cls-4" x="33.95" y="86.63" width="13.96" height="5.79" rx="2"/><rect class="cls-3" x="33.95" y="86.63" width="13.96" height="5.79" rx="2"/><rect class="cls-4" x="58.97" y="86.63" width="14.3" height="5.79" rx="2"/><rect class="cls-3" x="58.97" y="86.63" width="14.3" height="5.79" rx="2"/><rect class="cls-5" x="28.5" y="10.88" width="49.87" height="78.98" rx="3"/><rect class="cls-3" x="28.5" y="10.88" width="49.87" height="78.98" rx="3"/></g><path class="cls-2" d="M43.94,99a2.74,2.74,0,1,1-5.45,0V89a2.74,2.74,0,1,1,5.45,0Z"/><path class="cls-2" d="M69.13,99a2.74,2.74,0,1,1-5.45,0V89a2.74,2.74,0,1,1,5.45,0Z"/></g><g id="Layer_8" data-name="Layer 8"><rect class="cls-4" x="34.06" y="86.63" width="13.96" height="5.79" rx="2"/><rect class="cls-4" x="59.09" y="86.63" width="14.3" height="5.79" rx="2"/></g><g id="Layer_7" data-name="Layer 7"><rect class="cls-5" x="28.62" y="10.88" width="49.87" height="78.98" rx="3"/></g><g id="Layer_11" data-name="Layer 11"><rect class="cls-6" x="30.15" y="12.07" width="46.58" height="76.43" rx="2"/><path class="cls-7" d="M76.73,64.5v22a2,2,0,0,1-2,2H32.15a2,2,0,0,1-2-2v-22"/></g><g id="Layer_10" data-name="Layer 10"><rect class="cls-4" x="47.94" y="54.97" width="11.74" height="5.45" rx="2"/></g><g id="Layer_12" data-name="Layer 12"><path class="cls-4" d="M64.35,41.24A8.89,8.89,0,0,1,62,45.84c-2.31,2.38-6.3,2.55-6.3,2.55A6.19,6.19,0,0,0,57,45.27a2.91,2.91,0,0,0-1.85-3.13c-1.52-.57-3-.51-4,.76A4.57,4.57,0,0,0,50.15,45a4.07,4.07,0,0,0,.76,2.87,14.3,14.3,0,0,1-3.71-.76,6.87,6.87,0,0,1-3.78-3.49,5.64,5.64,0,0,1,1.19-5.45c.66-.71,3.12-3,4.59-4.51a5.57,5.57,0,0,0,1.92-4.41,15.75,15.75,0,0,0-1.63-6.06,22.34,22.34,0,0,1,7.37,4,25.54,25.54,0,0,1,5.49,6.28A10.68,10.68,0,0,1,64.35,41.24Z"/></g><g id="Layer_3" data-name="Layer 3"><rect class="cls-4" x="35.19" y="69.65" width="1.79" height="13.79" rx="0.89"/><rect class="cls-4" x="37.64" y="69.65" width="1.79" height="13.79" rx="0.89"/><rect class="cls-4" x="40.19" y="69.65" width="1.79" height="13.79" rx="0.89"/><rect class="cls-4" x="45.17" y="69.65" width="1.79" height="13.79" rx="0.89"/><rect class="cls-4" x="42.68" y="69.65" width="1.79" height="13.79" rx="0.89"/><circle class="cls-4" cx="49.13" cy="71.18" r="1.53"/></g><g id="Layer_14" data-name="Layer 14"><path class="cls-4" d="M60.33,76.89a23.85,23.85,0,0,1,6.25-2.17c5.23-1.22,7.15-.89,7.15-.89l.13,2.43s-4,.57-6,2c-1.56,1.08-2.07,5.11-2.07,5.11H61.09a16.2,16.2,0,0,0,.13-3.25A10,10,0,0,0,60.33,76.89Z"/><path class="cls-4" d="M60.2,76.32l5.17-2.11s0-1.24.45-1.47c2-1.08,6.32-1.4,6.32-1.4v-1.6l-5.24.56-1.41.24a51.87,51.87,0,0,0-6,1.5C59.73,73.47,60,74.89,60.2,76.32Z"/><path class="cls-4" d="M72.87,78.05s-.55,1-.79,1.56a3.09,3.09,0,0,0-.41,1.6,1.33,1.33,0,0,0,1,1.29,1.38,1.38,0,0,0,1.53-1,2.52,2.52,0,0,0-.25-1.61A10.5,10.5,0,0,0,72.87,78.05Z"/></g></g></g></svg>