<svg xmlns="http://www.w3.org/2000/svg" viewBox="0 0 107.77 107.77"><defs><style>.cls-1{fill:#f7f7f7;}.cls-2{fill:#bcb9b4;}.cls-3{fill:none;stroke:#008dd1;stroke-miterlimit:10;stroke-width:4px;}.cls-4{fill:#ebe5dd;}.cls-5{fill:#837d76;}.cls-6{fill:#4b4339;}</style></defs><g id="Layer_2" data-name="Layer 2"><g id="Layer_47" data-name="Layer 47"><g id="regul"><g id="fond"><rect class="cls-1" width="107.77" height="107.77" rx="10"/></g><rect class="cls-2" x="15.76" y="29.83" width="76.26" height="50.21" rx="3"/><rect class="cls-3" x="15.76" y="29.83" width="76.26" height="50.21" rx="3"/><g id="Layer_31" data-name="Layer 31"><rect class="cls-2" x="15.76" y="29.83" width="76.26" height="50.21" rx="3"/><g id="Layer_32" data-name="Layer 32"><rect class="cls-4" x="17.12" y="31.19" width="73.36" height="47.66" rx="2"/></g></g><g id="Layer_33" data-name="Layer 33"><rect class="cls-5" x="23.59" y="38" width="35.4" height="33.87" rx="2"/><rect class="cls-6" x="25.63" y="40.04" width="31.31" height="29.96" rx="2"/></g><g id="Layer_34" data-name="Layer 34"><circle class="cls-6" cx="75.81" cy="58.8" r="3.58"/><rect class="cls-6" x="74.26" y="47.66" width="3.09" height="10.01" rx="0.94"/><rect class="cls-4" x="75.01" y="48.43" width="1.59" height="8.19" rx="0.38"/><circle class="cls-4" cx="75.81" cy="58.8" r="2.81"/><circle class="cls-6" cx="75.81" cy="58.8" r="1.79"/></g><g id="Layer_35" data-name="Layer 35"><polygon class="cls-5" points="80.12 65.77 71.5 65.77 75.81 70.98 80.12 65.77"/><polygon class="cls-5" points="71.76 44.61 79.85 44.61 75.81 39.72 71.76 44.61"/></g></g></g></g></svg>