<?xml version="1.0" encoding="utf-8"?>
<!-- Generator: Adobe Illustrator 22.1.0, SVG Export Plug-In . SVG Version: 6.00 Build 0)  -->
<svg version="1.1" id="Calque_1" xmlns="http://www.w3.org/2000/svg" xmlns:xlink="http://www.w3.org/1999/xlink" x="0px" y="0px"
	 viewBox="0 0 24 24" style="enable-background:new 0 0 24 24;" xml:space="preserve">
<style type="text/css">
	.st0{fill:#969696;}
	.st1{fill:#BFBFBF;}
	.st2{fill:#ACACAC;}
</style>
<g id="Mail">
	<path id="Shape" class="st0" d="M23.4,19.1c-0.5,0.6-1.2,0.9-1.9,0.9h-19c-0.7,0-1.4-0.3-1.9-0.9l9.2-7.6l0.9,0.6
		c0.8,0.5,1.8,0.5,2.6,0l0.9-0.6L23.4,19.1L23.4,19.1z"/>
	<path id="Shape_1_" class="st1" d="M23.6,5.1l-9.3,6.4l-0.9,0.6c-0.8,0.5-1.8,0.5-2.6,0l-0.9-0.6L0.4,5.1C0.9,4.4,1.7,4,2.5,4h19
		C22.3,4,23.1,4.4,23.6,5.1L23.6,5.1z"/>
	<path id="Shape_2_" class="st2" d="M9.7,11.5l-9.2,7.6c-0.4-0.4-0.6-1-0.6-1.6v-11c0-0.5,0.2-1,0.4-1.4L9.7,11.5L9.7,11.5z"/>
	<path id="Shape_3_" class="st2" d="M24,6.5v11c0,0.6-0.2,1.2-0.6,1.6l-9.2-7.6l9.3-6.4C23.8,5.5,24,6,24,6.5L24,6.5z"/>
</g>
</svg>
