<svg xmlns="http://www.w3.org/2000/svg" viewBox="0 0 16.6 17.01"><defs><style>.cls-1{fill:#007ec2;}.cls-2{fill:#e32213;}.cls-3{fill:#b61f34;}.cls-4{fill:#00afa9;}.cls-5{fill:#0069b3;}.cls-6{fill:#009aa3;}.cls-7{fill:#792181;}</style></defs><title>01</title><g id="Calque_2" data-name="Calque 2"><g id="Mode_Isolation" data-name="Mode Isolation"><g id="_01" data-name="01"><path class="cls-1" d="M11.51,4.12A5.12,5.12,0,0,1,16,7.18c.08.23.15.47.22.72.11-3.39-1-6.63-3.38-7.61S7.23.77,4.93,3.07L5.14,3a5.92,5.92,0,0,1,6.37,1.16"/><path class="cls-2" d="M4,9a5.1,5.1,0,0,1,.42-5.39,6.51,6.51,0,0,1,.51-.54C2,4.67-.32,7.22,0,9.8s3.2,4.59,6.34,5.43l-.19-.12A5.9,5.9,0,0,1,4,9"/><path class="cls-3" d="M4,9A6.22,6.22,0,0,1,6.32,5.44a7.12,7.12,0,0,1,5.19-1.32A5.92,5.92,0,0,0,5.14,3l-.21.12a6.51,6.51,0,0,0-.51.54A5.1,5.1,0,0,0,4,9"/><path class="cls-4" d="M16.18,8.13A5.92,5.92,0,0,1,12,13.07a5.11,5.11,0,0,1-4.88,2.34l-.73-.18c2.88,1.79,6.22,2.48,8.28.88S17,11,16.19,7.9c0,.07,0,.15,0,.23"/><path class="cls-5" d="M11.51,4.12a6.18,6.18,0,0,1,1.94,3.8A7.14,7.14,0,0,1,12,13.07a5.92,5.92,0,0,0,4.19-4.94c0-.08,0-.16,0-.23-.07-.25-.14-.49-.22-.72a5.12,5.12,0,0,0-4.46-3.06"/><path class="cls-6" d="M12,13.07a6.18,6.18,0,0,1-4.25-.22A7.17,7.17,0,0,1,4,9a5.9,5.9,0,0,0,2.19,6.1l.19.12.73.18A5.11,5.11,0,0,0,12,13.07"/><path class="cls-7" d="M13.45,7.92a6.18,6.18,0,0,0-1.94-3.8A7.16,7.16,0,0,0,6.32,5.43,6.27,6.27,0,0,0,4,9a7.17,7.17,0,0,0,3.74,3.84,6.18,6.18,0,0,0,4.25.22,7.14,7.14,0,0,0,1.46-5.15"/></g></g></g></svg>