<svg id="Layer_2" data-name="Layer 2" xmlns="http://www.w3.org/2000/svg" viewBox="0 0 78.77 78.77"><defs><style>.cls-1{fill:#307cbc;}.cls-2,.cls-3{fill:#fff;}.cls-2{fill-rule:evenodd;}</style></defs><rect class="cls-1" width="78.77" height="78.77"/><path class="cls-2" d="M55.87,31.18v-.24c5.29-2,8-4.67,8-10.59,0-6.63-6.27-10.69-19.19-10.69l-28.4-.13V54.8H44c18.08,0,21.82-7.13,21.82-12.91A10.59,10.59,0,0,0,55.87,31.18Zm-26-12.9H42.39c5.46,0,6.89,2,6.89,4.55s-1.36,4.8-6.89,4.8H29.84ZM40.43,46.13H29.84V35.49H43.5c5,0,7.13,1.36,7.13,5.18C50.63,44.11,48.54,46.13,40.43,46.13Z" transform="translate(0)"/><rect class="cls-3" x="16.26" y="62.77" width="49.58" height="4.34"/></svg>