<svg xmlns="http://www.w3.org/2000/svg" viewBox="0 0 17.04 17.01"><defs><style>.cls-1{fill:#d7041c;}.cls-2{fill:#063676;}</style></defs><title>02</title><g id="Calque_2" data-name="Calque 2"><g id="Mode_Isolation" data-name="Mode Isolation"><g id="_02" data-name="02"><path class="cls-1" d="M8.52,17A8.49,8.49,0,0,1,5.9.44a8.4,8.4,0,0,1,7.33,1c.17.11.44.19.43.44s-.34.28-.54.36A62.66,62.66,0,0,0,4.89,5.79,11.06,11.06,0,0,0,2.47,7.45c-.81.78-.82,1.36,0,2.13a14.93,14.93,0,0,0,3.77,2.36,71.24,71.24,0,0,0,7,3c.15.06.37.06.38.28s-.17.27-.31.37A8.4,8.4,0,0,1,8.52,17Z"/><path class="cls-2" d="M17,8.73a8.12,8.12,0,0,1-1.6,4.74.82.82,0,0,1-1.24.32,37.43,37.43,0,0,1-5.39-3.42,6.9,6.9,0,0,1-1.1-1.06,1.11,1.11,0,0,1,0-1.57A8.33,8.33,0,0,1,9.31,6.27a39.39,39.39,0,0,1,4.87-3,.8.8,0,0,1,1.24.28A8.4,8.4,0,0,1,17,8.73Z"/></g></g></g></svg>