<svg xmlns="http://www.w3.org/2000/svg" viewBox="0 0 17.01 17.01"><defs><style>.cls-1{fill:#fff;}.cls-2{fill:#253576;}.cls-3{fill:#fab900;}</style></defs><title>04</title><g id="Calque_2" data-name="Calque 2"><g id="Mode_Isolation" data-name="Mode Isolation"><g id="_04" data-name="04"><path class="cls-1" d="M7.66.35A1.15,1.15,0,0,1,8.5,0a1.19,1.19,0,0,1,.85.35l7.31,7.31A1.19,1.19,0,0,1,17,8.5a1.21,1.21,0,0,1-.35.85L9.35,16.66a1.21,1.21,0,0,1-1.69,0L.35,9.35a1.19,1.19,0,0,1,0-1.69Z"/><path class="cls-2" d="M7.93.62a.83.83,0,0,1,1.15,0L16.4,7.93a.83.83,0,0,1,0,1.15l-7.32,7.3a.81.81,0,0,1-1.15,0L.61,9.08a.83.83,0,0,1,0-1.15Z"/><path class="cls-1" d="M11.44,5a4.23,4.23,0,0,1,.63,2.81A3.64,3.64,0,0,0,5.93,5.93a3.6,3.6,0,0,0-1,3.28L2.43,6.72h0c-.18-.18,0-.62,0-.62l-1,1s.37-.14.56,0l4,4a3.65,3.65,0,0,0,5.15,0c1.25-1.25,2.37-3.44,5-3.44Z"/><path class="cls-3" d="M10.65,6.36a3,3,0,1,1-4.29,0,3,3,0,0,1,4.29,0"/></g></g></g></svg>