<svg id="Layer_2" data-name="Layer 2" xmlns="http://www.w3.org/2000/svg" viewBox="0 0 78.77 78.77"><defs><style>.cls-1{fill:#fff;}.cls-2{fill:#010101;}</style></defs><rect class="cls-1" width="78.77" height="78.77"/><path class="cls-2" d="M36.76,2.57C35.48,4,31.52,6.1,28.21,7.38,17.72,11.12,8.74,21,6.39,31.13a14.83,14.83,0,0,1-3.53,5.56L.08,39.58l3.31,3.74c1.82,2.14,3.32,4.6,3.32,5.67,0,3.21,6.2,12.62,10.8,16.58a49.7,49.7,0,0,0,11.87,6.74c4.18,1.6,7.81,3.74,8.45,4.92,1.18,2.14,1.18,2.14,4-.54a30.9,30.9,0,0,1,8.88-4.92C61.26,67.81,68,61,72.17,50A32.42,32.42,0,0,1,76.45,42l2.24-2.36-2.78-3.31a23.36,23.36,0,0,1-4-7.28C70.67,24,64.79,15.72,60.19,12.3a51.84,51.84,0,0,0-9.52-4.92C47.35,6.2,43.4,4.06,41.9,2.57L39.22,0Zm-.32,12.62-.32,3.53L28.21,19c-7.38.32-7.81.21-6.42-1.5,1.92-2.35,9.31-5.67,12.51-5.77C36.44,11.77,36.76,12.19,36.44,15.19Zm16.05-.64c3.1,1.49,5.56,3.21,5.56,3.74s-3.32,1-7.7.75l-7.81-.32-.32-3.53c-.32-3,0-3.42,2.14-3.42C45.75,11.77,49.39,13.05,52.49,14.55Zm-29,12.08c-4.71,8.77-5.13,18-1,23.64A16.81,16.81,0,0,1,24.89,54c0,.32-2.14.53-4.81.53-4.28,0-4.92-.32-6.63-3.53-2.57-4.6-2.57-18.18-.11-22.68,1.6-3,2.14-3.2,6.2-2.88C21.9,25.67,23.71,26.21,23.5,26.63Zm24.6,1.29c5.88,5.56,7.28,12.73,3.53,18.82-2.78,4.6-6.52,6.85-11.44,6.95-15.3.22-20.54-18.18-7.81-26.74C37.08,23.75,44,24.17,48.1,27.92Zm18.08,1.71c2.24,5.24,1.71,18.07-1,22-1.61,2.46-2.68,2.89-6.64,2.89h-4.7L56.44,50c3.43-5.77,3.53-14,.54-20l-2.14-4.28h4.81C64.36,25.67,64.68,25.88,66.18,29.63ZM58.05,60.86c0,.54-2.78,2.35-6.1,4.07a27.56,27.56,0,0,1-24.06.42c-10.38-5-9.42-5.45,11.33-5.45C50,59.9,58.05,60.33,58.05,60.86Z"/><path class="cls-2" d="M35.59,35.3c-1.18,1.17-2.14,2.78-2.14,3.53,0,2.56,3.31,6.09,5.88,6.09,5.56,0,7.92-7,3.53-10.05C39.65,32.62,38.15,32.73,35.59,35.3Z"/></svg>