<svg xmlns="http://www.w3.org/2000/svg" viewBox="0 0 364.26 374"><defs><style>.cls-1{fill:#fff;}.cls-2{fill:#16a896;}</style></defs><g id="Layer_2" data-name="Layer 2"><rect class="cls-1" width="364.26" height="374"/></g><g id="Layer_1" data-name="Layer 1"><g id="Layer_3" data-name="Layer 3"><path class="cls-2" d="M0,0V374H364.26V0ZM179.74,50.47c48.69.34,85.47,24.59,97.17,33.27,6.55,4.85,9,11,5.64,16.77-1.44,2.46-9.87,2.38-16-2-17.37-12.55-55-29.76-82.72-34.73-50-9-112.34,39.15-112.34,39.15S114.26,50,179.74,50.47ZM77.28,207.11c-7-10.12-14.4-9.18-27.92-20.43-6.19-5.16-10.91-9.17-14-16.34A33.24,33.24,0,0,1,34,147.53c3.45-10.83,11.87-16.33,15.66-18.72,15.33-9.68,48,.34,48,.34v18.39H199.49l18.38,35.85,27.92-55.94h18.38l-37.11,74.21.34,40.53H200.85l-1.36-43.59-18.55-37.45-83.24,1.7V147.54s-14.53-7.61-30-5.11c-2.74.44-7.61,1.3-9.87,5.1-3.29,5.56,1.47,13.25,1.7,13.62,4.3,6.74,16.5,12.64,24.86,17,1.12.59,9.87,5.22,16,18,5.68,11.89,3.19,29.69-7.15,38.81-3.37,3-6.72,4.06-13.28,6.13-8,2.52-46.3-.34-46.3-.34l.34-18s5.71,2.55,20.77,2c8.85-.3,20,.33,23.15-5.11C80.79,214.8,78.83,209.33,77.28,207.11ZM159,169.66v72.53H133.79v-65ZM181,325.4c-59.19-.4-102.77-30.48-117-40.16-8-5.41-11-12.24-6.85-18.69,1.75-2.74,12-2.66,19.43,2.27,21.11,14,67.28,39,101.18,42.8,63.82,7.14,135.75-47.73,135.75-47.73s-53,62-132.57,61.51Zm150.29-83.21h-29l-14-28.28L274,242.19H256.3l23.15-46.69-25.94-46.81h29.68l9.54,21,20.42-42.21h18l-27.91,57.37Z"/></g></g></svg>