<svg id="Layer_2" data-name="Layer 2" xmlns="http://www.w3.org/2000/svg" viewBox="0 0 78.77 78.77"><defs><style>.cls-1{fill:#fff;}.cls-2{fill:#00967c;}.cls-2,.cls-3{fill-rule:evenodd;}.cls-3{fill:#1b1918;}</style></defs><rect class="cls-1" width="78.77" height="78.77"/><g id="Calque_2" data-name="Calque 2"><g id="Mode_Isolation" data-name="Mode Isolation"><g id="_09" data-name=" 09"><path class="cls-2" d="M15.31.32H62.47A6.87,6.87,0,0,1,69.34,7.2V71.8a6.87,6.87,0,0,1-6.78,7H15.31a6.88,6.88,0,0,1-6.88-6.83V7.34a6.89,6.89,0,0,1,6.74-7ZM38.89,8.17a18,18,0,0,1,12,4.84C54.48,8.63,59,3.78,65,3.78,67.31,10.24,62,18,58.13,23a44.15,44.15,0,0,1,3.69,18c0,18.18-10.29,32.9-23.07,32.9S15.68,59.11,15.68,40.93a44.11,44.11,0,0,1,4-17.54h0C15.77,17.9,10.6,10.66,12.77,4c6.14,0,10.61,4.61,14.12,9.23a18.09,18.09,0,0,1,12-4.62Z"/><path class="cls-3" d="M50,28.33c4.62-3.92,11.95-14.9,12.09-19.66C57.44,10,50.65,23.9,50,28.33ZM41.84,44.71h.55A8.73,8.73,0,0,1,47,35.48l-.28-.6a9,9,0,0,0-4.61,9.7Zm2-.27c1.8,1.06,5.76-6.51,3.92-7.48S42,43.38,43.83,44.44Zm-3.56,5.63a5.69,5.69,0,0,1,1.85,4.61c0,.65-.92.51-1.57.65a.65.65,0,0,0-.65.41,6.52,6.52,0,0,0,0,2.49c0,.47.56.47.74,1.16A1.76,1.76,0,0,0,42.54,61l.18,0a4.33,4.33,0,0,0,4.6-4.05,1.93,1.93,0,0,0,0-.24c0-2.5-1.24-3.74-3.27-4.62,2.16-2.44,11.16-15,3.78-19.38C40.46,36,40.73,40.33,40.27,50.07ZM41.2,63a2.36,2.36,0,0,0-2.31-2.49c-1.48,0-2.12,1.24-2.31,2.49Zm8-4h9L58.59,58H47.47V57H59.19l.32-.92H48.67V55.05h11l.42-1.29h-8a13.05,13.05,0,0,0-.28-11.68,12.61,12.61,0,0,0-1.57-12.46C54.85,27.18,66.9,11.17,64.08,5,57.21,4.61,46.64,19.1,44.61,25.19a18.19,18.19,0,0,0-11.44,0c-2-6.09-12.6-20.58-19.66-20.25C10.88,11.3,23,27.13,27.35,29.58A12.61,12.61,0,0,0,25.78,42a13,13,0,0,0-.27,11.67H17.66L18.08,55h11v1.07H18.49l.32.92H30.3v.92H19.18L19.65,59h9c3.27,0,4.61,6.74,10.29,6.74S45.9,59,49.18,59ZM27.81,28.33C23.2,24.41,15.86,13.43,15.72,8.67,20.34,10,27.12,23.9,27.81,28.33Zm8.31,16.38h-.74a8.74,8.74,0,0,0-4.61-9.23l.27-.6a9,9,0,0,1,4.62,9.7Zm-2-.27c-1.79,1.06-5.76-6.51-3.92-7.48S35.93,43.38,34.13,44.44Zm3.56,5.63a5.69,5.69,0,0,0-1.85,4.61c0,.65.93.51,1.57.65a.65.65,0,0,1,.65.41,6.52,6.52,0,0,1,0,2.49c0,.47-.56.47-.74,1.16A1.76,1.76,0,0,1,35.42,61l-.18,0a4.33,4.33,0,0,1-4.6-4.05,1.93,1.93,0,0,1,0-.24c-.23-2.5,1.24-3.74,3.27-4.62-2.12-2.72-11.07-15.27-3.73-19.43,7.15,3.6,7.1,7.94,7.33,17.68Z"/></g></g></g></svg>