<?xml version="1.0" encoding="utf-8"?>
<!-- Generator: Adobe Illustrator 25.0.1, SVG Export Plug-In . SVG Version: 6.00 Build 0)  -->
<svg version="1.1" id="Calque_1" xmlns="http://www.w3.org/2000/svg" xmlns:xlink="http://www.w3.org/1999/xlink" x="0px" y="0px"
	 viewBox="0 0 498 113" style="enable-background:new 0 0 498 113;" xml:space="preserve">
<style type="text/css">
	.st0{fill-rule:evenodd;clip-rule:evenodd;fill:#9D2932;}
	.st1{fill-rule:evenodd;clip-rule:evenodd;fill:#FEFEFE;}
</style>
<desc>Created with Sketch.</desc>
<g id="LOGO-COMPLETE">
	<g id="Group-50">
		<polygon id="Fill-1" class="st0" points="0,113 498,113 498,0 0,0 		"/>
		<polygon id="Fill-2" class="st1" points="241,57 241,97 250,97 250,57 249.1,57 		"/>
		<g id="Group-49" transform="translate(0.000000, 29.000000)">
			<path id="Fill-3" class="st1" d="M84.2,60.2h-46V29.6C40.6,27.5,56.3,13.4,61,9.2c4.7,4.1,20.7,18.2,23.2,20.4V60.2z M63.9,1.3
				c-1.7-1.5-4.3-1.5-6,0l-26,23.3c-0.9,0.8-1.5,2-1.5,3.3v35.2c0,2.5,2,4.5,4.5,4.5h52.5c2.5,0,4.5-2,4.5-4.5V28
				c0-1.3-0.6-2.5-1.5-3.3L63.9,1.3z"/>
			<path id="Fill-5" class="st1" d="M50.5,49.5h21.2v-14c-1.2-1-8.5-7.5-10.7-9.4c-2.1,1.9-9.4,8.4-10.5,9.4V49.5z"/>
			<polygon id="Fill-7" class="st1" points="312.2,35.6 329.3,35.6 329.3,67.4 338.6,67.4 338.6,35.6 355.2,35.6 355.2,27.1 
				312.2,27.1 			"/>
			<path id="Fill-9" class="st1" d="M455.7,27.1v28.6l-25.6-26.1c-2.3-2.4-4.9-3.3-7.9-2.9c-2.7,0.4-4.4,2.6-4.4,5.5v35.2h9.1V38.8
				l25.2,25.7c2.6,2.7,5,3.8,7.7,3.4c4.5-0.6,5-3.9,5-6.3V27.1H455.7z"/>
			<path id="Fill-11" class="st1" d="M384.6,59.4c-9.9,0-15.1-0.5-15.1-12.2c0-11.6,5.2-12.2,15.1-12.2c9.9,0,15.1,0.5,15.1,12.2
				C399.7,58.9,394.5,59.4,384.6,59.4 M384.6,26.3c-16,0-24.9,3.4-24.9,20.9c0,17.5,8.9,20.9,24.9,20.9c16,0,24.9-3.4,24.9-20.9
				C409.5,29.7,400.6,26.3,384.6,26.3"/>
			<path id="Fill-13" class="st1" d="M213.3,45.1h-18.8v-9.7h18.7c5.5,0,6.2,2.5,6.2,4.8C219.5,42.6,218.8,45.1,213.3,45.1
				 M228.8,40.3c0-8.1-5.4-13.2-14.2-13.2h-29.2v40.3h9.2V53h14.8l10.3,14.4h10.7l-10.7-15.3C225.5,50.7,228.8,46.3,228.8,40.3"/>
			<path id="Fill-15" class="st1" d="M287.2,42.1h-8.2c-7,0-8.5-1.3-8.5-3.8c0-3,4.7-4.2,11.3-4.2c5.8,0,11.3,1,17.7,3.9l4.9-6.8
				c-7-4.2-13.9-5.7-22.5-5.7c-13.3,0-21.2,4.9-21.2,13.2c0,9,7.5,12.1,17.2,12h9c8.9,0,10.1,1,10.1,4.4c0,3.3-4.9,5.4-12.8,5.4
				c-7,0-14.1-1.4-20.4-5.5c0,0-5,7-5,7c6.7,5.2,14.9,7,25.3,7c14.5,0,22.9-5.2,22.9-14.3C307.1,46.3,300.4,42.1,287.2,42.1"/>
			<path id="Fill-17" class="st1" d="M142,52.6c0,0,8.7-14.5,9.1-15.1h0c0.3,0.5,4.7,7.8,9.1,15.1H142z M151.1,25.9
				c-1.9,0-3.7,0.9-4.6,2.3l-24.2,39.2h10.9l4.4-7.4h27l4.4,7.4h10.9l-24.2-39.2C154.8,26.8,153,25.9,151.1,25.9L151.1,25.9z"/>
		</g>
	</g>
</g>
</svg>
