<?xml version="1.0" encoding="utf-8"?>
<!-- Generator: Adobe Illustrator 25.0.1, SVG Export Plug-In . SVG Version: 6.00 Build 0)  -->
<svg version="1.1" id="Calque_1" xmlns="http://www.w3.org/2000/svg" xmlns:xlink="http://www.w3.org/1999/xlink" x="0px" y="0px"
	 viewBox="0 0 283.5 52.5" style="enable-background:new 0 0 283.5 52.5;" xml:space="preserve">
<style type="text/css">
	.st0{fill:#E6362A;}
</style>
<rect x="224.8" y="14.5" class="st0" width="11.6" height="37.1"/>
<path class="st0" d="M71.7,51.7c0.5,0,1.1,0,1.6,0v-8c-0.4,0-0.7,0-1,0c-1.8,0-3.7,0-5.5,0c-2.3-0.1-3.3-1.3-3.3-3.6
	c0-5.6,0-11.1,0-16.7c0-0.3,0-0.6,0-1c1.4,0,2.7,0,4,0c1.7,0,3.4-0.4,4.4-1.9c1.2-1.8,1.4-3.9,1.4-6.1h-9.9V8.9H52.1v1
	c0,10.2,0,20.5,0,30.7c0,1.1,0.1,2.3,0.4,3.3c1,4.2,4.1,6.3,8.1,7.2C64.2,52,68,51.7,71.7,51.7"/>
<path class="st0" d="M90.5,50.6c0-16.3,0-32.6,0-48.9v-1H78.8v50.9c0.3,0,0.6,0,0.9,0c3.2,0,6.5,0,9.7,0
	C90.3,51.7,90.5,51.5,90.5,50.6"/>
<path class="st0" d="M191.9,51c0-8,0.1-16-0.1-24c-0.1-5-2.6-8.8-7.3-10.9c-2.8-1.2-5.7-1.7-8.7-1.8c-4.3-0.1-8.5-0.2-12.7,0.6
	c-1.4,0.3-2.9,0.7-4.3,1c0-0.4-0.1-0.9-0.1-1.4c-2.8,0-5.5,0-8.1,0.9c-2.1,0.8-2.8,1.9-2.8,4.1c0,10.4,0,20.7,0,31.1v1.1h11.7v-1.1
	c0-7.7,0.1-15.5-0.1-23.2c0-2,0.7-2.8,2.3-3.4c3.9-1.6,8-1.9,12.2-1.5c4.2,0.4,6.4,2.2,6.3,7.3c-0.2,7,0,14-0.1,21c0,0.8,0.2,1,1,1
	c2.8,0,5.5,0,8.3,0h2.3C191.8,51.4,191.9,51.2,191.9,51"/>
<path class="st0" d="M217.7,20.8c1.5-1.8,1.5-4.1,1.6-6.3h-10V8.9h-11.3c0,0.2,0,0.4,0,0.5c0,10.7,0,21.4,0,32.1
	c0,1.6,0.4,3.2,1.2,4.6c1.8,3.3,4.8,4.8,8.2,5.2c3.3,0.4,6.6,0.3,9.9,0.4c0.7,0,1.3,0,1.9,0v-8c-0.4,0-0.7,0-1.1,0
	c-1.8,0-3.7,0-5.5,0c-2.3-0.1-3.4-1.3-3.4-3.5c0-5.6,0-11.1,0-16.7v-1c1.4,0,2.8,0,4.1,0C215.1,22.4,216.6,22.1,217.7,20.8"/>
<path class="st0" d="M236.2,3.2c-2.5-3.2-8.7-3.3-11.3-0.1c-1.2,1.5-1.2,3.3,0,4.8c1.4,1.8,3.4,2.3,5.6,2.4c1.9,0,3.6-0.6,4.9-1.6
	C237.2,7.2,237.5,4.9,236.2,3.2"/>
<path class="st0" d="M256.1,40.1c-2.3-2.4-2.8-5.3-2.6-8.4c0.1-2.5,1-4.7,3-6.2c1.3-1,2.9-1.7,4.4-2.2c4.9-1.5,9.9-1.3,14.8-0.9
	c1.5,0.1,3.1,0.3,4.7,0.5V15c-0.8-0.1-1.6-0.3-2.5-0.3c-4.9-0.5-9.8-0.6-14.7-0.2c-3.8,0.3-7.5,1-11,2.4c-4.1,1.7-7.4,4.3-9.2,8.4
	c-1.3,3-1.5,6.1-1.3,9.3c0.2,2.8,0.9,5.4,2.4,7.9c2.3,3.8,5.8,6.1,9.9,7.5c7.6,2.5,15.4,2.7,23.2,1.4c4.7-0.8,6.8-4,6-8.4
	c-2.3,0.3-4.7,0.7-7,0.9c-4.4,0.5-8.7,0.6-13.1-0.2C260.5,43,258,42.1,256.1,40.1"/>
<path class="st0" d="M141.6,23.8c0-2.7-1.1-4.8-3.4-6.3c-1.2-0.7-2.5-1.4-3.8-1.8c-4.2-1.3-8.5-1.7-12.8-1.6
	c-4.5,0.1-8.9,0.5-13.2,1.9c-3.7,1.2-7,2.9-9.4,6c-2.8,3.5-3.4,7.5-3.2,11.9c0.3,6.1,2.9,10.9,8.2,14c6.7,3.8,14,4.7,21.5,3.7
	c1.7-0.2,3.4-0.8,5.1-1.2c0,0.4,0.1,0.8,0.1,1.2c1.7,0.3,7-0.2,8.6-1c1.5-0.8,2.3-1.9,2.3-3.7C141.6,39.2,141.6,31.5,141.6,23.8z
	 M129.1,42.3c-3.1,1.6-6.4,1.9-9.8,1.5c-2.1-0.3-4.3-0.8-6.2-1.6c-3.5-1.5-5.3-4.4-5.6-8.2c-0.3-2.9,0.2-5.6,2.3-7.9
	c1.7-1.8,3.9-2.8,6.3-3.3c3.9-0.9,7.9-0.9,11.9-0.1c0.3,0.1,0.6,0.2,0.9,0.3c0.8,0.3,1.1,0.8,1,1.6c0,2.7,0,5.5,0,8.2
	c0,2.7,0,5.5,0,8.2C129.9,41.7,129.7,42,129.1,42.3z"/>
<path class="st0" d="M45.9,23.6c0-0.4,0-0.8-0.1-1.2c-0.5-3-2.5-4.8-5.1-5.9c-3.4-1.5-7-2-10.7-2.2c-3-0.1-6,0-9,0.2
	c-3.9,0.3-7.6,1.1-11.2,2.7c-4.4,2-7.6,5-9,9.7c-0.8,2.8-0.9,5.6-0.6,8.5c0.5,4.8,2.6,8.8,6.6,11.6c7,4.8,14.8,5.6,23,4.7
	c1.7-0.2,3.4-0.8,5.1-1.2c0,0.4,0.1,0.8,0.1,1.2c1,0,2,0,2.9,0c1.9-0.1,3.8-0.2,5.6-1c1.6-0.7,2.4-1.8,2.4-3.6
	C45.9,39.2,45.9,31.4,45.9,23.6z M33.5,42.3c-2.1,1.1-4.4,1.6-6.8,1.6c-2.9,0.1-5.6-0.3-8.3-1.3c-4.2-1.6-6.6-5-6.7-9.5
	c-0.1-5,2-8.1,6.7-9.8c4.5-1.6,9.1-1.6,13.8-0.7c1.7,0.4,2,0.8,2,2.5v7.7c0,2.7,0,5.4,0,8.1C34.2,41.6,34,42,33.5,42.3z"/>
</svg>
