<?xml version="1.0" encoding="utf-8"?>
<!-- Generator: Adobe Illustrator 25.0.1, SVG Export Plug-In . SVG Version: 6.00 Build 0)  -->
<svg version="1.1" id="Calque_1" xmlns="http://www.w3.org/2000/svg" xmlns:xlink="http://www.w3.org/1999/xlink" x="0px" y="0px"
	 viewBox="0 0 2500 744.9" style="enable-background:new 0 0 2500 744.9;" xml:space="preserve">
<style type="text/css">
	.st0{fill-rule:evenodd;clip-rule:evenodd;fill:#FFFFFF;}
	.st1{fill-rule:evenodd;clip-rule:evenodd;}
	.st2{fill-rule:evenodd;clip-rule:evenodd;fill:#CC2229;}
</style>
<g>
	<path class="st0" d="M0,0h2500v744.9H0V0z"/>
	<path class="st1" d="M2157.3,57.1c167.9,0,305.9,136.7,305.9,304.6c0,167.9-138,304.6-305.9,304.6
		c-167.9,0-304.6-136.7-304.6-304.6C1852.7,193.8,1989.4,57.1,2157.3,57.1L2157.3,57.1z"/>
	<path class="st2" d="M36.8,433.3h1743.1v32.6H36.8V433.3z M2215.9,184.6c119.8,0,218.7,97.6,218.7,216.1
		c0,119.8-98.9,217.4-218.7,217.4c-119.8,0-217.4-97.6-217.4-217.4C1998.5,282.3,2096.1,184.6,2215.9,184.6L2215.9,184.6z"/>
	<path class="st1" d="M1874.8,409.9h566.3l-18.2,92.4h-529.8L1874.8,409.9z"/>
	<path class="st0" d="M2347.4,490.6l-1.3-59.9h71.6V445h-40.3v7.8h40.3v14.3h-40.3v10.4h40.3v13L2347.4,490.6L2347.4,490.6z
		 M2244.5,464.5h36.5c-1.3,19.5,13,18.2,13,11.7v-32.6h-32.5v-13h74.2v46.9c0,6.5-3.9,13-10.4,15.6c-5.2,1.3-14.3,2.6-24.7,3.9
		c-20.8,1.3-52.1,0-56-11.7L2244.5,464.5L2244.5,464.5z M2196.4,490.6l-1.3-46.9h-18.2v-13h71.6v13h-16.9v46.9H2196.4L2196.4,490.6z
		 M1956.9,490.6h-56v-59.9h52.1c52.1-2.6,35.2,29.9,24.7,31.2C1988.1,464.5,2001.1,490.6,1956.9,490.6z"/>
	<path class="st1" d="M1937.3,455.4c2.6,0,14.3,0,14.3-5.2c0-6.5-10.4-5.2-14.3-5.2V455.4z M1937.3,468.4v11.7h3.9
		c3.9,0,11.7,0,11.7-5.2c0-2.6-1.3-3.9-2.6-5.2c-1.3,0-5.2-1.3-7.8-1.3H1937.3L1937.3,468.4z"/>
	<path class="st0" d="M1999.8,430.7l52.1,1.3c10.4,0,33.8,0,31.2,22.1c-1.3,10.4-7.8,14.3-15.6,14.3l14.3,22.1h-37.7l-9.1-22.1
		l-2.6-1.3v23.4h-32.6L1999.8,430.7L1999.8,430.7L1999.8,430.7z"/>
	<path class="st1" d="M2032.3,442.4v13h9.1c1.3,0,3.9,0,5.2-1.3c0-1.3,1.3-2.6,1.3-3.9c0-2.6-1.3-3.9-1.3-5.2
		c-1.8-1.6-4.1-2.5-6.5-2.6H2032.3z"/>
	<path class="st0" d="M2109.2,430.7h43c13,0,22.1,10.4,22.1,22.1v15.6c0,11.7-9.1,22.1-22.1,22.1h-43c-11.7,0-22.1-10.4-22.1-22.1
		v-15.6C2087,441.1,2097.5,430.7,2109.2,430.7z"/>
	<path class="st1" d="M2122.2,463.2c0,6.5,1.3,11.7,2.6,14.3c1.3,1.3,3.9,2.6,6.5,2.6c3.9,0,5.2-1.3,6.5-2.6
		c2.6-2.6,3.9-7.8,3.9-14.3c0-5.2-1.3-10.4-2.6-13c-1.3-2.6-3.9-5.2-7.8-5.2c-2.7,0-5.3,1.5-6.5,3.9
		C2123.5,451.5,2122.2,456.7,2122.2,463.2L2122.2,463.2z"/>
	<path class="st0" d="M2094.9,416.4h32.5v7.8h-32.5V416.4z M2135.2,416.4h32.5v7.8h-32.5V416.4z"/>
	<path class="st1" d="M1779.8,593.4c0,9.1-1.3,16.9-2.6,20.8c-2.6,9.1-7.8,14.3-15.6,18.2c-5.1,3.3-10.9,5.1-16.9,5.2
		c-6.5,1.3-14.3,3.9-23.4,3.9h-32.5c-22.1,0-37.8-1.3-48.2-2.6c-9.1-1.3-16.9-5.2-23.4-9.1c-11.7-6.5-18.2-20.8-18.2-39.1v-36.5
		c0-11.7,1.3-20.8,3.9-27.3s7.8-13,13-18.2c7.8-3.9,19.5-7.8,35.1-10.4c9.1,0,23.4-1.3,39.1-1.3h15.6c13,0,22.1,0,28.6,1.3
		c11.7,0,20.8,3.9,27.3,6.5c5.2,2.6,9.1,7.8,13,11.7c3.9,5.2,5.2,13,5.2,20.8v3.9h-40.3c0-3.9,0-7.8-1.3-10.4l-6.5-6.5
		c-2.6-1.3-7.8-3.9-13-3.9h-26c-23.4,0-40.3,1.3-45.6,5.2c-2.6,1.3-5.2,5.2-6.5,9.1c-1.3,2.6-1.3,9.1-1.3,16.9v35.2
		c0,13,1.3,22.1,6.5,26c2.6,1.3,6.5,2.6,9.1,3.9c3.9,0,9.1,1.3,11.7,1.3h37.7c6.5,0,13,0,15.6-1.3c3.9,0,7.8-1.3,11.7-3.9
		c3.9-1.3,5.2-3.9,6.5-7.8c1.3-3.9,1.3-9.1,1.3-14.3v-5.2h-53.4v-20.8h93.7L1779.8,593.4L1779.8,593.4L1779.8,593.4z M1302.1,497.1
		h63.8l84.6,121.1h2.6l-3.9-121.1h39.1v144.5h-65.1l-83.3-121.1h-2.6l2.6,59.9l1.3,61.2h-39.1L1302.1,497.1L1302.1,497.1
		L1302.1,497.1z M1101.6,618.1h29.9c5.2-1.3,10.4-2.6,13-5.2c3.9-1.3,6.5-2.6,6.5-5.2c1.3-2.6,1.3-6.5,1.3-11.7v-98.9h41.6v102.9
		c0,15.6-6.5,26-18.2,33.8c-7.8,2.6-20.8,6.5-36.4,7.8h-74.2c-10.4-1.3-19.5-3.9-27.3-6.5s-14.3-7.8-16.9-13
		c-3.9-6.5-6.5-14.3-6.5-22.1V497.1h41.7v104.1c0,6.5,2.6,10.4,7.8,13c3.9,1.3,9.1,3.9,14.3,3.9L1101.6,618.1L1101.6,618.1
		L1101.6,618.1z M741,497.1h160.1v23.4l-115.9,97.6h117.2v23.4H735.8v-23.4l114.5-97.6H741V497.1z M590,498.4h28.7v145.8H590
		L590,498.4L590,498.4L590,498.4z M328.4,641.6V497.1H465v23.4h-97.6V557h93.7v23.4h-93.7v37.7h98.9v23.4L328.4,641.6L328.4,641.6
		L328.4,641.6z M42,498.4h40.4v59.9h95v-59.9h39.1v145.8h-39.1v-63.8h-95v63.8H42V498.4z M1541.6,387.7l-1.3-199.2h239.5v44.3
		h-136.7v29.9h136.7v45.6h-136.7v33.8h136.7v44.3L1541.6,387.7L1541.6,387.7z M1200.5,299.2H1319c-3.9,67.7,44.3,61.2,44.3,40.4
		V231.5l-109.3,1.3v-44.3h248.6v154.9c0,20.8-13,43-36.5,52.1c-15.6,6.5-45.6,9.1-78.1,11.7c-72.9,5.2-175.7,0-187.5-39.1
		L1200.5,299.2L1200.5,299.2L1200.5,299.2z M1036.5,387.7l-1.3-154.9h-62.5v-44.3h240.8v44.3h-57.3v153.6L1036.5,387.7L1036.5,387.7
		z M235.9,386.4H48.5V189.8h174.4c175.7-10.4,117.2,97.6,83.3,101.5C341.4,303.1,385.6,386.4,235.9,386.4L235.9,386.4z M168.2,269.3
		c11.7,0,49.5,1.3,49.5-18.2c0-19.5-36.5-16.9-49.5-18.2V269.3L168.2,269.3z M168.2,312.2v40.4h16.9c10.4,0,37.8-2.6,37.8-19.5
		c0-5.2-3.9-10.4-10.4-14.3c-5.2-2.6-16.9-6.5-26-6.5L168.2,312.2L168.2,312.2z M377.8,188.6h175.7c36.4,0,112,1.3,104.1,75.5
		c-3.9,33.8-26,48.2-50.8,46.9l46.9,76.8h-125L495,310.9h-9.1v75.5l-108.1,1.3L377.8,188.6L377.8,188.6L377.8,188.6z M487.2,227.6
		v41.7h31.2c6.5,0,13-1.3,16.9-5.2c2.6-3.9,6.5-9.1,6.5-14.3s-3.9-11.7-6.5-14.3c-3.9-5.2-10.4-7.8-18.2-7.8L487.2,227.6
		L487.2,227.6z M760.5,188.6h115.9c49.5,0,88.5,44.3,88.5,97.6v23.4c0,52.1-39.1,96.3-88.5,96.3H760.5c-49.5,0-89.8-44.3-89.8-96.3
		v-23.4C670.7,232.8,711.1,188.6,760.5,188.6L760.5,188.6z M790.5,301.8c0,22.1,2.6,39.1,9.1,49.5c6.5,6.5,13,10.4,23.4,10.4
		c9.1,0,16.9-3.9,20.8-10.4c7.8-10.4,10.4-27.3,10.4-49.5c0-19.5-2.6-35.1-7.8-45.6c-5.2-11.7-13-16.9-23.4-16.9
		c-10.4,0-16.9,3.9-23.4,11.7c-6.5,10.4-10.4,28.6-10.4,52.1L790.5,301.8L790.5,301.8z M696.8,137.8h109.3v27.3H696.8V137.8z
		 M834.7,137.8h109.3v27.3H834.7V137.8z"/>
</g>
</svg>
