<?xml version="1.0" encoding="UTF-8"?>
<svg xmlns="http://www.w3.org/2000/svg" xmlns:xlink="http://www.w3.org/1999/xlink" width="942pt" height="246pt" viewBox="0 0 942 246" version="1.1">
<g id="surface1">
<path style=" stroke:none;fill-rule:nonzero;fill:rgb(0%,37.647059%,68.627451%);fill-opacity:1;" d="M 0 245.566406 L 942.316406 245.566406 L 942.316406 0 L 0 0 Z M 0 245.566406 "/>
<path style=" stroke:none;fill-rule:nonzero;fill:rgb(100%,100%,100%);fill-opacity:1;" d="M 624.46875 161.351562 L 624.46875 123.574219 C 624.46875 109.21875 632.929688 100.113281 648.355469 98.074219 C 654.476562 97.242188 657.550781 97.871094 660.816406 98.46875 L 660.808594 72.878906 C 638.644531 72.878906 628.144531 78.46875 623.40625 94.136719 L 623.042969 94.136719 L 623.042969 76.210938 L 590.703125 76.210938 L 590.703125 161.367188 L 624.46875 161.351562 "/>
<path style=" stroke:none;fill-rule:nonzero;fill:rgb(100%,100%,100%);fill-opacity:1;" d="M 793.332031 133.992188 C 799.25 158.296875 823.128906 165.640625 853.753906 165.640625 C 877.714844 165.640625 903.164062 156.867188 903.164062 133.375 C 903.164062 97.839844 830.269531 111.332031 830.269531 96.640625 C 830.269531 90.917969 841.363281 89.425781 846.828125 89.425781 C 851.464844 89.613281 859.0625 90.917969 861.304688 92.546875 C 863.621094 94.480469 866.417969 96.214844 866.816406 99.894531 L 899.121094 99.894531 C 893.359375 81.535156 872.734375 71.515625 848.246094 71.515625 C 818.636719 71.515625 795.355469 80.890625 795.355469 102.957031 C 795.355469 136.585938 868.039062 123.574219 868.039062 139.300781 C 868.039062 145.960938 856.496094 147.574219 849.261719 147.265625 C 844.355469 147.054688 838.03125 146.238281 833.335938 142.992188 C 830.488281 141.558594 827.636719 137.507812 827.015625 133.992188 L 793.332031 133.992188 "/>
<path style=" stroke:none;fill-rule:nonzero;fill:rgb(100%,100%,100%);fill-opacity:1;" d="M 267.851562 76.59375 L 267.851562 123.355469 C 267.785156 133.789062 260.90625 143.839844 248.390625 143.839844 C 235.925781 143.839844 228.875 133.652344 228.875 122.449219 L 228.875 76.59375 L 194.898438 76.636719 L 194.898438 126.632812 C 194.898438 151.527344 215.652344 164.816406 236.546875 164.816406 C 248.773438 164.816406 259.828125 160.53125 268.445312 151.945312 L 268.804688 151.945312 L 268.804688 161.5625 L 301.871094 161.5625 L 301.871094 76.59375 L 267.851562 76.59375 "/>
<path style=" stroke:none;fill-rule:nonzero;fill:rgb(100%,100%,100%);fill-opacity:1;" d="M 744.132812 75.941406 L 744.132812 122.703125 C 744.074219 133.136719 737.1875 143.179688 724.667969 143.179688 C 712.226562 143.179688 705.167969 132.984375 705.167969 121.78125 L 705.167969 75.941406 L 671.230469 75.804688 L 671.179688 125.949219 C 671.179688 150.859375 691.933594 164.15625 712.835938 164.15625 C 725.074219 164.15625 736.121094 159.878906 744.746094 151.269531 L 745.09375 151.269531 L 745.09375 160.894531 L 778.160156 160.894531 L 778.160156 75.941406 L 744.132812 75.941406 "/>
<path style=" stroke:none;fill-rule:nonzero;fill:rgb(100%,100%,100%);fill-opacity:1;" d="M 744.132812 75.941406 L 744.132812 122.703125 C 744.074219 133.136719 737.1875 143.179688 724.667969 143.179688 C 712.226562 143.179688 705.167969 132.984375 705.167969 121.78125 L 705.167969 75.941406 L 671.230469 75.804688 L 671.179688 125.949219 C 671.179688 150.859375 691.933594 164.15625 712.835938 164.15625 C 725.074219 164.15625 736.121094 159.878906 744.746094 151.269531 L 745.09375 151.269531 L 745.09375 160.894531 L 778.160156 160.894531 L 778.160156 75.941406 L 744.132812 75.941406 "/>
<path style=" stroke:none;fill-rule:nonzero;fill:rgb(100%,100%,100%);fill-opacity:1;" d="M 46.835938 206.9375 L 898.21875 206.9375 L 898.21875 197.671875 L 46.835938 197.671875 Z M 46.835938 206.9375 "/>
<path style=" stroke:none;fill-rule:nonzero;fill:rgb(100%,100%,100%);fill-opacity:1;" d="M 380.757812 143.695312 C 366.417969 143.695312 354.792969 132.460938 354.792969 118.601562 C 354.792969 104.734375 366.417969 93.5 380.757812 93.5 C 395.097656 93.5 406.714844 104.734375 406.714844 118.601562 C 406.714844 132.460938 395.097656 143.695312 380.757812 143.695312 M 405.058594 42.65625 L 405.058594 82.277344 C 396.453125 74.378906 383.128906 72.160156 371.230469 72.160156 C 335.367188 72.730469 318.386719 99.761719 318.386719 120.175781 C 318.386719 148.714844 349.363281 165.429688 371.71875 165.429688 C 386.464844 165.429688 399.539062 161.027344 405.6875 152.011719 L 406.085938 152.011719 L 406.085938 162.304688 L 439.527344 162.304688 L 439.527344 42.65625 L 405.058594 42.65625 "/>
<path style=" stroke:none;fill-rule:nonzero;fill:rgb(100%,100%,100%);fill-opacity:1;" d="M 493.085938 108.476562 C 494.652344 98.441406 502.722656 90.503906 515.308594 90.503906 C 527.644531 90.503906 535.941406 98.441406 537.289062 108.476562 L 493.085938 108.476562 M 515.929688 72.054688 C 480.875 72.054688 455.652344 88.601562 455.652344 120.4375 C 455.652344 150.421875 483.867188 165.875 515.511719 165.875 C 539.449219 165.875 561.777344 156.867188 570.972656 137.261719 L 537.378906 137.261719 C 533.007812 144.820312 524.628906 146.734375 515.929688 146.734375 C 502.257812 146.734375 493.773438 139.488281 492.492188 126.4375 L 574.496094 126.4375 C 577.925781 101.949219 561.246094 72.054688 515.929688 72.054688 "/>
<path style=" stroke:none;fill-rule:nonzero;fill:rgb(100%,100%,100%);fill-opacity:1;" d="M 111.777344 139.691406 L 82.527344 139.691406 L 82.527344 111.5 L 120.167969 111.5 C 133.753906 111.5 139.128906 116.207031 139.128906 126.402344 C 139.128906 135.609375 133.550781 139.691406 111.777344 139.691406 M 82.527344 65.351562 L 117.453125 65.351562 C 132.410156 65.351562 136.21875 69.769531 136.21875 76.570312 C 136.21875 84.0625 132.410156 90.117188 117.453125 90.117188 L 82.527344 90.117188 Z M 150.238281 98.769531 C 149.9375 98.816406 149.667969 98.914062 149.359375 98.972656 L 149.523438 98.636719 C 149.773438 98.664062 149.988281 98.742188 150.238281 98.769531 C 165.84375 95.941406 175.796875 85.449219 174.679688 70.25 C 173.871094 59.117188 168.761719 41.28125 122.414062 42.28125 L 46.699219 42.28125 L 46.699219 162.691406 L 132.011719 162.535156 C 165.5 162.941406 179.789062 145.390625 179.863281 127.96875 C 179.929688 113.058594 168.433594 101.253906 150.238281 98.769531 "/>
</g>
</svg>
