<svg xmlns="http://www.w3.org/2000/svg" xmlns:xlink="http://www.w3.org/1999/xlink" viewBox="0 0 124.41 28.35"><defs><style>.cls-1{isolation:isolate;}.cls-2{opacity:0.8;mix-blend-mode:multiply;}.cls-3{fill:url(#Dégradé_sans_nom_32);}.cls-4{fill:#bd2225;}</style><radialGradient id="Dégradé_sans_nom_32" cx="63.35" cy="3.93" r="197.07" gradientUnits="userSpaceOnUse"><stop offset="0" stop-color="#596778"/><stop offset="0.13" stop-color="#4d5b6b"/><stop offset="0.37" stop-color="#3e4b5b"/><stop offset="0.64" stop-color="#354252"/><stop offset="1" stop-color="#323f4f"/></radialGradient></defs><title>chappee</title><g class="cls-1"><g id="Calque_2" data-name="Calque 2"><g id="Mode_Isolation" data-name="Mode Isolation"><g id="Welcome" class="cls-2"><g id="UI-Kit"><path id="logo" class="cls-3" d="M120.68,13.48s-1.84.18-2.79.32a2.72,2.72,0,0,1-3.18-1.25C113.43,10.9,107.58,3.13,98.33,0c0,0,7.08,6.17,8.32,12s-.59,10.68-9.8,16.35a63,63,0,0,0,13.86-4.22c6.78-3.07,9.6-9.15,13.7-10.35a13.17,13.17,0,0,0-3.73-.3ZM86.51,16.37H93.9V14.25H86.51V12.61h7.8V10.24H83.46V20.47h11V18h-8Zm-12.6,0H81.3V14.25H73.91V12.61h7.8V10.24H70.87V20.47h11V18h-8Zm-7.77-1.62a.88.88,0,0,1-1,1H60.63V13.39h4.31c.88,0,1.2.36,1.2,1Zm-.42-4.51H57.48V20.47h3V17.9h6c2.14,0,2.78-1.75,2.78-3.28v-.88c0-2-.69-3.5-3.57-3.5Zm-13,4.51a.89.89,0,0,1-1,1H47.24V13.39h4.31c.89,0,1.21.36,1.21,1Zm-.42-4.51H44.09V20.47h3V17.9h6c2.13,0,2.78-1.75,2.78-3.28v-.88c0-2-.7-3.5-3.57-3.5Zm-18.48,6.3L35.8,12.6l2,3.94Zm-.08-6.3L28.35,20.47h3.43l.91-1.81h6.24l1,1.81h3.43L37.79,10.24Zm-9.29,3.64H18V10.24H15V20.47H18V16.6h6.46v3.87h3.07V10.24H24.49ZM7.9,17.9H4.74c-1.4,0-1.7-.55-1.7-2V14.82c0-1.25.3-2,1.86-2H8.13c.88,0,1.39.21,1.39.93V14h3c0-2.83-.52-3.77-4.74-3.77H4.26c-2.67,0-4.26.69-4.26,3.62v3c0,2.93,1.59,3.62,4.26,3.62H9c3,0,3.57-1.32,3.57-3v-.94h-3c0,1.24-.4,1.38-1.73,1.38Z"/></g><g id="UI-Kit-2" data-name="UI-Kit"><path id="logo-2" data-name="logo" class="cls-4" d="M120.68,13.48s-1.84.18-2.79.32a2.72,2.72,0,0,1-3.18-1.25C113.43,10.9,107.58,3.13,98.33,0c0,0,7.08,6.17,8.32,12s-.59,10.68-9.8,16.35a63,63,0,0,0,13.86-4.22c6.78-3.07,9.6-9.15,13.7-10.35a13.17,13.17,0,0,0-3.73-.3ZM86.51,16.37H93.9V14.25H86.51V12.61h7.8V10.24H83.46V20.47h11V18h-8Zm-12.6,0H81.3V14.25H73.91V12.61h7.8V10.24H70.87V20.47h11V18h-8Zm-7.77-1.62a.88.88,0,0,1-1,1H60.63V13.39h4.31c.88,0,1.2.36,1.2,1Zm-.42-4.51H57.48V20.47h3V17.9h6c2.14,0,2.78-1.75,2.78-3.28v-.88c0-2-.69-3.5-3.57-3.5Zm-13,4.51a.89.89,0,0,1-1,1H47.24V13.39h4.31c.89,0,1.21.36,1.21,1Zm-.42-4.51H44.09V20.47h3V17.9h6c2.13,0,2.78-1.75,2.78-3.28v-.88c0-2-.7-3.5-3.57-3.5Zm-18.48,6.3L35.8,12.6l2,3.94Zm-.08-6.3L28.35,20.47h3.43l.91-1.81h6.24l1,1.81h3.43L37.79,10.24Zm-9.29,3.64H18V10.24H15V20.47H18V16.6h6.46v3.87h3.07V10.24H24.49ZM7.9,17.9H4.74c-1.4,0-1.7-.55-1.7-2V14.82c0-1.25.3-2,1.86-2H8.13c.88,0,1.39.21,1.39.93V14h3c0-2.83-.52-3.77-4.74-3.77H4.26c-2.67,0-4.26.69-4.26,3.62v3c0,2.93,1.59,3.62,4.26,3.62H9c3,0,3.57-1.32,3.57-3v-.94h-3c0,1.24-.4,1.38-1.73,1.38Z"/></g></g></g></g></g></svg>