<svg xmlns="http://www.w3.org/2000/svg" xmlns:xlink="http://www.w3.org/1999/xlink" viewBox="0 0 123.49 28.35"><defs><style>.cls-1{fill:none;}.cls-2{isolation:isolate;}.cls-3{opacity:0.8;mix-blend-mode:multiply;}.cls-4{clip-path:url(#clip-path);}.cls-5{fill:url(#Dégradé_sans_nom_32);}.cls-6{fill:#fff;}.cls-7{fill:#253576;}.cls-8{fill:#fab900;}.cls-9{fill:#12100b;}</style><clipPath id="clip-path" transform="translate(0 0)"><rect class="cls-1" width="123.48" height="28.35"/></clipPath><radialGradient id="Dégradé_sans_nom_32" cx="189.73" cy="3.93" r="195.01" gradientUnits="userSpaceOnUse"><stop offset="0" stop-color="#596778"/><stop offset="0.13" stop-color="#4d5b6b"/><stop offset="0.37" stop-color="#3e4b5b"/><stop offset="0.64" stop-color="#354252"/><stop offset="1" stop-color="#323f4f"/></radialGradient></defs><title>de dietrich</title><g class="cls-2"><g id="Calque_2" data-name="Calque 2"><g id="Mode_Isolation" data-name="Mode Isolation"><g class="cls-3"><g class="cls-4"><path class="cls-5" d="M108.81.55a1.88,1.88,0,0,1,2.66,0L122.94,12a1.88,1.88,0,0,1,0,2.66L111.47,26.14a1.87,1.87,0,0,1-2.66,0L97.34,14.68a1.89,1.89,0,0,1,0-2.66Z" transform="translate(0 0)"/><path class="cls-5" d="M109.24,1A1.27,1.27,0,0,1,111,1l11.48,11.47a1.27,1.27,0,0,1,0,1.8L111,25.71a1.27,1.27,0,0,1-1.8,0L97.75,14.25a1.27,1.27,0,0,1,0-1.8Z" transform="translate(0 0)"/><path class="cls-5" d="M114.75,7.78a6.75,6.75,0,0,1,1,4.42,5.79,5.79,0,0,0-1.56-2.9,5.72,5.72,0,0,0-9.65,5.16l-3.92-3.92,0,0c-.28-.27,0-1,0-1L99,11.21s.57-.23.88-.05l6.23,6.23a5.73,5.73,0,0,0,8.09,0c2-2,3.73-5.39,7.79-5.39Z" transform="translate(0 0)"/><path class="cls-5" d="M113.5,10a4.75,4.75,0,1,1-6.72,0,4.76,4.76,0,0,1,6.72,0" transform="translate(0 0)"/><path class="cls-5" d="M2.92,16.48h2.9c2.42,0,3.23-2.47,3.23-4.83,0-4.25-2-4.59-3.27-4.59H2.92ZM0,4.57H6.29c4.81,0,5.8,4.13,5.8,6.86,0,3.08-1.21,7.53-5.92,7.53H0Z" transform="translate(0 0)"/><path class="cls-5" d="M20.83,12.57a2.14,2.14,0,0,0-2.14-2.24c-1.31,0-2,.84-2.17,2.24Zm2.74,3.27a4.58,4.58,0,0,1-4.64,3.41c-3,0-5.27-1.45-5.27-5.84,0-1.28.44-5.39,5.07-5.39,2.08,0,5,1,5,5.87v.5H16.44c.08.81.24,2.61,2.49,2.61a1.78,1.78,0,0,0,1.78-1.16Z" transform="translate(0 0)"/><path class="cls-5" d="M31.35,16.48h2.9c2.42,0,3.23-2.47,3.23-4.83,0-4.25-2-4.59-3.28-4.59H31.35ZM28.43,4.57h6.29c4.81,0,5.8,4.13,5.8,6.86,0,3.08-1.21,7.53-5.92,7.53H28.43Z" transform="translate(0 0)"/><path class="cls-5" d="M44.65,7.55H41.88V4.94h2.77Zm0,11.41H41.88V8.3h2.77Z" transform="translate(0 0)"/><path class="cls-5" d="M52.87,12.57a2.14,2.14,0,0,0-2.14-2.24c-1.31,0-2,.84-2.17,2.24Zm2.74,3.27A4.58,4.58,0,0,1,51,19.25c-3,0-5.26-1.45-5.26-5.84,0-1.28.43-5.39,5.06-5.39,2.08,0,5,1,5,5.87v.5H48.49c.07.81.23,2.61,2.48,2.61a1.77,1.77,0,0,0,1.78-1.16Z" transform="translate(0 0)"/><path class="cls-5" d="M59.83,8.3h1.72v2H59.83V16.1c0,.62,0,.86,1.15.86a5.66,5.66,0,0,0,.57,0V19c-.43,0-.87,0-1.3,0h-.36c-2.4,0-2.84-.92-2.84-2.3V5.41h2.78Z" transform="translate(0 0)"/><path class="cls-5" d="M62.81,8.3h2.66v1.85h0C66.08,9.06,66.72,8,68.41,8a4.73,4.73,0,0,1,.53,0v2.85a5,5,0,0,0-.79,0,2.26,2.26,0,0,0-2.56,2.54V19H62.81Z" transform="translate(0 0)"/><path class="cls-5" d="M72.4,7.55H69.62V4.94H72.4ZM72.4,19H69.62V8.3H72.4Z" transform="translate(0 0)"/><path class="cls-5" d="M83.36,15.08a4.54,4.54,0,0,1-4.82,4.17c-4,0-4.89-3.07-4.89-5.32,0-3.44,1.49-5.91,5.07-5.91,1.66,0,4.4.76,4.66,4.09H80.56a1.79,1.79,0,0,0-1.84-1.72c-1.75,0-2.21,1.76-2.21,3.08,0,1.17,0,3.47,2.15,3.47a1.94,1.94,0,0,0,1.88-1.86Z" transform="translate(0 0)"/><path class="cls-5" d="M94,19H91.23V12.49c0-.78,0-2.1-1.81-2.1a2.17,2.17,0,0,0-2.18,2.46V19H84.46V4.57h2.78V9.68h0A3.26,3.26,0,0,1,90.34,8,3.38,3.38,0,0,1,94,11.59Z" transform="translate(0 0)"/><path class="cls-5" d="M.42,24c.07,0,.1,0,.1.1v3.71H3.26a.1.1,0,0,1,.11.11v.25a.1.1,0,0,1-.11.11H.11A.11.11,0,0,1,0,28.17V24.1C0,24,0,24,.1,24Z" transform="translate(0 0)"/><path class="cls-5" d="M8.17,24c.08,0,.11,0,.11.1v.27c0,.07,0,.1-.11.1H5.54v1.32H8c.08,0,.11,0,.11.1v.27c0,.07,0,.1-.11.1H5.54v1.55H8.25c.07,0,.1,0,.1.1v.27c0,.07,0,.1-.1.1H5.12c-.07,0-.1,0-.1-.1V24.1c0-.07,0-.1.1-.1Z" transform="translate(0 0)"/><path class="cls-5" d="M16.7,24.76a.09.09,0,0,1,0,.14l-.24.19a.11.11,0,0,1-.14,0,1.7,1.7,0,0,0-1.37-.67,1.73,1.73,0,0,0,0,3.46,1.7,1.7,0,0,0,1.38-.66.12.12,0,0,1,.14,0l.23.19s.06.08,0,.14a2.18,2.18,0,0,1-1.76.82,2.21,2.21,0,1,1,0-4.41,2.18,2.18,0,0,1,1.76.82" transform="translate(0 0)"/><path class="cls-5" d="M18.63,26.15a1.69,1.69,0,1,0,1.69-1.74,1.66,1.66,0,0,0-1.69,1.74m1.69-2.21a2.21,2.21,0,1,1-2.21,2.21,2.15,2.15,0,0,1,2.21-2.21" transform="translate(0 0)"/><path class="cls-5" d="M27.59,28.28a.15.15,0,0,1-.14-.07L26,26.38l-1.28-1.7-.06,0,0,1.59v1.89c0,.07,0,.1-.11.1h-.31c-.07,0-.1,0-.1-.11V24.1c0-.07,0-.1.1-.1h.35a.2.2,0,0,1,.17.09L26.36,26l1.16,1.55h.06l0-1.59V24.1c0-.07,0-.1.1-.1H28c.07,0,.1,0,.1.1v4.08c0,.07,0,.1-.1.1Z" transform="translate(0 0)"/><path class="cls-5" d="M33,24c.07,0,.1,0,.1.1v.27c0,.07,0,.1-.1.1H30.38v1.35h2.39c.07,0,.1,0,.1.11v.26c0,.07,0,.1-.1.1H30.38v1.89c0,.07,0,.1-.1.1H30c-.07,0-.11,0-.11-.1V24.1c0-.07,0-.1.11-.1Z" transform="translate(0 0)"/><path class="cls-5" d="M35.12,26.15a1.69,1.69,0,1,0,1.68-1.74,1.66,1.66,0,0,0-1.68,1.74m1.68-2.21a2.21,2.21,0,1,1-2.2,2.21,2.15,2.15,0,0,1,2.2-2.21" transform="translate(0 0)"/><path class="cls-5" d="M42.74,26.53a1,1,0,1,0,0-2.06H41.19v2.06Zm0-2.53a1.51,1.51,0,0,1,1.59,1.5,1.44,1.44,0,0,1-.91,1.37l.73,1.3c0,.07,0,.11-.07.11H43.7a.17.17,0,0,1-.14-.09L42.93,27H41.19v1.18c0,.07,0,.1-.1.1h-.32c-.07,0-.1,0-.1-.1V24.1c0-.07,0-.1.1-.1Z" transform="translate(0 0)"/><path class="cls-5" d="M49.38,24a.1.1,0,0,1,.11.11v.25a.1.1,0,0,1-.11.11H47.84v3.7a.1.1,0,0,1-.11.11h-.3a.1.1,0,0,1-.11-.11v-3.7H45.78a.1.1,0,0,1-.11-.11v-.25a.1.1,0,0,1,.11-.11Z" transform="translate(0 0)"/><path class="cls-5" d="M54.3,27.8h1.18a1.67,1.67,0,1,0,0-3.33H54.3ZM55.48,24a2.14,2.14,0,1,1,0,4.28h-1.6c-.07,0-.1,0-.1-.1V24.11c0-.07,0-.11.1-.11Z" transform="translate(0 0)"/><path class="cls-5" d="M59.26,24.1c0-.07,0-.1.11-.1h.31c.07,0,.1,0,.1.1v2.31a1.38,1.38,0,1,0,2.75,0V24.1c0-.07,0-.1.11-.1h.3c.07,0,.11,0,.11.1v2.33a1.9,1.9,0,1,1-3.79,0Z" transform="translate(0 0)"/><path class="cls-5" d="M66.92,26.53a1,1,0,1,0,0-2.06H65.37v2.06Zm0-2.53a1.51,1.51,0,0,1,1.59,1.5,1.44,1.44,0,0,1-.91,1.37l.73,1.3c0,.07,0,.11-.07.11h-.37a.18.18,0,0,1-.15-.09L67.12,27H65.37v1.18c0,.07,0,.1-.1.1H65c-.07,0-.1,0-.1-.1V24.1c0-.07,0-.1.1-.1Z" transform="translate(0 0)"/><path class="cls-5" d="M71.17,26.9h2.26l-1.06-2.46h-.15ZM72.61,24a.11.11,0,0,1,.12.08l1.79,4.09c0,.06,0,.11-.06.11h-.37A.11.11,0,0,1,74,28.2l-.36-.83H71l-.36.83c0,.06,0,.08-.12.08h-.37c-.07,0-.08-.05-.06-.11l1.81-4.08A.13.13,0,0,1,72,24Z" transform="translate(0 0)"/><path class="cls-5" d="M76.66,27.8h1.86a.83.83,0,0,0,.9-.84.79.79,0,0,0-.9-.81H76.66Zm0-2.13h1.8a.61.61,0,0,0,.65-.59c0-.37-.25-.61-.69-.61H76.66Zm2.56.22A1.11,1.11,0,0,1,79.93,27a1.34,1.34,0,0,1-1.39,1.32h-2.3c-.07,0-.1,0-.1-.1V24.09a.08.08,0,0,1,.09-.09h2.18a1.11,1.11,0,0,1,1.22,1.08,1,1,0,0,1-.41.77Z" transform="translate(0 0)"/><path class="cls-5" d="M82,24c.07,0,.1,0,.1.1v3.71h2.75a.1.1,0,0,1,.11.11v.25a.1.1,0,0,1-.11.11H81.69a.11.11,0,0,1-.11-.11V24.1c0-.07,0-.1.11-.1Z" transform="translate(0 0)"/><path class="cls-5" d="M89.76,24c.07,0,.1,0,.1.1v.27c0,.07,0,.1-.1.1H87.12v1.32h2.49c.07,0,.1,0,.1.1v.27c0,.07,0,.1-.1.1H87.12v1.55h2.72c.07,0,.1,0,.1.1v.27c0,.07,0,.1-.1.1H86.71c-.07,0-.1,0-.1-.1V24.1c0-.07,0-.1.1-.1Z" transform="translate(0 0)"/><path class="cls-5" d="M92.82,25.11c.14,0,.21-.06.21-.17s-.11-.17-.21-.17h-.29v.34Zm0-.64a.49.49,0,0,1,.53.47.48.48,0,0,1-.24.39l.13.26a.07.07,0,0,1-.07.1H93a.11.11,0,0,1-.11-.08l-.08-.22h-.31v.2c0,.07,0,.1-.1.1h-.1c-.07,0-.1,0-.1-.1v-1c0-.07,0-.1.1-.1Zm-1,.61a.89.89,0,1,0,.89-.89.86.86,0,0,0-.89.89m2.18,0a1.29,1.29,0,1,1-1.29-1.25A1.24,1.24,0,0,1,94,25.08" transform="translate(0 0)"/></g><g class="cls-4"><path class="cls-6" d="M108.81.55a1.88,1.88,0,0,1,2.66,0L122.94,12a1.88,1.88,0,0,1,0,2.66L111.47,26.14a1.87,1.87,0,0,1-2.66,0L97.34,14.68a1.89,1.89,0,0,1,0-2.66Z" transform="translate(0 0)"/><path class="cls-7" d="M109.24,1A1.27,1.27,0,0,1,111,1l11.48,11.47a1.27,1.27,0,0,1,0,1.8L111,25.71a1.27,1.27,0,0,1-1.8,0L97.75,14.25a1.27,1.27,0,0,1,0-1.8Z" transform="translate(0 0)"/><path class="cls-6" d="M114.75,7.78a6.75,6.75,0,0,1,1,4.42,5.79,5.79,0,0,0-1.56-2.9,5.72,5.72,0,0,0-9.65,5.16l-3.92-3.92,0,0c-.28-.27,0-1,0-1L99,11.21s.57-.23.88-.05l6.23,6.23a5.73,5.73,0,0,0,8.09,0c2-2,3.73-5.39,7.79-5.39Z" transform="translate(0 0)"/><path class="cls-8" d="M113.5,10a4.75,4.75,0,1,1-6.72,0,4.76,4.76,0,0,1,6.72,0" transform="translate(0 0)"/><path class="cls-9" d="M2.92,16.48h2.9c2.42,0,3.23-2.47,3.23-4.83,0-4.25-2-4.59-3.27-4.59H2.92ZM0,4.57H6.29c4.81,0,5.8,4.13,5.8,6.86,0,3.08-1.21,7.53-5.92,7.53H0Z" transform="translate(0 0)"/><path class="cls-9" d="M20.83,12.57a2.14,2.14,0,0,0-2.14-2.24c-1.31,0-2,.84-2.17,2.24Zm2.74,3.27a4.58,4.58,0,0,1-4.64,3.41c-3,0-5.27-1.45-5.27-5.84,0-1.28.44-5.39,5.07-5.39,2.08,0,5,1,5,5.87v.5H16.44c.08.81.24,2.61,2.49,2.61a1.78,1.78,0,0,0,1.78-1.16Z" transform="translate(0 0)"/><path class="cls-9" d="M31.35,16.48h2.9c2.42,0,3.23-2.47,3.23-4.83,0-4.25-2-4.59-3.28-4.59H31.35ZM28.43,4.57h6.29c4.81,0,5.8,4.13,5.8,6.86,0,3.08-1.21,7.53-5.92,7.53H28.43Z" transform="translate(0 0)"/><path class="cls-9" d="M44.65,7.55H41.88V4.94h2.77Zm0,11.41H41.88V8.3h2.77Z" transform="translate(0 0)"/><path class="cls-9" d="M52.87,12.57a2.14,2.14,0,0,0-2.14-2.24c-1.31,0-2,.84-2.17,2.24Zm2.74,3.27A4.58,4.58,0,0,1,51,19.25c-3,0-5.26-1.45-5.26-5.84,0-1.28.43-5.39,5.06-5.39,2.08,0,5,1,5,5.87v.5H48.49c.07.81.23,2.61,2.48,2.61a1.77,1.77,0,0,0,1.78-1.16Z" transform="translate(0 0)"/><path class="cls-9" d="M59.83,8.3h1.72v2H59.83V16.1c0,.62,0,.86,1.15.86a5.66,5.66,0,0,0,.57,0V19c-.43,0-.87,0-1.3,0h-.36c-2.4,0-2.84-.92-2.84-2.3V5.41h2.78Z" transform="translate(0 0)"/><path class="cls-9" d="M62.81,8.3h2.66v1.85h0C66.08,9.06,66.72,8,68.41,8a4.73,4.73,0,0,1,.53,0v2.85a5,5,0,0,0-.79,0,2.26,2.26,0,0,0-2.56,2.54V19H62.81Z" transform="translate(0 0)"/><path class="cls-9" d="M72.4,7.55H69.62V4.94H72.4ZM72.4,19H69.62V8.3H72.4Z" transform="translate(0 0)"/><path class="cls-9" d="M83.36,15.08a4.54,4.54,0,0,1-4.82,4.17c-4,0-4.89-3.07-4.89-5.32,0-3.44,1.49-5.91,5.07-5.91,1.66,0,4.4.76,4.66,4.09H80.56a1.79,1.79,0,0,0-1.84-1.72c-1.75,0-2.21,1.76-2.21,3.08,0,1.17,0,3.47,2.15,3.47a1.94,1.94,0,0,0,1.88-1.86Z" transform="translate(0 0)"/><path class="cls-9" d="M94,19H91.23V12.49c0-.78,0-2.1-1.81-2.1a2.17,2.17,0,0,0-2.18,2.46V19H84.46V4.57h2.78V9.68h0A3.26,3.26,0,0,1,90.34,8,3.38,3.38,0,0,1,94,11.59Z" transform="translate(0 0)"/><path class="cls-9" d="M.42,24c.07,0,.1,0,.1.1v3.71H3.26a.1.1,0,0,1,.11.11v.25a.1.1,0,0,1-.11.11H.11A.11.11,0,0,1,0,28.17V24.1C0,24,0,24,.1,24Z" transform="translate(0 0)"/><path class="cls-9" d="M8.17,24c.08,0,.11,0,.11.1v.27c0,.07,0,.1-.11.1H5.54v1.32H8c.08,0,.11,0,.11.1v.27c0,.07,0,.1-.11.1H5.54v1.55H8.25c.07,0,.1,0,.1.1v.27c0,.07,0,.1-.1.1H5.12c-.07,0-.1,0-.1-.1V24.1c0-.07,0-.1.1-.1Z" transform="translate(0 0)"/><path class="cls-9" d="M16.7,24.76a.09.09,0,0,1,0,.14l-.24.19a.11.11,0,0,1-.14,0,1.7,1.7,0,0,0-1.37-.67,1.73,1.73,0,0,0,0,3.46,1.7,1.7,0,0,0,1.38-.66.12.12,0,0,1,.14,0l.23.19s.06.08,0,.14a2.18,2.18,0,0,1-1.76.82,2.21,2.21,0,1,1,0-4.41,2.18,2.18,0,0,1,1.76.82" transform="translate(0 0)"/><path class="cls-9" d="M18.63,26.15a1.69,1.69,0,1,0,1.69-1.74,1.66,1.66,0,0,0-1.69,1.74m1.69-2.21a2.21,2.21,0,1,1-2.21,2.21,2.15,2.15,0,0,1,2.21-2.21" transform="translate(0 0)"/><path class="cls-9" d="M27.59,28.28a.15.15,0,0,1-.14-.07L26,26.38l-1.28-1.7-.06,0,0,1.59v1.89c0,.07,0,.1-.11.1h-.31c-.07,0-.1,0-.1-.11V24.1c0-.07,0-.1.1-.1h.35a.2.2,0,0,1,.17.09L26.36,26l1.16,1.55h.06l0-1.59V24.1c0-.07,0-.1.1-.1H28c.07,0,.1,0,.1.1v4.08c0,.07,0,.1-.1.1Z" transform="translate(0 0)"/><path class="cls-9" d="M33,24c.07,0,.1,0,.1.1v.27c0,.07,0,.1-.1.1H30.38v1.35h2.39c.07,0,.1,0,.1.11v.26c0,.07,0,.1-.1.1H30.38v1.89c0,.07,0,.1-.1.1H30c-.07,0-.11,0-.11-.1V24.1c0-.07,0-.1.11-.1Z" transform="translate(0 0)"/><path class="cls-9" d="M35.12,26.15a1.69,1.69,0,1,0,1.68-1.74,1.66,1.66,0,0,0-1.68,1.74m1.68-2.21a2.21,2.21,0,1,1-2.2,2.21,2.15,2.15,0,0,1,2.2-2.21" transform="translate(0 0)"/><path class="cls-9" d="M42.74,26.53a1,1,0,1,0,0-2.06H41.19v2.06Zm0-2.53a1.51,1.51,0,0,1,1.59,1.5,1.44,1.44,0,0,1-.91,1.37l.73,1.3c0,.07,0,.11-.07.11H43.7a.17.17,0,0,1-.14-.09L42.93,27H41.19v1.18c0,.07,0,.1-.1.1h-.32c-.07,0-.1,0-.1-.1V24.1c0-.07,0-.1.1-.1Z" transform="translate(0 0)"/><path class="cls-9" d="M49.38,24a.1.1,0,0,1,.11.11v.25a.1.1,0,0,1-.11.11H47.84v3.7a.1.1,0,0,1-.11.11h-.3a.1.1,0,0,1-.11-.11v-3.7H45.78a.1.1,0,0,1-.11-.11v-.25a.1.1,0,0,1,.11-.11Z" transform="translate(0 0)"/><path class="cls-9" d="M54.3,27.8h1.18a1.67,1.67,0,1,0,0-3.33H54.3ZM55.48,24a2.14,2.14,0,1,1,0,4.28h-1.6c-.07,0-.1,0-.1-.1V24.11c0-.07,0-.11.1-.11Z" transform="translate(0 0)"/><path class="cls-9" d="M59.26,24.1c0-.07,0-.1.11-.1h.31c.07,0,.1,0,.1.1v2.31a1.38,1.38,0,1,0,2.75,0V24.1c0-.07,0-.1.11-.1h.3c.07,0,.11,0,.11.1v2.33a1.9,1.9,0,1,1-3.79,0Z" transform="translate(0 0)"/><path class="cls-9" d="M66.92,26.53a1,1,0,1,0,0-2.06H65.37v2.06Zm0-2.53a1.51,1.51,0,0,1,1.59,1.5,1.44,1.44,0,0,1-.91,1.37l.73,1.3c0,.07,0,.11-.07.11h-.37a.18.18,0,0,1-.15-.09L67.12,27H65.37v1.18c0,.07,0,.1-.1.1H65c-.07,0-.1,0-.1-.1V24.1c0-.07,0-.1.1-.1Z" transform="translate(0 0)"/><path class="cls-9" d="M71.17,26.9h2.26l-1.06-2.46h-.15ZM72.61,24a.11.11,0,0,1,.12.08l1.79,4.09c0,.06,0,.11-.06.11h-.37A.11.11,0,0,1,74,28.2l-.36-.83H71l-.36.83c0,.06,0,.08-.12.08h-.37c-.07,0-.08-.05-.06-.11l1.81-4.08A.13.13,0,0,1,72,24Z" transform="translate(0 0)"/><path class="cls-9" d="M76.66,27.8h1.86a.83.83,0,0,0,.9-.84.79.79,0,0,0-.9-.81H76.66Zm0-2.13h1.8a.61.61,0,0,0,.65-.59c0-.37-.25-.61-.69-.61H76.66Zm2.56.22A1.11,1.11,0,0,1,79.93,27a1.34,1.34,0,0,1-1.39,1.32h-2.3c-.07,0-.1,0-.1-.1V24.09a.08.08,0,0,1,.09-.09h2.18a1.11,1.11,0,0,1,1.22,1.08,1,1,0,0,1-.41.77Z" transform="translate(0 0)"/><path class="cls-9" d="M82,24c.07,0,.1,0,.1.1v3.71h2.75a.1.1,0,0,1,.11.11v.25a.1.1,0,0,1-.11.11H81.69a.11.11,0,0,1-.11-.11V24.1c0-.07,0-.1.11-.1Z" transform="translate(0 0)"/><path class="cls-9" d="M89.76,24c.07,0,.1,0,.1.1v.27c0,.07,0,.1-.1.1H87.12v1.32h2.49c.07,0,.1,0,.1.1v.27c0,.07,0,.1-.1.1H87.12v1.55h2.72c.07,0,.1,0,.1.1v.27c0,.07,0,.1-.1.1H86.71c-.07,0-.1,0-.1-.1V24.1c0-.07,0-.1.1-.1Z" transform="translate(0 0)"/><path class="cls-9" d="M92.82,25.11c.14,0,.21-.06.21-.17s-.11-.17-.21-.17h-.29v.34Zm0-.64a.49.49,0,0,1,.53.47.48.48,0,0,1-.24.39l.13.26a.07.07,0,0,1-.07.1H93a.11.11,0,0,1-.11-.08l-.08-.22h-.31v.2c0,.07,0,.1-.1.1h-.1c-.07,0-.1,0-.1-.1v-1c0-.07,0-.1.1-.1Zm-1,.61a.89.89,0,1,0,.89-.89.86.86,0,0,0-.89.89m2.18,0a1.29,1.29,0,1,1-1.29-1.25A1.24,1.24,0,0,1,94,25.08" transform="translate(0 0)"/></g></g></g></g></g></svg>