<svg xmlns="http://www.w3.org/2000/svg" viewBox="0 0 96.87 28.35"><defs><style>.cls-1{fill:#0379b4;}.cls-2{fill:#1d1c1c;}</style></defs><title>domusa</title><g id="Calque_2" data-name="Calque 2"><g id="Mode_Isolation" data-name="Mode Isolation"><g id="domusa"><path class="cls-1" d="M50.19,0,51,9.56c.17,2,.33,4.1.5,6.15,0,.3-.07.35-.34.34-.72,0-1.45,0-2.18,0-.29,0-.41-.06-.43-.37-.08-1.38-.2-2.76-.3-4.14s-.2-2.78-.31-4.17c-.08-.89,0-1.78-.11-2.69L43.08,16.14c-1.6-3.87-3.16-7.65-4.73-11.42h-.08c0,.5,0,1,0,1.51,0,2-.27,3.95-.41,5.92l-.24,3.34c0,.54,0,.55-.57.55-.71,0-1.43,0-2.14,0-.21,0-.29,0-.27-.27q.25-3,.49-5.91l.45-5.6c.12-1.42.23-2.85.35-4.27h3.16c1.32,3.05,2.63,6.11,4,9.23L44.5,5.86,47,0Z"/><path class="cls-1" d="M6.68,0c0,.09.09.12.17.14A7.74,7.74,0,0,1,13,5.4,8,8,0,0,1,8.31,15.49a8.06,8.06,0,0,1-5.8,0,.63.63,0,0,1-.39-.36A5.11,5.11,0,0,1,3.93,8.67,2.64,2.64,0,0,0,5.34,5.39a.45.45,0,0,1,0-.13,4.06,4.06,0,0,1,2.14,2,4,4,0,0,1,.23,3.24,1.9,1.9,0,0,1-1.41,1.23c-.09,0-.19.1-.26,0s0-.17,0-.26a3,3,0,0,0,.12-1.88c0-.05,0-.1-.08-.21a8.85,8.85,0,0,1-1.5,1.44,2.82,2.82,0,0,0-.86,1.7c0,.25,0,.36.28.41a5.13,5.13,0,1,0-.37-9.8.33.33,0,0,0-.27.37c0,1.2,0,2.4,0,3.6a.82.82,0,0,1-.74.94A4,4,0,0,1,.87,8a.29.29,0,0,1-.24-.35V1.76a.41.41,0,0,1,.21-.4,7.78,7.78,0,0,1,3-1.22c.1,0,.19,0,.21-.14Z"/><path class="cls-1" d="M25.09,0c0,.09.09.12.18.14a7.71,7.71,0,0,1,6.48,6.24,8.12,8.12,0,0,1-3.64,8.47,8,8,0,0,1-5.63,1.08,7.6,7.6,0,0,1-5.66-3.86,8.13,8.13,0,0,1,.9-9.46A7.74,7.74,0,0,1,22.2.14c.11,0,.24,0,.29-.14ZM18.68,8.11a5.8,5.8,0,0,0,.87,3,5,5,0,0,0,7.24,1.36,5.5,5.5,0,0,0,2.09-5.32,5.1,5.1,0,0,0-6.29-4.38A5.24,5.24,0,0,0,18.68,8.11Z"/><path class="cls-1" d="M67.9,0q0,4.92,0,9.83A6.27,6.27,0,0,1,67,13.26a5.77,5.77,0,0,1-3.9,2.6,7.73,7.73,0,0,1-4.75-.4,5.42,5.42,0,0,1-3.5-5.17c-.07-3.43,0-6.86,0-10.29h3V3c0,2.32,0,4.65,0,7a3,3,0,0,0,1.92,3,4.45,4.45,0,0,0,2.17.26,3.11,3.11,0,0,0,3-2.85,5.48,5.48,0,0,0,0-.7c0-3.26,0-6.51,0-9.77Z"/><path class="cls-1" d="M91.1,0a11.25,11.25,0,0,0,.59,1.78q2,5.76,4.07,11.52l.87,2.42c0,.1.11.19.06.33-.94,0-1.89,0-2.83,0-.18,0-.2-.12-.24-.25-.4-1.19-.8-2.37-1.19-3.57a.36.36,0,0,0-.41-.3H87a.4.4,0,0,0-.46.34c-.36,1.16-.76,2.3-1.13,3.44-.08.25-.18.35-.46.34-.79,0-1.57,0-2.36,0-.28,0-.34-.06-.24-.33q1-2.85,2-5.7Q86.17,5.07,87.9.13a.5.5,0,0,0,0-.13ZM89.5,2.87c-.11.39-.2.79-.31,1.18-.49,1.74-1.12,3.44-1.69,5.16-.08.26-.06.35.24.34,1.18,0,2.36,0,3.55,0,.26,0,.3-.07.22-.29-.14-.4-.28-.79-.41-1.19C90.55,6.35,89.9,4.66,89.5,2.87Z"/><path class="cls-1" d="M77.39,0c0,.12.14.13.25.14a6.16,6.16,0,0,1,3.07,1.33c.16.13.19.23.09.41-.33.6-.65,1.21-1,1.81-.11.23-.2.25-.41.09a5.28,5.28,0,0,0-3.09-1.16,2.38,2.38,0,0,0-2.14.89,1.51,1.51,0,0,0,.43,2.22,10,10,0,0,0,2.22,1.1,14,14,0,0,1,2.79,1.45A4.19,4.19,0,0,1,80.46,14,4.73,4.73,0,0,1,77,16a7.66,7.66,0,0,1-5.9-1.68c-.44-.35-.43-.36-.1-.81s.71-1,1.06-1.48c.12-.18.2-.21.39-.05a6.27,6.27,0,0,0,3,1.41,3.18,3.18,0,0,0,2-.25,1.64,1.64,0,0,0,.46-2.64,6.7,6.7,0,0,0-2.2-1.26,22.14,22.14,0,0,1-2.76-1.37A4.08,4.08,0,0,1,73.3.71,4.71,4.71,0,0,1,74.9.14c.09,0,.16,0,.17-.14Z"/><path class="cls-2" d="M57.29,28.34c0-1.93,0-3.86,0-5.79,0-.29.09-.33.35-.35a.81.81,0,0,1,.82.43c.92,1.4,1.93,2.74,2.81,4.17l.1.12c0-1.46,0-2.87,0-4.28,0-.14-.1-.36.08-.4a1.64,1.64,0,0,1,.73,0c.11,0,0,.2,0,.31,0,1.8,0,3.61,0,5.41,0,.12,0,.26,0,.37h-1s0-.07,0-.09c-1-1.54-2.14-3-3.13-4.62,0,.91,0,1.79,0,2.66,0,.69,0,1.37,0,2.05Z"/><path class="cls-2" d="M38.17,28.34c0-1.5,0-3,0-4.49,0-.46,0-.91,0-1.36,0-.22.06-.28.28-.28.62,0,.62,0,.62.62s0,1.16,0,1.74c0,.18.06.21.23.24a.89.89,0,0,0,1-.55,19.62,19.62,0,0,1,1.05-1.77,1.09,1.09,0,0,1,1-.27c.13.08,0,.16,0,.23q-.73,1.22-1.5,2.43a.44.44,0,0,0,0,.53c.59,1,1.17,1.95,1.75,2.93h-1c-.44-.75-.91-1.48-1.31-2.26a.84.84,0,0,0-1-.54c-.2,0-.25.06-.25.26,0,.84,0,1.69,0,2.54Z"/><path class="cls-2" d="M92.43,28.34a.6.6,0,0,0,0-.37c0-1.8,0-3.6,0-5.41,0-.3.09-.39.37-.35a.66.66,0,0,0,.28,0c.2,0,.23.07.23.25,0,.69,0,1.39,0,2.09,0,.19,0,.24.25.26a.86.86,0,0,0,1-.53c.32-.63.72-1.22,1.09-1.83a1.15,1.15,0,0,1,1-.22c.12.09,0,.18-.06.26-.49.79-1,1.59-1.47,2.37a.48.48,0,0,0,0,.59c.51.83,1,1.68,1.51,2.51,0,.09.06.22.2.24s0,.15-.1.15c-.29,0-.59,0-.88,0-.44-.75-.91-1.49-1.31-2.26a.84.84,0,0,0-1-.54c-.19,0-.25.06-.25.26,0,.84,0,1.69,0,2.54Z"/><path class="cls-2" d="M19.75,28.34c0-1.49,0-3,0-4.46,0-.48,0-.95,0-1.43,0-.18.06-.24.24-.24h3.12c.19,0,.24.06.24.24,0,.53,0,.53-.5.53s-1.29,0-1.94,0c-.23,0-.29.07-.29.3,0,.46,0,.93,0,1.39,0,.19.06.24.24.24.57,0,1.14,0,1.72,0,.36,0,.24.23.24.4s.09.38-.24.36c-.56,0-1.12,0-1.68,0-.21,0-.29.05-.29.27,0,.48,0,1,0,1.43,0,.25.09.28.31.28.72,0,1.45,0,2.17,0,.35,0,.47.09.41.42a1.62,1.62,0,0,0,0,.31Z"/><path class="cls-2" d="M2.11,28.34c0-1.68,0-3.36,0-5.05,0-.26-.06-.33-.32-.32C1.19,23,.6,23,0,23V22.2l4.7,0c.13,0,.33-.09.37.08a1.44,1.44,0,0,1,0,.62c0,.11-.16,0-.24.06H3.24c-.17,0-.26,0-.26.21,0,1.69,0,3.37,0,5.06a.32.32,0,0,0,0,.09Z"/><path class="cls-2" d="M76.9,28.34c0-1.16,0-2.32,0-3.48,0-.79,0-1.58,0-2.37,0-.2,0-.28.27-.28.62,0,.62,0,.62.6,0,1.72,0,3.43,0,5.15,0,.13,0,.25,0,.38Z"/></g></g></g></svg>