<svg id="svg" version="1.1" xmlns="http://www.w3.org/2000/svg" xmlns:xlink="http://www.w3.org/1999/xlink" width="400" height="169.61130742049468" viewBox="0, 0, 400,169.61130742049468"><g id="svgg"><path id="path0" d="M257.167 52.422 C 249.736 53.334,241.801 56.477,237.733 60.121 C 237.449 60.375,236.818 60.921,236.330 61.333 C 234.767 62.654,232.857 64.869,231.443 67.000 C 225.972 75.246,224.812 86.699,228.410 96.968 C 232.433 108.453,241.692 116.000,254.417 118.168 C 256.610 118.541,271.218 118.298,273.167 117.856 C 277.981 116.763,281.777 114.940,284.470 112.428 C 289.012 108.193,292.898 100.314,293.129 94.873 L 293.209 92.997 285.313 93.040 L 277.417 93.083 277.210 94.331 C 274.375 111.467,253.399 113.166,245.287 96.917 C 244.783 95.906,244.430 94.963,243.657 92.555 C 241.810 86.797,242.761 77.597,245.747 72.333 C 249.602 65.538,256.721 62.121,264.833 63.172 C 267.298 63.492,271.646 65.342,272.347 66.370 C 272.400 66.448,272.680 66.678,272.969 66.881 C 275.018 68.320,276.999 72.410,277.305 75.833 L 277.417 77.083 285.288 77.127 L 293.159 77.170 293.261 76.767 C 293.613 75.364,292.469 70.385,291.139 67.531 C 286.299 57.147,271.673 50.642,257.167 52.422 M6.411 53.540 C 6.367 53.655,6.350 67.813,6.374 85.000 L 6.417 116.250 13.750 116.250 L 21.083 116.250 21.167 103.000 L 21.250 89.750 37.625 89.708 L 54.000 89.665 54.000 102.827 C 54.000 115.669,54.008 115.992,54.322 116.161 C 54.959 116.502,68.666 116.388,68.670 116.042 C 68.672 115.804,68.670 55.334,68.667 53.792 L 68.667 53.333 61.533 53.333 C 56.207 53.333,54.349 53.384,54.200 53.533 C 54.048 53.685,54.000 56.652,54.000 65.867 L 54.000 78.000 37.584 78.000 L 21.169 78.000 21.126 65.708 L 21.083 53.417 13.787 53.373 C 8.039 53.339,6.474 53.374,6.411 53.540 M88.708 53.455 L 80.999 53.503 81.041 84.877 L 81.083 116.250 89.333 116.296 C 93.871 116.322,97.752 116.301,97.959 116.251 L 98.334 116.160 98.292 84.788 L 98.250 53.417 97.333 53.411 C 96.829 53.409,92.948 53.428,88.708 53.455 M103.444 53.444 C 103.383 53.506,103.333 56.309,103.333 59.674 L 103.333 65.792 103.852 65.895 C 104.335 65.992,115.140 65.816,123.618 65.573 L 127.319 65.467 127.435 65.930 C 127.499 66.184,127.496 77.581,127.430 91.257 C 127.317 114.316,127.328 116.129,127.585 116.227 C 128.068 116.413,142.491 116.350,142.844 116.161 C 143.161 115.991,143.167 115.532,143.167 90.744 L 143.167 65.500 154.895 65.500 L 166.623 65.500 166.726 64.875 C 166.860 64.067,166.865 53.944,166.732 53.597 C 166.627 53.322,103.719 53.170,103.444 53.444 M182.522 53.557 C 182.337 53.780,180.037 58.758,178.813 61.583 C 178.456 62.408,178.099 63.199,178.019 63.340 C 177.939 63.482,176.935 65.657,175.788 68.174 C 174.641 70.691,173.462 73.275,173.167 73.917 C 172.873 74.558,172.161 76.133,171.585 77.417 C 171.009 78.700,170.275 80.313,169.952 81.000 C 169.630 81.688,168.419 84.350,167.262 86.917 C 166.105 89.483,165.055 91.771,164.928 92.000 C 164.802 92.229,164.084 93.804,163.334 95.500 C 162.583 97.196,161.910 98.658,161.838 98.750 C 161.766 98.842,161.650 99.104,161.580 99.333 C 161.510 99.563,161.094 100.500,160.656 101.417 C 160.219 102.333,158.963 105.071,157.867 107.500 C 156.771 109.929,155.594 112.517,155.252 113.250 C 154.040 115.846,153.969 116.044,154.202 116.192 C 154.512 116.388,170.787 116.370,171.155 116.173 C 171.320 116.085,171.736 115.353,172.079 114.548 C 172.422 113.742,172.800 112.858,172.920 112.583 C 173.039 112.308,173.672 110.808,174.326 109.250 C 174.980 107.692,175.760 105.854,176.058 105.167 L 176.601 103.917 191.151 103.917 L 205.702 103.917 206.532 105.750 C 206.988 106.758,208.057 109.158,208.907 111.083 C 209.757 113.008,210.633 114.958,210.854 115.417 L 211.255 116.250 219.961 116.287 C 224.749 116.308,228.667 116.269,228.667 116.202 C 228.667 115.944,227.786 113.763,227.005 112.083 C 226.834 111.717,226.380 110.704,225.996 109.833 C 225.611 108.962,224.818 107.183,224.232 105.878 C 223.646 104.574,223.167 103.473,223.167 103.432 C 223.167 103.390,222.952 102.883,222.689 102.303 C 221.209 99.043,219.415 94.982,218.616 93.083 C 218.385 92.533,217.936 91.521,217.620 90.833 C 217.303 90.146,216.538 88.421,215.919 87.000 C 215.301 85.579,214.607 84.004,214.377 83.500 C 214.147 82.996,213.551 81.646,213.052 80.500 C 212.554 79.354,212.008 78.117,211.840 77.750 C 211.671 77.383,211.256 76.446,210.917 75.667 C 210.577 74.887,210.165 73.950,210.001 73.583 C 209.836 73.217,209.238 71.867,208.672 70.583 C 208.106 69.300,207.310 67.527,206.905 66.644 C 206.499 65.760,206.167 64.986,206.167 64.922 C 206.167 64.822,204.965 62.112,203.504 58.917 C 203.253 58.367,202.649 56.979,202.162 55.833 C 201.676 54.688,201.206 53.656,201.119 53.542 C 200.876 53.225,182.786 53.239,182.522 53.557 M301.278 53.444 C 301.003 53.719,301.155 116.127,301.430 116.232 C 302.266 116.553,318.322 116.332,318.501 115.997 C 318.630 115.757,318.624 112.048,318.481 102.937 C 318.371 95.938,318.328 90.088,318.385 89.938 C 318.482 89.687,319.722 89.668,333.537 89.707 L 348.583 89.750 348.626 102.951 L 348.669 116.152 349.209 116.249 C 349.507 116.302,353.387 116.324,357.833 116.298 L 365.917 116.250 365.917 84.833 L 365.917 53.417 357.333 53.417 L 348.750 53.417 348.667 65.333 L 348.583 77.250 333.500 77.250 L 318.417 77.250 318.374 65.426 C 318.341 56.220,318.285 53.572,318.124 53.470 C 317.874 53.311,301.436 53.286,301.278 53.444 M378.278 53.444 C 378.217 53.506,378.167 67.634,378.167 84.840 L 378.167 116.125 378.688 116.229 C 378.974 116.286,382.199 116.333,385.854 116.333 L 392.500 116.333 392.500 84.833 L 392.500 53.333 385.444 53.333 C 381.564 53.333,378.339 53.383,378.278 53.444 M192.592 69.625 C 193.118 70.977,193.677 72.383,193.834 72.750 C 193.990 73.117,195.223 76.192,196.574 79.583 C 197.924 82.975,199.512 86.932,200.103 88.378 C 200.693 89.823,201.221 91.229,201.276 91.503 L 201.375 92.000 191.215 92.000 C 185.627 92.000,181.013 91.957,180.960 91.905 C 180.908 91.852,181.354 90.634,181.951 89.196 C 182.549 87.759,183.207 86.171,183.415 85.667 C 183.622 85.162,184.371 83.400,185.079 81.750 C 185.788 80.100,186.504 78.412,186.672 78.000 C 186.839 77.587,187.308 76.462,187.715 75.500 C 188.122 74.537,188.959 72.550,189.576 71.083 C 191.640 66.170,191.310 66.330,192.592 69.625 " stroke="none" fill="#f80505" fill-rule="evenodd"></path><path id="path1" d="M0.000 84.750 L 0.000 169.500 200.000 169.500 L 400.000 169.500 400.000 84.750 L 400.000 0.000 200.000 0.000 L 0.000 0.000 0.000 84.750 M266.838 52.250 C 282.310 54.114,293.164 63.721,293.386 75.750 L 293.417 77.417 285.427 77.460 C 281.032 77.484,277.374 77.441,277.298 77.365 C 277.222 77.288,277.133 76.706,277.100 76.071 C 276.722 68.646,270.228 63.154,261.846 63.170 C 253.093 63.186,245.955 69.045,243.778 78.000 C 239.948 93.758,249.230 108.228,262.889 107.793 C 270.955 107.536,276.279 101.971,277.163 92.875 C 277.165 92.852,280.852 92.833,285.356 92.833 L 293.545 92.833 293.458 94.458 C 293.081 101.538,288.000 110.649,282.326 114.421 C 279.493 116.305,275.478 117.783,271.718 118.327 C 270.125 118.557,255.383 118.557,254.072 118.326 C 236.826 115.296,226.228 102.471,226.257 84.667 C 226.280 71.033,233.046 60.591,245.250 55.358 C 246.167 54.965,247.067 54.579,247.250 54.500 C 249.489 53.540,253.964 52.562,258.167 52.115 C 259.787 51.943,264.956 52.024,266.838 52.250 M21.374 65.458 L 21.417 77.750 37.583 77.750 L 53.750 77.750 53.833 65.500 L 53.917 53.250 61.417 53.250 L 68.917 53.250 68.917 84.833 L 68.917 116.417 61.417 116.417 L 53.917 116.417 53.833 103.167 L 53.750 89.917 37.583 89.917 L 21.417 89.917 21.374 103.208 L 21.331 116.500 13.749 116.500 L 6.167 116.500 6.167 84.833 L 6.167 53.167 13.749 53.167 L 21.331 53.167 21.374 65.458 M98.500 84.833 L 98.500 116.500 89.668 116.500 L 80.835 116.500 80.793 85.375 C 80.769 68.256,80.774 54.045,80.803 53.793 L 80.855 53.337 88.469 53.292 C 92.657 53.267,96.627 53.229,97.292 53.207 L 98.500 53.167 98.500 84.833 M166.917 59.417 L 166.917 65.583 155.167 65.667 L 143.417 65.750 143.333 91.083 L 143.250 116.417 135.261 116.460 C 128.981 116.494,127.243 116.458,127.136 116.293 C 127.062 116.178,127.051 104.789,127.111 90.985 C 127.185 74.043,127.166 65.852,127.051 65.782 C 126.958 65.724,121.658 65.795,115.273 65.939 C 108.889 66.084,103.553 66.159,103.416 66.106 C 103.201 66.024,103.167 65.134,103.167 59.588 L 103.167 53.166 135.042 53.208 L 166.917 53.250 166.917 59.417 M201.288 53.375 C 201.377 53.490,201.721 54.221,202.052 55.000 C 202.383 55.779,202.799 56.717,202.975 57.083 C 203.152 57.450,203.785 58.875,204.381 60.250 C 204.978 61.625,206.223 64.458,207.149 66.545 C 208.076 68.632,208.833 70.369,208.833 70.405 C 208.833 70.441,209.104 71.058,209.435 71.777 C 210.517 74.128,210.781 74.719,211.917 77.333 C 212.534 78.754,213.210 80.292,213.420 80.750 C 213.630 81.208,214.040 82.146,214.332 82.833 C 214.624 83.521,215.002 84.383,215.171 84.750 C 215.341 85.117,215.791 86.129,216.171 87.000 C 216.552 87.871,217.006 88.902,217.182 89.292 C 217.357 89.681,217.659 90.356,217.853 90.792 C 218.048 91.227,218.582 92.408,219.042 93.417 C 219.501 94.425,219.980 95.544,220.107 95.902 C 220.234 96.261,220.399 96.636,220.474 96.736 C 220.549 96.835,220.781 97.329,220.991 97.833 C 221.200 98.337,222.346 100.962,223.538 103.667 C 224.729 106.371,225.999 109.258,226.361 110.083 C 226.722 110.908,227.162 111.883,227.338 112.250 C 228.068 113.775,229.000 116.018,229.000 116.250 C 229.000 116.469,227.888 116.500,220.027 116.500 L 211.054 116.500 210.842 116.042 C 210.725 115.790,210.142 114.458,209.545 113.083 C 208.948 111.708,208.234 110.106,207.959 109.523 C 207.684 108.940,207.026 107.477,206.498 106.273 L 205.538 104.083 191.477 104.037 C 177.667 103.992,176.667 104.012,176.667 104.332 C 176.667 104.419,176.483 104.887,176.259 105.370 C 176.035 105.854,175.319 107.525,174.668 109.083 C 174.018 110.642,173.399 112.104,173.293 112.333 C 173.187 112.563,172.757 113.575,172.338 114.583 L 171.574 116.417 162.620 116.460 C 157.243 116.486,153.667 116.442,153.667 116.349 C 153.667 116.265,154.370 114.633,155.229 112.723 C 156.088 110.813,156.991 108.800,157.235 108.250 C 157.479 107.700,157.752 107.119,157.840 106.960 C 157.929 106.800,158.516 105.525,159.145 104.126 C 160.420 101.291,161.099 99.810,161.916 98.083 C 162.220 97.442,162.916 95.904,163.464 94.667 C 164.011 93.429,164.962 91.329,165.576 90.000 C 166.190 88.671,166.883 87.171,167.116 86.667 C 167.349 86.162,167.822 85.112,168.169 84.333 C 168.515 83.554,169.059 82.354,169.378 81.667 C 169.697 80.979,170.535 79.142,171.242 77.583 C 171.948 76.025,172.664 74.450,172.832 74.083 C 173.000 73.717,173.641 72.292,174.257 70.917 C 174.872 69.542,175.431 68.342,175.498 68.250 C 175.565 68.158,176.053 67.108,176.582 65.917 C 177.717 63.360,179.004 60.513,179.709 59.000 C 180.560 57.175,182.025 53.938,182.179 53.542 L 182.325 53.167 191.725 53.167 C 199.048 53.167,201.162 53.213,201.288 53.375 M318.541 65.042 L 318.583 76.917 333.542 76.959 L 348.500 77.002 348.500 65.083 L 348.500 53.164 357.375 53.207 L 366.250 53.250 366.250 84.833 L 366.250 116.417 357.417 116.417 L 348.583 116.417 348.500 103.167 L 348.417 89.917 333.646 89.874 C 320.537 89.836,318.852 89.860,318.663 90.087 C 318.491 90.294,318.491 92.806,318.658 103.272 C 318.782 111.002,318.805 116.262,318.715 116.352 C 318.627 116.440,314.858 116.485,309.740 116.460 L 300.917 116.417 300.874 85.000 C 300.850 67.721,300.867 53.490,300.910 53.375 C 300.972 53.212,302.894 53.167,309.744 53.167 L 318.498 53.167 318.541 65.042 M392.667 84.833 L 392.667 116.500 385.345 116.500 L 378.023 116.500 377.970 116.125 C 377.941 115.919,377.936 101.669,377.959 84.458 L 378.002 53.167 385.334 53.167 L 392.667 53.167 392.667 84.833 M190.970 68.458 C 190.781 68.894,190.484 69.565,190.312 69.951 C 190.140 70.336,189.747 71.274,189.439 72.034 C 189.131 72.794,188.352 74.654,187.708 76.167 C 187.064 77.679,185.920 80.379,185.166 82.167 C 184.411 83.954,183.241 86.722,182.564 88.317 C 181.887 89.912,181.333 91.356,181.333 91.525 C 181.333 91.821,181.715 91.833,191.178 91.833 L 201.022 91.833 200.969 91.451 C 200.889 90.869,191.603 67.674,191.449 67.670 C 191.375 67.668,191.160 68.023,190.970 68.458 " stroke="none" fill="#fbfbfb" fill-rule="evenodd"></path><path id="path2" d="M260.292 52.124 C 261.231 52.154,262.769 52.154,263.708 52.124 C 264.648 52.095,263.879 52.070,262.000 52.070 C 260.121 52.070,259.352 52.095,260.292 52.124 M257.294 52.285 C 257.501 52.324,257.801 52.323,257.960 52.281 C 258.120 52.239,257.950 52.207,257.583 52.209 C 257.217 52.211,257.086 52.245,257.294 52.285 M266.042 52.282 C 266.202 52.323,266.465 52.323,266.625 52.282 C 266.785 52.240,266.654 52.205,266.333 52.205 C 266.012 52.205,265.881 52.240,266.042 52.282 M252.750 52.912 C 251.866 53.203,252.187 53.210,253.333 52.924 C 253.838 52.798,254.063 52.694,253.833 52.694 C 253.604 52.693,253.117 52.791,252.750 52.912 M55.708 53.282 C 55.869 53.323,56.131 53.323,56.292 53.282 C 56.452 53.240,56.321 53.205,56.000 53.205 C 55.679 53.205,55.548 53.240,55.708 53.282 M68.662 53.276 C 68.778 53.334,68.833 63.511,68.833 84.847 L 68.833 116.333 61.417 116.333 L 54.000 116.333 54.000 103.083 C 54.000 95.796,53.944 89.833,53.875 89.833 C 53.806 89.833,53.788 95.815,53.833 103.125 L 53.917 116.417 61.417 116.417 L 68.917 116.417 68.917 84.847 C 68.917 59.395,68.875 53.269,68.704 53.235 C 68.587 53.211,68.569 53.230,68.662 53.276 M166.750 59.417 C 166.750 62.837,166.806 65.600,166.875 65.558 C 166.944 65.515,167.000 62.752,167.000 59.417 C 167.000 56.082,166.944 53.318,166.875 53.276 C 166.806 53.233,166.750 55.997,166.750 59.417 M182.278 53.278 C 182.217 53.339,182.168 53.470,182.169 53.569 C 182.171 53.692,182.211 53.689,182.294 53.561 C 182.362 53.457,182.567 53.334,182.750 53.289 C 183.072 53.208,183.072 53.205,182.736 53.186 C 182.545 53.175,182.339 53.217,182.278 53.278 M300.910 53.375 C 300.867 53.490,300.850 67.721,300.874 85.000 L 300.917 116.417 309.833 116.417 L 318.750 116.417 318.755 112.750 L 318.760 109.083 318.710 112.708 L 318.660 116.333 309.830 116.333 L 301.000 116.333 301.000 84.845 L 301.000 53.357 301.375 53.284 L 301.750 53.212 301.370 53.189 C 301.161 53.177,300.954 53.260,300.910 53.375 M364.375 53.282 C 364.535 53.323,364.798 53.323,364.958 53.282 C 365.119 53.240,364.988 53.205,364.667 53.205 C 364.346 53.205,364.215 53.240,364.375 53.282 M365.875 53.272 C 366.151 53.353,366.167 55.001,366.167 84.844 L 366.167 116.330 357.417 116.376 L 348.667 116.421 357.458 116.419 L 366.250 116.417 366.250 84.836 C 366.250 53.377,366.249 53.254,365.917 53.220 C 365.658 53.193,365.648 53.205,365.875 53.272 M378.294 53.285 C 378.501 53.324,378.801 53.323,378.960 53.281 C 379.120 53.239,378.950 53.207,378.583 53.209 C 378.217 53.211,378.086 53.245,378.294 53.285 M53.794 65.583 C 53.770 72.321,53.806 77.833,53.875 77.833 C 53.944 77.833,54.000 72.321,54.000 65.583 C 54.000 58.846,53.963 53.333,53.919 53.333 C 53.874 53.333,53.818 58.846,53.794 65.583 M273.417 53.667 C 273.600 53.745,273.862 53.810,274.000 53.810 C 274.158 53.810,274.127 53.757,273.917 53.667 C 273.733 53.588,273.471 53.523,273.333 53.523 C 273.176 53.523,273.207 53.576,273.417 53.667 M275.500 54.305 C 275.637 54.390,275.938 54.510,276.167 54.571 C 276.456 54.649,276.507 54.635,276.333 54.528 C 276.196 54.443,275.896 54.324,275.667 54.262 C 275.377 54.185,275.326 54.198,275.500 54.305 M281.191 56.901 C 281.250 56.967,281.850 57.354,282.524 57.761 C 283.198 58.169,283.546 58.333,283.296 58.126 C 282.850 57.757,280.981 56.669,281.191 56.901 M203.012 57.417 C 203.012 57.508,203.119 57.771,203.250 58.000 C 203.381 58.229,203.488 58.342,203.488 58.250 C 203.488 58.158,203.381 57.896,203.250 57.667 C 203.119 57.438,203.012 57.325,203.012 57.417 M203.514 58.583 C 203.514 58.675,203.658 59.012,203.833 59.333 C 204.009 59.654,204.153 59.842,204.153 59.750 C 204.153 59.658,204.009 59.321,203.833 59.000 C 203.658 58.679,203.514 58.492,203.514 58.583 M283.833 58.548 C 283.833 58.591,284.262 58.992,284.785 59.438 C 285.308 59.885,285.683 60.163,285.618 60.057 C 285.475 59.824,283.833 58.436,283.833 58.548 M237.569 59.929 L 236.917 60.524 237.625 59.984 C 238.272 59.491,238.430 59.333,238.278 59.333 C 238.247 59.333,237.928 59.601,237.569 59.929 M179.027 60.424 C 178.748 61.037,178.801 61.167,179.103 60.610 C 179.244 60.350,179.328 60.106,179.290 60.068 C 179.252 60.030,179.134 60.190,179.027 60.424 M204.167 60.042 C 204.167 60.225,204.821 61.667,204.905 61.667 C 204.951 61.667,204.836 61.312,204.650 60.878 C 204.321 60.111,204.167 59.843,204.167 60.042 M286.909 61.333 C 288.529 63.091,288.832 63.380,288.043 62.417 C 287.668 61.958,287.000 61.246,286.559 60.833 C 286.038 60.346,286.160 60.521,286.909 61.333 M235.409 61.875 L 234.750 62.583 235.458 61.925 C 235.848 61.562,236.167 61.243,236.167 61.216 C 236.167 61.090,236.022 61.216,235.409 61.875 M178.283 62.085 C 178.130 62.405,178.040 62.667,178.082 62.667 C 178.196 62.667,178.702 61.646,178.625 61.570 C 178.589 61.534,178.435 61.766,178.283 62.085 M260.875 63.123 C 261.402 63.156,262.265 63.156,262.792 63.123 C 263.319 63.090,262.887 63.063,261.833 63.063 C 260.779 63.063,260.348 63.090,260.875 63.123 M264.042 63.282 C 264.202 63.323,264.465 63.323,264.625 63.282 C 264.785 63.240,264.654 63.205,264.333 63.205 C 264.012 63.205,263.881 63.240,264.042 63.282 M177.527 63.757 C 177.248 64.370,177.301 64.501,177.603 63.944 C 177.744 63.683,177.828 63.439,177.790 63.401 C 177.752 63.363,177.634 63.523,177.527 63.757 M290.145 65.417 C 290.235 65.600,290.431 65.900,290.580 66.083 L 290.852 66.417 290.688 66.083 C 290.598 65.900,290.402 65.600,290.253 65.417 L 289.982 65.083 290.145 65.417 M118.384 65.791 C 119.467 65.820,121.192 65.820,122.218 65.791 C 123.244 65.762,122.358 65.738,120.250 65.738 C 118.142 65.738,117.302 65.762,118.384 65.791 M127.125 75.292 C 127.148 80.585,127.187 87.317,127.211 90.250 C 127.235 93.183,127.272 88.852,127.294 80.625 C 127.316 72.398,127.277 65.667,127.208 65.667 C 127.140 65.667,127.102 69.998,127.125 75.292 M143.167 90.998 L 143.167 116.330 135.167 116.376 L 127.167 116.422 135.208 116.419 L 143.250 116.417 143.333 91.042 C 143.379 77.085,143.360 65.667,143.292 65.667 C 143.223 65.667,143.167 77.066,143.167 90.998 M206.678 65.750 C 206.678 65.842,206.786 66.104,206.917 66.333 C 207.048 66.563,207.155 66.675,207.155 66.583 C 207.155 66.492,207.048 66.229,206.917 66.000 C 206.786 65.771,206.678 65.658,206.678 65.750 M251.500 66.182 C 250.508 66.830,248.514 68.640,247.811 69.530 C 247.503 69.921,247.963 69.525,248.833 68.649 C 249.704 67.773,250.848 66.782,251.375 66.447 C 251.902 66.112,252.333 65.799,252.333 65.752 C 252.333 65.636,252.348 65.629,251.500 66.182 M103.321 66.053 C 103.395 66.128,106.372 66.117,109.936 66.027 L 116.417 65.865 109.801 65.891 C 106.163 65.905,103.247 65.978,103.321 66.053 M191.189 67.600 C 190.944 68.138,190.994 68.205,191.355 67.825 C 191.505 67.668,191.574 67.453,191.509 67.348 C 191.434 67.227,191.317 67.319,191.189 67.600 M207.345 67.250 C 207.345 67.342,207.452 67.604,207.583 67.833 C 207.714 68.063,207.822 68.175,207.822 68.083 C 207.822 67.992,207.714 67.729,207.583 67.500 C 207.452 67.271,207.345 67.158,207.345 67.250 M230.460 68.042 C 230.102 68.590,229.436 69.945,229.621 69.750 C 229.827 69.533,230.856 67.667,230.771 67.667 C 230.735 67.667,230.595 67.835,230.460 68.042 M192.361 69.675 C 192.459 69.955,192.569 70.153,192.607 70.115 C 192.690 70.032,192.375 69.167,192.263 69.167 C 192.219 69.167,192.264 69.395,192.361 69.675 M174.531 70.258 C 174.029 71.292,174.085 71.436,174.603 70.442 C 174.834 69.998,174.994 69.606,174.960 69.571 C 174.925 69.536,174.732 69.845,174.531 70.258 M292.187 69.667 C 292.184 69.804,292.285 70.142,292.411 70.417 C 292.705 71.060,292.710 70.761,292.417 70.000 C 292.293 69.679,292.190 69.529,292.187 69.667 M229.031 70.758 C 228.529 71.792,228.585 71.936,229.103 70.942 C 229.334 70.498,229.494 70.106,229.460 70.071 C 229.425 70.036,229.232 70.345,229.031 70.758 M173.602 72.352 C 173.357 72.917,173.184 73.406,173.217 73.440 C 173.251 73.473,173.478 73.038,173.722 72.472 C 173.966 71.907,174.139 71.417,174.107 71.384 C 174.074 71.352,173.847 71.787,173.602 72.352 M188.860 73.090 C 188.581 73.703,188.634 73.834,188.936 73.277 C 189.077 73.017,189.162 72.773,189.123 72.735 C 189.085 72.696,188.967 72.857,188.860 73.090 M293.209 74.250 C 293.211 74.617,293.245 74.747,293.285 74.540 C 293.324 74.332,293.323 74.032,293.281 73.873 C 293.239 73.714,293.207 73.883,293.209 74.250 M188.360 74.257 C 188.081 74.870,188.134 75.001,188.436 74.444 C 188.577 74.183,188.662 73.939,188.623 73.901 C 188.585 73.863,188.467 74.023,188.360 74.257 M210.586 74.616 C 210.836 75.214,211.000 75.484,211.000 75.298 C 211.000 75.118,210.494 74.000,210.412 74.000 C 210.366 74.000,210.445 74.277,210.586 74.616 M194.178 74.250 C 194.178 74.342,194.286 74.604,194.417 74.833 C 194.548 75.063,194.655 75.175,194.655 75.083 C 194.655 74.992,194.548 74.729,194.417 74.500 C 194.286 74.271,194.178 74.158,194.178 74.250 M227.271 75.521 C 227.132 76.216,227.267 76.350,227.417 75.667 C 227.480 75.379,227.497 75.108,227.455 75.066 C 227.412 75.023,227.329 75.228,227.271 75.521 M293.365 76.125 L 293.333 77.333 285.393 77.333 C 278.032 77.333,277.436 77.312,277.218 77.042 C 277.005 76.778,276.999 76.787,277.163 77.125 L 277.345 77.500 285.344 77.500 C 291.922 77.500,293.359 77.460,293.430 77.274 C 293.478 77.150,293.490 76.569,293.457 75.982 L 293.398 74.917 293.365 76.125 M318.500 77.042 C 318.500 77.110,325.269 77.149,333.542 77.127 C 341.815 77.106,346.183 77.068,343.250 77.044 C 329.300 76.930,318.500 76.928,318.500 77.042 M170.527 79.090 C 170.248 79.703,170.301 79.834,170.603 79.277 C 170.744 79.017,170.828 78.773,170.790 78.735 C 170.752 78.696,170.634 78.857,170.527 79.090 M196.195 79.342 C 196.292 79.622,196.403 79.819,196.441 79.782 C 196.523 79.699,196.209 78.833,196.096 78.833 C 196.053 78.833,196.097 79.062,196.195 79.342 M226.410 79.744 C 226.346 80.260,226.329 80.718,226.373 80.762 C 226.417 80.806,226.503 80.417,226.564 79.897 C 226.625 79.378,226.642 78.920,226.601 78.879 C 226.561 78.838,226.475 79.228,226.410 79.744 M185.750 80.442 C 185.610 80.777,185.534 81.090,185.581 81.137 C 185.628 81.184,185.667 81.181,185.667 81.131 C 185.667 81.082,185.780 80.769,185.919 80.437 C 186.058 80.105,186.134 79.833,186.088 79.833 C 186.042 79.833,185.890 80.107,185.750 80.442 M226.209 81.583 C 226.211 81.950,226.245 82.080,226.285 81.873 C 226.324 81.666,226.323 81.366,226.281 81.206 C 226.239 81.047,226.207 81.217,226.209 81.583 M214.178 82.750 C 214.178 82.842,214.286 83.104,214.417 83.333 C 214.548 83.563,214.655 83.675,214.655 83.583 C 214.655 83.492,214.548 83.229,214.417 83.000 C 214.286 82.771,214.178 82.658,214.178 82.750 M198.096 84.000 C 198.157 84.229,198.276 84.529,198.361 84.667 C 198.469 84.840,198.482 84.790,198.404 84.500 C 198.343 84.271,198.224 83.971,198.139 83.833 C 198.031 83.660,198.018 83.710,198.096 84.000 M183.360 86.090 C 183.081 86.703,183.134 86.834,183.436 86.277 C 183.577 86.017,183.662 85.773,183.623 85.735 C 183.585 85.696,183.467 85.857,183.360 86.090 M182.860 87.257 C 182.581 87.870,182.634 88.001,182.936 87.444 C 183.077 87.183,183.162 86.939,183.123 86.901 C 183.085 86.863,182.967 87.023,182.860 87.257 M226.209 88.083 C 226.211 88.450,226.245 88.580,226.285 88.373 C 226.324 88.166,226.323 87.866,226.281 87.706 C 226.239 87.547,226.207 87.717,226.209 88.083 M199.774 88.166 C 199.833 88.395,200.021 88.882,200.191 89.249 C 200.361 89.616,200.452 89.729,200.393 89.501 C 200.333 89.272,200.146 88.784,199.975 88.417 C 199.805 88.050,199.715 87.937,199.774 88.166 M226.372 89.333 C 226.372 89.654,226.406 89.785,226.448 89.625 C 226.490 89.465,226.490 89.202,226.448 89.042 C 226.406 88.881,226.372 89.013,226.372 89.333 M165.280 90.591 C 164.888 91.412,164.943 91.552,165.353 90.776 C 165.539 90.424,165.661 90.106,165.625 90.070 C 165.589 90.034,165.434 90.268,165.280 90.591 M217.905 91.248 C 218.185 91.919,218.488 92.464,218.495 92.313 C 218.503 92.145,217.825 90.667,217.740 90.667 C 217.697 90.667,217.772 90.928,217.905 91.248 M164.531 92.258 C 164.029 93.292,164.085 93.436,164.603 92.442 C 164.834 91.998,164.994 91.606,164.960 91.571 C 164.925 91.536,164.732 91.845,164.531 92.258 M293.392 94.167 C 293.392 94.946,293.420 95.265,293.455 94.875 C 293.490 94.485,293.490 93.848,293.455 93.458 C 293.420 93.069,293.392 93.388,293.392 94.167 M219.012 93.531 C 218.993 93.712,219.874 95.682,219.944 95.612 C 219.978 95.577,219.786 95.069,219.516 94.483 C 219.246 93.896,219.019 93.468,219.012 93.531 M220.572 97.248 C 220.852 97.919,221.154 98.464,221.162 98.313 C 221.170 98.145,220.492 96.667,220.407 96.667 C 220.364 96.667,220.438 96.928,220.572 97.248 M127.042 97.750 C 127.044 98.117,127.078 98.247,127.118 98.040 C 127.158 97.832,127.156 97.532,127.115 97.373 C 127.073 97.214,127.040 97.383,127.042 97.750 M161.398 99.101 C 161.260 99.432,161.177 99.733,161.214 99.770 C 161.251 99.807,161.400 99.536,161.544 99.168 C 161.870 98.337,161.742 98.278,161.398 99.101 M221.167 98.542 C 221.167 98.725,221.821 100.167,221.905 100.167 C 221.951 100.167,221.836 99.812,221.650 99.378 C 221.321 98.611,221.167 98.343,221.167 98.542 M275.694 98.924 C 275.414 99.537,275.468 99.667,275.770 99.110 C 275.911 98.850,275.995 98.606,275.957 98.568 C 275.919 98.530,275.800 98.690,275.694 98.924 M127.077 107.750 C 127.077 112.425,127.099 114.361,127.125 112.053 C 127.151 109.745,127.151 105.920,127.125 103.553 C 127.099 101.186,127.077 103.075,127.077 107.750 M318.539 100.000 C 318.539 100.321,318.573 100.452,318.615 100.292 C 318.657 100.131,318.657 99.869,318.615 99.708 C 318.573 99.548,318.539 99.679,318.539 100.000 M247.667 100.552 C 247.667 100.581,247.910 100.825,248.208 101.094 L 248.750 101.583 248.260 101.042 C 247.804 100.537,247.667 100.423,247.667 100.552 M274.244 101.708 C 273.987 102.098,273.883 102.329,274.013 102.221 C 274.264 102.014,274.902 101.000,274.782 101.000 C 274.743 101.000,274.501 101.319,274.244 101.708 M160.113 101.924 C 159.722 102.745,159.777 102.885,160.186 102.109 C 160.372 101.757,160.495 101.439,160.459 101.403 C 160.423 101.367,160.267 101.602,160.113 101.924 M249.500 102.583 C 249.998 103.087,250.443 103.500,250.489 103.500 C 250.534 103.500,250.165 103.087,249.667 102.583 C 249.169 102.079,248.724 101.667,248.678 101.667 C 248.632 101.667,249.002 102.079,249.500 102.583 M273.158 103.125 L 272.583 103.750 273.208 103.176 C 273.790 102.641,273.910 102.500,273.783 102.500 C 273.755 102.500,273.474 102.781,273.158 103.125 M250.819 103.723 C 251.062 104.026,252.000 104.740,252.000 104.623 C 252.000 104.586,251.681 104.302,251.292 103.993 C 250.902 103.683,250.689 103.562,250.819 103.723 M231.500 103.989 C 231.764 104.496,232.839 106.000,232.937 106.000 C 233.008 106.000,231.561 103.833,231.379 103.667 C 231.329 103.621,231.383 103.766,231.500 103.989 M223.678 104.250 C 223.678 104.342,223.786 104.604,223.917 104.833 C 224.048 105.063,224.155 105.175,224.155 105.083 C 224.155 104.992,224.048 104.729,223.917 104.500 C 223.786 104.271,223.678 104.158,223.678 104.250 M176.360 104.757 C 176.081 105.370,176.134 105.501,176.436 104.944 C 176.577 104.683,176.662 104.439,176.623 104.401 C 176.585 104.363,176.467 104.523,176.360 104.757 M271.083 105.098 L 270.583 105.528 271.125 105.169 C 271.423 104.972,271.667 104.778,271.667 104.739 C 271.667 104.614,271.596 104.657,271.083 105.098 M253.500 105.582 C 253.500 105.695,255.187 106.535,255.262 106.460 C 255.296 106.426,254.914 106.197,254.412 105.951 C 253.910 105.705,253.500 105.539,253.500 105.582 M206.347 105.917 C 206.347 106.008,206.491 106.346,206.667 106.667 C 206.842 106.987,206.986 107.175,206.986 107.083 C 206.986 106.992,206.842 106.654,206.667 106.333 C 206.491 106.013,206.347 105.825,206.347 105.917 M288.694 107.458 C 288.308 108.077,288.173 108.368,288.394 108.105 C 288.802 107.618,289.573 106.333,289.458 106.333 C 289.423 106.333,289.079 106.840,288.694 107.458 M255.667 106.639 C 255.804 106.724,256.104 106.843,256.333 106.904 C 256.623 106.982,256.674 106.969,256.500 106.861 C 256.362 106.776,256.063 106.657,255.833 106.596 C 255.544 106.518,255.493 106.531,255.667 106.639 M157.658 107.273 C 157.566 107.515,157.522 107.744,157.559 107.782 C 157.597 107.819,157.708 107.622,157.805 107.342 C 158.022 106.720,157.891 106.659,157.658 107.273 M224.847 106.917 C 224.847 107.008,224.991 107.346,225.167 107.667 C 225.342 107.987,225.486 108.175,225.486 108.083 C 225.486 107.992,225.342 107.654,225.167 107.333 C 224.991 107.013,224.847 106.825,224.847 106.917 M257.250 107.256 C 257.525 107.382,257.900 107.483,258.083 107.481 C 258.267 107.479,258.079 107.371,257.667 107.241 C 256.741 106.950,256.593 106.955,257.250 107.256 M266.750 107.255 C 266.383 107.376,266.233 107.477,266.417 107.480 C 266.600 107.483,266.975 107.382,267.250 107.256 C 267.880 106.968,267.623 106.967,266.750 107.255 M207.005 107.354 C 206.997 107.522,207.675 109.000,207.760 109.000 C 207.803 109.000,207.728 108.738,207.595 108.418 C 207.315 107.748,207.012 107.202,207.005 107.354 M234.583 108.000 C 234.941 108.367,235.272 108.667,235.318 108.667 C 235.363 108.667,235.108 108.367,234.750 108.000 C 234.392 107.633,234.062 107.333,234.016 107.333 C 233.970 107.333,234.225 107.633,234.583 108.000 M261.548 107.957 C 262.078 107.990,262.903 107.990,263.381 107.956 C 263.859 107.922,263.425 107.895,262.417 107.896 C 261.408 107.896,261.017 107.924,261.548 107.957 M174.417 109.276 C 174.277 109.610,174.201 109.923,174.248 109.970 C 174.295 110.017,174.333 110.015,174.333 109.965 C 174.333 109.915,174.447 109.602,174.586 109.270 C 174.724 108.938,174.800 108.667,174.754 108.667 C 174.709 108.667,174.557 108.941,174.417 109.276 M156.613 109.591 C 156.222 110.412,156.277 110.552,156.686 109.776 C 156.872 109.424,156.995 109.106,156.959 109.070 C 156.923 109.034,156.767 109.268,156.613 109.591 M287.000 109.833 C 286.616 110.292,286.340 110.667,286.386 110.667 C 286.431 110.667,286.783 110.292,287.167 109.833 C 287.550 109.375,287.827 109.000,287.781 109.000 C 287.735 109.000,287.384 109.375,287.000 109.833 M237.083 110.500 C 237.535 110.958,237.942 111.333,237.987 111.333 C 238.033 111.333,237.701 110.958,237.250 110.500 C 236.799 110.042,236.392 109.667,236.346 109.667 C 236.300 109.667,236.632 110.042,237.083 110.500 M155.860 111.257 C 155.581 111.870,155.634 112.001,155.936 111.444 C 156.077 111.183,156.162 110.939,156.123 110.901 C 156.085 110.863,155.967 111.023,155.860 111.257 M285.000 112.083 C 284.317 112.771,283.796 113.333,283.842 113.333 C 283.888 113.333,284.484 112.771,285.167 112.083 C 285.850 111.396,286.371 110.833,286.325 110.833 C 286.279 110.833,285.683 111.396,285.000 112.083 M238.948 112.009 C 239.149 112.233,239.562 112.559,239.865 112.732 C 240.521 113.107,240.356 112.930,239.333 112.164 C 238.781 111.750,238.680 111.709,238.948 112.009 M227.379 112.663 C 227.572 113.119,227.759 113.463,227.795 113.427 C 227.874 113.348,227.220 111.833,227.107 111.833 C 227.064 111.833,227.186 112.207,227.379 112.663 M155.027 113.090 C 154.748 113.703,154.801 113.834,155.103 113.277 C 155.244 113.017,155.328 112.773,155.290 112.735 C 155.252 112.696,155.134 112.857,155.027 113.090 M240.627 113.202 C 240.823 113.439,242.167 114.239,242.167 114.119 C 242.167 114.081,241.778 113.808,241.303 113.513 C 240.828 113.218,240.524 113.078,240.627 113.202 M228.005 114.020 C 227.997 114.188,228.675 115.667,228.760 115.667 C 228.803 115.667,228.728 115.405,228.595 115.085 C 228.315 114.415,228.012 113.869,228.005 114.020 M210.405 115.082 C 210.685 115.752,210.988 116.298,210.995 116.146 C 211.003 115.978,210.325 114.500,210.240 114.500 C 210.197 114.500,210.272 114.762,210.405 115.082 M228.833 116.082 C 228.833 116.299,227.684 116.336,219.875 116.375 L 210.917 116.420 219.958 116.460 C 228.902 116.500,229.000 116.496,229.000 116.167 C 229.000 115.983,228.963 115.833,228.917 115.833 C 228.871 115.833,228.833 115.945,228.833 116.082 M162.583 116.333 L 153.583 116.421 162.532 116.461 C 168.361 116.486,171.516 116.442,171.583 116.333 C 171.640 116.242,171.663 116.184,171.635 116.206 C 171.607 116.228,167.533 116.285,162.583 116.333 M9.970 116.458 C 12.107 116.485,15.557 116.485,17.636 116.458 C 19.716 116.432,17.967 116.410,13.750 116.410 C 9.533 116.410,7.832 116.432,9.970 116.458 M85.208 116.458 C 87.660 116.484,91.673 116.484,94.125 116.458 C 96.577 116.432,94.571 116.411,89.667 116.411 C 84.762 116.411,82.756 116.432,85.208 116.458 M247.167 116.472 C 247.304 116.557,247.604 116.676,247.833 116.738 C 248.123 116.815,248.174 116.802,248.000 116.695 C 247.862 116.610,247.563 116.490,247.333 116.429 C 247.044 116.351,246.993 116.365,247.167 116.472 M381.625 116.458 C 383.665 116.485,387.002 116.485,389.042 116.458 C 391.081 116.432,389.412 116.410,385.333 116.410 C 381.254 116.410,379.585 116.432,381.625 116.458 M258.708 118.458 C 260.977 118.484,264.690 118.484,266.958 118.458 C 269.227 118.432,267.371 118.411,262.833 118.411 C 258.296 118.411,256.440 118.432,258.708 118.458 " stroke="none" fill="#ef9999" fill-rule="evenodd"></path><path id="path3" d="M318.085 53.331 C 318.027 53.424,318.057 53.500,318.151 53.500 C 318.250 53.500,318.344 54.139,318.376 55.042 L 318.431 56.583 318.465 54.968 C 318.497 53.495,318.357 52.891,318.085 53.331 M68.705 53.833 C 68.705 54.154,68.740 54.285,68.782 54.125 C 68.823 53.965,68.823 53.702,68.782 53.542 C 68.740 53.381,68.705 53.512,68.705 53.833 M80.944 53.444 C 80.790 53.599,80.804 116.333,80.958 116.333 C 81.027 116.333,81.064 102.197,81.041 84.919 L 80.998 53.504 86.874 53.458 L 92.750 53.412 86.903 53.373 C 83.687 53.351,81.006 53.383,80.944 53.444 M98.293 84.698 C 98.326 109.714,98.293 116.089,98.126 116.195 C 97.976 116.291,97.999 116.329,98.208 116.331 C 98.485 116.333,98.500 114.723,98.500 84.833 C 98.500 67.508,98.444 53.333,98.375 53.333 C 98.306 53.333,98.269 67.447,98.293 84.698 M301.000 84.833 C 301.000 114.723,301.015 116.333,301.292 116.331 C 301.501 116.329,301.524 116.291,301.374 116.195 C 301.207 116.089,301.174 109.714,301.207 84.698 C 301.231 67.447,301.194 53.333,301.125 53.333 C 301.056 53.333,301.000 67.508,301.000 84.833 M348.523 54.542 C 348.547 55.814,348.621 55.675,348.702 54.208 C 348.728 53.727,348.694 53.333,348.625 53.333 C 348.556 53.333,348.510 53.877,348.523 54.542 M365.917 84.833 C 365.917 102.158,365.973 116.333,366.042 116.333 C 366.110 116.333,366.167 102.158,366.167 84.833 C 366.167 67.508,366.110 53.333,366.042 53.333 C 365.973 53.333,365.917 67.508,365.917 84.833 M378.000 84.833 L 378.000 116.333 378.458 116.311 C 378.853 116.291,378.864 116.278,378.541 116.216 L 378.165 116.143 378.207 84.738 C 378.231 67.466,378.194 53.333,378.125 53.333 C 378.056 53.333,378.000 67.508,378.000 84.833 M392.582 84.833 C 392.582 102.204,392.601 109.310,392.625 100.625 C 392.649 91.940,392.649 77.727,392.625 69.042 C 392.601 60.356,392.582 67.462,392.582 84.833 M247.250 54.658 C 246.883 54.831,246.658 54.974,246.750 54.974 C 246.977 54.976,248.293 54.360,248.083 54.350 C 247.992 54.346,247.617 54.484,247.250 54.658 M275.833 54.556 C 275.833 54.599,276.075 54.718,276.371 54.822 C 276.667 54.925,276.836 54.940,276.746 54.857 C 276.556 54.679,275.833 54.441,275.833 54.556 M68.748 84.750 C 68.748 100.975,68.768 107.588,68.792 99.445 C 68.816 91.302,68.816 78.027,68.792 69.945 C 68.768 61.863,68.748 68.525,68.748 84.750 M348.539 57.167 C 348.539 57.487,348.573 57.619,348.615 57.458 C 348.657 57.298,348.657 57.035,348.615 56.875 C 348.573 56.715,348.539 56.846,348.539 57.167 M284.985 59.723 C 285.229 60.026,286.167 60.740,286.167 60.623 C 286.167 60.586,285.848 60.302,285.458 59.993 C 285.069 59.683,284.856 59.562,284.985 59.723 M287.335 61.958 C 287.922 62.623,288.430 63.167,288.466 63.167 C 288.577 63.167,287.226 61.607,286.735 61.167 C 286.479 60.938,286.749 61.294,287.335 61.958 M178.333 62.202 C 178.333 62.252,178.220 62.564,178.081 62.896 C 177.942 63.228,177.866 63.500,177.912 63.500 C 178.044 63.500,178.514 62.292,178.419 62.197 C 178.372 62.150,178.333 62.152,178.333 62.202 M234.573 62.875 L 234.083 63.417 234.625 62.927 C 235.130 62.471,235.243 62.333,235.115 62.333 C 235.086 62.333,234.842 62.577,234.573 62.875 M233.573 64.042 L 233.083 64.583 233.625 64.094 C 233.923 63.825,234.167 63.581,234.167 63.552 C 234.167 63.423,234.029 63.537,233.573 64.042 M166.647 65.130 C 166.592 65.461,166.616 65.617,166.709 65.524 C 166.793 65.440,166.834 65.194,166.800 64.978 C 166.747 64.644,166.724 64.667,166.647 65.130 M107.708 65.948 C 107.869 65.990,108.131 65.990,108.292 65.948 C 108.452 65.906,108.321 65.872,108.000 65.872 C 107.679 65.872,107.548 65.906,107.708 65.948 M127.413 80.500 C 127.413 88.612,127.433 91.931,127.458 87.875 C 127.483 83.819,127.483 77.181,127.458 73.125 C 127.433 69.069,127.413 72.387,127.413 80.500 M277.098 75.435 C 277.148 76.066,277.222 76.752,277.264 76.958 L 277.340 77.333 285.337 77.333 C 292.842 77.333,293.333 77.315,293.331 77.042 C 293.329 76.832,293.291 76.809,293.195 76.960 C 293.090 77.125,291.387 77.161,285.239 77.127 L 277.417 77.083 277.311 75.783 C 277.253 75.068,277.161 74.439,277.107 74.385 C 277.053 74.330,277.049 74.803,277.098 75.435 M326.042 77.292 C 330.144 77.316,336.856 77.316,340.958 77.292 C 345.060 77.267,341.704 77.246,333.500 77.246 C 325.296 77.246,321.940 77.267,326.042 77.292 M243.417 78.167 C 243.353 78.455,243.336 78.725,243.379 78.768 C 243.421 78.810,243.504 78.605,243.563 78.313 C 243.701 77.618,243.567 77.483,243.417 78.167 M21.958 77.951 C 22.165 77.991,22.502 77.991,22.708 77.951 C 22.915 77.911,22.746 77.879,22.333 77.879 C 21.921 77.879,21.752 77.911,21.958 77.951 M52.377 77.953 C 52.631 77.991,53.006 77.990,53.211 77.951 C 53.416 77.911,53.208 77.880,52.750 77.881 C 52.292 77.882,52.124 77.915,52.377 77.953 M170.409 79.682 C 170.262 79.966,170.172 80.227,170.208 80.263 C 170.244 80.300,170.398 80.068,170.551 79.748 C 170.894 79.029,170.775 78.974,170.409 79.682 M226.539 80.167 C 226.539 80.487,226.573 80.619,226.615 80.458 C 226.657 80.298,226.657 80.035,226.615 79.875 C 226.573 79.715,226.539 79.846,226.539 80.167 M196.758 80.375 C 196.820 80.581,196.939 80.823,197.023 80.913 C 197.107 81.002,197.091 80.834,196.988 80.538 C 196.777 79.932,196.582 79.795,196.758 80.375 M226.274 81.858 C 226.137 83.162,226.156 87.018,226.304 88.000 C 226.366 88.412,226.417 86.969,226.417 84.792 C 226.417 80.364,226.421 80.450,226.274 81.858 M184.956 81.998 C 184.812 82.366,184.729 82.667,184.772 82.667 C 184.885 82.667,185.366 81.477,185.286 81.397 C 185.249 81.360,185.100 81.631,184.956 81.998 M242.881 82.750 C 242.882 83.208,242.915 83.376,242.953 83.123 C 242.991 82.869,242.990 82.494,242.951 82.289 C 242.911 82.084,242.880 82.292,242.881 82.750 M183.694 84.924 C 183.414 85.537,183.468 85.667,183.770 85.110 C 183.911 84.850,183.995 84.606,183.957 84.568 C 183.919 84.530,183.800 84.690,183.694 84.924 M242.833 87.494 C 242.880 88.124,242.959 88.681,243.008 88.730 C 243.138 88.860,242.987 86.607,242.856 86.466 C 242.797 86.401,242.786 86.864,242.833 87.494 M166.113 89.091 C 165.722 89.912,165.777 90.052,166.186 89.276 C 166.372 88.924,166.495 88.606,166.459 88.570 C 166.423 88.534,166.267 88.768,166.113 89.091 M216.845 89.083 C 216.845 89.175,216.952 89.438,217.083 89.667 C 217.214 89.896,217.322 90.008,217.322 89.917 C 217.322 89.825,217.214 89.563,217.083 89.333 C 216.952 89.104,216.845 88.992,216.845 89.083 M52.125 89.784 C 52.331 89.824,52.669 89.824,52.875 89.784 C 53.081 89.745,52.913 89.712,52.500 89.712 C 52.087 89.712,51.919 89.745,52.125 89.784 M165.333 90.702 C 165.333 90.752,165.220 91.064,165.081 91.396 C 164.942 91.728,164.866 92.000,164.912 92.000 C 165.044 92.000,165.514 90.792,165.419 90.697 C 165.372 90.650,165.333 90.652,165.333 90.702 M277.272 92.964 C 277.228 93.036,277.150 93.580,277.101 94.172 L 277.010 95.250 277.213 94.167 L 277.417 93.083 284.083 92.997 L 290.750 92.911 284.052 92.872 C 280.367 92.851,277.317 92.892,277.272 92.964 M292.535 92.954 L 293.153 93.019 293.210 94.301 L 293.266 95.583 293.300 94.208 L 293.333 92.833 292.625 92.861 L 291.917 92.889 292.535 92.954 M127.245 105.417 C 127.245 110.825,127.266 113.013,127.292 110.280 C 127.317 107.546,127.317 103.121,127.292 100.446 C 127.266 97.772,127.245 100.008,127.245 105.417 M161.949 98.252 C 161.797 98.572,161.706 98.833,161.748 98.833 C 161.862 98.833,162.368 97.813,162.292 97.737 C 162.256 97.700,162.102 97.932,161.949 98.252 M220.802 98.083 C 220.886 98.267,220.997 98.529,221.048 98.667 C 221.128 98.883,221.142 98.881,221.154 98.657 C 221.161 98.514,221.050 98.251,220.907 98.074 C 220.652 97.755,220.651 97.755,220.802 98.083 M161.075 100.182 C 160.929 100.466,160.838 100.727,160.875 100.763 C 160.911 100.800,161.065 100.568,161.217 100.248 C 161.560 99.529,161.441 99.474,161.075 100.182 M273.960 102.352 C 273.709 102.708,273.536 103.000,273.576 103.000 C 273.696 103.000,274.552 101.830,274.482 101.764 C 274.446 101.731,274.211 101.995,273.960 102.352 M230.833 102.620 C 230.833 102.717,230.988 102.973,231.177 103.190 L 231.520 103.583 231.227 103.083 C 230.842 102.425,230.833 102.415,230.833 102.620 M223.302 103.750 C 223.386 103.933,223.497 104.196,223.548 104.333 C 223.628 104.549,223.642 104.548,223.654 104.324 C 223.661 104.181,223.550 103.918,223.407 103.740 C 223.152 103.422,223.151 103.422,223.302 103.750 M184.387 103.958 C 188.221 103.983,194.446 103.983,198.221 103.958 C 201.995 103.933,198.858 103.913,191.250 103.913 C 183.642 103.913,180.554 103.933,184.387 103.958 M233.314 106.306 C 233.500 106.567,233.783 106.885,233.944 107.015 C 234.105 107.144,233.983 106.931,233.674 106.542 C 233.038 105.742,232.802 105.587,233.314 106.306 M224.345 106.083 C 224.345 106.175,224.452 106.438,224.583 106.667 C 224.714 106.896,224.822 107.008,224.822 106.917 C 224.822 106.825,224.714 106.563,224.583 106.333 C 224.452 106.104,224.345 105.992,224.345 106.083 M234.167 107.385 C 234.167 107.414,234.410 107.658,234.708 107.927 L 235.250 108.417 234.760 107.875 C 234.304 107.370,234.167 107.257,234.167 107.385 M157.409 108.182 C 157.262 108.466,157.172 108.727,157.208 108.763 C 157.244 108.800,157.398 108.568,157.551 108.248 C 157.894 107.529,157.775 107.474,157.409 108.182 M261.631 108.123 C 262.115 108.157,262.865 108.156,263.297 108.122 C 263.730 108.088,263.333 108.060,262.417 108.061 C 261.500 108.061,261.146 108.089,261.631 108.123 M207.681 108.583 C 207.681 108.675,207.824 109.013,208.000 109.333 C 208.176 109.654,208.319 109.842,208.319 109.750 C 208.319 109.658,208.176 109.321,208.000 109.000 C 207.824 108.679,207.681 108.492,207.681 108.583 M225.512 108.750 C 225.512 108.842,225.619 109.104,225.750 109.333 C 225.881 109.563,225.988 109.675,225.988 109.583 C 225.988 109.492,225.881 109.229,225.750 109.000 C 225.619 108.771,225.512 108.658,225.512 108.750 M235.500 108.872 C 235.500 108.910,236.006 109.382,236.625 109.921 C 237.244 110.461,237.600 110.728,237.417 110.516 C 237.049 110.090,235.500 108.761,235.500 108.872 M286.660 110.042 C 286.350 110.431,286.228 110.644,286.389 110.515 C 286.693 110.271,287.407 109.333,287.289 109.333 C 287.253 109.333,286.969 109.652,286.660 110.042 M173.695 110.658 C 173.597 110.938,173.553 111.167,173.596 111.167 C 173.709 111.167,174.023 110.301,173.941 110.218 C 173.903 110.181,173.792 110.378,173.695 110.658 M155.947 111.424 C 155.555 112.245,155.610 112.385,156.019 111.609 C 156.205 111.257,156.328 110.939,156.292 110.903 C 156.256 110.867,156.100 111.102,155.947 111.424 M284.583 112.294 C 283.758 113.090,283.308 113.580,283.583 113.383 C 284.082 113.026,286.311 110.828,286.162 110.840 C 286.119 110.843,285.408 111.497,284.583 112.294 M239.393 112.129 C 239.525 112.342,240.500 113.064,240.500 112.948 C 240.500 112.907,240.225 112.663,239.888 112.406 C 239.552 112.150,239.329 112.025,239.393 112.129 M172.824 112.774 C 172.732 113.016,172.610 113.290,172.553 113.383 C 172.495 113.476,172.528 113.503,172.625 113.443 C 172.808 113.329,173.208 112.333,173.071 112.333 C 173.027 112.333,172.916 112.532,172.824 112.774 M348.542 114.750 C 348.544 115.117,348.578 115.247,348.618 115.040 C 348.658 114.832,348.656 114.532,348.615 114.373 C 348.573 114.214,348.540 114.383,348.542 114.750 M210.512 114.917 C 210.512 115.008,210.619 115.271,210.750 115.500 C 210.881 115.729,210.988 115.842,210.988 115.750 C 210.988 115.658,210.881 115.396,210.750 115.167 C 210.619 114.938,210.512 114.825,210.512 114.917 M228.340 115.106 C 228.336 115.210,228.443 115.547,228.577 115.856 C 228.711 116.164,228.823 116.332,228.827 116.227 C 228.830 116.123,228.724 115.786,228.590 115.477 C 228.456 115.169,228.343 115.002,228.340 115.106 M127.189 115.792 C 127.172 116.206,127.235 116.333,127.458 116.331 C 127.646 116.329,127.682 116.284,127.558 116.206 C 127.453 116.138,127.332 115.896,127.289 115.667 C 127.224 115.314,127.209 115.333,127.189 115.792 M171.667 115.472 C 171.667 115.579,171.517 115.817,171.333 116.000 C 171.110 116.224,171.073 116.333,171.223 116.333 C 171.460 116.333,171.909 115.520,171.756 115.367 C 171.707 115.318,171.667 115.365,171.667 115.472 M348.503 116.042 C 348.501 116.238,348.623 116.329,348.875 116.320 C 349.126 116.311,349.167 116.275,349.000 116.212 C 348.863 116.160,348.695 116.034,348.628 115.933 C 348.552 115.820,348.504 115.862,348.503 116.042 " stroke="none" fill="#cc747c" fill-rule="evenodd"></path><path id="path4" d="M10.125 53.291 C 12.073 53.318,15.260 53.318,17.208 53.291 C 19.156 53.265,17.563 53.243,13.667 53.243 C 9.771 53.243,8.177 53.265,10.125 53.291 M59.292 53.291 C 60.873 53.319,63.460 53.319,65.042 53.291 C 66.623 53.264,65.329 53.242,62.167 53.242 C 59.004 53.242,57.710 53.264,59.292 53.291 M97.042 53.282 C 97.202 53.323,97.465 53.323,97.625 53.282 C 97.785 53.240,97.654 53.205,97.333 53.205 C 97.013 53.205,96.881 53.240,97.042 53.282 M119.305 53.292 C 127.860 53.316,141.810 53.316,150.305 53.292 C 158.800 53.268,151.800 53.248,134.750 53.248 C 117.700 53.248,110.750 53.268,119.305 53.292 M187.292 53.292 C 189.698 53.318,193.635 53.318,196.042 53.292 C 198.448 53.266,196.479 53.244,191.667 53.244 C 186.854 53.244,184.885 53.266,187.292 53.292 M306.708 53.292 C 308.794 53.318,312.206 53.318,314.292 53.292 C 316.377 53.265,314.671 53.243,310.500 53.243 C 306.329 53.243,304.623 53.265,306.708 53.292 M352.875 53.292 C 354.960 53.318,358.373 53.318,360.458 53.292 C 362.544 53.265,360.837 53.243,356.667 53.243 C 352.496 53.243,350.790 53.265,352.875 53.292 M382.364 53.291 C 384.168 53.318,387.168 53.318,389.031 53.292 C 390.893 53.265,389.417 53.243,385.750 53.243 C 382.083 53.243,380.560 53.265,382.364 53.291 M93.458 53.456 C 93.940 53.490,94.727 53.490,95.208 53.456 C 95.690 53.423,95.296 53.395,94.333 53.395 C 93.371 53.395,92.977 53.423,93.458 53.456 M21.207 65.708 C 21.169 77.320,21.183 78.000,21.458 77.997 C 21.665 77.996,21.690 77.957,21.543 77.863 C 21.381 77.761,21.326 75.045,21.292 65.574 L 21.248 53.417 21.207 65.708 M6.248 84.750 C 6.248 101.892,6.268 108.879,6.292 100.278 C 6.316 91.677,6.316 77.652,6.292 69.112 C 6.268 60.571,6.248 67.608,6.248 84.750 M103.242 59.750 C 103.242 63.142,103.264 64.506,103.291 62.781 C 103.319 61.056,103.319 58.281,103.291 56.614 C 103.264 54.947,103.242 56.358,103.242 59.750 M348.539 56.167 C 348.539 56.487,348.573 56.619,348.615 56.458 C 348.657 56.298,348.657 56.035,348.615 55.875 C 348.573 55.715,348.539 55.846,348.539 56.167 M318.411 66.167 C 318.411 71.529,318.432 73.723,318.458 71.042 C 318.484 68.360,318.484 63.973,318.458 61.292 C 318.432 58.610,318.411 60.804,318.411 66.167 M348.577 65.583 C 348.577 69.983,348.599 71.759,348.625 69.530 C 348.651 67.301,348.651 63.701,348.625 61.530 C 348.599 59.359,348.577 61.183,348.577 65.583 M236.406 61.042 L 235.917 61.583 236.458 61.094 C 236.756 60.825,237.000 60.581,237.000 60.552 C 237.000 60.423,236.862 60.537,236.406 61.042 M124.792 65.623 C 125.273 65.657,126.060 65.657,126.542 65.623 C 127.023 65.589,126.629 65.562,125.667 65.562 C 124.704 65.562,124.310 65.589,124.792 65.623 M148.958 65.625 C 152.190 65.650,157.477 65.650,160.708 65.625 C 163.940 65.600,161.296 65.579,154.833 65.579 C 148.371 65.579,145.727 65.600,148.958 65.625 M348.499 75.784 C 348.454 76.628,348.476 77.258,348.549 77.185 C 348.622 77.112,348.658 76.422,348.631 75.651 L 348.581 74.250 348.499 75.784 M31.529 77.958 C 35.258 77.983,41.408 77.983,45.196 77.958 C 48.984 77.933,45.933 77.913,38.417 77.913 C 30.900 77.913,27.801 77.933,31.529 77.958 M242.723 85.167 C 242.723 85.854,242.752 86.135,242.788 85.792 C 242.824 85.448,242.824 84.885,242.788 84.542 C 242.752 84.198,242.723 84.479,242.723 85.167 M21.243 89.875 C 21.200 89.990,21.184 95.971,21.208 103.167 L 21.252 116.250 21.293 103.056 C 21.325 92.687,21.378 89.843,21.542 89.777 C 21.705 89.711,21.704 89.690,21.536 89.680 C 21.419 89.673,21.287 89.760,21.243 89.875 M29.625 89.792 C 33.590 89.817,40.077 89.817,44.042 89.792 C 48.006 89.767,44.763 89.746,36.833 89.746 C 28.904 89.746,25.660 89.767,29.625 89.792 M318.444 89.778 C 318.383 89.839,318.334 89.970,318.336 90.069 C 318.337 90.181,318.387 90.173,318.467 90.048 C 318.548 89.921,319.175 89.826,320.172 89.791 L 321.750 89.736 320.153 89.701 C 319.274 89.682,318.506 89.717,318.444 89.778 M347.162 89.787 C 347.873 89.823,348.468 89.935,348.549 90.050 C 348.650 90.191,348.672 90.177,348.624 90.000 C 348.572 89.806,348.261 89.747,347.237 89.738 L 345.917 89.725 347.162 89.787 M318.404 94.000 C 318.404 95.971,318.428 96.777,318.458 95.792 C 318.487 94.806,318.487 93.194,318.458 92.208 C 318.428 91.223,318.404 92.029,318.404 94.000 M348.579 102.333 C 348.579 108.888,348.600 111.569,348.625 108.292 C 348.650 105.015,348.650 99.652,348.625 96.375 C 348.600 93.098,348.579 95.779,348.579 102.333 M187.137 91.958 C 189.366 91.984,192.966 91.984,195.137 91.958 C 197.307 91.932,195.483 91.910,191.083 91.910 C 186.683 91.910,184.907 91.932,187.137 91.958 M200.292 91.951 C 200.498 91.991,200.835 91.991,201.042 91.951 C 201.248 91.911,201.079 91.879,200.667 91.879 C 200.254 91.879,200.085 91.911,200.292 91.951 M290.958 92.951 C 291.165 92.991,291.502 92.991,291.708 92.951 C 291.915 92.911,291.746 92.879,291.333 92.879 C 290.921 92.879,290.752 92.911,290.958 92.951 M318.372 98.167 C 318.372 98.487,318.406 98.619,318.448 98.458 C 318.490 98.298,318.490 98.035,318.448 97.875 C 318.406 97.715,318.372 97.846,318.372 98.167 M318.573 104.917 C 318.573 107.392,318.596 108.427,318.624 107.218 C 318.653 106.009,318.653 103.984,318.625 102.718 C 318.596 101.452,318.573 102.442,318.573 104.917 " stroke="none" fill="#dc7c73" fill-rule="evenodd"></path></g></svg>