<?xml version="1.0" encoding="utf-8"?>
<!-- Generator: Adobe Illustrator 25.0.1, SVG Export Plug-In . SVG Version: 6.00 Build 0)  -->
<svg version="1.1" id="Calque_1" xmlns="http://www.w3.org/2000/svg" xmlns:xlink="http://www.w3.org/1999/xlink" x="0px" y="0px"
	 viewBox="0 0 622.2 154.4" style="enable-background:new 0 0 622.2 154.4;" xml:space="preserve">
<style type="text/css">
	.st0{fill:#0A8B37;}
	.st1{fill:#CC0000;}
</style>
<g transform="translate(0.000000,573.000000) scale(0.100000,-0.100000)">
	<path class="st0" d="M3,5717c-3-8-4-52-2-98l3-84l2023-3c1275-1,2030,1,2041,8c10,5,28,40,41,77c12,37,27,73,32,80s7,17,3,23
		c-4,7-647,10-2071,10C362,5730,7,5728,3,5717z"/>
	<path class="st1" d="M1119,5303c-19-2-49-10-67-18c-17-8-36-15-42-15c-15,0-110-58-154-96c-93-78-160-200-183-334
		c-14-81-14-99,0-181c9-51,20-97,25-103s12-22,16-36c10-33,65-117,101-155c79-82,190-143,299-163c40-8,272-12,710-12l650-1l5,86
		c3,59,1,90-7,96c-6,6-163,10-390,9c-208,0-386-1-395,0c-25,0-22,27,5,64c13,17,39,69,57,116c19,47,39,88,44,92c6,4,145,8,308,8
		s298,3,300,8c2,4,2,46,0,95l-3,87h-305h-304l-14,33c-8,17-21,52-30,77c-14,40-32,73-67,121c-7,9-9,24-6,33c6,14,43,16,372,16h365
		l16,38c9,20,25,56,35,80c11,24,17,48,14,53C2468,5310,1198,5312,1119,5303z M1372,5057c95-44,168-140,187-248
		c26-144-50-296-180-359c-25-12-53-26-62-31c-30-16-149-10-198,9c-107,42-158,88-205,188c-61,125-27,288,80,382c82,72,145,94,257,87
		C1294,5083,1337,5072,1372,5057z"/>
	<path class="st1" d="M2657,5304c-13-12-10-1102,2-1109c6-4,60-7,120-8c83-2,111,1,115,11c3,8,5,115,5,238v224h119h118l49-72
		c27-39,73-106,102-147c28-42,77-113,108-159c31-45,61-85,66-88c12-8,272-7,276,0c5,12,1,25-10,38c-7,7-22,27-34,43
		c-33,47-128,186-139,203c-5,9-14,21-18,26c-4,6-33,46-63,90c-53,74-60,102-32,110c7,2,32,9,55,15c56,15,147,78,177,122
		c14,20,32,64,41,98c14,57,14,68,0,123c-28,110-88,178-193,221c-43,18-80,20-452,24C2846,5310,2661,5308,2657,5304z M3349,5118
		c34-8,62-23,85-45c31-30,35-40,35-83c0-37-6-55-25-79c-47-55-85-62-325-59l-215,3l-3,124c-1,69,0,131,2,138
		C2910,5134,3274,5135,3349,5118z"/>
	<path class="st1" d="M3808,5300c0-5,0-41,0-80c0-38,0-74,0-80c1-6,65-10,171-10c157,0,170-1,180-19c6-13,10-179,10-470v-451h125
		h125v458c0,343,3,461,12,470c8,8,57,12,154,12c101,0,144,4,151,13c5,6,20,40,33,75c12,34,27,65,31,68c5,3,7,10,4,15
		C4795,5314,3809,5313,3808,5300z"/>
	<path class="st1" d="M4976,5303c-11-10-8-1101,2-1108c5-3,193-5,418-6h408v93v93l-287,3l-287,2l-6,33c-3,17-5,224-3,459
		c2,349,1,429-10,433C5191,5312,4983,5311,4976,5303z"/>
	<path class="st1" d="M5974,5298c-3-7-4-258-3-558l3-545l118-5c69-3,121-1,125,4c3,6,5,258,5,560v551l-122,3
		C6008,5310,5977,5307,5974,5298z"/>
</g>
</svg>
