<svg xmlns="http://www.w3.org/2000/svg" xmlns:xlink="http://www.w3.org/1999/xlink" viewBox="0 0 127.2 31.18"><defs><style>.cls-1{fill:none;}.cls-2{fill:#1c1c1c;}.cls-3,.cls-5{fill:#d30030;}.cls-4{clip-path:url(#clip-path);}.cls-5{fill-rule:evenodd;}</style><clipPath id="clip-path"><rect class="cls-1" width="32.76" height="31.18"/></clipPath></defs><title>Saunier Duval</title><g id="Calque_2" data-name="Calque 2"><g id="Mode_Isolation" data-name="Mode Isolation"><g id="Saunier_Duval" data-name="Saunier Duval"><path class="cls-2" d="M44.85,18c4.43.1,4.56-2.14,4.56-3.15,0-2.15-1.13-3-3.92-3-1.5,0-2.11-.09-2.39-.38a1.37,1.37,0,0,1-.21-1c0-1.07.19-1.59,2.78-1.56,1.22,0,2.22.11,2.7.16a.37.37,0,0,0,.43-.39V8.05a.54.54,0,0,0-.46-.52s-1.27-.13-2.78-.15c-3,0-4.41,1-4.41,3s1.13,3,3.76,3h.56c2,.07,2.19.43,2.19,1.47s-.38,1.55-2.76,1.55h-.14a28,28,0,0,1-3-.19.36.36,0,0,0-.43.37v.63a.53.53,0,0,0,.46.52c.17,0,1.62.19,3,.23"/><path class="cls-2" d="M75.64,9.41H74.8A.45.45,0,0,1,74.35,9V7.9a.46.46,0,0,1,.45-.46h.84a.46.46,0,0,1,.45.46V9a.45.45,0,0,1-.45.45"/><rect class="cls-2" x="74.38" y="10.78" width="1.67" height="7.16" rx="0.45" ry="0.45"/><path class="cls-2" d="M79.1,13.63l0-.15c.2-1.13.84-1.36,1.74-1.36,1.11,0,1.56.37,1.68,1.36l0,.15Zm0,1.44h4.7c.3,0,.45-.14.45-.32V14.3c0-2.42-1.16-3.65-3.45-3.65S77.35,12,77.35,14.39,78.6,18,81.17,18a15.81,15.81,0,0,0,2-.11.56.56,0,0,0,.46-.53v-.58a.37.37,0,0,0-.43-.38c-.15,0-1,.11-1.92.11-1.81,0-2.06-.89-2.14-1.47"/><path class="cls-2" d="M87.09,11.38v-.25c0-.09,0-.35-.45-.35h-.77a.45.45,0,0,0-.45.45v6.26a.45.45,0,0,0,.45.45h.77a.45.45,0,0,0,.45-.45V14.67a6.66,6.66,0,0,1,.13-1.18,1.48,1.48,0,0,1,1.44-1.17h.6a.39.39,0,0,0,.44-.4v-.65c0-.39-.17-.55-.45-.55H89a2.73,2.73,0,0,0-1.21.23,3,3,0,0,0-.67.42"/><path class="cls-2" d="M96.33,16.37H94.59V9h1.74c2.32,0,3.07,1,3.07,3.8,0,3-1,3.59-3.06,3.59m.19-8.93H93.31a.46.46,0,0,0-.45.46v9.59a.45.45,0,0,0,.45.45h3.2c3.12,0,4.71-1.77,4.71-5.27s-1.58-5.23-4.7-5.23"/><path class="cls-2" d="M61.68,18.08c-2.16,0-3.27-1.06-3.27-3.25v-3.6a.45.45,0,0,1,.45-.45h.77a.45.45,0,0,1,.45.45v3.45c0,1.62.42,2,1.59,2s1.64-.48,1.64-2V11.23a.45.45,0,0,1,.45-.45h.77a.45.45,0,0,1,.45.45v3.6c0,2.15-1.11,3.25-3.3,3.25"/><path class="cls-2" d="M72.87,17.49V13.73c0-2.19-.8-3.08-2.76-3.08a3,3,0,0,0-1.84.43l-.22.16v-.11c0-.09,0-.35-.45-.35h-.77a.45.45,0,0,0-.45.45v6.26a.45.45,0,0,0,.45.45h.77a.45.45,0,0,0,.45-.45V13.87c0-1.33.28-1.8,1.58-1.8s1.57.39,1.57,1.8v3.62a.45.45,0,0,0,.45.45h.77a.45.45,0,0,0,.45-.45"/><path class="cls-2" d="M105.68,18.08c-2.16,0-3.28-1.06-3.28-3.25v-3.6a.46.46,0,0,1,.45-.45h.77a.46.46,0,0,1,.46.45v3.45c0,1.62.42,2,1.59,2s1.63-.48,1.63-2V11.23a.46.46,0,0,1,.46-.45h.76a.46.46,0,0,1,.46.45v3.6c0,2.15-1.11,3.25-3.3,3.25"/><path class="cls-2" d="M117,10.78h-.82a.82.82,0,0,0-.69.45l-1.94,4.63-2-4.63a.84.84,0,0,0-.69-.45H110c-.21,0-.33.13-.23.35l2.77,6.36a.74.74,0,0,0,.7.45h.55a.72.72,0,0,0,.7-.45l2.75-6.36c.09-.21,0-.35-.23-.35"/><path class="cls-2" d="M127,17.49a.45.45,0,0,1-.45.45h-.77a.45.45,0,0,1-.45-.45V7.89a.45.45,0,0,1,.45-.45h.77a.45.45,0,0,1,.45.45Z"/><path class="cls-2" d="M55.36,14.74a17.59,17.59,0,0,1-2,.18c-1.07.05-1.32.21-1.32.85s.21.88,1.38.88A2.19,2.19,0,0,0,55,16.17a1.17,1.17,0,0,0,.33-.86Zm0-1.31c0-.53,0-1.25-1.52-1.25a12.49,12.49,0,0,0-2.29.13A.32.32,0,0,1,51.1,12v-.53a.68.68,0,0,1,.47-.6,13.05,13.05,0,0,1,2.35-.16c2.16,0,3.11.89,3.11,3.15v3.65a.45.45,0,0,1-.45.45h-.77c-.45,0-.45-.26-.45-.34v-.26a2.61,2.61,0,0,1-.72.45,4.19,4.19,0,0,1-1.5.29c-1.79,0-2.78-.69-2.78-2.24,0-1.73,1.17-2.14,2.92-2.22.72,0,1.64-.12,2-.19"/><path class="cls-2" d="M122.22,14.74a17.59,17.59,0,0,1-2,.18c-1.07.05-1.32.21-1.32.85s.21.88,1.38.88a2.19,2.19,0,0,0,1.59-.48,1.17,1.17,0,0,0,.33-.86Zm0-1.31c0-.53,0-1.25-1.52-1.25a12.49,12.49,0,0,0-2.29.13A.32.32,0,0,1,118,12v-.53a.68.68,0,0,1,.47-.6,13.05,13.05,0,0,1,2.35-.16c2.16,0,3.11.89,3.11,3.15v3.65a.45.45,0,0,1-.45.45h-.77c-.45,0-.45-.26-.45-.34v-.26a2.61,2.61,0,0,1-.72.45,4.19,4.19,0,0,1-1.5.29c-1.79,0-2.78-.69-2.78-2.24,0-1.73,1.17-2.14,2.92-2.22.72,0,1.64-.12,2-.19"/><path class="cls-3" d="M48,22.59H46.19v6h-.77v-6H43.63v-.67h4.42Z"/><path class="cls-3" d="M50.11,28.73c-1.33,0-2.09-1-2.09-2.58s.78-2.54,2.06-2.54a2,2,0,0,1,1.67.84,3.13,3.13,0,0,1,.44,1.81C52.19,27.87,51.33,28.73,50.11,28.73Zm1-3.88a1.11,1.11,0,0,0-1-.62,1.08,1.08,0,0,0-1,.53A2.63,2.63,0,0,0,48.84,26a3.49,3.49,0,0,0,.3,1.59,1.18,1.18,0,0,0,1,.49,1.05,1.05,0,0,0,1-.73,2.87,2.87,0,0,0,.15-1.06A3.35,3.35,0,0,0,51.1,24.85Z"/><path class="cls-3" d="M57.06,28.81a1.28,1.28,0,0,1-.52-.78,1.8,1.8,0,0,1-1.54.74,1.34,1.34,0,0,1-1.28-.69,1.9,1.9,0,0,1-.12-.72V23.79l.75-.15v3.49c0,.46.06.66.29.82a1.07,1.07,0,0,0,.59.17,1.48,1.48,0,0,0,1.24-.88V23.8l.75-.13v3.54c0,.61.09.86.33,1.08Z"/><path class="cls-3" d="M59.61,29.58a1.83,1.83,0,0,1-1,1L58.23,30c.68-.29.73-.74.73-1.58V23.79l.78-.15v4.87A3.33,3.33,0,0,1,59.61,29.58Zm-.26-6.73a.59.59,0,0,1-.59-.6.6.6,0,0,1,1.19,0A.6.6,0,0,1,59.35,22.85Z"/><path class="cls-3" d="M63.25,28.73c-1.33,0-2.09-1-2.09-2.58s.79-2.54,2.06-2.54a1.94,1.94,0,0,1,1.67.84,3.12,3.12,0,0,1,.45,1.81C65.34,27.87,64.47,28.73,63.25,28.73Zm1-3.88a1.11,1.11,0,0,0-1-.62,1.08,1.08,0,0,0-1,.53A2.63,2.63,0,0,0,62,26a3.34,3.34,0,0,0,.31,1.59,1.14,1.14,0,0,0,1,.49,1.05,1.05,0,0,0,1-.73,2.87,2.87,0,0,0,.15-1.06A3.35,3.35,0,0,0,64.24,24.85Z"/><path class="cls-3" d="M70.22,28.81a1.26,1.26,0,0,1-.53-.78,1.8,1.8,0,0,1-1.54.74,1.34,1.34,0,0,1-1.28-.69,1.9,1.9,0,0,1-.12-.72V23.79l.75-.15v3.49c0,.46.07.66.29.82a1.07,1.07,0,0,0,.59.17,1.48,1.48,0,0,0,1.24-.88V23.8l.75-.13v3.54c0,.61.09.86.33,1.08Z"/><path class="cls-3" d="M74.18,24.48a.65.65,0,0,0-.21,0,1.15,1.15,0,0,0-.81.35.87.87,0,0,0-.29.77v3h-.75V24.86a2.38,2.38,0,0,0-.17-1l.76-.2a1.86,1.86,0,0,1,.16.78,1.75,1.75,0,0,1,1.36-.8,1,1,0,0,1,.26,0Z"/><path class="cls-3" d="M76.66,28.75a3.63,3.63,0,0,1-1.78-.49l.29-.56a3,3,0,0,0,1.54.45c.6,0,1-.32,1-.83s-.25-.68-.8-.8l-.61-.13a1.34,1.34,0,0,1-1.22-1.33,1.55,1.55,0,0,1,1.72-1.49,3.08,3.08,0,0,1,1.48.39l-.28.56a2.83,2.83,0,0,0-1.22-.35.81.81,0,0,0-.91.8c0,.37.18.59.7.7l.64.14c.88.18,1.3.63,1.3,1.35A1.64,1.64,0,0,1,76.66,28.75Z"/><path class="cls-3" d="M85.53,28.79a1,1,0,0,1-.66-.71,1.85,1.85,0,0,1-1.41.65c-1.19,0-1.56-.73-1.56-1.38,0-1.1.95-1.75,2.58-1.75h.34v-.34c0-.43,0-.6-.16-.76a.8.8,0,0,0-.65-.26,2.69,2.69,0,0,0-1.55.57l-.38-.54a3.62,3.62,0,0,1,2-.65,1.31,1.31,0,0,1,1.34.76,2.79,2.79,0,0,1,.11,1.07l0,1.59c0,.79,0,1,.39,1.19Zm-.79-5.69-2.18-1,.42-.75,2,1.26Zm-.32,3c-1.23,0-1.67.42-1.67,1.16a.77.77,0,0,0,.84.88,1.33,1.33,0,0,0,1.18-.76l0-1.26Z"/><path class="cls-3" d="M91.3,28.65h-.75l-1.74-4.86.78-.16L90.72,27a7.78,7.78,0,0,1,.23.82h0a6.36,6.36,0,0,1,.24-.81l1.11-3.23h.81Z"/><path class="cls-3" d="M95.88,28.73c-1.33,0-2.09-1-2.09-2.58s.79-2.54,2.06-2.54a1.94,1.94,0,0,1,1.67.84A3.12,3.12,0,0,1,98,26.26C98,27.87,97.1,28.73,95.88,28.73Zm1-3.88a1.13,1.13,0,0,0-1-.62,1.1,1.1,0,0,0-1,.53A2.65,2.65,0,0,0,94.62,26a3.36,3.36,0,0,0,.3,1.59,1.14,1.14,0,0,0,1,.49,1.05,1.05,0,0,0,1-.73,2.87,2.87,0,0,0,.15-1.06A3.53,3.53,0,0,0,96.88,24.85Z"/><path class="cls-3" d="M100.74,28.75A3.63,3.63,0,0,1,99,28.26l.29-.56a3,3,0,0,0,1.54.45c.6,0,1-.32,1-.83s-.25-.68-.8-.8l-.61-.13a1.34,1.34,0,0,1-1.22-1.33,1.55,1.55,0,0,1,1.72-1.49,3.08,3.08,0,0,1,1.48.39l-.28.56a2.83,2.83,0,0,0-1.22-.35.81.81,0,0,0-.91.8c0,.37.18.59.7.7l.64.14c.88.18,1.3.63,1.3,1.35A1.64,1.64,0,0,1,100.74,28.75Z"/><path class="cls-3" d="M108,28.71a1.76,1.76,0,0,1-1.55-.73,2.89,2.89,0,0,1-.46-1.72,2.68,2.68,0,0,1,.73-2.07,1.75,1.75,0,0,1,1.31-.56,1.94,1.94,0,0,1,1.33.52l-.42.53a1.26,1.26,0,0,0-.93-.39,1,1,0,0,0-.91.54,3.42,3.42,0,0,0-.28,1.59c0,1.09.42,1.69,1.2,1.69a1.35,1.35,0,0,0,1-.53l.42.49A1.87,1.87,0,0,1,108,28.71Z"/><path class="cls-3" d="M112.48,28.73c-1.33,0-2.09-1-2.09-2.58s.79-2.54,2.06-2.54a1.94,1.94,0,0,1,1.67.84,3.12,3.12,0,0,1,.45,1.81C114.57,27.87,113.7,28.73,112.48,28.73Zm1.32-5.59-1.36-.83-1.31.83-.3-.43,1.65-1.32,1.67,1.32Zm-.32,1.71a1.13,1.13,0,0,0-1-.62,1.09,1.09,0,0,0-1,.53,2.65,2.65,0,0,0-.23,1.26,3.36,3.36,0,0,0,.3,1.59,1.14,1.14,0,0,0,1,.49,1.05,1.05,0,0,0,1-.73,2.87,2.87,0,0,0,.15-1.06A3.53,3.53,0,0,0,113.48,24.85Z"/><path class="cls-3" d="M117.73,24.33h-1v3.12c0,.54.15.72.62.72a1,1,0,0,0,.48-.09l.11.48a1.79,1.79,0,0,1-.86.2,1.36,1.36,0,0,1-.63-.14c-.34-.16-.47-.47-.47-1V24.33h-.63v-.58H116c0-.47.08-1.23.08-1.23l.8-.17a12.74,12.74,0,0,0-.1,1.4H118Z"/><path class="cls-3" d="M119.55,26.3v.12a1.88,1.88,0,0,0,.22,1.06,1.37,1.37,0,0,0,1.21.6,1.71,1.71,0,0,0,1.19-.46l.29.49a2.44,2.44,0,0,1-1.64.6c-1.34,0-2.15-1-2.15-2.58a2.57,2.57,0,0,1,.58-1.83,1.92,1.92,0,0,1,2.77-.15c.42.43.55.89.55,2.05v.1Zm2-1.65a1,1,0,0,0-.87-.43c-.7,0-1.09.51-1.12,1.51h2.22A2,2,0,0,0,121.54,24.65Zm-1.69-1.55-.26-.46,2-1.26.42.75Z"/><path class="cls-3" d="M125.37,28.75a3.6,3.6,0,0,1-1.78-.49l.29-.56a2.92,2.92,0,0,0,1.54.45c.59,0,1-.32,1-.83s-.24-.68-.8-.8l-.6-.13a1.34,1.34,0,0,1-1.23-1.33,1.55,1.55,0,0,1,1.73-1.49A3.11,3.11,0,0,1,127,24l-.28.56a2.83,2.83,0,0,0-1.22-.35.81.81,0,0,0-.92.8c0,.37.19.59.7.7l.65.14c.87.18,1.29.63,1.29,1.35A1.63,1.63,0,0,1,125.37,28.75Z"/><g class="cls-4"><path class="cls-5" d="M30.81,9.73a5.86,5.86,0,0,0-10.5,2.21,5.45,5.45,0,0,0,.05,2.51,3,3,0,0,1-1.89-1.37C17.19,11.15,9.64,0,9.64,0a8.11,8.11,0,0,0-1,.54c-1.83,1.15-.38,3.17.07,3.81.17.24,6.74,10,6.74,10s-.81.44-1.2-.15l-8.12-12a6.14,6.14,0,0,0-1,.85c-.94,1-.24,2.41.28,3.17.17.24,5.5,8.14,5.5,8.14s-.88.37-1.24-.17L3.46,4.89a8.38,8.38,0,0,0-.76,1,2.45,2.45,0,0,0,.24,2.87l3.77,5.58s-.82.37-1.14-.1-4.05-6-4.05-6A4.35,4.35,0,0,0,1,9.39,2.61,2.61,0,0,0,1.25,12l1.54,2.29s-.77.4-1.1-.1L.2,12C-1.58,25.61,8.75,31.18,16.46,31.18c6.89,0,11-3.35,12.71-5.52,5.14-6.36,3.88-12.8,1.64-15.93M17.9,18.59l2.58-3.7a5.4,5.4,0,0,0,1.71,2.63Zm7.54-4.33a1.06,1.06,0,1,1,1.09-1,1.06,1.06,0,0,1-1.09,1"/></g></g></g></g></svg>
