<svg xmlns="http://www.w3.org/2000/svg" viewBox="0 0 295.65 47.56"><defs><style>.cls-1{fill:#ba0c2f;}</style></defs><g id="Ebene_2" data-name="Ebene 2"><g id="Ebene_1-2" data-name="Ebene 1"><rect class="cls-1" width="295.65" height="5.07"/><rect class="cls-1" y="42.49" width="295.65" height="5.07"/><polygon points="120.53 32.33 110.16 32.33 110.16 25.88 119.49 25.88 119.49 20.82 110.16 20.82 110.16 15.19 120.18 15.19 120.18 10.14 103.64 10.14 103.64 37.39 120.53 37.39 120.53 32.33"/><polygon points="295.34 10.15 289.17 10.15 289.17 26.01 289.17 26.17 289.13 26.17 289.06 26.01 277.16 10.15 271.4 10.15 271.4 37.4 277.69 37.4 277.69 20.82 277.69 20.55 277.74 20.55 277.88 20.82 289.99 37.4 295.34 37.4 295.34 10.15"/><path d="M253,9.74a13.53,13.53,0,0,0-13.77,13.88c0,7.87,5.89,14.05,13.6,14.05H253a13.74,13.74,0,0,0,13.76-14A13.67,13.67,0,0,0,253,9.74m0,22.39c-4.17,0-7-3.3-7-8.37s2.72-8.33,7-8.33c4.13,0,7,3.29,7,8.48,0,4.78-3,8.22-7,8.22"/><polygon points="142.26 32.33 132.72 32.33 132.72 10.14 126.2 10.14 126.2 37.39 142.26 37.39 142.26 32.33"/><polygon points="172.09 32.33 161.72 32.33 161.72 25.88 171.05 25.88 171.05 20.82 161.72 20.82 161.72 15.19 171.74 15.19 171.74 10.14 155.2 10.14 155.2 37.39 172.09 37.39 172.09 32.33"/><polygon points="193.6 32.33 184.07 32.33 184.07 10.14 177.55 10.14 177.55 37.39 193.6 37.39 193.6 32.33"/><path d="M93.74,22.44A6.09,6.09,0,0,0,97.19,17a6.66,6.66,0,0,0-4.92-6.25,13.31,13.31,0,0,0-3.8-.58H77.87V37.39l10.6.14h.83a21.15,21.15,0,0,0,3.58-.29A7.41,7.41,0,0,0,96,36a7.76,7.76,0,0,0,3.08-6.48c0-3.51-1.76-5.9-5.33-7.08m-9.33-7.38h2.38a7.29,7.29,0,0,1,1.68.12A2.61,2.61,0,0,1,90.8,18a2.65,2.65,0,0,1-2.33,2.82,14.33,14.33,0,0,1-1.81.15H84.41Zm4.06,17.51H84.41V25.88h4.06c2.91.16,4.08,1.2,4.08,3.36s-1.26,3.18-4.08,3.33"/><polygon points="73.07 32.33 62.7 32.33 62.7 25.88 72.03 25.88 72.03 20.82 62.7 20.82 62.7 15.19 72.72 15.19 72.72 10.14 56.19 10.14 56.19 37.39 73.07 37.39 73.07 32.33"/><polygon points="50.18 10.14 43.66 10.14 43.6 37.39 50.18 37.39 50.18 10.14"/><polygon points="19.94 10.14 19.94 15.19 26.83 15.19 26.83 37.39 33.35 37.39 33.35 15.19 40.24 15.19 40.24 10.14 19.94 10.14"/><polygon points="190.77 10.14 190.77 15.19 197.66 15.19 197.66 37.39 204.18 37.39 204.18 15.19 211.07 15.19 211.07 10.14 190.77 10.14"/><path d="M225.1,10.14c4,0,5.43.29,7.19,1.36A7.89,7.89,0,0,1,235.82,18a7,7,0,0,1-2.33,5.23,8.44,8.44,0,0,1-2.35,1.42c1.45.73,2.64,2.29,3.92,5.12l1.07,2.31.75,1.54.81,1.82.75,1.52.2.44h-7.5l-.18-.26-.5-1.12-.5-1.26L229.17,33l-1.06-2.3c-1.05-2.35-2.35-4-3.62-4.39a6.37,6.37,0,0,0-2-.15h-1V37.39H215V10.14Zm-3.56,11.18h3.34l.81,0a3,3,0,0,0,3.21-3c0-2.16-1.45-3.12-3.93-3.12h-3.43Z"/><path d="M20.55,29.13h0a6.74,6.74,0,0,0-.95-3.38c-1.06-2-3.25-3.46-6.53-4.64L11,20.39c-3.1-1-4.43-2.1-4.43-3.28,0-1.46,1.82-2.08,4.15-2.23a16.79,16.79,0,0,1,6.39.87v-5a25,25,0,0,0-7-.84c-5.91,0-10,2.84-10,7.64a7.26,7.26,0,0,0,1.62,5,12.76,12.76,0,0,0,2.57,2,29.26,29.26,0,0,0,4.36,1.89l1.81.6c2,.66,2.6,1.17,3.1,1.87h0a2.33,2.33,0,0,1,.36,1.4c0,1.46-1.54,2.36-4.22,2.36a12.53,12.53,0,0,1-5-1A25.18,25.18,0,0,1,.24,29.23v5.92a10.08,10.08,0,0,0,2.44,1.16A19,19,0,0,0,9.9,37.82c6.4,0,10.68-3.27,10.68-8.15C20.58,29.51,20.55,29.32,20.55,29.13Z"/></g></g></svg>