<?xml version="1.0" encoding="UTF-8"?>
<!DOCTYPE svg PUBLIC "-//W3C//DTD SVG 1.1//EN" "http://www.w3.org/Graphics/SVG/1.1/DTD/svg11.dtd">
<svg xmlns="http://www.w3.org/2000/svg" version="1.1" width="1167px" height="379px" style="shape-rendering:geometricPrecision; text-rendering:geometricPrecision; image-rendering:optimizeQuality; fill-rule:evenodd; clip-rule:evenodd" xmlns:xlink="http://www.w3.org/1999/xlink">
<g><path style="opacity:1" fill="#03b0ae" d="M -0.5,-0.5 C 388.5,-0.5 777.5,-0.5 1166.5,-0.5C 1166.5,125.833 1166.5,252.167 1166.5,378.5C 777.5,378.5 388.5,378.5 -0.5,378.5C -0.5,252.167 -0.5,125.833 -0.5,-0.5 Z"/></g>
<g><path style="opacity:1" fill="#91dbda" d="M 958.5,47.5 C 958.423,46.2502 957.756,45.4169 956.5,45C 943.37,41.1515 930.037,39.9849 916.5,41.5C 923.134,38.0516 930.301,36.3849 938,36.5C 946.739,36.5703 955.239,37.9036 963.5,40.5C 963.27,43.8719 961.603,46.2053 958.5,47.5 Z"/></g>
<g><path style="opacity:1" fill="#f9fbfb" d="M 268.5,36.5 C 295.518,36.4683 322.184,39.4683 348.5,45.5C 348.5,59.8333 348.5,74.1667 348.5,88.5C 327.462,83.4635 306.296,78.7968 285,74.5C 244.536,81.7573 236.703,101.757 261.5,134.5C 297.994,151.491 329.494,175.158 356,205.5C 382.277,266.765 363.777,307.265 300.5,327C 265.162,330.318 229.829,330.318 194.5,327C 185.649,313.071 182.649,297.905 185.5,281.5C 216.246,290.482 247.579,292.982 279.5,289C 295.246,280.007 301.746,266.507 299,248.5C 297.136,242.44 294.47,236.774 291,231.5C 256.845,212.019 225.511,188.685 197,161.5C 169.645,104.199 185.145,63.6988 243.5,40C 251.892,38.2836 260.226,37.1169 268.5,36.5 Z"/></g>
<g><path style="opacity:1" fill="#f9fcfc" d="M 958.5,47.5 C 935.222,94.5557 911.556,141.389 887.5,188C 910.574,233.548 934.241,278.714 958.5,323.5C 956.974,325.13 954.974,325.963 952.5,326C 932.626,329.111 912.626,330.278 892.5,329.5C 878.93,305.41 865.096,281.41 851,257.5C 837.92,281.329 824.587,304.995 811,328.5C 810.329,329.252 809.496,329.586 808.5,329.5C 796.242,330.288 784.242,328.955 772.5,325.5C 790.756,288.818 808.09,251.651 824.5,214C 805.637,172.44 786.637,130.94 767.5,89.5C 789.891,88.3782 812.225,89.2116 834.5,92C 845.459,108.079 855.792,124.579 865.5,141.5C 885.161,109.511 902.161,76.1773 916.5,41.5C 930.037,39.9849 943.37,41.1515 956.5,45C 957.756,45.4169 958.423,46.2502 958.5,47.5 Z"/></g>
<g><path style="opacity:1" fill="#f7fbfb" d="M 755.5,41.5 C 762.508,41.3337 769.508,41.5004 776.5,42C 779.702,42.1978 782.702,43.0311 785.5,44.5C 753.535,106.096 722.368,168.096 692,230.5C 689.934,265.136 689.101,299.802 689.5,334.5C 667.167,334.5 644.833,334.5 622.5,334.5C 622.667,307.831 622.5,281.165 622,254.5C 621.718,245.469 621.051,236.469 620,227.5C 600.408,197.144 585.241,164.644 574.5,130C 499.184,127.793 423.851,126.96 348.5,127.5C 348.5,114.833 348.5,102.167 348.5,89.5C 415.501,89.3333 482.501,89.5 549.5,90C 572.515,90.4449 595.515,91.2782 618.5,92.5C 636.706,122.239 653.373,152.906 668.5,184.5C 694.03,139.445 718.03,93.4447 740.5,46.5C 745.328,44.0495 750.328,42.3829 755.5,41.5 Z"/></g>
<g><path style="opacity:1" fill="#56c9c7" d="M 511.5,334.5 C 511.5,333.167 511.5,331.833 511.5,330.5C 510.209,330.737 509.209,330.404 508.5,329.5C 509.5,329.5 510.5,329.5 511.5,329.5C 512.458,301.506 512.625,273.506 512,245.5C 510.832,212.814 509.332,180.147 507.5,147.5C 506.5,147.5 505.5,147.5 504.5,147.5C 506.694,146.174 508.694,144.507 510.5,142.5C 511.192,143.025 511.692,143.692 512,144.5C 518.164,207.448 517.997,270.782 511.5,334.5 Z"/></g>
<g><path style="opacity:1" fill="#fcfcfc" d="M 504.5,147.5 C 505.5,147.5 506.5,147.5 507.5,147.5C 509.332,180.147 510.832,212.814 512,245.5C 512.625,273.506 512.458,301.506 511.5,329.5C 510.5,329.5 509.5,329.5 508.5,329.5C 488.833,329.5 469.167,329.5 449.5,329.5C 449.5,276.5 449.5,223.5 449.5,170.5C 449.5,167.167 449.5,163.833 449.5,160.5C 467.484,154.754 485.817,150.421 504.5,147.5 Z"/></g>
<g><path style="opacity:1" fill="#b0e5e4" d="M 449.5,170.5 C 449.5,223.5 449.5,276.5 449.5,329.5C 469.167,329.5 488.833,329.5 508.5,329.5C 509.209,330.404 510.209,330.737 511.5,330.5C 511.5,331.833 511.5,333.167 511.5,334.5C 489.167,334.5 466.833,334.5 444.5,334.5C 444.333,300.165 444.5,265.832 445,231.5C 445.838,210.964 447.338,190.631 449.5,170.5 Z"/></g>
<g><path style="opacity:1" fill="#a4e1e0" d="M 772.5,325.5 C 784.242,328.955 796.242,330.288 808.5,329.5C 807.4,330.558 806.066,331.392 804.5,332C 799.393,333.222 794.226,334.055 789,334.5C 781.72,333.721 774.553,332.388 767.5,330.5C 767.5,327.167 769.167,325.5 772.5,325.5 Z"/></g>
<g><path style="opacity:1" fill="#a3e1e0" d="M 958.5,323.5 C 961.002,324.737 963.002,326.57 964.5,329C 940.393,335.884 916.393,336.05 892.5,329.5C 912.626,330.278 932.626,329.111 952.5,326C 954.974,325.963 956.974,325.13 958.5,323.5 Z"/></g>
</svg>
