<?xml version="1.0" standalone="no"?>
<!DOCTYPE svg PUBLIC "-//W3C//DTD SVG 20010904//EN"
 "http://www.w3.org/TR/2001/REC-SVG-20010904/DTD/svg10.dtd">
<svg version="1.0" xmlns="http://www.w3.org/2000/svg"
 width="1350.000000pt" height="429.000000pt" viewBox="0 0 1350.000000 429.000000"
 preserveAspectRatio="xMidYMid meet">
<metadata>
Created by potrace 1.10, written by Peter Selinger 2001-2011
</metadata>
<g transform="translate(0.000000,429.000000) scale(0.100000,-0.100000)"
fill="#dd0000" stroke="none">
<path d="M351 3946 c-18 -21 -10 -2895 8 -2951 7 -22 17 -58 22 -80 16 -65 95
-216 146 -280 39 -47 122 -124 188 -173 110 -82 392 -213 490 -229 22 -3 48
-10 57 -15 25 -13 348 -32 533 -32 185 0 508 19 533 32 9 5 36 12 60 16 24 3
51 10 60 15 9 5 46 20 82 32 166 58 391 200 496 312 53 56 85 103 123 178 28
56 51 112 51 124 0 11 4 25 9 31 5 5 15 45 23 89 10 64 13 370 13 1510 l0
1430 -365 0 -365 0 -6 -1300 c-4 -954 -8 -1315 -17 -1355 -50 -230 -136 -352
-307 -438 -108 -54 -182 -70 -355 -77 -365 -14 -596 117 -704 399 l-31 81 -3
1334 c-2 943 -6 1339 -14 1348 -16 20 -711 19 -727 -1z"/>
<path d="M6133 3943 c-5 -10 -8 -146 -8 -303 l0 -285 373 -3 372 -2 -2 302 -3
303 -362 3 c-338 2 -363 1 -370 -15z"/>
<path d="M12510 3948 c0 -40 0 -3635 0 -3645 0 -10 79 -13 363 -13 216 0 367
4 373 9 5 6 7 688 4 1833 l-5 1823 -367 3 c-291 2 -368 0 -368 -10z"/>
<path d="M11826 3718 c-215 -113 -247 -375 -66 -531 83 -71 225 -89 325 -42
64 31 123 85 155 145 20 39 23 59 24 145 0 93 -2 103 -29 145 -39 62 -98 116
-152 140 -65 28 -202 28 -257 -2z m252 -29 c54 -27 105 -76 134 -132 32 -60
31 -193 -1 -255 -92 -171 -320 -205 -456 -67 -59 59 -70 90 -70 200 0 99 0
101 38 157 21 31 43 59 50 62 7 4 30 17 52 30 56 34 188 36 253 5z"/>
<path d="M11835 3594 c-11 -12 -14 -46 -14 -157 0 -134 8 -175 30 -161 5 3 9
34 9 68 0 77 11 89 70 80 44 -7 49 -11 119 -101 23 -29 48 -53 57 -53 19 0 6
26 -47 94 -43 53 -49 76 -21 76 20 0 55 34 65 63 13 34 -30 87 -69 87 -29 0
-32 -16 -4 -23 23 -6 39 -42 32 -70 -7 -26 -49 -45 -119 -52 -55 -7 -62 -5
-72 13 -14 26 -14 87 -1 113 8 15 21 19 57 19 63 0 48 11 -21 15 -40 2 -61 -1
-71 -11z"/>
<path d="M8200 2970 c-25 -5 -72 -13 -105 -19 -123 -20 -231 -50 -285 -78 -14
-7 -28 -13 -32 -13 -19 0 -132 -61 -213 -114 -144 -95 -263 -231 -362 -416
-111 -205 -180 -582 -155 -842 23 -235 25 -247 87 -438 33 -99 50 -138 109
-245 87 -156 252 -317 413 -402 12 -6 35 -18 50 -27 61 -33 152 -66 273 -99
30 -8 75 -20 100 -27 60 -16 440 -25 505 -11 126 26 151 32 238 61 110 36 119
40 227 104 242 142 399 320 474 537 31 91 50 207 37 223 -7 8 -97 11 -312 11
l-303 0 -26 -71 c-35 -98 -70 -153 -138 -215 -132 -122 -329 -182 -523 -159
-52 7 -98 16 -104 21 -5 5 -15 9 -23 9 -27 0 -118 50 -176 97 -94 76 -163 188
-209 338 -75 243 -63 692 23 890 5 11 19 43 31 70 54 123 166 239 276 286 26
11 57 24 68 29 47 19 165 40 232 40 242 0 423 -134 508 -377 l23 -68 324 -2
c178 -2 329 1 336 5 10 7 10 15 2 36 -5 15 -10 38 -10 50 0 62 -59 204 -134
320 -68 105 -185 213 -331 303 -76 47 -237 123 -260 123 -12 0 -25 4 -30 9
-11 11 -77 25 -210 48 -108 17 -332 25 -395 13z"/>
<path d="M10860 2977 c-3 -3 -43 -10 -90 -17 -86 -11 -97 -14 -205 -46 -72
-22 -143 -50 -265 -107 -63 -30 -163 -120 -206 -187 -16 -25 -32 -47 -36 -50
-13 -10 -95 -194 -118 -265 -13 -38 -27 -78 -31 -87 -5 -10 -9 -27 -9 -38 0
-20 6 -20 304 -20 330 0 316 -2 316 55 0 13 4 26 9 29 5 3 12 18 16 33 14 57
92 138 170 177 113 57 136 61 350 61 174 0 207 -3 250 -19 164 -64 255 -185
255 -342 0 -74 -20 -133 -57 -166 -39 -35 -69 -42 -363 -83 -281 -38 -383 -54
-535 -83 -125 -24 -330 -97 -460 -164 -231 -119 -340 -258 -395 -508 -20 -92
-4 -330 28 -405 40 -94 81 -168 119 -217 98 -128 272 -236 428 -267 28 -6 70
-15 95 -20 60 -13 434 -13 485 0 22 6 59 14 82 19 154 33 377 131 456 200 62
55 80 51 88 -21 3 -31 17 -76 30 -100 l24 -44 313 0 313 0 -1 944 c0 802 -3
957 -16 1040 -23 146 -50 224 -109 316 -60 95 -192 203 -310 254 -27 13 -64
29 -82 37 -17 8 -37 14 -45 14 -8 0 -18 4 -24 9 -10 10 -69 25 -189 48 -77 14
-573 31 -585 20z m685 -1652 c0 -290 -7 -327 -85 -423 -45 -56 -79 -78 -180
-120 -30 -13 -64 -27 -75 -32 -72 -31 -206 -57 -344 -67 -82 -6 -145 10 -240
60 -80 42 -116 73 -154 130 -54 83 -70 137 -65 220 9 139 69 239 181 301 65
35 113 51 337 110 81 21 229 44 359 55 63 6 117 13 120 16 3 3 37 4 76 3 l70
-3 0 -250z"/>
<path d="M4745 2909 c-44 -11 -89 -23 -100 -28 -11 -5 -47 -19 -80 -32 -78
-30 -155 -76 -234 -140 -35 -28 -69 -48 -77 -45 -11 4 -14 30 -14 115 0 106
-1 111 -22 116 -13 3 -178 4 -368 3 l-345 -3 0 -1300 0 -1300 365 0 365 0 6
845 c5 810 6 847 25 895 57 147 130 241 221 284 26 12 56 27 66 32 32 17 215
28 281 17 124 -21 233 -89 291 -179 51 -79 49 -56 55 -1004 l5 -890 370 0 370
0 3 910 c1 569 -2 934 -8 975 -16 109 -31 175 -41 184 -5 6 -9 17 -9 25 -1 9
-9 34 -20 56 -11 22 -19 43 -20 47 0 3 -23 46 -52 95 -90 152 -211 247 -378
298 -30 9 -68 22 -85 28 -17 5 -132 12 -260 13 -203 3 -239 1 -310 -17z"/>
<path d="M6140 2894 c-13 -4 -15 -157 -15 -1300 0 -1287 0 -1295 20 -1300 11
-2 178 -3 370 -2 l350 3 3 1294 c2 1029 0 1296 -10 1303 -13 8 -689 9 -718 2z"/>
</g>
</svg>
