<svg xmlns="http://www.w3.org/2000/svg" xmlns:xlink="http://www.w3.org/1999/xlink" width="187" height="30" viewBox="0 0 187 30"><defs><path id="48bta" d="M132.113 38.439a6.736 6.736 0 0 1 3.796-1.48c2.788-.277 5.482.365 7.22 2.65.71.903.71 2.048.824 3.222v12.14h-3.312l-.024-12.036a3.183 3.183 0 0 0-1.782-2.848 5.863 5.863 0 0 0-5.029.32 3.543 3.543 0 0 0-1.648 3.04v11.539h-3.38V30h3.335zm83.728 7.753h13.024V47.5H215.84zM42 46.192h13.186v1.293H42zM96.591 41.8c-1.19-2.285-4.204-2.917-6.356-1.831-1.693.844-2.517 2.561-2.655 4.298h9.707a4.965 4.965 0 0 0-.696-2.467zm100.596.424a5.715 5.715 0 0 0-1.629-1.91 4.649 4.649 0 0 0-4.713-.316c-3.188 1.895-2.926 6.51-2.285 9.298a4.698 4.698 0 0 0 3.598 3.341c1.737.257 3.188-.118 4.23-1.224 2.146-2.28 2.17-6.559.799-9.189zm-27.755 7.486a3.227 3.227 0 0 0 1.703 2.789c1.838.762 3.95.4 5.428-.933.913-.869 1.283-2.512 1.283-3.77V37.22h3.341v15.575c.026.736.109 1.468.247 2.191h-3.188a9.703 9.703 0 0 1-.345-1.732c-1.639 1.915-3.529 2.556-6.426 2.27-2.058-.202-4.224-1.426-4.935-3.529-.641-1.84-.449-3.005-.449-4.629V37.225h3.405zM62.87 37.22c.987 4.205 3.144 12.925 3.144 12.925l3.425-12.925h4.002s1.974 8.705 3.084 12.866c0 0 2.374-8.982 3.455-12.866h3l-4.639 17.766H74.33l-3.114-12.915-3.454 12.92h-4.002l-4.24-17.766zm44.39 17.766h-3.29V36.84h3.29zm18.32-15.22l-.002-.001.016-.013zm-2.616 2.019c-1.698-2.043-4.11-2.645-6.628-2.186-.819.182-1.9.493-2.27 1.411a2.092 2.092 0 0 0 0 1.673c.365.686 1.219.928 1.974 1.066 3.731.518 8.39-.207 9.905 4.12a5.784 5.784 0 0 1-2.532 6.1c-3.153 2.053-8.108 1.846-11.262 0a10.068 10.068 0 0 1-2.749-2.349l2.961-1.998a7.546 7.546 0 0 0 7.255 2.753c1.327-.227 2.744-1.026 3.015-2.442a2.063 2.063 0 0 0-1.085-2.167c-3.51-1.48-9.411.494-10.857-4.23a4.846 4.846 0 0 1 1.455-5.028c2.63-2.374 8.104-2.428 11.652-.247.634.45 1.23.953 1.78 1.503zm-23.673-1.54a11.607 11.607 0 0 1 1.48 6.766H87.506a5.527 5.527 0 0 0 1.974 4.387 5.922 5.922 0 0 0 4.89 1.096c1.417-.272 2.705-1.412 3.52-2.798 0 0 2.838 1.375 2.842 1.372-.83 1.914-2.932 3.484-4.851 4.125a9.337 9.337 0 0 1-8.39-1.372c-3.341-2.788-4.234-7.2-2.961-11.266.69-2.315 3-4.871 5.468-5.463 3.44-1.052 7.28.088 9.293 3.153zm100.092-.77c2.65 3.336 2.744 9.056.548 12.62-1.698 2.758-4.59 3.898-7.743 3.488a6.578 6.578 0 0 1-3.83-2.181V60h-3.385V37.215h3.345v2.053a6.564 6.564 0 0 1 6.446-2.497 7.467 7.467 0 0 1 4.619 2.704zm8.789-2.235h3.598v2.901h-3.544V51c.011.544.357 1.025.869 1.209a4.076 4.076 0 0 0 2.675-.134v2.996c-1.25.51-2.62.652-3.948.41a3.38 3.38 0 0 1-2.63-1.974c-.42-1.071-.356-2.285-.356-3.697v-9.692h-2.083v-2.892h2.024V31.05h3.395zm-100.911-2.798h-3.248v-3.578h3.248zm54.616 5.255c.547.913.493 2.019.493 3.159v8.256a15.763 15.763 0 0 0 .37 3.874h-3.222a13.202 13.202 0 0 1-.385-1.703c-2.014 2.572-6.204 3.06-9.204 1.974a4.984 4.984 0 0 1-3.292-4.57 5.72 5.72 0 0 1 2.152-4.934c2.517-2 6.248-1.234 9.376-2.374.428-.2.742-.583.854-1.041a2.201 2.201 0 0 0-.557-1.974c-1.14-1.116-4.699-1.17-6.386-.301-.958.597-1.16 1.776-1.195 2.743h-3.326a5.236 5.236 0 0 1 1.48-4.071c2.606-2.33 6.994-1.885 9.032-1.584a5.458 5.458 0 0 1 3.81 2.546zm-2.744 6.13c-4.007 1.673-8.281.913-8.943 3.528a2.66 2.66 0 0 0 .746 2.784c1.554 1.416 4.076.838 5.759.088 2.596-1.16 2.497-3.489 2.443-6.242z"/></defs><g><g transform="translate(-42 -30)"><use fill="#c00" xlink:href="#48bta"/></g></g></svg>