<svg xmlns="http://www.w3.org/2000/svg" viewBox="0 0 122.4 22.68"><defs><style>.cls-1{fill:#d7041c;}.cls-2{fill:#063676;}</style></defs><title>chaffoteaux</title><g id="Calque_2" data-name="Calque 2"><g id="Mode_Isolation" data-name="Mode Isolation"><g id="chaffoteaux"><path class="cls-1" d="M11.36,22.68A11.32,11.32,0,0,1,7.86.59a11.17,11.17,0,0,1,9.77,1.28c.24.14.6.26.58.59s-.46.37-.72.47a84.11,84.11,0,0,0-11,4.79A14.84,14.84,0,0,0,3.3,9.93c-1.09,1-1.1,1.81,0,2.84a20.39,20.39,0,0,0,5,3.16,101.1,101.1,0,0,0,9.38,3.94c.21.08.5.08.52.37s-.24.36-.42.49A11.13,11.13,0,0,1,11.36,22.68Z"/><path class="cls-2" d="M22.72,11.65A10.89,10.89,0,0,1,20.59,18a1.1,1.1,0,0,1-1.66.41,48.85,48.85,0,0,1-7.18-4.55,9,9,0,0,1-1.47-1.42,1.48,1.48,0,0,1,0-2.09,10.89,10.89,0,0,1,2.16-2,52.74,52.74,0,0,1,6.49-4,1.08,1.08,0,0,1,1.66.38A11.28,11.28,0,0,1,22.72,11.65Z"/><path class="cls-2" d="M64.53,13.84c0-1,0-2,0-3.05,0-.52-.16-.61-.62-.59-1.12,0-2.25,0-3.36,0-.5,0-.67.09-.66.63,0,2,0,4,0,6,0,.49-.1.68-.64.67-1.12,0-1.12,0-1.12-1.16,0-1.87,0-3.73,0-5.6,0-.47-.12-.61-.58-.58-.26,0-.7.19-.78-.12a2.93,2.93,0,0,1,0-1.35c.06-.28.44-.14.66-.12.52,0,.71-.07.71-.66A2.66,2.66,0,0,1,61.07,5a2.77,2.77,0,0,1,.5,0c1.75.23,1.33-.1,1.39,1.65,0,.31-.1.34-.37.24a4.54,4.54,0,0,0-1.08-.29,1.41,1.41,0,0,0-1.6,1.71c0,.23.14.26.32.26h4c.25,0,.34-.1.32-.33V8.2c0-3.09,2.22-3.47,4.45-3,.27,0,.41.18.36.46v.06c0,.42.14,1-.07,1.21s-.69-.16-1.07-.22A1.45,1.45,0,0,0,66.27,8.2c0,.29.07.4.38.39.72,0,1.45,0,2.17,0,.42,0,.53.11.53.52,0,1.11,0,1.11-1.1,1.11-.48,0-1,0-1.43,0s-.56.09-.56.54c0,2,0,4.06,0,6.09,0,.53-.1.72-.67.7-1.09-.05-1.09,0-1.09-1.08Z"/><path class="cls-2" d="M37.57,15c0,.55,0,1,0,1.5a.42.42,0,0,1-.26.44c-3.92,1.94-8.82.35-9.93-4a6.32,6.32,0,0,1,6-7.89A8,8,0,0,1,37,5.63a.84.84,0,0,1,.62,1,7.47,7.47,0,0,0,0,1.06c-.29.09-.44-.13-.63-.22a6.14,6.14,0,0,0-4.52-.54,4.36,4.36,0,0,0-3.26,4.52,4.69,4.69,0,0,0,3.61,4.37C34.28,16.18,35.5,16,37.57,15Z"/><path class="cls-2" d="M41.24,9a4.79,4.79,0,0,1,1.93-.62,3.55,3.55,0,0,1,4,3.71c.06,1.68,0,3.36,0,5,0,.28-.07.39-.38.41-1.44.1-1.44.11-1.44-1.35,0-1.28,0-2.57,0-3.85a2.11,2.11,0,0,0-1.16-2.11,3,3,0,0,0-2.74.3c-.28.16-.23.41-.23.65,0,1.91,0,3.82,0,5.72,0,.46-.08.66-.6.65-1.24,0-1.24,0-1.24-1.24,0-3.49,0-7,0-10.45,0-.5.13-.63.62-.62,1.22,0,1.22,0,1.22,1.24Z"/><path class="cls-2" d="M95.05,15c0,.1.07.11.07.13.11,1.73.08,1.79-1.61,2.27a4.81,4.81,0,0,1-5.14-1.06c-2.4-2.44-1.32-7,1.83-7.84a4,4,0,0,1,4.9,2.8c.16.58,0,1.18.16,1.77.11.37-.29.35-.56.35H89.54c-.67,0-.75.12-.57.76a2.76,2.76,0,0,0,2.72,1.88A6.72,6.72,0,0,0,95.05,15Zm-3.81-3h1.92c.3,0,.4-.06.33-.38A2.19,2.19,0,0,0,91.28,10a2.14,2.14,0,0,0-2.2,1.64c-.09.34,0,.48.37.47C90,12.05,90.64,12.07,91.24,12.07Z"/><path class="cls-2" d="M74.4,17.72A4.71,4.71,0,0,1,69.67,13,4.57,4.57,0,0,1,74.34,8.4a4.66,4.66,0,1,1,.06,9.32Zm0-7.66a2.9,2.9,0,0,0-3,3,3,3,0,0,0,3,3,2.91,2.91,0,0,0,2.94-3A3,3,0,0,0,74.39,10.06Z"/><path class="cls-2" d="M101.83,16.89a4.88,4.88,0,0,1-2.65.79,2.6,2.6,0,0,1-2.59-1.75,2.8,2.8,0,0,1,1.08-3,6.18,6.18,0,0,1,3.53-1c.67,0,.63-.34.53-.77a1.27,1.27,0,0,0-1-1,3.88,3.88,0,0,0-2.66.31c-.37.17-.73.37-1.19.6.17-.67.33-1.24.46-1.82,0-.22.21-.28.39-.35a6.16,6.16,0,0,1,3.6-.29,2.66,2.66,0,0,1,2.16,2.55c.13,2,0,4,.07,6,0,.29-.09.43-.39.41s-.5,0-.75,0S101.62,17.63,101.83,16.89Zm0-2.5c0-1.34,0-1.34-1.33-1a3.59,3.59,0,0,0-.47.12,2.92,2.92,0,0,0-1.4.76,1.19,1.19,0,0,0-.28,1.26,1.1,1.1,0,0,0,1.06.72,3,3,0,0,0,1.16-.15C101.8,15.69,101.8,15.69,101.8,14.39Z"/><path class="cls-2" d="M48.93,11c.16-.67.3-1.23.43-1.79a.58.58,0,0,1,.43-.4,6.39,6.39,0,0,1,3.54-.3,2.68,2.68,0,0,1,2.21,2.59c.06,2,0,4,0,6,0,.2,0,.38-.27.38H54.06c-.41,0-.16-.39-.31-.56a4.83,4.83,0,0,1-2.6.73A2.6,2.6,0,0,1,48.63,16a2.75,2.75,0,0,1,.94-3,6.17,6.17,0,0,1,3.68-1.14c.6,0,.62-.26.51-.72A1.37,1.37,0,0,0,52.63,10a4.18,4.18,0,0,0-2.65.41C49.67,10.6,49.36,10.77,48.93,11Zm4.88,3.44v-1c0-.16,0-.3-.22-.27a5.06,5.06,0,0,0-2.89,1,1.18,1.18,0,0,0-.36,1.35,1.15,1.15,0,0,0,1.13.72,3.51,3.51,0,0,0,1.16-.17C53.81,15.68,53.81,15.68,53.81,14.44Z"/><path class="cls-2" d="M112.83,13c0,1.34,0,2.69,0,4,0,.35-.1.49-.46.46s-.62,0-.93,0c-.1,0-.29,0-.3,0-.17-.77-.56-.21-.8-.1a3.62,3.62,0,0,1-5.2-3.11c-.15-1.77-.05-3.56-.07-5.34,0-.18,0-.34.26-.33h1.24c.39,0,.26.31.26.51,0,1.49,0,3,0,4.47,0,2.15,1.8,3.14,3.71,2.13a.85.85,0,0,0,.51-.88c0-1.91,0-3.82,0-5.72,0-.41.1-.53.51-.52,1.26,0,1.26,0,1.26,1.26Z"/><path class="cls-2" d="M114.28,8.59c.65,0,1.19,0,1.72,0,.29,0,.39.16.52.36.51.8,1,1.59,1.57,2.44.52-.82,1-1.55,1.45-2.32a.83.83,0,0,1,.89-.48c.43,0,.87,0,1.42,0l-1,1.49c-.5.74-1,1.49-1.5,2.22a.56.56,0,0,0,0,.76c.89,1.27,1.77,2.56,2.65,3.84.11.16.22.34.39.61h-1.92c-.26,0-.31-.24-.42-.41-.65-1-1.28-2-2-3-.61,1-1.22,1.86-1.74,2.79a1.1,1.1,0,0,1-1.23.66,8.09,8.09,0,0,0-1.1,0c-.1-.25.09-.37.18-.51.87-1.31,1.74-2.62,2.64-3.92a.59.59,0,0,0,0-.81C116,11.1,115.18,9.9,114.28,8.59Z"/><path class="cls-2" d="M86.11,15.51c0,.54,0,1,0,1.47,0,.25-.14.33-.32.39a4.25,4.25,0,0,1-3,.07,2.32,2.32,0,0,1-1.56-2.05c-.13-1.49-.06-3,0-4.48,0-.56-.13-.78-.71-.71-.22,0-.61.15-.66-.12a2.51,2.51,0,0,1,0-1.41c.07-.2.42-.1.63-.07.6.09.71-.18.7-.72,0-1.43,0-1.42,1.44-1.31.26,0,.36.08.35.36s0,.83,0,1.24.09.43.42.42c.75,0,1.49,0,2.24,0,.37,0,.55.05.54.49,0,1.14,0,1.13-1.12,1.15-.68,0-1.58-.3-2,.13s-.1,1.26-.1,1.92,0,1.58,0,2.36c0,1,.47,1.41,1.47,1.42A4.25,4.25,0,0,0,86.11,15.51Z"/></g></g></g></svg>