<?xml version="1.0" encoding="utf-8"?>
<!-- Generator: Adobe Illustrator 25.0.1, SVG Export Plug-In . SVG Version: 6.00 Build 0)  -->
<svg version="1.1" id="Calque_1" xmlns="http://www.w3.org/2000/svg" xmlns:xlink="http://www.w3.org/1999/xlink" x="0px" y="0px"
	 viewBox="0 0 2500 585.1" style="enable-background:new 0 0 2500 585.1;" xml:space="preserve">
<style type="text/css">
	.st0{fill:#44C8F5;}
	.st1{fill:#00A1E4;}
</style>
<path class="st0" d="M569.4,26H0v525.3L569.4,26z"/>
<path d="M284.7,26H0v262.8L284.7,26z"/>
<path class="st1" d="M1364.5,140l-74.3,297.2h131.3l74.3-297.2H1364.5z M1045.9,140L877,437.1h86.9l28-49.5h120.6l9,49.5h128.2
	L1195.1,140H1045.9z M1064.6,312.2h-30.1l48.6-85.7l15.8,85.7H1064.6z M1964.2,140l-74.1,297.2h131.3l74.2-297.2H1964.2z
	 M1905.5,140h-134.6l-112.6,97.2l24.6-97.2H1557l-74.1,297.2h125.5l25.6-102.6l67.1,102.6h151.9l-112.5-155.6L1905.5,140z
	 M767.3,140.1l-34-0.1H569l-74.1,297H658l64.6,0.1c90.9,0,180.3-67.6,180.3-171.2C902.9,144,767.3,140.1,767.3,140.1 M773.9,275
	c0,0-8.5,96.5-90.8,96.5h-46.5l41-160.3h42.2C735,211.4,778.7,215.3,773.9,275 M2409.1,140l-43.8,175l-58.3-175h-146l-74.2,297.2
	h90.8l44.2-176.5l58.5,176.5h145.4L2500,140H2409.1z"/>
</svg>
