<?xml version="1.0" encoding="utf-8"?>
<!-- Generator: Adobe Illustrator 22.1.0, SVG Export Plug-In . SVG Version: 6.00 Build 0)  -->
<svg version="1.1" id="Calque_1" xmlns:serif="http://www.serif.com/"
	 xmlns="http://www.w3.org/2000/svg" xmlns:xlink="http://www.w3.org/1999/xlink" x="0px" y="0px" viewBox="0 0 500 133.3"
	 style="enable-background:new 0 0 500 133.3;" xml:space="preserve">
<style type="text/css">
	.st0{fill:url(#SVGID_1_);}
	.st1{fill:url(#SVGID_2_);}
	.st2{fill:url(#SVGID_3_);}
	.st3{fill:url(#SVGID_4_);}
	.st4{fill:#797979;}
</style>
<linearGradient id="SVGID_1_" gradientUnits="userSpaceOnUse" x1="-1.525879e-05" y1="276.5937" x2="1" y2="276.5937" gradientTransform="matrix(5.542194e-15 89.9969 90.5108 -5.510722e-15 -24743.8555 43.3378)">
	<stop  offset="0" style="stop-color:#4798FA"/>
	<stop  offset="1" style="stop-color:#285DCE"/>
</linearGradient>
<path class="st0" d="M277.8,0c2.4,0.3,4.1,2.4,3.6,4.9c-2.8,11.8-6.4,23.5-8.5,35.4c-1.2,8.1,15.1,10.3,27.8,12.3c3,0.4,6-1.4,7-4.3
	c3.6-11.7,5.7-23.8,8.6-35.7c1.1-3.6,5.1-4.1,9,0.5c16.4,19.2,9.7,52.8-13.9,64.7l-0.4,44.1c-0.5,6-5.3,10.8-11.4,11.3
	c-13.3,0.3-28.7,0.3-29-11.8V77.6c-9.7-4.9-23.8-20.7-23.3-38.7c0.5-17.3,12.9-35.7,29.6-38.9C277.4,0,277.4,0,277.8,0L277.8,0z"/>
<linearGradient id="SVGID_2_" gradientUnits="userSpaceOnUse" x1="-9.136225e-06" y1="274.6661" x2="1" y2="274.6661" gradientTransform="matrix(5.542194e-15 89.9969 90.5108 -5.510722e-15 -24743.8555 44.3758)">
	<stop  offset="0" style="stop-color:#4798FA"/>
	<stop  offset="1" style="stop-color:#285DCE"/>
</linearGradient>
<path class="st1" d="M131.3,119.9h-29.8L97,133.3H67.6l32.7-89h32.4l32.6,89h-29.6L131.3,119.9L131.3,119.9z M124.4,98.9l-8.1-24.8
	l-8.1,24.8H124.4z"/>
<linearGradient id="SVGID_3_" gradientUnits="userSpaceOnUse" x1="-1.525879e-05" y1="275.6805" x2="1" y2="275.6805" gradientTransform="matrix(5.542194e-15 89.9969 90.5108 -5.510722e-15 -24743.8555 43.4964)">
	<stop  offset="0" style="stop-color:#4798FA"/>
	<stop  offset="1" style="stop-color:#285DCE"/>
</linearGradient>
<path class="st2" d="M244,106.2c0,5.1-1.3,9.7-4,13.8c-2.7,4.1-6.5,7.3-11.6,9.7c-5.1,2.4-11.1,3.6-18.1,3.6
	c-10.7,0-19.5-2.5-26.5-7.5c-6.9-5-10.7-12.3-11.3-21.9h29.8c0.4,5.1,2.7,7.7,6.8,7.7c1.4,0,2.6-0.4,3.5-1.1
	c0.9-0.8,1.3-1.8,1.3-3.3c0-2.1-1.1-3.7-3.2-5c-2.1-1.2-5.6-2.6-10.4-4.2c-5.6-1.8-10.3-3.7-14.1-5.7c-3.7-1.9-7-4.8-9.8-8.5
	s-4.2-8.7-4.2-14.7c0-5.8,1.5-10.7,4.5-14.8c3-4.1,7.1-7.1,12.3-9.2c5.2-2.1,11-3.1,17.5-3.1c10.7,0,19.2,2.5,25.5,7.4
	c6.3,4.9,9.8,12.1,10.4,21.4h-30.2c-0.4-4.7-2.4-7-5.8-7c-1.2,0-2.1,0.4-2.9,1.1c-0.8,0.7-1.1,1.8-1.1,3.2c0,1.9,1.1,3.5,3.2,4.7
	c2.1,1.2,5.5,2.6,10,4.2c5.7,2,10.5,4,14.2,6c3.8,2,7,4.9,9.9,8.7S244,100.2,244,106.2L244,106.2z"/>
<linearGradient id="SVGID_4_" gradientUnits="userSpaceOnUse" x1="-9.136225e-06" y1="273.7095" x2="1" y2="273.7095" gradientTransform="matrix(5.542194e-15 89.9969 90.5108 -5.510722e-15 -24743.8555 44.3758)">
	<stop  offset="0" style="stop-color:#4798FA"/>
	<stop  offset="1" style="stop-color:#285DCE"/>
</linearGradient>
<path class="st3" d="M51.4,133.3H0v-89h59.6v22.1H28.1v11.1h27.8v21H28.1v12.6h31.6L51.4,133.3L51.4,133.3z"/>
<path class="st4" d="M381.1,116.1c0,3.1-0.7,5.9-2.2,8.5c-1.5,2.6-3.7,4.7-6.8,6.3c-3,1.6-6.7,2.4-11.1,2.4c-4.3,0-8.1-0.8-11.5-2.3
	c-3.4-1.5-6.1-3.6-8.1-6.3c-2-2.7-3.2-5.8-3.5-9.4h10.9c0.3,2.7,1.5,5,3.5,7c2,1.9,4.8,2.9,8.2,2.9c3.1,0,5.5-0.8,7.2-2.5
	c1.7-1.7,2.5-3.8,2.5-6.4c0-2.2-0.6-4.1-1.9-5.5c-1.2-1.4-2.8-2.6-4.6-3.4c-1.8-0.8-4.4-1.8-7.6-2.8c-3.9-1.2-7.1-2.5-9.6-3.7
	c-2.5-1.2-4.6-3-6.3-5.4c-1.7-2.4-2.6-5.5-2.6-9.3c0-3.4,0.8-6.3,2.5-8.9c1.7-2.5,4-4.5,7.1-5.9c3.1-1.4,6.6-2.1,10.7-2.1
	c6.4,0,11.5,1.5,15.3,4.6c3.8,3.1,5.9,7.1,6.5,12h-11c-0.4-2.4-1.5-4.4-3.3-6.1s-4.3-2.5-7.4-2.5c-2.8,0-5.1,0.7-6.9,2.2
	c-1.7,1.4-2.6,3.5-2.6,6.2c0,2.1,0.6,3.9,1.8,5.3c1.2,1.4,2.7,2.5,4.5,3.3s4.3,1.7,7.4,2.8c4,1.2,7.2,2.5,9.7,3.8
	c2.5,1.3,4.7,3.1,6.4,5.5C380.2,108.9,381.1,112.1,381.1,116.1L381.1,116.1z"/>
<path class="st4" d="M428.7,119.8h-26.5l-4.8,13.5h-10.9l23.2-61.5h11.7l23.1,61.5h-10.9L428.7,119.8L428.7,119.8z M425.9,112
	l-10.4-29.2L405,112H425.9L425.9,112z"/>
<path class="st4" d="M452.7,70.8l18.1,51.7L489,70.8h11l-22.7,62.5h-13l-22.6-62.5H452.7z"/>
</svg>
