<?xml version="1.0" encoding="utf-8"?>
<!-- Generator: Adobe Illustrator 25.0.1, SVG Export Plug-In . SVG Version: 6.00 Build 0)  -->
<svg version="1.1" xmlns="http://www.w3.org/2000/svg" xmlns:xlink="http://www.w3.org/1999/xlink" x="0px" y="0px"
	 viewBox="0 0 184.97 90.74" style="enable-background:new 0 0 184.97 90.74;" xml:space="preserve">
<style type="text/css">
	.st0{fill:#EF7D00;}
	.st1{fill:#FFFFFF;}
</style>
<g id="Background">
</g>
<g id="Guides">
</g>
<g id="Foreground">
	<g>
		<path class="st0" d="M73.4,0c4.32,0.38,8.59,0.88,12.64,1.92l0.09-0.09L86.3,2c12.39,2.89,23.74,8.29,33.82,16.74
			c2.87,2.43,5.69,5.33,7.85,8.28v0.09l-0.35-0.09C112.08,15.6,94.05,9.41,73.48,10.9c-10.81,1.4-21.97,5.13-27.72,15.6
			c-3.46-4.95-5.94-10.31-6.45-16.47c5.4-5.43,12.17-7.92,19.35-9.24C60.44,0.52,62.2,0.26,63.98,0l0.44,0.09L73.4,0z"/>
		<path d="M29.72,23.19l-12.9,0.17c-1.5,0.32-3.2,0.71-3.92,2.35c-1.34,3.14-0.71,7.1-0.87,10.72l0.17,0.26h14.38v7.93H12.2
			l-0.17,0.17v45.94H0.09L0,29.03c0.24-4.56,1.79-9.63,6.54-11.24c1.84-0.64,3.84-0.91,5.84-1.13h17.35V23.19z"/>
		<path d="M164.66,68.69c0.16,0.83,0.64,1.59,1.39,2.09c0.91,0.27,1.81,0.56,2.88,0.44v6.1l-8.98-0.09
			c-2.18-0.35-4.36-1.45-5.49-3.57c-0.58-1.19-0.97-2.44-1.05-3.84l-0.09-53.17h11.24L164.66,68.69z"/>
		<polygon points="184.97,27.02 173.73,27.11 173.64,16.74 173.73,16.65 184.97,16.65 		"/>
		<path d="M57.36,34.78c3.54,5.59,3.35,12.72,3.31,19.79H44.02l-0.17,0.17c0.18,4.59-0.14,9.39,0.96,13.6
			c0.46,1.05,1.39,2.22,2.62,2.35c1.39,0.06,2.82-0.17,3.49-1.48c0.47-0.97,0.53-2.09,0.61-3.23l7.93-0.09
			c0.18,3.81-0.85,7.57-4.1,9.85c-4.49,2.49-11.56,2.93-15.95-0.09c-6.2-4.85-6.79-12.5-7.24-19.96c-0.05-7.88,0.4-15.54,5.32-21.36
			c3.8-4.28,10.51-5.05,15.69-3.05C54.77,31.99,56.36,33.22,57.36,34.78z"/>
		<path d="M88.22,31.12l0.09,9.41c0.03,0.08-0.04,0.12-0.09,0.17c-3-1.34-7.45-1.52-10.55-0.26l-0.35,0.35v36.52H66.07l-0.09-46.46
			h9.33c0.21,0.71,0.35,1.46,0.78,2.09C79.29,30.29,84.3,29.42,88.22,31.12z"/>
		<path d="M114.19,31.12l0.09,9.41c0.03,0.08-0.04,0.12-0.09,0.17c-3.02-1.36-7.64-1.56-10.72-0.17l-0.17,0.17v36.52l-11.25,0.09
			l-0.09-46.46h9.33c0.1,0.71,0.47,1.34,0.7,2c0.6-0.17,1-0.78,1.57-1.05C106.5,30.13,111,29.59,114.19,31.12z"/>
		<path d="M144,36.26c2.44,4.49,3.18,9.68,3.4,15.08l-0.09,0.09c0.12,7.33-0.02,14.78-3.66,20.66c-3.06,4.74-8.25,6.07-13.69,5.58
			c-4.96-0.33-9.56-4.62-10.98-9.24c-2.39-6.68-2.41-14.87-1.66-22.32c0.86-5.92,2.92-12.64,9.24-14.99
			C132.81,29.18,140.46,30.21,144,36.26z"/>
		<polygon points="184.97,77.32 173.73,77.32 173.64,31.03 173.73,30.86 184.97,30.86 		"/>
		<path class="st1" d="M134.5,38.7c1.1,3.5,0.78,7.62,0.96,11.51l-0.09,12.73c-0.43,2.69,0.08,5.99-2.44,7.58
			c-0.92,0.18-1.96,0.12-2.62-0.61c-0.79-0.73-0.96-1.71-1.13-2.7l-0.35-4.97l-0.17-11.16c0.21-4.15-0.21-8.57,1.05-12.29
			c0.42-0.74,1.17-1.39,2-1.48C132.89,37.19,133.88,37.7,134.5,38.7z"/>
		<path class="st1" d="M49.77,38.18c1.09,1.24,1.13,2.91,1.31,4.53c0.05,1.74,0.25,3.43,0.17,5.23c-2.33,0.17-4.76,0.05-7.15,0.09
			l-0.17-0.17c0.17-3.02-0.08-6.2,0.87-8.89c0.31-0.83,1.19-1.42,2-1.57C47.91,37.4,49.06,37.26,49.77,38.18z"/>
	</g>
</g>
</svg>
