<svg xmlns="http://www.w3.org/2000/svg" viewBox="0 0 126.61 19.84"><defs><style>.cls-1{fill:#2a66ab;}.cls-2{fill:#eb1c2b;}</style></defs><title>frisquet</title><g id="Calque_2" data-name="Calque 2"><g id="Mode_Isolation" data-name="Mode Isolation"><g id="frisquet"><path class="cls-1" d="M32.67,5.14C31.32,6.37,31.21,8,31.21,9.7v7.16h3.06V12.1h7.49V9.43H34.27V8.57A1.66,1.66,0,0,1,35.72,6.7a9.76,9.76,0,0,1,1.82-.15h4.22V3.91H37.21a6.57,6.57,0,0,0-4.54,1.23"/><path class="cls-1" d="M51.72,7.93c0,1.1-.49,1.52-1.74,1.52H46.44V6.55H50c1.25,0,1.74.39,1.74,1.38M55,15.62,55,14.94a6.1,6.1,0,0,0-.35-2A2.63,2.63,0,0,0,53,11.26a3.68,3.68,0,0,0,2-3.65,3.44,3.44,0,0,0-2.5-3.42,11.24,11.24,0,0,0-2.86-.28H43.36v13h3.08V12.1h1.94c2.27,0,3,.6,3.19,2.79,0,.15,0,.3,0,.45a6.15,6.15,0,0,0,.24,1.38l0,.14h3.43l-.09-.27a3.87,3.87,0,0,1-.22-1"/><rect class="cls-1" x="57.28" y="3.9" width="3.08" height="12.95"/><path class="cls-1" d="M72.4,9.46A6.09,6.09,0,0,0,69.49,9h-2c-1.3,0-2.1-.21-2.1-1.23a1.11,1.11,0,0,1,.28-.84,2.55,2.55,0,0,1,1.75-.35h6.1V3.91H67a5.26,5.26,0,0,0-3.63.88,4.18,4.18,0,0,0-1.3,3,3.64,3.64,0,0,0,2.11,3.42,7.31,7.31,0,0,0,2.42.35h2.32a2.14,2.14,0,0,1,1.58.43,1.36,1.36,0,0,1,.39,1c0,1.15-1,1.24-2.29,1.24H62.63v2.65H69.7c1.33,0,2.67-.07,3.65-1.28A4.18,4.18,0,0,0,74.22,13,3.68,3.68,0,0,0,72.4,9.46"/><path class="cls-1" d="M84.12,13.7l-.68-1-2.73.47.72,1.22h-.15c-1.62-.28-2.34-1.51-2.34-4,0-2.73.94-3.95,3-3.95s3,1.32,3,3.91a5.18,5.18,0,0,1-.72,3.12,1,1,0,0,1-.14.17l0,0m4.26-3.31a8.64,8.64,0,0,0-.9-3.88C86.22,4.19,83.21,3.94,82,3.94c-4.3,0-6.39,2.15-6.39,6.59,0,1.64.36,3.88,2.09,5.23A7.1,7.1,0,0,0,82.12,17h0a7.41,7.41,0,0,0,.75,0l.94,1.59,3.23-.43L85.68,16a5,5,0,0,0,.55-.39c2.09-1.4,2.15-4.84,2.15-5.22"/><path class="cls-1" d="M98.34,11.69c0,.77,0,1.73-.63,2.2a3.56,3.56,0,0,1-1.93.55,2.66,2.66,0,0,1-2.38-1.15,3.61,3.61,0,0,1-.28-1.66V3.91H90.07v7.78A5.22,5.22,0,0,0,90.86,15C92.1,16.76,94.24,17,95.74,17c1.17,0,4-.22,5.07-2.27a7.45,7.45,0,0,0,.61-3.18V3.91H98.34Z"/><path class="cls-1" d="M106,4.54a6.54,6.54,0,0,0-2.78,5.74c0,2.4.85,5.27,3.24,6.13a11.22,11.22,0,0,0,3.57.45h3.68V14.21h-3.57c-2.08,0-3.21-.39-3.46-2.48h7V9.1h-7a3.18,3.18,0,0,1,.5-1.71,2.05,2.05,0,0,1,.81-.63,7.39,7.39,0,0,1,2-.21h3.68V3.91H109a5.64,5.64,0,0,0-3,.63"/><polygon class="cls-1" points="115.39 3.91 115.39 6.55 119.4 6.55 119.4 16.86 122.46 16.86 122.46 6.55 126.61 6.55 126.61 3.91 115.39 3.91"/><path class="cls-2" d="M4.81,13.07a3.46,3.46,0,0,1-2.44-.65,1.74,1.74,0,0,1-.56-.8,24.68,24.68,0,0,0,3.27-.29c.86-.17,1.81-.37,2.82-.56A61.12,61.12,0,0,1,11,2.44,9.09,9.09,0,0,1,12.92.05L11.8,0h-.23a52,52,0,0,0-6.5.49S1,1.06.47,3.12a29.81,29.81,0,0,0-.47,6,67.66,67.66,0,0,0,.38,7.15s.38,3.2,3.4,3.39l1,.05.49,0c.67-2.45,1.41-5.1,2-6.94l-2.46.28"/><path class="cls-2" d="M22.35,4a4,4,0,0,0-.76-1.65A5.14,5.14,0,0,0,19,.8,21.16,21.16,0,0,0,16.47.33,7.87,7.87,0,0,0,13,3.47a40.38,40.38,0,0,0-2.57,6.85A40.5,40.5,0,0,1,16,9.77a5.29,5.29,0,0,1,2.62.52,2.82,2.82,0,0,1,1.47,2S18.93,12,18.62,12c-2.17-.27-6.88.31-8.86.55-.79,2.56-1.51,4.94-2,6.67l-.17.6c1.11,0,2.4,0,3.88,0,4.68,0,7.66-.19,7.66-.19A3.59,3.59,0,0,0,22.36,16s.25-3.43.25-6.28S22.35,4,22.35,4"/></g></g></g></svg>