<svg xmlns="http://www.w3.org/2000/svg" viewBox="0 0 91.16 22.68"><defs><style>.cls-1{fill:#00957b;}.cls-1,.cls-2{fill-rule:evenodd;}.cls-2{fill:#1b1918;}</style></defs><title>Vaillant</title><g id="Calque_2" data-name="Calque 2"><g id="Mode_Isolation" data-name="Mode Isolation"><g id="Vaillant"><path class="cls-1" d="M75.48,20.88v-10c0-1.9,4-2,4,.07v10c0,2.33,3.66,2.26,3.66,0v-10c0-3.6-2.25-4.46-4.68-4.44a3.19,3.19,0,0,0-3,1.87V8.22c0-2.29-3.66-2.31-3.66,0V20.88c0,2.31,3.66,2.29,3.66,0Zm12.88,0v-11h2.8V6.47h-2.8V1.69c0-2.25-3.73-2.25-3.73,0V20.88c0,2.29,3.73,2.29,3.73,0Zm-40.85,0V8.22c0-2.3-3.7-2.29-3.7,0V20.88c0,2.29,3.7,2.31,3.7,0Zm5.27,0V1.69c0-2.25-3.7-2.26-3.7,0V20.88c0,2.31,3.7,2.29,3.7,0Zm5,0V1.69c0-2.21-3.66-2.28-3.66,0V20.88c0,2.33,3.66,2.26,3.66,0ZM45.68.19a2.17,2.17,0,0,1,1.9,2.39,2,2,0,1,1-3.84,0A2.18,2.18,0,0,1,45.68.19ZM35.6,15.24a1.16,1.16,0,0,0-1.16,1.16v2.13a1.19,1.19,0,0,0,1.16,1.19h2.13a1.17,1.17,0,0,0,1.15-1.19V16.4a1.13,1.13,0,0,0-1.15-1.16Zm-4.33,5.12V15.54c0-1.59.92-3.4,2.61-3.4h2.54A2.75,2.75,0,0,1,39,14.08c0-1.08,0-2.16,0-3.24,0-.53-.47-1.09-1.38-1.09H32.46V6.47h6.91c1.71,0,2.8,1.42,2.8,3.36V22.64H39.33v-2a3.38,3.38,0,0,1-2.69,2h-3a2.29,2.29,0,0,1-2.35-2.28ZM19.06,2.66l4.4,18.44c.52,2.17,3.94,2,4.45,0l4.7-18.82c.48-1.93-2.92-3.22-3.43-.93L25.63,17.22l-3-15.38c-.56-2.89-4.16-1.6-3.58.82ZM63.57,15.24a1.16,1.16,0,0,0-1.16,1.16v2.13a1.19,1.19,0,0,0,1.16,1.19H65.7a1.17,1.17,0,0,0,1.15-1.19V16.4a1.13,1.13,0,0,0-1.15-1.16Zm-4.33,5.12V15.54c0-1.59.92-3.4,2.61-3.4h2.54a2.75,2.75,0,0,1,2.54,1.94c0-1.08,0-2.16,0-3.24,0-.53-.47-1.09-1.38-1.09H60.43V6.47h6.91c1.71,0,2.8,1.42,2.8,3.36V22.64H67.3v-2a3.38,3.38,0,0,1-2.69,2h-3a2.29,2.29,0,0,1-2.35-2.28Z"/><path class="cls-1" d="M2,.14H15.39a2,2,0,0,1,2,2V20.54a2,2,0,0,1-2,2H2a2,2,0,0,1-2-2V2.1a2,2,0,0,1,2-2ZM8.68,2.37a5.12,5.12,0,0,1,3.41,1.39c1-1.25,2.32-2.59,4-2.58.66,1.85-.87,4.06-2,5.47a12.37,12.37,0,0,1,1,5.11c0,5.18-2.92,9.38-6.52,9.38s-6.53-4.2-6.53-9.38A12.53,12.53,0,0,1,3.2,6.65l0,0C2.08,5.16.62,3.08,1.23,1.18c1.75-.05,3,1.36,4,2.58A5.13,5.13,0,0,1,8.68,2.37Z"/><path class="cls-2" d="M11.83,8.12c1.29-1.12,3.4-4.24,3.44-5.6-1.35.38-3.24,4.34-3.44,5.6ZM9.52,12.79h.15A2.48,2.48,0,0,1,11,10.2L10.9,10a2.57,2.57,0,0,0-1.38,2.77Zm.56-.08c.52.3,1.65-1.85,1.12-2.13s-1.64,1.83-1.12,2.13Zm-1,1.61a1.55,1.55,0,0,1,.52,1.27c0,.18-.26.15-.44.18a.2.2,0,0,0-.19.12,1.85,1.85,0,0,0,0,.71c0,.13.15.14.21.33a.5.5,0,0,0,.59.45A1.24,1.24,0,0,0,11,16.15c.07-.71-.35-1.06-.93-1.35.62-.7,3.18-4.27,1.08-5.52-2,1-2,2.26-2.09,5ZM9.33,18c-.05-.37-.24-.72-.65-.72s-.61.35-.66.72Zm2.28-1.14h2.55l.13-.3H11.13V16.3h3.26l.1-.26h-3v-.3h3.13c0-.13.08-.25.11-.38H12.43A3.7,3.7,0,0,0,12.36,12a3.6,3.6,0,0,0-.45-3.55c1.29-.7,4.74-5.2,4-7-2-.1-5,4-5.61,5.75a5.41,5.41,0,0,0-3.25,0C6.47,5.5,3.46,1.37,1.45,1.47c-.75,1.82,2.7,6.32,4,7A3.6,3.6,0,0,0,5,12a3.7,3.7,0,0,0-.07,3.32H2.65c0,.13.07.25.11.38H5.89V16h-3L3,16.3H6.23v.26H3.07l.13.3H5.74c.93,0,1.31,1.92,2.94,1.92s2-1.92,2.93-1.92ZM5.52,8.12C4.24,7,2.12,3.88,2.08,2.52c1.35.38,3.24,4.34,3.44,5.6Zm2.31,4.67H7.68A2.48,2.48,0,0,0,6.37,10.2L6.45,10a2.57,2.57,0,0,1,1.38,2.77Zm-.56-.08c-.51.3-1.65-1.85-1.12-2.13s1.64,1.83,1.12,2.13Zm1,1.61a1.58,1.58,0,0,0-.52,1.27c0,.18.26.15.45.18a.19.19,0,0,1,.18.12,1.85,1.85,0,0,1,0,.71c0,.13-.15.14-.2.33a.52.52,0,0,1-.6.45,1.24,1.24,0,0,1-1.27-1.23c-.07-.71.35-1.06.93-1.35-.62-.7-3.18-4.27-1.08-5.52,2,1,2,2.26,2.09,5Z"/></g></g></g></svg>
