<?xml version="1.0" encoding="utf-8"?>
<!-- Generator: Adobe Illustrator 25.0.1, SVG Export Plug-In . SVG Version: 6.00 Build 0)  -->
<svg version="1.1" id="Layer_1" xmlns="http://www.w3.org/2000/svg" xmlns:xlink="http://www.w3.org/1999/xlink" x="0px" y="0px"
	 viewBox="0 0 368.5 114" style="enable-background:new 0 0 368.5 114;" xml:space="preserve">
<style type="text/css">
	.st0{fill:#FFFFFF;}
	.st1{enable-background:new    ;}
</style>
<g id="Layer_3">
	<path class="st0" d="M322.9,27h-11.3v36h11.3V27z M162.5,63.1h1.6v-7.8h-1c-1.8,0-3.6,0.1-5.3,0c-2.2-0.1-3.3-1.2-3.3-3.5V35.7
		c0-0.3,0-0.6,0-0.9c1.3,0,2.7,0,3.9,0c1.7,0,3.3-0.4,4.3-1.9c1.2-1.8,1.4-3.7,1.3-5.9h-9.6v-5.4h-11v30.8c0,1.1,0.1,2.2,0.4,3.2
		c1,4.1,4,6.2,7.9,7C155.1,63.5,158.8,63.1,162.5,63.1z M180.7,62.1c0-15.8,0-31.6,0-47.4v-0.9h-11.4v49.4h0.8c3.2,0,6.3,0,9.4,0
		C180.5,63.1,180.7,62.9,180.7,62.1z M279.6,62.5c0-7.8,0.1-15.5-0.1-23.3c0-4.7-2.8-8.8-7.1-10.6c-2.7-1.1-5.5-1.8-8.5-1.8
		c-4.1-0.2-8.3-0.1-12.4,0.6c-1.4,0.2-2.8,0.7-4.2,0.9c0-0.5,0-0.8-0.1-1.3c-2.7,0-5.4,0-8,0.9c-2.1,0.7-2.7,1.8-2.7,3.9V63h11.4v-1
		c0-7.5,0.1-15,0-22.5c0-1.9,0.7-2.6,2.2-3.3c3.7-1.5,7.9-2,11.9-1.4c4,0.5,6.3,2.1,6.1,7.1c-0.1,6.7,0,13.6,0,20.4
		c0,0.7,0.2,0.9,1,0.9c2.7,0,5.4,0,8.1,0h2.2C279.5,62.9,279.5,62.8,279.6,62.5L279.6,62.5z M304.7,33.2c1.5-1.8,1.5-3.9,1.6-6.2
		h-9.7v-5.4h-11c0,0.2,0,0.4,0,0.5v31.1c0,1.6,0.4,3.2,1.1,4.5c1.7,2.9,4.7,4.9,8,5.1c3.2,0.4,6.5,0.3,9.6,0.4h1.9v-7.8h-1
		c-1.8,0-3.6,0.1-5.3,0c-2.2-0.1-3.3-1.2-3.3-3.5v-17c1.4,0,2.7,0,4,0C302.2,34.9,303.7,34.3,304.7,33.2z M322.8,16.2
		c-2.4-3.1-8.5-3.2-10.9-0.1c-1.1,1.3-1.1,3.4,0,4.7c1.4,1.6,3.4,2.4,5.4,2.3c1.8,0,3.5-0.6,4.8-1.6c1.7-1.2,2-3.6,0.8-5.1
		C322.9,16.3,322.8,16.2,322.8,16.2L322.8,16.2z M342.2,51.9c-2.2-2.3-2.7-5.1-2.6-8.2c0-2.3,1.1-4.6,2.9-6c1.3-0.9,2.8-1.7,4.3-2.2
		c4.8-1.4,9.6-1.2,14.5-0.8c1.5,0.1,3,0.3,4.5,0.5v-7.7c-0.8-0.1-1.6-0.2-2.4-0.3c-4.8-0.5-9.5-0.6-14.3-0.2
		c-3.6,0.2-7.3,1-10.8,2.3c-4,1.6-7.2,4.1-9,8.2c-1.1,2.9-1.6,6-1.2,9.1c0.2,2.7,0.9,5.3,2.3,7.6c2.2,3.6,5.7,6.1,9.6,7.2
		c7.3,2.2,15.1,2.7,22.5,1.3c4.6-0.7,6.6-3.8,5.8-8.1c-2.3,0.3-4.6,0.7-6.8,0.8c-4.2,0.6-8.5,0.5-12.7-0.3
		C346.3,54.8,343.9,53.6,342.2,51.9L342.2,51.9z M230.6,58.5c0.1,1.6-0.8,3-2.2,3.6c-1.5,0.7-6.6,1.2-8.3,0.9c0-0.4,0-0.7-0.1-1.1
		c-1.7,0.5-3.4,0.8-5.1,1.2c-7.4,0.9-14.5,0.2-21-3.6c-5.2-3-7.8-7.7-8-13.6c-0.2-4.2,0.5-8.1,3.2-11.5c2.3-2.8,5.6-4.9,9.2-5.8
		c4.2-1.2,8.5-1.9,12.9-1.9c4.2-0.2,8.4,0.4,12.4,1.5c1.3,0.4,2.5,0.9,3.6,1.7c2.2,1.3,3.4,3.6,3.3,6.1
		C230.6,43.6,230.6,51,230.6,58.5z M219.1,52.7c-0.1-2.6,0-5.3,0-8c0-2.6-0.1-5.3,0-8c0.1-0.7-0.4-1.4-1-1.6
		c-0.3-0.1-0.7-0.3-0.9-0.3c-3.8-0.7-7.8-0.7-11.6,0.2c-2.3,0.4-4.5,1.5-6.2,3.2c-2.1,2.2-2.4,4.8-2.2,7.7c0.4,3.6,2.1,6.5,5.5,8
		c2,0.7,4,1.3,6.1,1.6c3.3,0.6,6.5,0,9.5-1.4C218.9,53.8,219.2,53.3,219.1,52.7L219.1,52.7z M137.3,58.5c0.1,1.6-0.8,3-2.3,3.5
		c-1.8,0.7-3.6,0.9-5.5,0.9c-0.9,0-1.9,0-2.9,0c0-0.5,0-0.8-0.1-1.2c-1.6,0.5-3.3,0.9-5,1.2c-8,0.9-15.6,0-22.4-4.6
		c-3.7-2.5-6.2-6.6-6.5-11.2c-0.4-2.7-0.2-5.5,0.6-8.2c1.4-4.6,4.6-7.5,8.8-9.4c3.5-1.5,7.1-2.4,10.9-2.6c2.9-0.3,5.9-0.3,8.8-0.2
		c3.6,0,7.1,0.7,10.4,2.2c2.5,1.1,4.5,2.8,5,5.8c0.1,0.4,0.1,0.7,0.1,1.1C137.3,43.5,137.2,51,137.3,58.5z M125.9,52.7
		c0-2.6,0-5.2,0-7.9v-7.4c0-1.7-0.3-2.2-2-2.5c-4.4-1-9.1-0.7-13.4,0.7c-4.6,1.6-6.6,4.7-6.5,9.4c-0.1,4.1,2.5,7.9,6.5,9.2
		c2.6,0.9,5.3,1.4,8.1,1.2c2.2,0,4.5-0.6,6.5-1.6C125.6,53.9,126,53.3,125.9,52.7L125.9,52.7z"/>
	<g class="st1">
		<path class="st0" d="M62.6,86.9l-2.3,1.8c-0.6-0.6-1.2-1.1-1.7-1.4c-0.5-0.3-1.2-0.5-2.2-0.5c-1,0-1.9,0.2-2.5,0.7
			c-0.6,0.5-1,1-1,1.8c0,0.6,0.3,1.2,0.8,1.6c0.6,0.5,1.5,1,2.8,1.6c1.3,0.6,2.4,1.1,3.1,1.6c0.7,0.5,1.4,1,1.8,1.6
			c0.5,0.6,0.8,1.2,1.1,1.9c0.2,0.7,0.4,1.3,0.4,2.1c0,1.7-0.6,3.2-1.9,4.4c-1.3,1.2-2.8,1.8-4.6,1.8c-1.7,0-3.3-0.5-4.6-1.4
			c-1.3-0.9-2.4-2.3-3.1-4.2l2.9-0.8c1,2.3,2.6,3.5,4.8,3.5c1,0,1.9-0.3,2.6-0.9c0.7-0.6,1-1.4,1-2.3c0-0.6-0.2-1.1-0.5-1.7
			c-0.4-0.6-0.8-1-1.3-1.4c-0.5-0.4-1.4-0.8-2.6-1.2S53.7,94.4,53,94c-0.6-0.4-1.2-0.9-1.6-1.4c-0.5-0.5-0.8-1.1-1-1.6
			s-0.3-1.1-0.3-1.7c0-1.5,0.6-2.7,1.8-3.8c1.2-1,2.7-1.6,4.4-1.6c1.1,0,2.3,0.2,3.5,0.7C60.9,85.1,61.8,85.9,62.6,86.9z"/>
		<path class="st0" d="M65.6,98.4c0-1.8,0.7-3.4,2.2-4.8c1.5-1.4,3.1-2.1,5-2.1c1.9,0,3.6,0.7,5.1,2.1c1.5,1.4,2.2,3,2.2,4.9
			c0,1.9-0.7,3.5-2.1,4.9c-1.4,1.4-3.1,2.1-4.9,2.1c-2,0-3.7-0.7-5.2-2.1C66.4,101.9,65.6,100.3,65.6,98.4z M77.4,98.4
			c0-1.1-0.4-2.1-1.3-2.9s-1.9-1.2-3.1-1.2c-1.2,0-2.3,0.4-3.2,1.3c-0.9,0.8-1.3,1.8-1.3,3c0,1.1,0.5,2.1,1.4,2.9
			c0.9,0.8,2,1.3,3.2,1.3c1.2,0,2.2-0.4,3.1-1.3C76.9,100.5,77.4,99.5,77.4,98.4z"/>
		<path class="st0" d="M83.6,84.2h2.9v20.9h-2.9V84.2z"/>
		<path class="st0" d="M90,91.8h2.9v7.5c0,2.3,1,3.5,3.1,3.5c0.9,0,1.6-0.3,2.2-0.9c0.5-0.6,0.8-1.5,0.8-2.5v-7.5h2.8v7.9
			c0,1.7-0.6,3-1.7,4.1c-1.1,1.1-2.5,1.6-4.2,1.6c-1.7,0-3.2-0.5-4.2-1.6s-1.6-2.5-1.6-4.2V91.8z"/>
		<path class="st0" d="M106.1,87.9h2.9v3.9h2.8v2.6H109v10.7h-2.9V94.3h-2.2v-2.6h2.2V87.9z"/>
		<path class="st0" d="M113.8,87.4c0-0.6,0.2-1.1,0.7-1.5c0.4-0.4,1-0.6,1.6-0.6c0.6,0,1.1,0.2,1.5,0.6c0.4,0.4,0.6,0.9,0.6,1.5
			c0,0.6-0.2,1.1-0.6,1.5s-0.9,0.6-1.5,0.6c-0.6,0-1.1-0.2-1.6-0.6C114,88.5,113.8,88,113.8,87.4z M114.6,91.8h2.8v13.3h-2.8V91.8z"
			/>
		<path class="st0" d="M120.9,98.4c0-1.8,0.7-3.4,2.2-4.8c1.5-1.4,3.1-2.1,5-2.1c1.9,0,3.6,0.7,5.1,2.1c1.5,1.4,2.2,3,2.2,4.9
			c0,1.9-0.7,3.5-2.1,4.9c-1.4,1.4-3.1,2.1-4.9,2.1c-2,0-3.7-0.7-5.2-2.1C121.7,101.9,120.9,100.3,120.9,98.4z M132.7,98.4
			c0-1.1-0.4-2.1-1.3-2.9s-1.9-1.2-3.1-1.2c-1.2,0-2.3,0.4-3.2,1.3c-0.9,0.8-1.3,1.8-1.3,3c0,1.1,0.5,2.1,1.4,2.9
			c0.9,0.8,2,1.3,3.2,1.3c1.2,0,2.2-0.4,3.1-1.3C132.2,100.5,132.7,99.5,132.7,98.4z"/>
		<path class="st0" d="M138,105.1V91.8h2.8V94c0.8-0.9,1.6-1.5,2.2-2s1.4-0.6,2.2-0.6c1.2,0,2.3,0.4,3.1,1.2s1.3,1.7,1.3,2.9v9.6
			h-2.9v-8.8c0-0.7-0.2-1.3-0.7-1.8c-0.5-0.5-1.1-0.7-1.8-0.7c-1,0-1.8,0.4-2.5,1.2c-0.7,0.8-1,1.7-1,2.9v7.2H138z"/>
		<path class="st0" d="M161.3,93.4l-1.9,1.6c-0.5-0.3-0.9-0.6-1.3-0.8s-0.8-0.3-1.3-0.3c-1.2,0-1.7,0.4-1.7,1.3
			c0,0.6,0.7,1.2,2.2,1.7c1.5,0.6,2.5,1.2,3.2,1.9c0.6,0.7,1,1.5,1,2.4c0,1.1-0.5,2.1-1.4,2.9c-0.9,0.8-2,1.2-3.3,1.2
			c-1.9,0-3.5-0.9-4.7-2.6l2.2-1.1c0.8,0.8,1.6,1.1,2.5,1.1c0.6,0,1.1-0.2,1.5-0.5c0.4-0.3,0.7-0.7,0.7-1.1c0-0.7-0.8-1.4-2.3-2
			c-1.6-0.6-2.6-1.2-3.2-1.8c-0.6-0.6-0.9-1.4-0.9-2.2c0-1.1,0.4-2,1.3-2.8s1.9-1.1,3.2-1.1C158.3,91.4,159.8,92.1,161.3,93.4z"/>
		<path class="st0" d="M183.8,101v3.2c-1.5,0.8-2.9,1.2-4.2,1.2c-1.9,0-3.5-0.7-4.9-2.1s-2.1-3-2.1-4.8c0-2.1,0.7-3.8,2.1-5.1
			c1.4-1.4,3.2-2,5.3-2c1.3,0,2.6,0.3,3.9,1v3.1c-1.4-0.9-2.8-1.3-4.1-1.3c-1.2,0-2.2,0.4-3.1,1.2c-0.9,0.8-1.3,1.8-1.3,2.9
			c0,1.2,0.4,2.3,1.2,3.1c0.8,0.8,1.8,1.3,3,1.3C180.8,102.6,182.2,102.1,183.8,101z"/>
		<path class="st0" d="M187.3,84.2h2.9V94c0.8-0.9,1.5-1.5,2.2-1.9c0.7-0.4,1.5-0.6,2.5-0.6c1.1,0,2.1,0.4,3,1.3
			c0.8,0.9,1.3,1.9,1.3,3.1v9.2h-2.9v-8.5c0-0.8-0.2-1.5-0.6-2c-0.4-0.5-1-0.8-1.7-0.8c-1,0-1.9,0.4-2.6,1.1
			c-0.7,0.8-1.1,1.7-1.1,2.8v7.3h-2.9V84.2z"/>
		<path class="st0" d="M214,91.8h2.9v13.3H214v-2.6c-1.4,2-3.1,3-5.2,3c-1.8,0-3.3-0.7-4.6-2.1c-1.3-1.4-1.9-3-1.9-5
			c0-1.9,0.6-3.5,1.9-4.9c1.3-1.4,2.8-2.1,4.5-2.1c1.1,0,2.1,0.3,3,0.9c1,0.6,1.7,1.3,2.2,2.2V91.8z M214.4,98.5
			c0-1.2-0.4-2.2-1.3-3.1c-0.9-0.9-1.9-1.3-3.2-1.3c-1.2,0-2.3,0.4-3.2,1.3c-0.9,0.9-1.3,1.9-1.3,3c0,1.3,0.4,2.3,1.3,3.2
			c0.9,0.9,1.9,1.3,3.2,1.3c1.2,0,2.3-0.4,3.2-1.3S214.4,99.7,214.4,98.5z"/>
		<path class="st0" d="M220.6,91.8h2.9v7.5c0,2.3,1,3.5,3.1,3.5c0.9,0,1.6-0.3,2.2-0.9c0.5-0.6,0.8-1.5,0.8-2.5v-7.5h2.8v7.9
			c0,1.7-0.6,3-1.7,4.1c-1.1,1.1-2.5,1.6-4.2,1.6c-1.7,0-3.2-0.5-4.2-1.6s-1.6-2.5-1.6-4.2V91.8z"/>
		<path class="st0" d="M244,84.4v2.8c-0.8-0.5-1.5-0.8-2.1-0.8c-0.5,0-0.9,0.2-1.2,0.5s-0.4,0.9-0.4,1.5v3.3h3.8v2.6h-3.8v10.7h-2.9
			V94.3h-2.5v-2.6h2.5v-3.1c0-1.5,0.4-2.7,1.2-3.6c0.8-0.9,1.8-1.3,3.2-1.3C242.4,83.7,243.2,83.9,244,84.4z"/>
		<path class="st0" d="M255.2,84.4v2.8c-0.8-0.5-1.5-0.8-2.1-0.8c-0.5,0-0.9,0.2-1.2,0.5s-0.4,0.9-0.4,1.5v3.3h3.8v2.6h-3.8v10.7
			h-2.9V94.3h-2.5v-2.6h2.5v-3.1c0-1.5,0.4-2.7,1.2-3.6c0.8-0.9,1.8-1.3,3.2-1.3C253.6,83.7,254.3,83.9,255.2,84.4z"/>
		<path class="st0" d="M271.7,99h-11.5c0.3,1.4,0.8,2.4,1.7,3s1.9,0.9,2.9,0.9c1.6,0,3-0.7,4.1-2l2.1,1.5c-1.6,2-3.7,3-6.3,3
			c-2,0-3.7-0.7-5-2c-1.4-1.4-2-3-2-5c0-1.9,0.7-3.5,2.1-4.9c1.4-1.4,3-2.1,5-2.1c1.9,0,3.6,0.7,5,2.1S271.7,96.7,271.7,99z
			 M260.5,96.7h8.3c-0.9-1.8-2.3-2.7-4.1-2.7C262.7,94,261.3,94.9,260.5,96.7z"/>
		<path class="st0" d="M278.2,91.8v2.7c0.6-1.1,1.3-1.9,1.9-2.4c0.6-0.5,1.4-0.7,2.4-0.7c0.3,0,0.7,0.1,1.2,0.2l-0.9,2.8
			c-0.5-0.1-0.9-0.2-1.1-0.2c-1,0-1.8,0.3-2.4,1s-1,1.5-1,2.5v7.3h-2.9V91.8H278.2z"/>
		<path class="st0" d="M285.6,87.4c0-0.6,0.2-1.1,0.7-1.5c0.4-0.4,1-0.6,1.6-0.6c0.6,0,1.1,0.2,1.5,0.6c0.4,0.4,0.6,0.9,0.6,1.5
			c0,0.6-0.2,1.1-0.6,1.5s-0.9,0.6-1.5,0.6c-0.6,0-1.1-0.2-1.6-0.6C285.9,88.5,285.6,88,285.6,87.4z M286.4,91.8h2.8v13.3h-2.8V91.8
			z"/>
		<path class="st0" d="M307,99h-11.5c0.3,1.4,0.8,2.4,1.7,3s1.9,0.9,2.9,0.9c1.6,0,3-0.7,4.1-2l2.1,1.5c-1.6,2-3.7,3-6.3,3
			c-2,0-3.7-0.7-5-2c-1.4-1.4-2-3-2-5c0-1.9,0.7-3.5,2.1-4.9c1.4-1.4,3-2.1,5-2.1c1.9,0,3.6,0.7,5,2.1S307.1,96.7,307,99z
			 M295.8,96.7h8.3c-0.9-1.8-2.3-2.7-4.1-2.7C298,94,296.6,94.9,295.8,96.7z"/>
	</g>
	<path class="st0" d="M32.1,11.7c0,0,18.1-0.7,26.2,7.6c2.2,2.2,4.4,7.7,5.2,11.1c0.7,3,0.9,6,0.9,9.1l0,0
		c-0.3,3.8-0.9,5.6-3.4,14.8c0,0,11-5.9,15.4-14.8c5.8-11.7,3.7-30-9.4-36.9C51.4-6,32.1,11.7,32.1,11.7z"/>
	<path class="st0" d="M27.5,66.8c-2.2-2.7-4-5.6-5.6-8.7c-2.2-4.6-3-9.5-2.5-14.6c0.2-2.2,0.7-4.1,1.8-6c2.1-4,5.1-6.7,7.9-9.4
		c6.5-6,15.2-7.4,19.1-8.1c-2.8-1.8-10.2-4.3-19.5-4.1C16.7,16.3,2,28.5,3.4,44.6C4.8,62.5,27.5,66.8,27.5,66.8z"/>
	<path class="st0" d="M77.2,43.2c0,0-6.2,12-17.1,16.2C51.6,62.7,41,58.3,38,56.5c-7.5-4.2-12.7-12.6-12.7-12.6l0,0
		c-0.6,6.5,0.8,12.9,4.1,18.6c6,10.5,26,19.7,39.5,10.8C83.8,63.4,77.2,43.2,77.2,43.2z"/>
</g>
<g id="Layer_5">
	<path class="st0" d="M28.2,39.3c1.1-2.5,2.6-4.8,4.3-6.9c2.9-3,6.4-5.5,10.2-7.2c2.4-1.1,4.6-1.6,9.4-2.2l0,0
		c2,2.2,3.5,4.7,4.4,7.4c1,3.1,1.6,6.4,1.4,9.6c-0.1,2.5-0.1,4.3-2.8,12.5c0,0-5.5,0.7-8.8-0.1c-4-0.9-7.8-2.6-11.1-5.1
		C33.2,45.9,30.3,42.5,28.2,39.3z"/>
</g>
</svg>
