<?xml version="1.0" encoding="utf-8"?>
<!-- Generator: Adobe Illustrator 25.0.1, SVG Export Plug-In . SVG Version: 6.00 Build 0)  -->
<svg version="1.1" id="Layer_2_1_" xmlns="http://www.w3.org/2000/svg" xmlns:xlink="http://www.w3.org/1999/xlink" x="0px" y="0px"
	 viewBox="0 0 340.9 111.6" style="enable-background:new 0 0 340.9 111.6;" xml:space="preserve">
<style type="text/css">
	.st0{fill:#FFFFFF;}
	.st1{enable-background:new    ;}
</style>
<path class="st0" d="M1.4,76.2L49.3,0l49.8,1.2l44.8,74.1c0,0,2,4-0.2,7.5c-1.7,2.5-4.2,4.3-7.1,5.1c-5.1,1-7.5-3.8-7.5-3.8
	L94.7,27.8L60,82.1c0,0-2.7,4.3-12.6,4.4C37.2,86.9,8.1,87,2.6,85.3C-2.4,83,1.4,76.2,1.4,76.2z"/>
<path class="st0" d="M16.8,98.4h113.8c1.9,0,3.5,1.6,3.5,3.5l0,0c0,1.9-1.6,3.5-3.5,3.5H16.8c-1.9,0-3.5-1.6-3.5-3.5l0,0
	C13.3,100,14.9,98.4,16.8,98.4z"/>
<path class="st0" d="M82.1,62.5h25.1c1.8,0,3.3,1.5,3.3,3.3l0,0c0,1.8-1.5,3.3-3.3,3.3H82.1c-1.8,0-3.3-1.5-3.3-3.3l0,0
	C78.8,64,80.3,62.5,82.1,62.5z"/>
<g class="st1">
	<path class="st0" d="M182.2,89.8c-8.6,0-16-2.8-22.1-8.4c-6.1-5.6-9.2-12.3-9.2-20.2V28.6c0-1,0.4-1.8,1.1-2.5c0.8-0.7,1.7-1,2.8-1
		h11.8c1.1,0,2,0.3,2.8,1c0.8,0.7,1.1,1.5,1.1,2.5v32.5c0,3,1.2,5.5,3.5,7.6s5.1,3.1,8.3,3.1c3.2-0.1,5.9-1.1,8.1-3.3
		c2.2-2.1,3.3-4.6,3.3-7.5V28.6c0-1,0.4-1.8,1.2-2.5c0.8-0.7,1.7-1,2.8-1h11.7c1.1,0,2,0.3,2.8,1c0.8,0.7,1.1,1.5,1.1,2.5v32.3
		c0,7.9-3,14.7-9.1,20.4C198.1,86.9,190.8,89.7,182.2,89.8z"/>
</g>
<path class="st0" d="M151,28c0-2.6,3.1-5.2,5.6-6.2c3.2-1.3,7.7-0.4,8.4-0.2c3.4,1,6,3.9,5.6,6.9s-5.6,4.5-8.7,4.6
	C157.3,33.3,150.9,31.3,151,28z"/>
<path class="st0" d="M193.8,28c0-2.6,3.2-5.2,5.6-6.2c3.2-1.3,7.7-0.4,8.4-0.2c3.4,1,6,3.9,5.6,6.9s-5.6,4.5-8.7,4.6
	C200.1,33.3,193.7,31.3,193.8,28z"/>
<path class="st0" d="M258,62.9L287,44c0,0,1.8-2.8-1.1-9.8c-3.5-8.3-13.7-14.6-19.4-15.7c-7.8-1.5-15.9-0.7-23.3,2.4
	c-3.7,1.6-12.3,5.4-17.6,14.8c-6.4,11.3-3.8,22.7-3,25.8c3.2,12.9,12.8,22.1,26.2,25.6c7.6,2,15.6,1.5,23-1.2
	c5.5-2.4,10.7-5.2,15.6-8.6c0,0,3-5.6,0-9.5c-2.2-2.9-8.2-2.1-8.2-2.1s-4.6,2.6-9.6,4.8c-6.5,2.9-12.5,3-15.6,2.1
	c-3.3-1-7.9-2.2-11.3-6.5c-5.6-7-3.6-15.1-3-17.3c2-8.2,5.6-11.1,8.7-12.7c4.5-2.2,8-3.2,12.9-2.7c3.3,0.3,6.4,0.9,8.6,3.8
	c1.3,1.9,1.5,4.3,0.6,6.4c0,0-1.4,1.6-8,5.6c-9.6,5.8-10.8,6.3-11.3,8s-0.8,3.8,0.3,5.2C252.7,63.7,258,62.9,258,62.9z"/>
<path class="st0" d="M307.9,85.7h-2.5c-4.1,0-7.5-3.3-7.5-7.5c0,0,0,0,0,0V25.5c0-4.1,3.4-7.5,7.5-7.5h2.5c2,0,3.9,0.8,5.3,2.2
	c1.4,1.4,2.2,3.3,2.2,5.3v52.8C315.4,82.4,312.1,85.7,307.9,85.7C307.9,85.7,307.9,85.7,307.9,85.7z"/>
<path class="st0" d="M327,20c4-0.5,6.4-0.5,11,1.5c2.3,1,3.1,4.3,2.9,7c0,0.3-0.5,4.3-3.3,5.7c-2,1-3.1-0.2-7.3-0.5
	c-3.1-0.3-6.2,0.2-9.1,1.4c-4.2,2.1-6.7,6.1-8.6,5.9c-3.2-0.4-3.8-10.6-1-13.2c0.7-0.6,1-1.4,1.9-2C319.4,21.9,321.9,20.7,327,20z"
	/>
</svg>
