<svg id="Layer_1" data-name="Layer 1" xmlns="http://www.w3.org/2000/svg" viewBox="0 0 530.72 114"><defs><style>.cls-1,.cls-2{fill:#fff;}.cls-1{fill-rule:evenodd;}.cls-3{fill:none;}</style></defs><path class="cls-1" d="M529.25,57C529.25,30.3,507,8.33,480,8.33S431.08,30.3,431.08,57c0,.7,0,1.37,0,2.05h98.09C529.23,58.35,529.25,57.68,529.25,57Z"/><path class="cls-1" d="M480,110A49.42,49.42,0,0,0,523.51,84H436.77A49.08,49.08,0,0,0,480,110Z"/><rect class="cls-2" y="66.52" width="392.4" height="7.32"/><path class="cls-3" d="M403.23,61.1l4.1,20.8h29.42a48.47,48.47,0,0,1-5.63-20.8Z"/><path class="cls-3" d="M530.72,61.1h-1.51a48.16,48.16,0,0,1-5.72,20.8h3.13Z"/><path class="cls-2" d="M420.84,65.78H409.11V79.26h12.6c10,0,7-5.85,4.69-6.46C428.74,72.51,432.54,65.19,420.84,65.78ZM417.32,69c.88,0,3.22-.29,3.22,1.17,0,1.17-2.63,1.17-3.22,1.17Zm.88,7.92h-.88V74.29h1.18c.58,0,1.46.29,1.75.29a1.54,1.54,0,0,1,.59,1.17c0,1.17-1.78,1.17-2.64,1.17Z"/><polygon class="cls-2" points="487.36 65.78 471.22 65.78 471.22 68.71 475.34 68.71 475.63 79.26 483.53 79.26 483.53 68.71 487.36 68.71 487.36 65.78"/><path class="cls-2" d="M509.62,79.26Z"/><polygon class="cls-2" points="525.45 69 525.45 65.78 509.33 65.78 509.62 79.26 525.45 79.26 525.45 76.34 516.35 76.34 516.35 73.97 525.45 73.97 525.45 70.75 516.35 70.75 516.35 69 525.45 69"/><path class="cls-2" d="M490.29,68.71h7.31v7.34c0,1.46-3.22,1.75-2.92-2.64h-8.2v4.68c.88,2.64,7.93,2.93,12.61,2.64,2.34-.3,4.39-.59,5.56-.88A3.8,3.8,0,0,0,507,76.34V65.8h-16.7Z"/><path class="cls-1" d="M450.12,71.05c.59-5-4.68-5-7-5l-11.73-.29V79.26h7.34V74l.59.29,2,5h8.49l-3.22-5A3.31,3.31,0,0,0,450.12,71.05Zm-8.21,0a1.78,1.78,0,0,1-1.17.29h-2.05V68.41h1.75a2.26,2.26,0,0,1,1.47.59c0,.29.29.58.29,1.17,0,.29-.29.58-.29.88Z"/><path class="cls-1" d="M431.37,65.78Z"/><path class="cls-1" d="M465.66,65.78H456a5.13,5.13,0,0,0-5,5v3.52a5.13,5.13,0,0,0,5,5h9.68a4.94,4.94,0,0,0,5-4.93V70.73a4.92,4.92,0,0,0-4.93-5S465.68,65.78,465.66,65.78Zm-3.22,10.56a1.73,1.73,0,0,1-1.46.58,2.33,2.33,0,0,1-1.47-.58,7.93,7.93,0,0,1-.58-3.22h0a7.89,7.89,0,0,1,.58-3.22A1.68,1.68,0,0,1,461,69a2,2,0,0,1,1.75,1.17,7.7,7.7,0,0,1,.59,2.93,4.75,4.75,0,0,1-.88,3.22Z"/><path class="cls-1" d="M452.76,62.56h7.31v1.76h-7.31Zm9.09,0h7.32v1.76h-7.32Z"/><path class="cls-1" d="M392.4,102.56a16.79,16.79,0,0,1-.58,4.69,6.18,6.18,0,0,1-3.51,4.09,7.09,7.09,0,0,1-3.81,1.17,24.15,24.15,0,0,1-5.27.88h-7.31a89.32,89.32,0,0,1-10.85-.58,14.24,14.24,0,0,1-5.27-2c-2.63-1.46-4.1-4.68-4.1-8.8V93.74a17.28,17.28,0,0,1,.88-6.15,13.29,13.29,0,0,1,2.93-4.09,28.28,28.28,0,0,1,7.9-2.34c2,0,5.27-.3,8.8-.3h3.51a36.64,36.64,0,0,1,6.44.3,15.76,15.76,0,0,1,6.15,1.46,12.23,12.23,0,0,1,2.92,2.63,8,8,0,0,1,1.17,4.68v.88h-9.07a5.75,5.75,0,0,0-.29-2.34L381.58,87a7,7,0,0,0-2.93-.88H372.8c-5.27,0-9.08.29-10.27,1.17a3.73,3.73,0,0,0-1.46,2,11.84,11.84,0,0,0-.3,3.8v7.93c0,2.92.3,5,1.47,5.85.58.29,1.46.59,2.05.88.87,0,2,.29,2.63.29h8.49a11.17,11.17,0,0,0,3.51-.29,4.76,4.76,0,0,0,2.63-.88c.88-.29,1.17-.88,1.47-1.75a11.08,11.08,0,0,0,.29-3.22v-1.17h-12V96.1h21.09l0,6.46ZM284.84,80.89H299.2l19.05,27.26h.59L318,80.89h8.8v32.52H312.1L293.33,86.15h-.59l.59,13.49.29,13.77h-8.8l0-32.52Zm-45.13,27.23h6.75a6.75,6.75,0,0,0,2.93-1.17c.87-.29,1.46-.58,1.46-1.17a6.52,6.52,0,0,0,.29-2.63V80.89h9.37V104a8.5,8.5,0,0,1-4.1,7.61,35.4,35.4,0,0,1-8.19,1.75H231.51a31.37,31.37,0,0,1-6.14-1.46,6.74,6.74,0,0,1-3.81-2.93,10,10,0,0,1-1.46-5V80.89h9.36v23.43a3,3,0,0,0,1.76,2.93,10.47,10.47,0,0,0,3.22.87ZM158.53,80.89h36v5.26l-26.09,22h26.36v5.27H157.38v-5.27l25.78-22H158.53Zm-34,.29H131V114h-6.46Zm-58.9,32.23V80.89H96.4v5.26h-22v8.22h21.1v5.27H74.42v8.48H96.69v5.27l-31,0ZM1.17,81.18h9.07V94.66H31.63V81.18h8.78V114H31.63V99.64H10.24V114H1.17ZM338.76,56.26l-.29-44.85h53.91v10H361.61v6.73h30.77V38.38H361.61V46h30.77V56ZM262,36.33h26.68c-.88,15.24,9.95,13.78,9.95,9.1V21.12L274,21.39v-10h56V46.31A12.79,12.79,0,0,1,321.78,58c-3.51,1.46-10.26,2-17.58,2.63-16.41,1.17-39.55,0-42.21-8.8V36.33ZM225.07,56.26l-.29-34.87H210.71v-10h54.21v10H252V56l-27,.3ZM44.84,56H2.63V11.71H41.89c39.56-2.35,26.39,22,18.76,22.85C68.57,37.21,78.54,56,44.84,56ZM29.6,29.58c2.64,0,11.15.29,11.15-4.1s-8.22-3.8-11.15-4.09Zm0,9.68v9.1h3.81c2.34,0,8.51-.59,8.51-4.39a4.1,4.1,0,0,0-2.34-3.22,15.5,15.5,0,0,0-5.86-1.47H29.6ZM76.79,11.44h39.55c8.22,0,25.21.29,23.44,17C138.9,36,133.92,39.28,128.34,39L138.9,56.28H110.76L103.15,39H101.1V56l-24.31.29V11.44Zm24.6,8.78V29.6h7a5.38,5.38,0,0,0,3.8-1.17,6.46,6.46,0,0,0,1.46-3.22A5.49,5.49,0,0,0,112.22,22a4.91,4.91,0,0,0-4.1-1.75Zm61.55-8.78H189c11.14,0,19.92,10,19.92,22v5.27c0,11.72-8.78,21.67-19.92,21.67H162.94c-11.14,0-20.21-10-20.21-21.67V33.41c0-12,9.07-22,20.21-22Zm6.73,25.48c0,5,.59,8.8,2.05,11.14A6.83,6.83,0,0,0,177,50.4a5.3,5.3,0,0,0,4.68-2.34c1.76-2.34,2.34-6.14,2.34-11.14,0-4.39-.58-7.92-1.75-10.27-1.17-2.63-2.93-3.8-5.27-3.8a6.27,6.27,0,0,0-5.27,2.63c-1.46,2.34-2.34,6.44-2.34,11.73l.29-.29ZM148.58,0h24.6V6.15h-24.6Zm31.06,0h24.61V6.15H179.64Z"/></svg>