<?xml version="1.0" encoding="utf-8"?>
<!-- Generator: Adobe Illustrator 25.0.1, SVG Export Plug-In . SVG Version: 6.00 Build 0)  -->
<svg version="1.1" id="Layer_1" xmlns="http://www.w3.org/2000/svg" xmlns:xlink="http://www.w3.org/1999/xlink" x="0px" y="0px"
	 viewBox="0 0 616.2 118" style="enable-background:new 0 0 616.2 118;" xml:space="preserve">
<style type="text/css">
	.st0{fill-rule:evenodd;clip-rule:evenodd;fill:#FFFFFF;}
</style>
<g>
	<path class="st0" d="M537.9,68.3c-0.2,12.4,18.6,23.3,39.3,23.3c16.7,0,39-5.9,39-23.8c0-26.9-52.3-16.2-52.3-26.4
		c0-4,8.1-5.9,12.4-5.9c2.8,0,7.1,1.2,9.3,2.8c1.2,0.7,3.3,2.4,4,5.2h23.6c-5.2-16.9-20.9-20.5-36.2-20.5
		c-19.5-0.2-37.8,5.2-37.8,21.9c0,25.4,51.6,14.5,51.6,26.9c0,5-7.8,5.9-14,5.9c-10.7,0-15-5.5-15.2-9.5L537.9,68.3L537.9,68.3z
		 M52.8,50.2c9.8,0,13.8,2.6,13.8,10c0,6.7-4,10.5-19.8,10.5H26.4V50.2H52.8L52.8,50.2L52.8,50.2z M50.7,16.9
		c10.7,0,13.3,3.8,13.3,8.8C64,31,61.4,35,50.7,35H26.4V16.9H50.7L50.7,16.9z M0,87.6h53.8c35,0,42.1-13.8,42.1-25
		c0-12.6-9.3-19.5-19.3-20.7v-0.5c10.2-3.8,15.5-9,15.5-20.5C92,8.1,79.9,0.2,54.9,0.2L0,0L0,87.6L0,87.6z M158.9,25.2v35.7
		c0,7.6-7.6,12.6-13.6,12.6c-5.7,0-14-5.5-14-12.1V25.2h-24.7v40.5c0,16.2,19.5,23.3,30,23.3c9.3,0,15.9-2.4,22.4-8.3h0.5v7.1h25
		V25.2H158.9z M257.6,30c-5.5-5.7-14.5-7.6-22.1-7.6c-26.2-0.2-40.2,18.1-40.2,32.8c0,20.5,18.3,34.5,40.7,34.5
		c9.8,0,18.1-2.8,22.1-9.3h0.2v7.4h23.8V0.1h-24.5V30L257.6,30L257.6,30z M258.6,55.7c0,11.7-11.7,19-18.6,19
		c-7.1,0-18.8-7.1-18.8-18.8c0-11.4,11.7-18.6,18.8-18.6C246.9,37.4,258.6,44.3,258.6,55.7L258.6,55.7z M321.1,48.6
		c1.2-6.9,7.1-12.6,15.7-12.6c8.3,0,15,5.7,15.9,12.6H321.1L321.1,48.6z M351.6,69.5c-1.7,4.5-7.8,6.9-13.6,6.9
		c-9.8,0-17.4-6.2-17.4-15.5h59.5c1.4-18.1-11.9-38.8-42.8-38.8c-25.2-0.2-43.1,11.9-43.1,35c0,21.7,20,32.6,42.6,32.6
		c17.1,0,35-6.9,40.7-20.2L351.6,69.5L351.6,69.5z M415.6,87.6V63.1c0-11.4,5.5-21.4,17.6-21.4c3.3,0,5.2,0.2,8.1,0.2V23.1
		c-16.2,0-20.9,3.6-26.2,13.3l-0.2-0.2V25.2h-24v62.3L415.6,87.6L415.6,87.6z M501.2,25.5v35.4c0,7.8-7.6,12.6-13.6,12.6
		c-5.7,0-14-5.5-14-11.9V25.4h-24.5v40.5c0,15.9,19.5,23.3,30,23.3c9.3,0,15.9-2.4,22.4-8.6h0.2v7.1h25.2V25.4L501.2,25.5
		L501.2,25.5z"/>
	<path class="st0" d="M0,111.3h613.1v6.7H0V111.3z"/>
</g>
</svg>
