<?xml version="1.0" encoding="utf-8"?>
<!-- Generator: Adobe Illustrator 25.0.1, SVG Export Plug-In . SVG Version: 6.00 Build 0)  -->
<svg version="1.1" id="Layer_1" xmlns="http://www.w3.org/2000/svg" xmlns:xlink="http://www.w3.org/1999/xlink" x="0px" y="0px"
	 viewBox="0 0 338.8 114" style="enable-background:new 0 0 338.8 114;" xml:space="preserve">
<style type="text/css">
	.st0{fill-rule:evenodd;clip-rule:evenodd;fill:#FFFFFF;}
</style>
<path class="st0" d="M265.6,40.6c3.5-5.9,4-12.5,2-18.6s-6.5-11.7-9.4-15.4S253.6,1.4,252,0c6.3,2.3,12.2,5.5,17.5,9.5
	c5.4,4,10.1,8.8,12.8,11.8s3.4,4.2,4.2,4.9c0.8,0.7,1.9,1.1,2.9,1.1c1.1,0,2.4-0.5,3.9-0.7c3.1-0.4,7,0,10.6,0.4
	c-1.2,0.6-2.4,1.3-3.6,2.1c-1.2,0.8-2.5,1.8-4.4,3.7s-4.6,4.7-8.9,7.9c-5.2,3.8-10.9,6.9-16.9,9.3c-6.7,2.6-14.2,4.2-21.8,4.7
	C255.6,51.9,262.1,46.5,265.6,40.6L265.6,40.6z M45.6,78.7H34.9c-1.5-6.1-4.7-8.9-10.4-8.9c-8.6,0-13.4,6.5-13.4,17.9
	c0,10.7,4.8,17.2,12.8,17.2c5.7,0,9.2-3.2,11-9.8h10.7c-0.8,4.8-1.7,7.2-4,10.4c-4.1,5.6-10.4,8.6-17.8,8.6C9.1,114.2,0,104,0,87.7
	c0-16.6,9.3-27.2,23.9-27.2C36.1,60.6,44.5,67.6,45.6,78.7L45.6,78.7z"/>
<polygon class="st0" points="252.7,60.6 289.9,60.6 289.9,70.2 263.3,70.2 263.3,81.7 287.6,81.7 287.6,90.7 263.3,90.7 
	263.3,104.4 291.1,104.4 291.1,114 252.7,114 252.7,60.6 "/>
<polygon class="st0" points="300.3,60.6 337.6,60.6 337.6,70.2 311,70.2 311,81.7 335.3,81.7 335.3,90.7 311,90.7 311,104.4 
	338.8,104.4 338.8,114 300.3,114 300.3,60.6 "/>
<path class="st0" d="M238.4,63.4c-2.8-2.1-5.9-2.8-11.4-2.8h-21.3h0V114h10.6V95.1h10.3c5.9,0,8.9-0.8,11.9-3.1
	c4.1-3.2,6.2-8.1,6.2-14.4C244.8,71.3,242.6,66.4,238.4,63.4z M224.6,85.5h-8.3V70.2h8.5c6.3,0,9,2.3,9,7.8
	C233.8,83.3,231.1,85.5,224.6,85.5z"/>
<path class="st0" d="M193,63.4c-2.8-2.1-5.9-2.8-11.4-2.8h-21.3h0V114h10.6V95.1h10.3c5.9,0,9-0.8,11.9-3.1
	c4.1-3.2,6.2-8.1,6.2-14.4C199.4,71.3,197.2,66.4,193,63.4z M179.2,85.5h-8.3V70.2h8.5c6.3,0,9,2.3,9,7.8
	C188.4,83.3,185.7,85.5,179.2,85.5z"/>
<path class="st0" d="M135,60.6h-12L104.5,114l11.2,0l3.5-11.2h18.8l3.5,11.2h11.6L135,60.6z M122.3,93.8l6.5-21l6.5,21H122.3z"/>
<polygon class="st0" points="56.4,60.6 67.1,60.6 67.1,81.3 87.5,81.3 87.5,60.6 98.2,60.6 98.2,114 87.5,114 87.5,90.9 67.1,90.9 
	67.1,114 56.4,114 56.4,60.6 "/>
</svg>
