<?xml version="1.0" encoding="utf-8"?>
<!-- Generator: Adobe Illustrator 25.0.1, SVG Export Plug-In . SVG Version: 6.00 Build 0)  -->
<svg version="1.1" id="Layer_3" xmlns="http://www.w3.org/2000/svg" xmlns:xlink="http://www.w3.org/1999/xlink" x="0px" y="0px"
	 viewBox="0 0 341.6 114" style="enable-background:new 0 0 341.6 114;" xml:space="preserve">
<style type="text/css">
	.st0{fill:#FFFFFF;}
</style>
<rect y="35.4" class="st0" width="8" height="41.2"/>
<path class="st0" d="M201.8,46.1c-5.4,0-7.5,3.9-7.5,9.9c0,6.2,2.3,10.4,7.6,10.4c5.7,0,7.5-3.9,7.5-10.4
	C209.5,50.3,207.8,46.1,201.8,46.1z"/>
<path class="st0" d="M307.1,63.6c16.6-8.3,34.5-18.9,34.5-18.9s-21.1,3.9-48.4-2.2c-18-4-28.8-6.4-40-10.4c-16.7-6-23-4.3-23.4-6.4
	c1.9-1.7,4.2-3.1,6.6-4.1c0,0-32.6-11.1-66.9-13.9c-23.1-1.9-44.8,1.8-44.2,0.5c2.4-4.7,6.8-8.1,6.8-8.1S110.9-1.3,89.2,6
	c-11.5,3.8-15.4,4.8-19.8,6.9c-0.7-1.1,1.5-3.4,2.3-6.1C61,10.5,49.7,14.4,39.5,19.5c-9.4,4.7-19.2,9.7-28,16v41.2
	c18.2,11.1,33.8,17,45,20.4c6.8,2,16.2,5.1,33.6,9.2c11.6,2.7,20.8,4.9,27.2,5.4c0,0-1.8-2-3.8-6.7c3.1,0,24.3,5.3,54.3,8
	c21.7,2,51.3,0.8,51.3,0.8c-0.1-0.1-6.9-3.4-11.9-8.4c-3.3-3.3-6.6-8.4-6.6-8.4s12.2,0,36.6-4.9c21.9-3.3,41.6-13.6,41.6-13.6
	s-4.4-1.4-5.9-2.8C271.1,73.8,289.6,72.4,307.1,63.6z M42.1,72.8c-13.8,0-18.4-7.6-18.4-16.6c0-9.2,5.9-16.7,18.8-16.7
	c12.4,0,16.5,6.2,16.9,11.1h-11c-0.6-2.4-1.6-4.6-6-4.6c-5.3,0-7,4.3-7,10.2s1.7,10.1,7,10.1c4.4,0,5.6-2.6,6.1-4.8h11.1
	C58.5,67.9,53.3,72.8,42.1,72.8z M98.9,60.6c0,7.5-4.8,12.2-17.1,12.2S65,68.1,65,60.6V40.1h11.3v20.8c0,2.8,1,5.4,5.7,5.4
	c4.7,0,5.6-2.5,5.6-5.4V40.1h11.3V60.6z M135.2,72.2h-28.7V40.1h28.7v6.7h-17.8v5.5h17.1v6.7h-17.1v6.6h19.1L135.2,72.2z
	 M176.2,72.2h-13.1c-9.4-18.2-10.8-21-11.3-22.2h-0.1c0.4,4,0.4,9.5,0.4,15.1v7.2h-10.3V40.1h13.6c8.6,16.2,10.4,19.9,10.9,21.3h0.2
	c-0.4-3.8-0.5-9.2-0.5-14.2v-7.1h10.3L176.2,72.2z M201.5,72.8c-13.3,0-18.9-7.5-18.9-16.8c0-8.4,5.7-16.4,19.5-16.4
	c13.2,0,19,7.8,19,16.4C221.1,65.4,215.5,72.8,201.5,72.8L201.5,72.8z M243,72.2h-15.6V40.1h15.8c13.3,0,19.7,6.1,19.7,15.5
	C262.9,65.9,255.8,72.2,243,72.2L243,72.2z"/>
<path class="st0" d="M242.6,46.6h-3.8v19.3h3.7c5.9,0,8.7-3.1,8.7-10.1C251.2,49.7,248.8,46.6,242.6,46.6z"/>
</svg>
