<?xml version="1.0" encoding="utf-8"?>
<!-- Generator: Adobe Illustrator 25.0.1, SVG Export Plug-In . SVG Version: 6.00 Build 0)  -->
<svg version="1.1" id="Layer_1" xmlns="http://www.w3.org/2000/svg" xmlns:xlink="http://www.w3.org/1999/xlink" x="0px" y="0px"
	 viewBox="0 0 365.9 114" style="enable-background:new 0 0 365.9 114;" xml:space="preserve">
<style type="text/css">
	.st0{fill-rule:evenodd;clip-rule:evenodd;fill:#FFFFFF;}
</style>
<path class="st0" d="M104.3,31.7c-7.9-14.4-22.5-25.2-38-28.3C47.1,0.3,28.8,5.8,15.7,19.7C1,34.6-4,57.9,3.4,78.1
	c6.3,17.3,23.6,31.7,41.2,34.9c23.3,4.5,45.9-6,58.7-26.2C112.4,71.6,114,47.7,104.3,31.7L104.3,31.7z M91.4,80.2
	C81.7,95.4,65,103.5,46.6,99.9C33.2,97,19.9,86,15.7,72.6c-5.8-17-0.8-36.4,13.6-47.7c11-8.9,29.1-11.5,42.7-5.8
	c8.9,4.2,17,12.1,21.8,21l0,0C99.3,51.9,98.8,69.2,91.4,80.2z"/>
<path class="st0" d="M295.9,102.5L295.9,102.5c0-34.6,1.6-67.4,1.1-102.5c-6.3,2.6-12.6,4.5-18.6,7.3c-1,2.4,1.8,1.1,2.9,1.8
	c1.6,0.5,2.1,2.4,2.4,3.7L282,102l-0.8,1.8c-1.3,1-3.7,3.1-5.5,1.8c-2.4-0.8-3.1-3.1-3.4-5.5l1.1-55l-18.9,6.6
	c-0.5,3.7,5.8,1.6,5.2,6.3l-0.8,44c-0.5,2.9-4.7,2.9-4.5,5.2l21.8,0.8l1-0.8c7.1,1.8,15.5,1.1,22.8,0.8
	C300.9,105.4,295.9,105.6,295.9,102.5z"/>
<path class="st0" d="M324.2,107.7c-0.3-0.8-0.5-1-1.3-1.3c-1.6-0.5-2.6-2.4-3.1-3.9l0,0l1.3-101.7c-6.6,1.6-12.6,4.2-18.9,6.8
	c0,2.9,5.5,1,5,5l-1.1,89.7c-0.3,3.1-4.5,2.6-4.7,5.5c6.8,1.6,14.7,0.5,22.3,0.8C323.9,108.3,324.5,108,324.2,107.7z"/>
<path class="st0" d="M90.9,71.6c-2.1,10-11.8,18.3-21.5,22.3C56,99.4,39.8,95.7,29.6,86c-4.7-4.7-7.6-9.2-9.7-14.9
	C39,60.8,51.8,40.6,55,20.2C57.9,41.4,72.3,60.6,90.9,71.6L90.9,71.6z"/>
<path class="st0" d="M271.8,25.2c1.6,4.5,1.3,9.2-1.1,13.4c-1.6,2.6-4.7,2.6-6.8,2.4c-4.5-2.6-5.2-7.6-4.7-12.3
	c0.3-3.1,2.6-6.3,5.5-7.3C267.8,20.7,270.5,22.5,271.8,25.2z M234,46.7c1.3,3.7-4.7,1.6-5,5l7.9,36.4l0.8,1.1l1.3-1.6
	c1.8-12.3,8.1-23.3,6.6-36.2c0-3.1-6.3-2.1-3.7-5c5.2,0.8,11.5-0.5,16,0.8c-1.1,2.4-5,2.1-5.2,5.5l-16.3,55l-7.9,0.3
	c-5-19.4-9.7-38.8-14.9-57.9l-4.2-2.6l0.8-1.1L234,46.7L234,46.7z M206.5,48.8c3.7,4.7,6,9.7,6.3,15.7c-9.4,1.3-18.1-1.1-27.3,0.8
	c0.5,11.3-1.3,25.2,10,30.7c5.5,0.8,10.2-2.4,13.1-6.8c0.5-1.3,1-2.6,2.1-3.1c0.8,0,1.6-0.3,1.8,0.5c-1.8,8.9-7.3,19.1-16.5,22.3
	c-7.6,2.1-13.6-2.4-17.8-8.1c-8.1-12.8-8.9-32.2-1.6-45.9c3.1-5.5,8.6-10.7,14.9-11.5C197.6,42.2,202.3,45.4,206.5,48.8L206.5,48.8z
	 M191.8,47.4c-3.7,3.7-4.5,8.6-5.2,13.4l12.6,0.3c0-3.7-1.3-6.8-2.4-10C196.3,49.3,194.5,46.4,191.8,47.4z M364.3,56.9
	c1.3,2.4,1.1,5.2,1.6,7.9h-27.3c0,11-1.1,23.6,8.4,30.7c3.9,2.4,8.4,0,11.5-2.6c3.4-1.6,2.1-7.3,6.6-6.6
	c-1.3,8.7-5.8,18.6-14.9,22.3c-5.2,2.1-10.7,0-14.9-3.1c-11-11.3-13.4-30.4-7.9-45.4c2.6-7.6,9.7-16.5,18.6-16.8
	C354.4,43,361.4,49.5,364.3,56.9L364.3,56.9z M344.9,47.4c-4.2,3.1-4.7,8.6-5.5,13.4l12.6,0.3v-0.5
	C350.9,55.6,350.9,48.5,344.9,47.4z"/>
<path class="st0" d="M170.1,2.6c-0.3,30.1-0.5,66.8-0.8,98.3c-0.5,2.9,3.9,0.8,2.4,3.7l-15.5,4.7c-1.1-2.1,0-5.2-0.8-7.6
	c-4.7,4.7-10.5,9.2-17.3,6.8c-13.1-6.6-13.9-21.8-13.9-35.1c1.1-10.7,4.5-21.5,14.4-27.5c5.5-1.3,12.1-1.6,17.3,0.5l1.1-1.3
	l-0.3-30.7c-0.8-2.9-5.8-2.9-5.5-5.5C157.5,6.8,163.8,4.2,170.1,2.6z M142.8,53c-3.7,9.2-6,19.9-4.2,30.7c1.6,6.8,2.4,16,10.5,17.8
	c2.9-0.3,4.2-2.9,5-5.5c1.3-13.1,1.8-29.9-1.6-43C151.2,47.7,144.6,48.5,142.8,53L142.8,53z"/>
</svg>
