<?xml version="1.0" encoding="utf-8"?>
<!-- Generator: Adobe Illustrator 25.0.1, SVG Export Plug-In . SVG Version: 6.00 Build 0)  -->
<svg version="1.1" id="Layer_3" xmlns="http://www.w3.org/2000/svg" xmlns:xlink="http://www.w3.org/1999/xlink" x="0px" y="0px"
	 viewBox="0 0 340.8 114" style="enable-background:new 0 0 340.8 114;" xml:space="preserve">
<style type="text/css">
	.st0{fill:#FFFFFF;}
	.st1{font-family:'Arial-BoldMT';}
	.st2{font-size:81.7756px;}
	.st3{letter-spacing:-2.4;}
</style>
<rect x="271.8" y="92.1" class="st0" width="3.4" height="22.2"/>
<rect x="325.3" y="92.1" class="st0" width="3.1" height="22.2"/>
<rect x="326.9" y="101.4" class="st0" width="7.6" height="3"/>
<polygon class="st0" points="337.3,92.1 340.8,92.1 334.4,102.3 340.8,114.3 337.6,114.3 331.3,102.4 "/>
<rect x="216.8" y="92.1" class="st0" width="3.4" height="22.2"/>
<polygon class="st0" points="205.9,114.3 202.7,114.3 202.7,92.1 205.9,92.1 205.9,98.5 "/>
<polygon class="st0" points="216.8,114.3 205.9,98.5 205.9,92.1 216.8,108.6 "/>
<rect x="135.1" y="92.1" class="st0" width="3.1" height="22.2"/>
<rect x="136.7" y="101.4" class="st0" width="7.6" height="3"/>
<polygon class="st0" points="147.2,92.1 150.6,92.1 144.3,102.3 150.6,114.3 147.5,114.3 141.1,102.4 "/>
<rect x="70.3" y="92.1" class="st0" width="3.1" height="22.2"/>
<rect x="71.9" y="102.2" class="st0" width="8.8" height="2.2"/>
<rect x="71.9" y="111.6" class="st0" width="11.7" height="2.6"/>
<rect x="73.4" y="92.1" class="st0" width="9.5" height="2.8"/>
<rect x="7.8" y="92.1" class="st0" width="3.6" height="22.2"/>
<rect y="92.1" class="st0" width="18.4" height="2.8"/>
<path class="st0" d="M244.4,62.1l5.3-6.7c3.6,3.8,8.5,6.3,13.3,6.3c5.7,0,8.9-2.8,8.9-7.1c0-4.5-3.3-6-7.9-8.1l-7-3.3
	c-5-2.3-10.3-6.6-10.3-14.7c0-8.8,7.2-15.6,17.1-15.6c6,0.1,11.7,2.6,15.7,7l-4.6,6.2c-3.2-3-6.7-4.7-11-4.7c-4.8,0-8,2.5-8,6.5
	c0,4.3,3.9,5.9,8.1,7.8l6.9,3.1c6,2.7,10.3,6.9,10.3,14.9c0,9-6.8,16.4-18.3,16.4C255.7,70.1,249.1,67.2,244.4,62.1z"/>
<path class="st0" d="M202,13.8v33.6c0,10.8,5.7,14,11.9,14c7.1,0,11.6-3.8,11.6-14V13.8H238v33C238,66,226.5,71,213.7,71
	c-13,0-24.3-5.1-24.3-24V13.8H202z"/>
<text transform="matrix(0.85 0 0 1 290.802 70.1573)" class="st0 st1 st2 st3">A</text>
<polygon class="st0" points="122,70.9 126.8,13.8 138.5,13.8 151.9,46.2 166.1,13.8 176.7,13.8 181,70.9 171,70.9 169,28.7 
	151.9,70.9 135.5,29.6 132.6,70.9 "/>
<path class="st0" d="M84.9,14.3c-15.5,0-28,12.6-28,28c0,15.5,12.6,28,28,28c15.5,0,28-12.6,28-28S100.4,14.3,84.9,14.3
	C84.9,14.3,84.9,14.3,84.9,14.3z M84.9,60.7c-10.2,0-18.4-8.3-18.3-18.4C66.6,32.2,74.9,24,85,24c10.1,0,18.3,8.2,18.3,18.4
	C103.4,52.5,95.1,60.7,84.9,60.7C85,60.7,84.9,60.7,84.9,60.7z"/>
<path class="st0" d="M2.3,41.2V18.6c0,0,7-4,10.9-4.7c2.3-0.5,9.2-1.7,16.5,1.1c9.8,3.8,17.7,13.9,18.3,25.9
	C48.3,51,43.8,60,36,65.1c-6.3,4.1-9.5,4.4-15.6,4.6c-4.3,0.1-10-0.8-11.3-1.8c-4.4-3.5-2.7-13.4,0.5-18.7c1.4-2.3,5.8-5.7,8.1-7.3
	c1.4-1,1.9-3.5,1.9-3.5c0.3-1.5-0.1-3.1-0.7-6c0,0,5.6,2.1,7.3,5.3c2.1,3.9,2.4,8.6,1.1,11.6s-4.9,5.6-4.9,5.6l0,0
	c0,0,0.8-7.5-0.6-6.8c-2.5,1.1-4.7,2.8-6.4,5.1c-1.6,2.2-2,6.6-2,6.6s10.1,1.8,15.4-1.6c5.2-2.9,8.6-8.3,8.8-14.2
	c0.3-6.2-2-12.2-6.2-16.7c-1.4-1.4-3.4-3-8.3-3.7c-1.7-0.3-3.4-0.3-5,0c-2.5,0.6-5.3,1.5-5.3,1.5l-0.3,14.8c0,0-1.2,2.5-3.9,2.2
	C5.9,41.8,2.3,41.2,2.3,41.2z"/>
</svg>
