<?xml version="1.0" encoding="utf-8"?>
<!-- Generator: Adobe Illustrator 25.0.1, SVG Export Plug-In . SVG Version: 6.00 Build 0)  -->
<svg version="1.1" id="layer" xmlns="http://www.w3.org/2000/svg" xmlns:xlink="http://www.w3.org/1999/xlink" x="0px" y="0px"
	 viewBox="0 0 233 114" style="enable-background:new 0 0 233 114;" xml:space="preserve">
<style type="text/css">
	.st0{fill:#FFFFFF;}
</style>
<path class="st0" d="M37.6,29.3H23.7c-3.1,0-5.4,0.6-6.6,1.9c-1.3,1.3-1.6,3.5-1.6,6.9v7.6h18.3v10.4H15.5V114H0V38.4
	c0-6.3,1.3-10.8,4.1-13.6s7.6-4.1,14.2-4.1h19.3V29.3"/>
<path class="st0" d="M64.5,60.3c0-5-0.3-8.5-0.9-10.4c-0.6-1.9-1.9-2.8-3.8-2.8c-1.7-0.1-3.2,0.9-3.8,2.5c-0.6,1.6-0.9,5.4-0.9,10.8
	L64.5,60.3 M76.5,68.8H55.3c0,8.5,0.3,14.2,0.9,16.4c0.6,2.2,1.9,3.5,4.1,3.5c1.3,0,2.5-0.3,3.1-1.3c0.6-1,0.9-2.5,0.9-4.7h10.4
	c0,5-1.3,8.9-3.8,11.4c-2.5,2.5-6.6,3.8-12.3,3.8c-6,0-10.8-2.5-13.9-7.6c-3.1-5-4.7-12.7-4.7-22.4s1.6-17.4,4.7-22.4
	s8.2-7.6,14.9-7.6c5.7,0,9.8,1.9,12.3,6c2.6,4.1,4.1,10.1,4.1,18.3v6.6L76.5,68.8L76.5,68.8z"/>
<path class="st0" d="M111.3,51.4c-1.3-0.3-2.2-0.9-3.5-0.9c-1.1-0.3-2.3-0.4-3.5-0.3c-1.4-0.1-2.8,0.1-4.1,0.3
	c-1,0.2-1.9,0.5-2.8,0.9v46.2H83.1V38.4h12l0.9,2.5c1.3-1.3,2.8-1.9,4.7-2.5c1.9-0.6,4-1,6-0.9c0.9,0,1.9,0,2.5,0.3
	c0.6,0.3,1.6,0.6,2.2,0.9v12.7"/>
<path class="st0" d="M143.8,51.4c-1.3-0.3-2.2-0.9-3.5-0.9c-1.1-0.3-2.3-0.4-3.5-0.3c-1.4-0.1-2.8,0.1-4.1,0.3
	c-1,0.2-1.9,0.5-2.8,0.9v46.2h-14.5V38.4h12l0.9,2.5c1.3-1.3,2.8-1.9,4.7-2.5c1.9-0.6,4-1,6-0.9c0.9,0,1.9,0,2.5,0.3
	c0.8,0.3,1.5,0.6,2.2,0.9L143.8,51.4"/>
<path class="st0" d="M170.4,67.8c0-9.5-0.3-15.2-0.6-17.4c-0.3-2.2-1.6-3.5-3.5-3.5c-1.9,0-3.1,1.3-3.5,3.5
	c-0.6,2.2-0.6,8.2-0.6,17.7c0,9.2,0.3,14.9,0.6,17.4c0.6,2.2,1.6,3.5,3.5,3.5c1.6,0,2.8-1.3,3.5-3.8
	C170.1,82.7,170.4,76.7,170.4,67.8 M185.5,67.8c0,10.4-1.6,18-4.7,23.1c-3.1,4.7-7.9,7.3-14.5,7.3c-6.3,0-11.1-2.5-14.5-7.6
	c-3.1-5-4.7-12.7-4.7-22.4c0-10.4,1.6-17.7,4.7-22.8c3.1-4.7,7.9-7.3,14.5-7.3c6.9,0,12,2.5,14.9,7.3S185.5,57.7,185.5,67.8
	L185.5,67.8z"/>
<path class="st0" d="M212.7,97.2h-9.2c-3.5,0-6.3-0.9-8.2-2.8c-1.9-1.9-2.8-5-2.8-8.9V20.7H207v64.2c0,1.6,0.3,2.8,0.9,3.5
	c0.6,0.7,2.2,0.9,4.4,0.9v7.9"/>
<path class="st0" d="M218.4,38.4H233v58.8h-14.5V38.4z M218.4,20.7H233V34h-14.5V20.7z"/>
<path class="st0" d="M160.9,33c-8.9-10.8-22.8-20.8-39.8-26.9C92.6-4.2,63.9-1.1,50.3,12.5c0.6,6.6,3.5,13.9,7.9,20.5
	c10.1-19.6,43-25.9,76.2-13.9c9.6,3.6,18.6,8.4,26.9,14.5L160.9,33z"/>
</svg>
