<?xml version="1.0" encoding="utf-8"?>
<!-- Generator: Adobe Illustrator 25.0.1, SVG Export Plug-In . SVG Version: 6.00 Build 0)  -->
<svg version="1.1" id="Layer_3" xmlns="http://www.w3.org/2000/svg" xmlns:xlink="http://www.w3.org/1999/xlink" x="0px" y="0px"
	 viewBox="0 0 717.7 114" style="enable-background:new 0 0 717.7 114;" xml:space="preserve">
<style type="text/css">
	.st0{fill:#FFFFFF;}
</style>
<path class="st0" d="M181.9,68.7v26.6h-17.8V55.8c0-10.5,2.4-18.2,7.3-23.1s11.9-7.4,21.1-7.4h38.3v14.6h-35.6
	c-2.2-0.1-4.4,0.3-6.5,1c-1.6,0.6-3,1.6-4,2.8c-1,1.3-1.7,2.9-2.1,4.5c-0.4,1.9-0.6,3.9-0.7,5.9h48.9v14.6L181.9,68.7z"/>
<path class="st0" d="M257.4,67.7v27.6h-15.8V23.8h35.9c15.2,0,23.9,8.1,23.9,20.4c0,9.2-4.9,14.7-11.5,16.9c2.7,1.2,9.8,4,9.8,16.8
	v3.5c0,4.9-0.1,10.4,0.8,13.8h-16.4c-1.1-3.2-1.2-7.4-1.2-15v-2.4c0-7.2-2.4-10.2-12.1-10.2L257.4,67.7z M257.4,54.8h16.5
	c7.8,0,11.1-3,11.1-9.1c0-5.7-3.4-8.9-11-8.9h-16.6L257.4,54.8z"/>
<path class="st0" d="M309.8,95.3V25.3h17.8v70.1H309.8z"/>
<path class="st0" d="M334.6,95.3v-13h44.6c1.2,0,2.4-0.1,3.6-0.3c0.9-0.1,1.8-0.6,2.4-1.2c0.7-0.7,1.1-1.5,1.3-2.4
	c0.3-1.3,0.5-2.6,0.4-3.9c0-3.3-0.6-5.4-1.8-6.4s-3.2-1.6-6.1-1.6h-20.4c-4,0.1-8-0.3-12-1.2c-2.9-0.7-5.6-2-7.9-3.8
	c-2-1.7-3.6-3.9-4.5-6.4c-1.9-5.9-1.9-12.3,0-18.3c0.9-2.5,2.4-4.7,4.5-6.4c2.3-1.9,5-3.2,7.9-3.8c3.9-0.9,7.9-1.3,12-1.2h43.7v13.1
	h-43.7c-2.8,0-4.8,0.5-6,1.5c-1.2,1-1.8,3-1.8,6.2c0,1.3,0.1,2.7,0.4,3.9c0.2,0.9,0.7,1.8,1.4,2.4c0.7,0.6,1.5,1,2.4,1.2
	c1.2,0.2,2.4,0.3,3.5,0.3h20.4c4-0.1,8,0.3,11.9,1.2c2.9,0.6,5.6,1.9,8,3.8c2.1,1.7,3.6,4,4.5,6.5c1,3,1.4,6.1,1.4,9.2
	c0.1,3.1-0.4,6.2-1.4,9.2c-0.9,2.5-2.4,4.7-4.5,6.4c-2.3,1.8-5.1,3.1-8,3.8c-3.9,0.9-7.9,1.3-11.9,1.3L334.6,95.3z"/>
<path class="st0" d="M465.2,101l-4.6-7.3c-0.6,0.1-1.1,0.1-1.7,0.1h-15.3c-11.2,0-19.8-2.9-25.6-8.8c-5.8-5.8-8.7-14.3-8.7-25.5
	c0-11.1,2.9-19.6,8.7-25.5c5.8-5.9,14.3-8.9,25.6-8.9h13.6c11.2,0,19.8,3,25.6,8.9c5.8,5.9,8.7,14.4,8.7,25.5
	c0,7.3-1.3,13.5-3.8,18.5c-2.4,4.9-6.4,8.9-11.2,11.5l7.9,11.4H465.2z M451.7,80.3c-0.5-0.4-0.9-0.9-1.2-1.4l-1.9-2.8l-8-11.3h19.2
	l7.8,11.8c2.3-1.9,4-4.5,4.7-7.4c0.8-3.1,1.2-6.2,1.2-9.4c0-2.6-0.2-5.2-0.8-7.8c-0.5-2.4-1.5-4.6-2.9-6.6c-1.5-2-3.6-3.6-5.9-4.6
	c-3.1-1.3-6.5-1.8-9.9-1.7h-8.3c-3.2-0.1-6.4,0.5-9.3,1.7c-2.2,1-4.2,2.6-5.6,4.6c-1.4,2-2.3,4.2-2.7,6.6c-1,5.1-1,10.4,0,15.6
	c0.4,2.4,1.4,4.6,2.7,6.5c1.5,2,3.4,3.5,5.6,4.5c2.9,1.3,6.1,1.8,9.3,1.7h1.1c1.1,0,2,0,2.8,0.1l2.1,0.2L451.7,80.3z"/>
<path class="st0" d="M517.2,25.4v39.5c0,14.9,7.2,18.6,15.1,18.6c8.4,0,14.1-3.9,14.1-18.6V25.4h15.6v40c0,21.2-11,31.3-30.2,31.3
	c-18.5,0-30.3-9.2-30.3-30.9V25.4H517.2z"/>
<path class="st0" d="M600.4,95.3c-9.1,0-16.1-2.9-21-8.6c-4.9-5.7-7.3-14.5-7.3-26.4c0-11.9,2.4-20.7,7.3-26.5
	c4.9-5.7,11.9-8.6,21-8.6h38.4v14.3H603c-1.9-0.1-3.9,0.3-5.7,0.9c-1.5,0.6-2.8,1.5-3.9,2.6c-1.1,1.3-1.9,2.7-2.4,4.3
	c-0.6,1.9-1,3.8-1.2,5.8h48.6v13.5h-48.6c0.1,2.1,0.5,4.1,1.1,6.1c0.5,1.6,1.3,3.1,2.4,4.5c1.1,1.2,2.4,2.2,3.9,2.7
	c1.9,0.7,3.8,1,5.8,0.9h35.8v14.3H600.4z"/>
<path class="st0" d="M671.6,95.3V39.6h-28.1V25.3h74.2v14.3h-28.1v55.7L671.6,95.3z"/>
<path class="st0" d="M72,0.5c0,0-10,9.2-18.1,31.8c-5.1,14.3-8.8,28.9-8.8,28.9l-34.6,4c0,0,1.6,7.9,5.6,8.8
	c8.9,2.2,24.5-0.8,24.5-0.8l-10.9,38.6c0,0-15.2,0.2-20.5-4.8C4.6,102.5,3.1,96.8,2.5,91c-3-30.1-3.2-43.4-0.8-66.3
	c0.5-4.9,3.3-9.1,7.2-12.9C14.8,6,22,4.9,30.2,3.7C69.7-1.9,72,0.5,72,0.5z"/>
<path class="st0" d="M60.4,58.4c0,0,1.4-12.7,8.4-29.7C73.4,18.1,79.6,8.5,87.4,0c0,0,30.2,1.1,31.2,1.7c4.3,2.6,10.1,10,10.1,18.1
	c0,14.7,1.2,42.6-0.4,68.3c-0.3,4.5-3.1,19-10.9,21.7c-20.9,7.2-72.8,2.8-72.8,2.8l10.9-40.1l55.9-3.6c0,0-2-6.9-7.6-9.6
	C98.1,56.5,60.4,58.4,60.4,58.4z"/>
</svg>
