<?xml version="1.0" encoding="utf-8"?>
<!-- Generator: Adobe Illustrator 25.0.1, SVG Export Plug-In . SVG Version: 6.00 Build 0)  -->
<svg version="1.1" id="Layer_3" xmlns="http://www.w3.org/2000/svg" xmlns:xlink="http://www.w3.org/1999/xlink" x="0px" y="0px"
	 viewBox="0 0 324.2 114" style="enable-background:new 0 0 324.2 114;" xml:space="preserve">
<style type="text/css">
	.st0{fill:#FFFFFF;}
</style>
<polygon class="st0" points="102.3,23.8 161.2,5.3 220.9,23.8 161.7,41.9 "/>
<polygon class="st0" points="176,41.9 176,81.4 190,81.4 190,67.9 202.5,81.4 210.6,81.4 210.6,41.9 196.9,41.9 196.4,53.2 
	185.1,41.9 "/>
<polygon class="st0" points="150.9,41.9 161.9,46.1 172.4,41.9 172.4,81.4 150.9,81.4 "/>
<polygon class="st0" points="142.3,41.9 148.6,81.4 135.1,81.4 132.9,69.5 128.6,81.4 123.6,81.4 119.2,70.7 117.2,81.4 104.4,81.4 
	110.7,41.9 120.5,41.9 126.9,54.1 132.4,41.9 "/>
<path class="st0" d="M232.9,41c-11.4,0-20.6,9.2-20.6,20.6s9.2,20.6,20.6,20.6c11.4,0,20.6-9.2,20.6-20.6l0,0
	C253.5,50.3,244.3,41,232.9,41z M232.9,69.7c-4.4,0-8-3.6-8-8s3.6-8,8-8s8,3.6,8,8l0,0C240.8,66.1,237.3,69.7,232.9,69.7L232.9,69.7
	z"/>
<polygon class="st0" points="248.6,3.8 277.5,3.8 285,15.7 293.1,3.8 322.2,3.8 300.1,41 324.2,81.4 295.6,81.4 285.5,64.9 
	275.2,81.4 246.5,81.4 271,41.9 "/>
<polygon class="st0" points="77,41 99.8,41 103.1,53.7 90.2,53.7 90.2,55.9 98.1,55.9 97.9,66.9 90.2,66.9 90.2,68.9 103.3,68.7 
	100.2,81.4 77,81.4 "/>
<path class="st0" d="M46.4,41h26.2v34.3c0,0-10.1,9.4-28.2,10.3C41.7,85.8,19.2,85.1,6.8,66c-9.2-14.2-6.6-29.1-6.1-31.4
	c2.6-13.2,11-21.2,15.3-25C21.7,4.3,33.8,0.2,42.6,0c15.5-0.3,27.8,9.3,27.8,9.3L58.7,32.9c0,0-2.7-4.6-10-6.5
	c-5.9-1.5-15.9,0.6-20.5,8.3c-0.5,0.8-4.8,8.1-1.4,15.3c1.6,3,4.1,5.4,7.2,6.8c3.8,1.8,8.1,2.2,12.1,1L46.4,41z"/>
<path class="st0" d="M-6.4,78"/>
<rect x="0" y="89.2" class="st0" width="324.2" height="24.8"/>
</svg>
