<?xml version="1.0" encoding="utf-8"?>
<!-- Generator: Adobe Illustrator 25.0.1, SVG Export Plug-In . SVG Version: 6.00 Build 0)  -->
<svg version="1.1" id="Layer_1" xmlns="http://www.w3.org/2000/svg" xmlns:xlink="http://www.w3.org/1999/xlink" x="0px" y="0px"
	 viewBox="0 0 714 114" style="enable-background:new 0 0 714 114;" xml:space="preserve">
<style type="text/css">
	.st0{fill-rule:evenodd;clip-rule:evenodd;fill:#FFFFFF;}
</style>
<path class="st0" d="M544.3-0.3h29v45.8h58.8V-0.3h29v114.5h-29V63.6h-58.8v50.5h-29V-0.3z M0-0.3h29v45.8h58.8V-0.3H117v114.5H87.8
	V63.6H29v50.5H0L0-0.3L0-0.3z M141-0.3h29.4v114.5H141L141-0.3z M684.6-0.3H714v114.5h-29.4L684.6-0.3z M181.2-0.3h114.2v19.1h-42.7
	v95.4h-28.9V18.7h-42.7L181.2-0.3L181.2-0.3z M320.4,70.4l20.3-51.1l20.1,51.1H320.4z M368.1,88.5l10,25.6h32.8L359.1-0.2h-36.7
	l-52.1,114.3h32.6l10.2-25.6H368.1z M499.3,38.6H529c-0.4-20.8-17.6-40.6-57.5-41c-29.7-0.2-65.8,12.5-65.9,59.1
	c-0.2,46.2,36.6,60.6,65.9,59.8c27.1-0.9,57.2-8.8,58.4-43.6L500,73.2c-0.9,21.7-17.6,26-28.5,26.2c-11.3,0-34.4-2.4-34.8-42.1
	c-0.4-37.4,20.8-42.6,34.8-42.6C485.3,14.8,499.1,21.6,499.3,38.6z"/>
</svg>
