<svg xmlns="http://www.w3.org/2000/svg" viewBox="0 0 394.89 260.35"><defs><style>.cls-1,.cls-2,.cls-30{fill:none;}.cls-1{stroke:#f3ede7;}.cls-1,.cls-15,.cls-2,.cls-20,.cls-26,.cls-29,.cls-30,.cls-31,.cls-40,.cls-41,.cls-42,.cls-43,.cls-5,.cls-6,.cls-7,.cls-8{stroke-miterlimit:10;}.cls-1,.cls-41,.cls-42,.cls-43{stroke-width:2px;}.cls-2{stroke:#889aae;stroke-linecap:round;stroke-width:4px;}.cls-3{fill:#f3ede7;}.cls-4{fill:#889aae;}.cls-43,.cls-5,.cls-9{fill:#bfbfbf;}.cls-5,.cls-6,.cls-7,.cls-8{stroke:#000;stroke-width:3px;}.cls-10,.cls-40,.cls-6{fill:#3649bd;}.cls-11,.cls-7{fill:#d2a68e;}.cls-12,.cls-42,.cls-8{fill:#ab6c48;}.cls-13{fill:#fff;}.cls-14,.cls-15,.cls-26,.cls-41{fill:#2e2e2e;}.cls-15,.cls-40,.cls-41,.cls-42,.cls-43{stroke:#fff;}.cls-16{fill:#457d39;}.cls-17{fill:#d85945;}.cls-18{fill:#4b4339;}.cls-19{fill:#cec8c0;}.cls-20,.cls-21{fill:#ebe5dd;}.cls-20{stroke:#cdc7bf;}.cls-22{fill:#7b6253;}.cls-23{fill:#70594c;}.cls-24{fill:#48362b;}.cls-25,.cls-31{fill:#ebf2f6;}.cls-26{stroke:#545252;stroke-width:0.75px;}.cls-27{fill:#25448b;}.cls-28{fill:#1c1b1b;}.cls-29,.cls-30,.cls-31{stroke:#302c2d;stroke-width:0.25px;}.cls-32{fill:#5d5c5f;}.cls-33{fill:#459ad8;}.cls-34{fill:#7d7b7f;}.cls-35{fill:#c0c0c7;}.cls-36{fill:#d8d5da;}.cls-37{fill:#b9b3b9;}.cls-38{fill:#99959a;}.cls-39{fill:#928e93;}.cls-44{fill:#26201d;}.cls-45{fill:#939393;}.cls-46{fill:#263178;}</style></defs><g id="Layer_7" data-name="Layer 7"><circle class="cls-1" cx="315.9" cy="151.81" r="19.44"/><circle class="cls-1" cx="106.78" cy="51.11" r="24.01"/><path class="cls-2" d="M194.5,247.07l2.55,0c77.59-.86,140-41.22,140-91" transform="translate(-20.41 -5.05)"/><path class="cls-2" d="M277.78,45.08l-2.25-.86c-68.7-25.72-107.7-12.58-147.88,15.91" transform="translate(-20.41 -5.05)"/><ellipse class="cls-3" cx="82.68" cy="238.68" rx="47.53" ry="9.22"/><path class="cls-3" d="M186.77,95.86c2.11,14.54,4.31,29.07,6.2,43.64.9,6.92,1.91,13.9,2.18,20.87.25,6.27,1.7,11.28,6.27,15.77C210,184.58,224,191,236.07,191.48c13.47.54,22.82-9.44,24.2-22.33,1.25-11.74-2.64-24.86-7.07-35.64A110.75,110.75,0,0,0,234.5,103c-7.5-8.7-17.36-18.24-29-20.58C193.18,80,181.5,86.59,176,97.67c-5.82,11.64-4.44,25.76-1.41,38a75.85,75.85,0,0,0,17.26,32.78c7.73,8.48,18.73,16.07,30.21,18,13.36,2.29,25.64-4.65,28.54-18.34,2.79-13.12-3.05-27.46-9.14-38.84-5.71-10.69-13.06-21.72-21.71-30.26-8.38-8.27-21.19-16-32-7.72-4.47,3.41-8.62,7.45-9.86,13.16-1.51,7,.52,14.88,1.66,21.79,1.23,7.49,2.91,14.26,7.68,20.34a166.25,166.25,0,0,0,14,15.29c4.63,4.58,10.19,8.65,17,8.37,7.68-.31,14.2-6,14.6-13.81.67-13-5.51-28.06-12.16-38.95-3.39-5.55-7.45-11.15-12.36-15.46C201.78,96.33,194.48,95,186,95.73c-3.7.33-8.11,2.57-8.81,6.71-2,11.67-3.12,23.25,3.39,33.81a77.5,77.5,0,0,0,21.21,22.92c8,5.52,22.46,11.35,29.37,1.28s1.74-23-2.41-33-9.7-20-20.14-24.64c-5.52-2.46-11.85-3-16.36,1.8a22.17,22.17,0,0,0-5,18.81c1.25,5.61,4.71,11,7.25,16.09s4.95,10.43,8.23,15.15a46.39,46.39,0,0,0,11.54,11.55c4,2.83,9.11,6.63,14.1,7.08,7.3.67,12.91-5.31,13.24-12.39.3-6.46-3.19-12.06-6.08-17.57-5.34-10.17-10-23.49-22.23-26.87-7.54-2.09-13,4.8-11.78,11.78A102.73,102.73,0,0,0,217,167c6.75,10.2,23.19.78,16.52-9.65A96.11,96.11,0,0,1,220,123.13l-11.78,11.78c3.24.86,5.61,7.76,7.15,10.6l4.38,8.12a51.44,51.44,0,0,1,2.46,4.64c1.45,3.52-1,1.31,1.72-1.3l4.18-2.44-1,.3h5c-1.74-.34-6.7-3.73-9-5.62-3.24-2.69-5.35-6.1-7.32-9.77-2.31-4.29-4.38-8.71-6.53-13.08-1-2.06-4.67-7.16-2.69-9l-4.21,2.45,1.24-.26h-5.07c7.26,1.21,10.55,9.07,13.22,15.09,1.72,3.88,3.8,8.15,4.31,12.41a19,19,0,0,1,0,2.92q6.41-2.19,2.19-2.76c-1.34-.65-2.72-1-4-1.77-6.3-3.51-11.31-9.19-15.53-14.95-2.23-3-4.32-6.11-4.88-9.91-.63-4.35.25-9,1-13.23L186,114c3.54-.33,7.09-1,9.94,1.49a47.75,47.75,0,0,1,7.75,9.14,67.65,67.65,0,0,1,10,22.06A59.3,59.3,0,0,1,215,153c.07.52.27,2.6.24,2.58-.25-.19,2.41-3.32,2.34-2.88,0-.34.27.4-.72-.49-.49-.45-1.12-.85-1.63-1.29-1.9-1.66-3.61-3.58-5.34-5.4-5.88-6.14-11-10.9-12.7-19.45a137.61,137.61,0,0,1-2.23-14.4c-.33-3.73.78-4.74,3.74-6.92-1,.73-3.12-.93-.19.55.43.22,1,.37,1.42.57a24.19,24.19,0,0,1,4.85,3.06,52.36,52.36,0,0,1,8.1,8.6,135.8,135.8,0,0,1,14.36,22c3.56,7,7.91,16.64,6.34,24.64s-10.1,5.26-15.39,2.58a48.18,48.18,0,0,1-17-14.35A61.58,61.58,0,0,1,191,129.38c-1.67-7.36-3.07-16.49.35-23.56,8.25-17.06,27.15,4.49,33.46,12.6,9.6,12.36,16.62,28,18.35,43.6.38,3.35.8,8.61-2,11.2-2.38,2.21-6.2,1.37-9,.65-7.7-2-19.55-6.05-23.54-13.44-2.49-4.62-3.12-10.52-4.28-15.57-1.25-5.42-2.41-10.85-3.56-16.29-2.43-11.53-4.73-23.08-7.06-34.63-.94-4.63-7.62-2.57-7,1.92Z" transform="translate(-20.41 -5.05)"/><path class="cls-3" d="M239.87,84.6c-10.89-6-19.43,4-20.88,14.15a47.57,47.57,0,0,0,6.21,30.91c5.62,9.49,15.18,17.51,26.71,17.54,10.58,0,20.32-7.9,24.8-17.08,9.77-20,1.23-42.87-17.84-53.51-10.58-5.91-24-8.56-35.32-3.13-11.87,5.69-16.41,18.84-13,31.16,3,10.76,10.79,21.11,19.37,28.09,10.37,8.44,24.56,8.66,34.28-1.1C281,114.77,274.6,81.46,251.37,74.22c-6.87-2.14-14.64-1.82-19,4.65-2.59,3.87-5.61,7.6-8,11.62-6.27,10.77-4.6,23.33,4,32.37,9.45,9.94,25.43,4,31.66-6.59,6.51-11.1,2.22-25.64-8.63-32.18-7.15-4.32-16.79-3.32-21.43,4.14a24.8,24.8,0,0,0-3,17.94C229.87,120,246,131.66,257.65,119c8.85-9.54,6.43-27.92-4.62-34.84-7-4.4-16.2-2.64-21.64,3.39-4.77,5.29-7.44,15.53-2.74,21.65,3.62,4.72,8.39,6.22,14,3.66l1.41-.64c4.25-2,5.32-8.15,3.11-11.87l-.86-1.45-1.59,12.37c1.82-1.74,3.9-4.39,4.14-7,.36-4.07-4.08-2.46-9.59-.78q-.58-1.05.09.87c-.14-1.06-.18-.86-.11.62a1.87,1.87,0,0,1,.42-1.32c2.29-1.77,2.54-2.18.75-1.25l6-1.62-1.16,0,6,1.63a1.56,1.56,0,0,1-1-1.36c-.18-.73-.2-.84-.07-.33.17.72.21.39.13-1-.29.29-.5,1.72-1,2.22l-5.24,3a4.58,4.58,0,0,1-4.72-.64.54.54,0,0,1,0-.51c2.89-.18-1.11,2.24.35.37.73-1-.5,1.19-.65.26a48,48,0,0,0,6.25,1.56c-.34-1.34-.63-1.71-.88-1.12-.49-1.52-.59-1.88-.28-1.08-.17,1-.07.74.29-.7a33.09,33.09,0,0,1,2-3.12c2.13-3.12,4.54-6,6.43-9.3l-10.2,5.86c3.34,0,6.23,2.42,7.16,7.08.75,3.69.1,9.57-2.71,11.67-.39.28-.93.44-.19.43.2,0-1.09-.49-1.43-.73a33.57,33.57,0,0,1-6.76-7.11c-1.91-2.49-7.14-9.65-5.66-12.65s9.79-.31,12.11.6a25.33,25.33,0,0,1,11.94,9.8c2.52,4.06,3.5,8.49,2,13.21-1.09,3.52-3.86,7.92-7.92,8.32-6,.58-11.14-6.89-13.17-11.57a29.6,29.6,0,0,1-2.36-10,32.73,32.73,0,0,1,.13-5.6,9,9,0,0,0,.33-2c.06-.29.12-.59.17-.89q.38-1.53-2.15.93c7.87,3.22,13-9.63,5.74-13.62Z" transform="translate(-20.41 -5.05)"/><path class="cls-3" d="M184.33,143.58c.16-12.6-13-17-23.59-14.88-10,2-18.69,9.39-23.76,18-10.58,18-5,45.28,13.71,55.85,22.49,12.68,46.3-10.21,54.1-29.92,8.15-20.6-3.78-44.53-26.34-48-11.84-1.85-24,2.51-31.38,12.15s-8,23-5.47,34.48c2.62,12,12.73,21.31,25.38,21.16,11.61-.14,21.43-8.68,26.87-18.36,6-10.65,7.83-24.49.14-34.78-9-12-24.68-7.3-35.17.18-8.72,6.2-16.85,18-18.6,28.68-2.27,13.83,8.44,27.39,23.21,24.23,6.71-1.44,12.27-5.95,17.24-10.45s9.26-10.12,10.65-16.79c1.47-7.07,0-15.91-6-20.55-5.76-4.45-14.76-2.75-20.77.39-11.12,5.8-21.73,25.64-7.23,34.12,12.6,7.38,29.72-3.14,32.17-16.49,1.37-7.49-3.2-15-11.45-15-12.08,0-22.27,10.71-15.88,22.48,2.3,4.25,7.76,5.18,11.8,3.1-1.77.91,2.61-.73,2.82-.83a5.83,5.83,0,0,0,2.44-1.36c-.39.13-.78.25-1.18.35l-11.44-15c-.07.42-.64,1.69,0,1s-.3,1-.51.59c-.4-.75,4,.85.36-.38l5.22,3-.87-.8,3.05,5.23c-.28,3.41-.22,4.27.18,2.6.22-.78.24-.84.05-.2,1.4-.69.07-.65,1.49-1.64-1,.7,1.92-.13.54,0-1.83.1,2,0,2,0l-10.2-5.85c1.64,2.43.26.92.43.38-.49,1.59-2,2.85-3.16,4-1.55,1.5-3.71,2.77-5.14,4.34,0,0-1.45.81-1.44.87,0-.32,5.06,2.87,4.66,2.85.2,0-.1.6-.19.67-.41.28.59-2.13.64-2.26a42.1,42.1,0,0,1,3.58-6.29,19.16,19.16,0,0,1,9.68-8.15c.64-.26,3.08-.88,3.33-1.22l-4.61-1.33-.19-.07c.46-.52.26,3.14.3,2.7-.33,3.76-2.66,7.67-5.16,10.26a16,16,0,0,1-2.59,2.24c-1.08.48-1.85.49-1.1.39-3,.4-1.34-.2-.95-.06a2.77,2.77,0,0,1-1.13-.71c-1.1-1.64-1.17-4.85-1.29-6.73-.44-7.44,1.5-14,9-14.52,5.67-.43,11.69,4.36,13.11,10.46,1.89,8.12-4.67,17.06-10,22.6-5.68,6-13.5,9.75-19.82,2.66s-8.24-17.93-3.82-26.43a22.58,22.58,0,0,1,9.24-9.48c3.36-1.83,9.19-4.6,11.81-.27,3.1,5.09,11.11,3,11.19-3Z" transform="translate(-20.41 -5.05)"/><path class="cls-3" d="M193.39,83.3c-12.64-2.21-20.74,13.6-24.68,23.32-4.92,12.13-6.25,26-1.78,38.49s22.42,5.27,16.93-7.14c-3.5-7.92-2-17.35.66-25.27a51.39,51.39,0,0,1,5-10.59c2.16-3.51,6-5.78,7.66-9.58,1.41-3.34.69-8.45-3.76-9.23Z" transform="translate(-20.41 -5.05)"/><path class="cls-3" d="M182.92,122.65c-5.51-4.86-12.91-5.15-19.94-4.37-6.54.74-13.74,1.35-19.29,5.21-10.44,7.25-15.93,27.81-10.34,39.11,3.31,6.66,13.07,4.37,15.05-2,1.39-4.43.69-9.14,1.83-13.65.71-2.77,1.69-7.13,4.18-8.81,2.71-1.82,8.65-2.14,11.82-2.53,4.52-.56,9.07,0,13.53-1,5.12-1.11,7.12-8.5,3.16-12Z" transform="translate(-20.41 -5.05)"/><path class="cls-3" d="M297.66,108.09c6.92-4.73,10.32-12.44,6-20.45-4.92-9.15-16.7-12-26.08-9-9.18,2.86-17.73,9.85-21.38,18.85-3.88,9.55-1.09,21.51,8.3,26.76,15.95,8.9,39.77-2.87,46.83-18.3,4.9-10.71.45-23.18-11.44-26.47-10.08-2.78-21.08,1.89-28,9.28-4.08,4.33-7.19,10-7.06,16.1.19,8.46,6.21,14.29,14.57,14.69,11.88.55,22.16-7.71,25.58-18.79,1.47-4.78-.92-11.17-5.49-13.48-10.92-5.53-22.13-1.52-29.07,8.1-3.23,4.48-4.78,10.2-2.6,15.48,2.8,6.77,9.12,8.6,15.83,7.66,4-.57,7.19-5.2,7.63-8.86A10.86,10.86,0,0,0,286.16,99l-1-.69,4,4-.38-.89,1.57,5.79a3,3,0,0,1-.49,1.92c.69-1.3.92-1.6.68-.9-1.38-.26-.88.75-3.11-.38l-5.49-13.48a2,2,0,0,1-.64.94c-1.8,1.18.74-.77-1,.42-1.35.93-.2-.38.14-.25l8.33,8.33c1.19,3.12-2.18,2.42.44,1.21,1.12-.52,2.47-1.77,3.67-2.49,2.69-1.62.66-.24.75-.43-.14.3-3.73-4.73-3.19-5,.31-.16-1.47,2.67-1.37,2.54a15.88,15.88,0,0,1-3.22,3.07,18.65,18.65,0,0,1-8.36,3.39c-.33,0-3.32.41-3.6-.22.43.95.9.16,1-.17.75-2.56,2.76-4.52,4.9-6.07s5-3.06,7.75-2.38c1.31.33,5,2.66,3.95,4.65-2,3.72,2.22,8.85,6.16,6.16Z" transform="translate(-20.41 -5.05)"/><path class="cls-3" d="M206.54,177.6l.31-.45a6.3,6.3,0,0,0,0-6.48c-5.16-7.88-15.7-2.25-17.63,5.24a15.41,15.41,0,0,0,11.3,18.68c9.39,2.08,17-4.38,19.79-13,2.74-8.32-.07-16.29-5.23-22.88-3-3.87-10.34-4.46-14.29-1.84-9.68,6.41-16.12,19.9-9.23,30.71a15.94,15.94,0,0,0,21.28,5.28,21.21,21.21,0,0,0,10.09-15.14c.91-6.77-1.7-13.74-7.59-17.52a14.72,14.72,0,0,0-19.89,3.29c-4.82,6.24-4,16.42,3.2,20.64,6.17,3.61,17,.44,16.76-7.87l-1.16,4.31a13.46,13.46,0,0,0,1.82-7.83c1.05,10.17-16.55,9.5-16.7,2.5a4.2,4.2,0,0,1,.49-2.23c.77-.86.87-1,.29-.36s-.46.53.64-.4q11.39-1.66,11.78,5.11c.07,1,.1.86.09-.31q-.3,2.08,0,.75c.26-.83.16-.66-.29.5a13.12,13.12,0,0,1,.76-1.31c.46-.71.35-.57-.35.4,1-.92.94-1-.11-.14l-14.3-1.85c-1.62-1.84,0,.13.29.74-.7-1.42-.52-.77-.16.37s.12-1.87-.06.24c-.06,1.12-.05,1.25,0,.38s0-.74-.2.35c1.57-2.12,3.84-4,6.67-2.25-.68-.43,2.24,1.85,1.68,2.52.32-.39,0-2,0-2.51l-1.07,4c-.68,1.39,1-1.6,1.32-2.09l-2.3,2.3a6.39,6.39,0,0,0,2-1.85Z" transform="translate(-20.41 -5.05)"/><path class="cls-3" d="M219.83,85.85c-10.51-16.59-35.28-11.62-46.76,1a43,43,0,0,0-10.91,24.49,49.53,49.53,0,0,0,.37,13.43c.94,6.21,3.55,9.87,9.49,12.25,7.36,3,15.19-5.8,12.84-12.84-2.54-7.6-.9-17.11,4.89-22.79,6.58-6.46,14.95-3.8,23.13-3.38,6,.32,10.13-7.1,7-12.12Z" transform="translate(-20.41 -5.05)"/><circle class="cls-1" cx="74.93" cy="18.65" r="6.5"/><circle class="cls-1" cx="367.99" cy="174.38" r="6.28"/></g><g id="Layer_8" data-name="Layer 8"><path class="cls-4" d="M204.24,258l-27.52-10.9,28.56-10.56c-5.35,5-8.17,6.43-8.23,10.54C197,250.66,197.26,253,204.24,258Z" transform="translate(-20.41 -5.05)"/><path class="cls-4" d="M268.51,31.1l22.26,19.51L260.33,51c6.71-2.91,9.85-3.31,11.29-7.17C272.88,40.42,273.39,38.18,268.51,31.1Z" transform="translate(-20.41 -5.05)"/></g><g id="pictos"><path class="cls-5" d="M190.8,114c-3.23,5.65-10.59,18.85-10.64,19.08s.32.52,2.55,1.89a15.15,15.15,0,0,0,2.88,1.54c.21,0,1.6-2.4,5.89-10,3.07-5.48,5.58-10.06,5.57-10.15a43.35,43.35,0,0,0-5.46-3.41A3.4,3.4,0,0,0,190.8,114Z" transform="translate(-20.41 -5.05)"/><path class="cls-6" d="M235.23,114.57c-2,1.24-2.57,1.65-2.56,1.87s11,19.95,11.31,20.1a27.7,27.7,0,0,0,5.5-3.29c.11-.36-11.09-20.21-11.43-20.25A19.57,19.57,0,0,0,235.23,114.57Z" transform="translate(-20.41 -5.05)"/><path class="cls-7" d="M214.11,118.53a28.36,28.36,0,0,0-5.4.88,2.76,2.76,0,0,0-1.51.86c-.77.91-3.94,5.41-4.84,6.88-.8,1.3-.85,1.45-.87,2.23s0,.86.38,1a5.53,5.53,0,0,0,3.19-.42,12.07,12.07,0,0,0,4.76-4l.47-.7,1.68-.54a15.27,15.27,0,0,1,1.95-.54c.48,0,6.19,3.07,9.32,5s8.56,5.83,11.71,8.37l1.6,1.3.57-.31a15.4,15.4,0,0,0,3-2.5l1.14-1.15L237,127.31c-2.35-4.2-4.33-7.69-4.39-7.75a3.76,3.76,0,0,0-1.23.19c-1.53.39-2.79.29-5.83-.4a27.47,27.47,0,0,0-7.67-1C216.53,118.4,214.85,118.46,214.11,118.53Z" transform="translate(-20.41 -5.05)"/><path class="cls-8" d="M192.57,127.47l-4.43,7.88.71.82c.39.47,1,1.22,1.37,1.69a7.79,7.79,0,0,0,.7.85,4.11,4.11,0,0,0,.65-.46,3.77,3.77,0,0,1,5.6,1.6l.33.65.61-.83a3.14,3.14,0,0,1,2.8-1.5,4,4,0,0,1,4,4v.93h.5a4.28,4.28,0,0,1,2.71,1.56,4.15,4.15,0,0,1,.9,2.64l0,.51.61.1a4.22,4.22,0,0,1,3.19,2.28,3.6,3.6,0,0,1-.16,3.76c-.26.4-.42.75-.36.8a5.46,5.46,0,0,0,1,.4c3.21,1,5.85,1.26,7.14.62.69-.35,2-1.59,1.91-1.83a38.07,38.07,0,0,0-3.43-1.78,36.28,36.28,0,0,1-3.48-1.8.7.7,0,0,1,.23-1c.32-.22.42-.18,4,1.57,3.91,1.9,4.35,2,5.74,1.84a2.17,2.17,0,0,0,1.76-1.61c.38-1.28.65-1-4.09-3.77-2.38-1.37-4.42-2.6-4.55-2.74a.76.76,0,0,1-.24-.43c0-.31.54-.77.81-.71s2.27,1.24,4.74,2.66c4.43,2.56,4.47,2.59,5.27,2.59a2.82,2.82,0,0,0,2.17-.73,2.29,2.29,0,0,0,.67-2l0-.67-5.15-3.1c-2.83-1.71-5.23-3.23-5.34-3.38a.52.52,0,0,1,0-.61c.31-.67.67-.51,6.5,3l5.53,3.32,1,0a2.27,2.27,0,0,0,2.06-3.62c-.45-.66-2.07-2-5.65-4.69a101.92,101.92,0,0,0-15.63-9.89l-1.26-.65-1.26.38-1.27.38-.93,1.15c-2.26,2.82-5.38,4.48-8.13,4.34a2.17,2.17,0,0,1-2-1c-.23-.3-.28-.56-.27-1.34,0-1.44.53-2.46,3-6,.62-.88,1.12-1.65,1.12-1.69a6.64,6.64,0,0,0-1.65-.35,10.5,10.5,0,0,1-4.42-1.39c-.54-.32-1-.59-1-.59S195,123.13,192.57,127.47Z" transform="translate(-20.41 -5.05)"/><path class="cls-7" d="M192.71,139.18a11.8,11.8,0,0,0-2.3,3.13,2.76,2.76,0,0,0,2.22,3.1c.88.16,1.34-.17,2.48-1.69.94-1.27,1-1.42,1-2a2.56,2.56,0,0,0-3.42-2.51Z" transform="translate(-20.41 -5.05)"/><path class="cls-7" d="M200.11,139.71c-.3.14-1.11,1.14-2.83,3.49-1.33,1.8-2.5,3.44-2.59,3.63-.66,1.27.56,3.23,2.1,3.37,1.17.11,1.33,0,3.36-2.8,3.43-4.66,3.3-4.43,3.3-5.15C203.45,140.5,201.55,139.05,200.11,139.71Z" transform="translate(-20.41 -5.05)"/><path class="cls-7" d="M204.19,144.61a44.74,44.74,0,0,0-4.36,5.74,2.61,2.61,0,0,0,2.11,3.38c1.14.11,1.32,0,3.17-2.59,2.48-3.42,2.4-3.28,2.4-4.08a2.52,2.52,0,0,0-1.15-2.14A2.25,2.25,0,0,0,204.19,144.61Z" transform="translate(-20.41 -5.05)"/><path class="cls-7" d="M208.29,149.53a20.78,20.78,0,0,0-3.1,4.23,2.71,2.71,0,0,0,1.52,2.86,1.93,1.93,0,0,0,1.85,0,19.17,19.17,0,0,0,3.17-4.23,2.37,2.37,0,0,0-.67-2.2A2.21,2.21,0,0,0,208.29,149.53Z" transform="translate(-20.41 -5.05)"/><path class="cls-9" d="M190.8,114c-3.23,5.65-10.59,18.85-10.64,19.08s.32.52,2.55,1.89a15.15,15.15,0,0,0,2.88,1.54c.21,0,1.6-2.4,5.89-10,3.07-5.48,5.58-10.06,5.57-10.15a43.35,43.35,0,0,0-5.46-3.41A3.4,3.4,0,0,0,190.8,114Z" transform="translate(-20.41 -5.05)"/><path class="cls-10" d="M235.23,114.57c-2,1.24-2.57,1.65-2.56,1.87s11,19.95,11.31,20.1a27.7,27.7,0,0,0,5.5-3.29c.11-.36-11.09-20.21-11.43-20.25A19.57,19.57,0,0,0,235.23,114.57Z" transform="translate(-20.41 -5.05)"/><path class="cls-11" d="M214.11,118.53a28.36,28.36,0,0,0-5.4.88,2.76,2.76,0,0,0-1.51.86c-.77.91-3.94,5.41-4.84,6.88-.8,1.3-.85,1.45-.87,2.23s0,.86.38,1a5.53,5.53,0,0,0,3.19-.42,12.07,12.07,0,0,0,4.76-4l.47-.7,1.68-.54a15.27,15.27,0,0,1,1.95-.54c.48,0,6.19,3.07,9.32,5s8.56,5.83,11.71,8.37l1.6,1.3.57-.31a15.4,15.4,0,0,0,3-2.5l1.14-1.15L237,127.31c-2.35-4.2-4.33-7.69-4.39-7.75a3.76,3.76,0,0,0-1.23.19c-1.53.39-2.79.29-5.83-.4a27.47,27.47,0,0,0-7.67-1C216.53,118.4,214.85,118.46,214.11,118.53Z" transform="translate(-20.41 -5.05)"/><path class="cls-12" d="M192.57,127.47l-4.43,7.88.71.82c.39.47,1,1.22,1.37,1.69a7.79,7.79,0,0,0,.7.85,4.11,4.11,0,0,0,.65-.46,3.77,3.77,0,0,1,5.6,1.6l.33.65.61-.83a3.14,3.14,0,0,1,2.8-1.5,4,4,0,0,1,4,4v.93h.5a4.28,4.28,0,0,1,2.71,1.56,4.15,4.15,0,0,1,.9,2.64l0,.51.61.1a4.22,4.22,0,0,1,3.19,2.28,3.6,3.6,0,0,1-.16,3.76c-.26.4-.42.75-.36.8a5.46,5.46,0,0,0,1,.4c3.21,1,5.85,1.26,7.14.62.69-.35,2-1.59,1.91-1.83a38.07,38.07,0,0,0-3.43-1.78,36.28,36.28,0,0,1-3.48-1.8.7.7,0,0,1,.23-1c.32-.22.42-.18,4,1.57,3.91,1.9,4.35,2,5.74,1.84a2.17,2.17,0,0,0,1.76-1.61c.38-1.28.65-1-4.09-3.77-2.38-1.37-4.42-2.6-4.55-2.74a.76.76,0,0,1-.24-.43c0-.31.54-.77.81-.71s2.27,1.24,4.74,2.66c4.43,2.56,4.47,2.59,5.27,2.59a2.82,2.82,0,0,0,2.17-.73,2.29,2.29,0,0,0,.67-2l0-.67-5.15-3.1c-2.83-1.71-5.23-3.23-5.34-3.38a.52.52,0,0,1,0-.61c.31-.67.67-.51,6.5,3l5.53,3.32,1,0a2.27,2.27,0,0,0,2.06-3.62c-.45-.66-2.07-2-5.65-4.69a101.92,101.92,0,0,0-15.63-9.89l-1.26-.65-1.26.38-1.27.38-.93,1.15c-2.26,2.82-5.38,4.48-8.13,4.34a2.17,2.17,0,0,1-2-1c-.23-.3-.28-.56-.27-1.34,0-1.44.53-2.46,3-6,.62-.88,1.12-1.65,1.12-1.69a6.64,6.64,0,0,0-1.65-.35,10.5,10.5,0,0,1-4.42-1.39c-.54-.32-1-.59-1-.59S195,123.13,192.57,127.47Z" transform="translate(-20.41 -5.05)"/><path class="cls-11" d="M192.71,139.18a11.8,11.8,0,0,0-2.3,3.13,2.76,2.76,0,0,0,2.22,3.1c.88.16,1.34-.17,2.48-1.69.94-1.27,1-1.42,1-2a2.56,2.56,0,0,0-3.42-2.51Z" transform="translate(-20.41 -5.05)"/><path class="cls-11" d="M200.11,139.71c-.3.14-1.11,1.14-2.83,3.49-1.33,1.8-2.5,3.44-2.59,3.63-.66,1.27.56,3.23,2.1,3.37,1.17.11,1.33,0,3.36-2.8,3.43-4.66,3.3-4.43,3.3-5.15C203.45,140.5,201.55,139.05,200.11,139.71Z" transform="translate(-20.41 -5.05)"/><path class="cls-11" d="M204.19,144.61a44.74,44.74,0,0,0-4.36,5.74,2.61,2.61,0,0,0,2.11,3.38c1.14.11,1.32,0,3.17-2.59,2.48-3.42,2.4-3.28,2.4-4.08a2.52,2.52,0,0,0-1.15-2.14A2.25,2.25,0,0,0,204.19,144.61Z" transform="translate(-20.41 -5.05)"/><path class="cls-11" d="M208.29,149.53a20.78,20.78,0,0,0-3.1,4.23,2.71,2.71,0,0,0,1.52,2.86,1.93,1.93,0,0,0,1.85,0,19.17,19.17,0,0,0,3.17-4.23,2.37,2.37,0,0,0-.67-2.2A2.21,2.21,0,0,0,208.29,149.53Z" transform="translate(-20.41 -5.05)"/><circle class="cls-4" cx="153.59" cy="22.49" r="1.89"/><path class="cls-4" d="M173,23.3a1.26,1.26,0,0,1-1.51-.94l-.47-2.07c-.47-2,.71-3.9,1.76-5.56.76-1.22,1.55-2.48,1.36-3.3a3.79,3.79,0,0,0-4.53-2.86A3.72,3.72,0,0,0,166.79,13a1.26,1.26,0,1,1-2.45.56,6.29,6.29,0,0,1,12.28-2.74c.43,1.84-.65,3.55-1.68,5.21-.82,1.31-1.67,2.66-1.44,3.65l.47,2.07A1.25,1.25,0,0,1,173,23.3Z" transform="translate(-20.41 -5.05)"/><path class="cls-13" d="M186.86,61.13a1.41,1.41,0,0,1-1.27-.83,1.38,1.38,0,0,1,.21-1.49c1.8-2.09,5.84-7.4,4.71-11.57l-.16-.62a5.93,5.93,0,0,0-1.54-2.92c-.38-.5-.85-1.14-1.48-2-2-2.82-6.81-9.41-4.75-19.18,1.07-5,4.13-9.28,9.11-12.62A21.65,21.65,0,0,1,203.8,6.05a20.7,20.7,0,0,1,2.08.11,21.59,21.59,0,0,1,14.18,7.74c1.29,1.48,7.65,9.35,5.59,19.24-1.37,6.56-5.65,10.46-8.48,13-3.22,2.94-8.92,6.53-15.24,9.61a119.91,119.91,0,0,1-14.66,5.27,1.4,1.4,0,0,1-.41.06Z" transform="translate(-20.41 -5.05)"/><path class="cls-4" d="M203.8,7.05a19.3,19.3,0,0,1,2,.1,21,21,0,0,1,13.53,7.41c.87,1,7.38,8.68,5.36,18.38-1.3,6.24-5.44,10-8.17,12.51s-8,6-15,9.45A117.9,117.9,0,0,1,187,60.11l-.12,0a.41.41,0,0,1-.31-.67c2-2.29,6.17-7.87,4.92-12.48-.73-2.69-.27-1.64-3.34-5.87-2.11-2.92-6.53-9.14-4.58-18.38,1.52-7.19,7.17-11,8.68-12A20.82,20.82,0,0,1,203.8,7.05m0-2a22.66,22.66,0,0,0-12.67,4c-5.2,3.49-8.4,7.94-9.52,13.24-2.16,10.21,2.8,17.05,4.91,20,.63.87,1.11,1.51,1.48,2a5.19,5.19,0,0,1,1.38,2.58l.17.63c1,3.8-3.19,9.11-4.51,10.65a2.4,2.4,0,0,0-.36,2.56,2.43,2.43,0,0,0,2.19,1.41,2.37,2.37,0,0,0,.69-.11,119.64,119.64,0,0,0,14.81-5.32c6.4-3.12,12.19-6.77,15.48-9.77,2.75-2.51,7.35-6.71,8.78-13.58,2.15-10.35-4.47-18.57-5.82-20.11A22.66,22.66,0,0,0,206,5.16c-.72-.07-1.46-.11-2.18-.11Z" transform="translate(-20.41 -5.05)"/><path class="cls-14" d="M288.71,191.36l42.76,5.91a1.15,1.15,0,0,1,.92.75l.91,2.54a1.1,1.1,0,0,1,0,.76l-22.36,63.32a1.14,1.14,0,0,1-1.25.75l-43.8-6.95a1.09,1.09,0,0,1-.63-.32l-2-2a1.17,1.17,0,0,1-.26-1.23l24.51-62.8A1.15,1.15,0,0,1,288.71,191.36Z" transform="translate(-20.41 -5.05)"/><g id="Layer_3" data-name="Layer 3"><path class="cls-13" d="M272.29,246l33.06,4.7a.81.81,0,0,0,.88-.51l18.66-49.52a.81.81,0,0,0-.65-1.09l-33.05-4.75a.81.81,0,0,0-.88.51l-18.66,49.57A.81.81,0,0,0,272.29,246Z" transform="translate(-20.41 -5.05)"/></g><ellipse class="cls-15" cx="285.85" cy="252.95" rx="3.03" ry="5.68" transform="translate(-20.57 500.66) rotate(-82.97)"/><path class="cls-4" d="M341.82,193a.31.31,0,0,0,.37.49c2.19-1.06,6.32-3.14,12.14-6.46,1.59-.91,3.5-1.84,4.24-3a1.48,1.48,0,0,0-1.08-2.22c-1.8-.4-3.61,1.4-5.06,2.42A125.63,125.63,0,0,0,341.82,193Z" transform="translate(-20.41 -5.05)"/><path class="cls-4" d="M343.62,200.8a.31.31,0,0,0,.09.6c2.43.14,7,.31,13.74.22,1.83,0,4,.08,5.17-.57a1.48,1.48,0,0,0,.12-2.47c-1.37-1.21-3.83-.51-5.59-.33A125.23,125.23,0,0,0,343.62,200.8Z" transform="translate(-20.41 -5.05)"/><path class="cls-4" d="M341.22,207.8a.31.31,0,0,0-.35.5c1.65,1.78,4.86,5.11,9.74,9.69,1.34,1.25,2.79,2.8,4.12,3.17a1.47,1.47,0,0,0,1.8-1.68c-.15-1.84-2.4-3-3.8-4.13A126,126,0,0,0,341.22,207.8Z" transform="translate(-20.41 -5.05)"/><polygon class="cls-16" points="271.32 201.72 274.77 210.91 294.32 201.24 292.75 197.98 276.49 205.93 274.13 200.31 271.32 201.72"/><path class="cls-17" d="M197,14.61l3.72,4.95-3.75,5.17a.58.58,0,0,0,.47.92h3a.56.56,0,0,0,.46-.23l3.23-4.26,4.09,4.31a.56.56,0,0,0,.42.18h1.77a.58.58,0,0,0,.46-.94l-4-5.05,4-5a.59.59,0,0,0-.46-.95H207.6a.58.58,0,0,0-.47.24l-3.06,4-3.57-4.06a.61.61,0,0,0-.44-.2h-2.65A.59.59,0,0,0,197,14.61Z" transform="translate(-20.41 -5.05)"/><rect class="cls-18" x="180.42" y="40.41" width="1.53" height="3.99" rx="0.67"/><rect class="cls-18" x="184.86" y="40.41" width="1.53" height="3.99" rx="0.67"/><rect class="cls-19" x="178.28" y="34.94" width="10.35" height="5.09"/><rect class="cls-20" x="178.51" y="25.15" width="10.12" height="15.26" rx="1.39"/><path class="cls-18" d="M203.4,38.94a2,2,0,0,1-1.7-1.37,2.16,2.16,0,0,1,.82-2.19,6.55,6.55,0,0,0,1.31-1c.64-.75,0-2.19,0-2.19a5.13,5.13,0,0,1,1.59,1.26,5.94,5.94,0,0,1,1.25,3.26,2.5,2.5,0,0,1-.83,1.83A3.72,3.72,0,0,1,203.4,38.94Z" transform="translate(-20.41 -5.05)"/><circle class="cls-21" cx="183.46" cy="33.31" r="0.92"/><path class="cls-18" d="M289.09,238.83l-.39-.05a1.11,1.11,0,0,0-1.14.74l-1.27,3.67a.71.71,0,0,0,.55,1l.4.05a1.12,1.12,0,0,0,1.16-.76l1.25-3.67A.71.71,0,0,0,289.09,238.83Z" transform="translate(-20.41 -5.05)"/><path class="cls-18" d="M295.14,239.67l-.4,0a1.08,1.08,0,0,0-1.12.74L292.41,244a.73.73,0,0,0,.57,1l.4.06a1.1,1.1,0,0,0,1.14-.77l1.19-3.69A.72.72,0,0,0,295.14,239.67Z" transform="translate(-20.41 -5.05)"/><polygon class="cls-19" points="278.78 234.65 264.73 232.7 267.08 226.08 280.87 227.97 278.78 234.65"/><path class="cls-20" d="M297.28,240,287,238.54a1.42,1.42,0,0,1-1.12-2l5.59-15.82a2.15,2.15,0,0,1,2.21-1.37l9.72,1.29a1.37,1.37,0,0,1,1.16,1.83l-5,16A2.2,2.2,0,0,1,297.28,240Z" transform="translate(-20.41 -5.05)"/><path class="cls-18" d="M294.19,230.65a2,2,0,0,1-1.66-2,3.4,3.4,0,0,1,2-2.58,10.5,10.5,0,0,0,2.15-1.05c1.14-.81.89-2.66.89-2.66a5,5,0,0,1,1.56,1.8,6.31,6.31,0,0,1,.33,4.25,3.88,3.88,0,0,1-1.84,2.16A5.51,5.51,0,0,1,294.19,230.65Z" transform="translate(-20.41 -5.05)"/><path class="cls-21" d="M296.29,230.17a1,1,0,0,0-.83-1.33,1.53,1.53,0,0,0-1.61,1,1,1,0,0,0,.83,1.34A1.54,1.54,0,0,0,296.29,230.17Z" transform="translate(-20.41 -5.05)"/><path class="cls-4" d="M384,16.12l13.4,8.3a.31.31,0,0,0,.31,0l12.92-7.21a.31.31,0,0,0-.14-.58l-26.31-1.1A.31.31,0,0,0,384,16.12Z" transform="translate(-20.41 -5.05)"/><path class="cls-4" d="M400.77,24.6l10.28-6a.31.31,0,0,1,.46.3l-1.25,14.67a.32.32,0,0,1-.53.2l-9-8.63A.32.32,0,0,1,400.77,24.6Z" transform="translate(-20.41 -5.05)"/><path class="cls-4" d="M383.45,17.25,393.89,24a.31.31,0,0,1,0,.51l-10.45,7.7a.31.31,0,0,1-.49-.25V17.51A.31.31,0,0,1,383.45,17.25Z" transform="translate(-20.41 -5.05)"/><path class="cls-4" d="M384.52,32.7,394.91,25a.3.3,0,0,1,.37,0l1.85,1.34a.34.34,0,0,0,.34,0l1.89-1a.3.3,0,0,1,.37,0L408.82,34a.31.31,0,0,1-.23.53l-23.9-1.27A.31.31,0,0,1,384.52,32.7Z" transform="translate(-20.41 -5.05)"/><path class="cls-4" d="M385.34,38c-.14,0-.07.27.07.27a12.12,12.12,0,0,0,4.28-.53,11.84,11.84,0,0,0,3.83-2.39l4.31-4a.12.12,0,0,0-.08-.2l-7.35-.35c1.69,0,1.18.31,1.17.36a7.88,7.88,0,0,1-.75,2.18A8.37,8.37,0,0,1,385.34,38Z" transform="translate(-20.41 -5.05)"/></g><g id="right_guy" data-name="right guy"><polyline class="cls-22" points="390.35 144.83 250.89 144.83 250.89 98.53 390.35 98.53"/><polyline class="cls-23" points="390.35 98.53 394.89 98.53 394.89 141.42 390.35 144.83"/><rect class="cls-24" x="258.72" y="109.42" width="122.55" height="35.23"/><path class="cls-14" d="M367,84V95a3.94,3.94,0,0,1-2.7,3.73l-14.84,4.89h40.69l-12.63-4.82A3.92,3.92,0,0,1,375,95.09V83Z" transform="translate(-20.41 -5.05)"/><path class="cls-14" d="M340.34,43.33h60.42l1.57,1.57V88.43L401,89.82H340.34a.78.78,0,0,1-.78-.78V44.1A.77.77,0,0,1,340.34,43.33Z" transform="translate(-20.41 -5.05)"/><rect class="cls-25" x="322.89" y="41.69" width="53.62" height="39.66" rx="1.36"/><polygon class="cls-26" points="312.4 94.27 350.53 94.27 350.53 98.53 307.64 98.53 307.64 97.17 312.4 94.27"/><g id="Layer_5" data-name="Layer 5"><path class="cls-11" d="M344.66,102.21l3.24-3.83a1.82,1.82,0,0,1,1.32-.64l.77,0a1.91,1.91,0,0,0,.63-.13l.36-.15a1.82,1.82,0,0,1,1.95.38h0a1.78,1.78,0,0,0,1.63.47l.74-.15a1.79,1.79,0,0,1,1.67.51l2.51,2.59a1.8,1.8,0,0,1,.47.88l-.16.64-2.91-.26a1.8,1.8,0,0,0-1.47.56l-2.48,2.62a1.79,1.79,0,0,1-1.51.55l-1.51-.17a1.91,1.91,0,0,1-.52-.14l-5.69-2.46Z" transform="translate(-20.41 -5.05)"/><path class="cls-11" d="M331.91,99.46l3.76-1.8a.58.58,0,0,1,.39,0l.85.39.9-.36.73.48L339.8,98a.6.6,0,0,1,.47.18l1.54,1.5.1.13.53.81a.51.51,0,0,1-.32.21.53.53,0,0,1-.37-.1l-.76-.37a2.65,2.65,0,0,0-.79,0l-.89.21-.58.38a.53.53,0,0,0,.07.39c.1.15.33.36.53.31s.28-.05.43,0l.68-.39a.76.76,0,0,1,.48.09.78.78,0,0,1,.37.44l-1.28.87a.51.51,0,0,1-.31.19l-3.19.7a.5.5,0,0,1-.27,0l-3.14-.85a.56.56,0,0,1-.35-.29l-1.1-2.2A.57.57,0,0,1,331.91,99.46Z" transform="translate(-20.41 -5.05)"/><path class="cls-11" d="M315.48,82.07l1.37-4.9A2.62,2.62,0,0,1,319.49,76l1.06.42A1.55,1.55,0,0,0,322.3,76l2-2.38a12,12,0,0,0,2.34-4.24l.93-3a.37.37,0,0,1,.13-.17L329.89,65a.88.88,0,0,0,.38-1.09l-.88-2.31a7.17,7.17,0,0,1-.45-3l.4-6.11a.23.23,0,0,0-.06-.2l-7.5-9.48a.3.3,0,0,0-.43,0L302.57,60a.28.28,0,0,0-.08.26l1.34,7.31a11.88,11.88,0,0,1,.12,3.57l-.24,2.07a10.87,10.87,0,0,1-.18,1.12l-1,4.78a.28.28,0,0,0,.22.34l12.41,2.78A.29.29,0,0,0,315.48,82.07Z" transform="translate(-20.41 -5.05)"/><path class="cls-14" d="M297.31,129.55l-3.41,10.24a15.64,15.64,0,0,0-.81,4.94h0a15.47,15.47,0,0,0,.83,5l.07.21h62.93v-6.38a3.86,3.86,0,0,0-.72-2.25l-2.11-2.95a3.87,3.87,0,0,0-3-1.61l-24.42-.5a.91.91,0,0,1-.85-.67l-2.42-9.09Z" transform="translate(-20.41 -5.05)"/><path class="cls-10" d="M299.05,76.85h6.68a14.9,14.9,0,0,1,7.26,1.9L318.81,82a1,1,0,0,1,.5.85v2.67l4.42,2.89,2.9,6,8.9,9.68a1.49,1.49,0,0,0,1.83.29l6.8-3.77,3.07,1.74a7.46,7.46,0,0,1,3.19,3.58l.89,2.09-11.84,10.34a5.11,5.11,0,0,1-3.35,1.26h-.77a5.1,5.1,0,0,1-2.61-.72L326,114.81l-.59,9.84a7.92,7.92,0,0,1-2.41,5.26h0a8,8,0,0,1-1.66,1.24l-6.3,3.53a8,8,0,0,1-2.78.94l-6,.84a7,7,0,0,1-1.12.08h-5.34a8,8,0,0,1-4.72-1.54l-1.25-.91a8.09,8.09,0,0,1-2.76-3.62l-.45-1.18a8.25,8.25,0,0,1-.51-3.19l1.15-26.55a19.21,19.21,0,0,1,1.37-6.35l2.86-7.15h0a1.44,1.44,0,0,1-.6-2Z" transform="translate(-20.41 -5.05)"/><path class="cls-27" d="M317.22,107.37l8.73,7.44-.59,9.84-1.3-1.12a19.75,19.75,0,0,1-4.13-4.93h0a19.6,19.6,0,0,1-2.71-9.93Z" transform="translate(-20.41 -5.05)"/><path class="cls-27" d="M296.16,85.66l.64-.76,19.4.76L308.56,87a8.42,8.42,0,0,1-1.33.11h-6.55a8,8,0,0,1-4.52-1.41Z" transform="translate(-20.41 -5.05)"/><path class="cls-28" d="M335.25,47a2.31,2.31,0,0,1-1.39.45,2.42,2.42,0,0,1-1.6-.61l-.69-.63a2.37,2.37,0,0,1-.41-.48l-.65-1A24.89,24.89,0,0,0,320.76,36h0a11.44,11.44,0,0,0-4.19-1h-1.05a31.39,31.39,0,0,0-5.48.42l-.22,0a8.19,8.19,0,0,0-4.43,1.79,11.44,11.44,0,0,0-1.95,2.1l-.92,1.28a6.15,6.15,0,0,1-1.45,1.43l-2.88,1.82a4.84,4.84,0,0,0-1.74,1.93,13.14,13.14,0,0,0,.43,7.44v0a55.57,55.57,0,0,0,6.89,15.19,4.41,4.41,0,0,0,1.65,1.5,4.5,4.5,0,0,0,2.1.49l1.69,0a4.31,4.31,0,0,0,2.24-.66l1.27-.8a4.38,4.38,0,0,0,.93-.79l4.25-4.76L323.46,58l3.37-3.29,1.81-.16a5.87,5.87,0,0,0,3.13-1.23,11.67,11.67,0,0,0,3.52-4.61l1-2.44Z" transform="translate(-20.41 -5.05)"/><path class="cls-11" d="M322.51,60.22a8.23,8.23,0,0,0,.91-2.85,3.71,3.71,0,0,0-.28-2.68,3,3,0,0,0-2.28-1.2c-2.46-.08-4,3.21-4.1,3.42a6.7,6.7,0,0,0,.11,5.58c.36.76.65,1.36,1.26,1.54C319.63,64.48,321.66,61.81,322.51,60.22Z" transform="translate(-20.41 -5.05)"/><path class="cls-13" d="M304,99.29c-.58,1-1.17,1.76-2.07,1.27l-2.09-1.3c-.84-.46-.83-1.94-.3-2.9l3.74-5.81h-.17c-3.88,0-7.45,3.19-8.29,7.17a7.25,7.25,0,0,0,2.61,7.5l-2,9.57a2.2,2.2,0,0,0,1.33,2.57l2,.59c1,.32,2.37-1.44,2.6-2.64L303,106.2A9.1,9.1,0,0,0,309.58,99a7.48,7.48,0,0,0-1.3-5.92Z" transform="translate(-20.41 -5.05)"/></g><g id="Layer_6" data-name="Layer 6"><line class="cls-29" x1="329.09" y1="54.93" x2="338.11" y2="54.93"/><line class="cls-30" x1="340.32" y1="52.64" x2="338.11" y2="54.93"/><line class="cls-30" x1="338.11" y1="67.7" x2="338.11" y2="54.93"/><line class="cls-30" x1="340.32" y1="65.41" x2="338.11" y2="67.7"/><line class="cls-30" x1="340.32" y1="52.64" x2="340.32" y2="65.41"/><line class="cls-30" x1="331.81" y1="52.2" x2="331.88" y2="54.93"/><line class="cls-30" x1="329.09" y1="54.93" x2="331.81" y2="52.2"/><line class="cls-30" x1="329.09" y1="67.7" x2="338.11" y2="67.7"/><line class="cls-30" x1="329.09" y1="54.93" x2="329.09" y2="67.7"/><path class="cls-30" d="M349.5,70.33c0-1.1,2.06-2,4.6-2" transform="translate(-20.41 -5.05)"/><path class="cls-30" d="M358.53,70.13c0-1-2.17-1.77-4.85-1.77" transform="translate(-20.41 -5.05)"/><line class="cls-30" x1="329.09" y1="65.08" x2="338.11" y2="65.08"/><line class="cls-30" x1="330.11" y1="69.62" x2="336.53" y2="69.62"/><line class="cls-30" x1="330.11" y1="71.95" x2="336.53" y2="71.95"/><line class="cls-30" x1="336.53" y1="69.62" x2="336.53" y2="71.95"/><line class="cls-30" x1="330.11" y1="69.62" x2="330.11" y2="71.95"/><line class="cls-30" x1="335.12" y1="71.95" x2="335.12" y2="75.78"/><line class="cls-30" x1="338.95" y1="76.22" x2="335.69" y2="76.22"/><line class="cls-30" x1="335.12" y1="75.78" x2="335.69" y2="76.22"/><line class="cls-30" x1="332.12" y1="71.95" x2="332.12" y2="76.7"/><line class="cls-30" x1="333.85" y1="78.65" x2="332.12" y2="76.7"/><line class="cls-30" x1="338.95" y1="78.62" x2="333.69" y2="78.62"/><line class="cls-30" x1="342.08" y1="71.63" x2="354.02" y2="71.63"/><line class="cls-30" x1="342.08" y1="77.67" x2="354.02" y2="77.67"/><line class="cls-30" x1="356.47" y1="75.17" x2="353.99" y2="77.65"/><line class="cls-30" x1="342.08" y1="71.63" x2="342.08" y2="77.67"/><line class="cls-30" x1="354.02" y1="71.63" x2="354.02" y2="76.89"/><line class="cls-30" x1="356.47" y1="75.17" x2="354.02" y2="74.98"/><line class="cls-30" x1="354.02" y1="76.89" x2="354.48" y2="77.16"/><line class="cls-30" x1="342.34" y1="47.12" x2="351.14" y2="47.12"/><line class="cls-30" x1="344.89" y1="44.56" x2="353.57" y2="44.63"/><line class="cls-30" x1="351.14" y1="47.12" x2="353.6" y2="44.66"/><line class="cls-30" x1="342.34" y1="47.12" x2="344.89" y2="44.56"/><line class="cls-30" x1="342.34" y1="47.12" x2="342.34" y2="58.25"/><line class="cls-30" x1="351.14" y1="47.12" x2="351.14" y2="58.25"/><line class="cls-30" x1="342.34" y1="58.25" x2="351.14" y2="58.25"/><line class="cls-30" x1="353.6" y1="44.66" x2="353.6" y2="55.92"/><line class="cls-30" x1="351.14" y1="58.25" x2="353.54" y2="55.86"/><line class="cls-30" x1="344.03" y1="60.42" x2="344.03" y2="58.25"/><line class="cls-30" x1="350.44" y1="60.42" x2="350.44" y2="58.25"/><line class="cls-30" x1="344.03" y1="60.42" x2="350.44" y2="60.42"/><line class="cls-30" x1="353.07" y1="56.32" x2="353.07" y2="57.79"/><line class="cls-30" x1="350.44" y1="60.42" x2="353.07" y2="57.79"/><line class="cls-30" x1="354.78" y1="63.31" x2="366.56" y2="63.31"/><line class="cls-30" x1="355.87" y1="62.28" x2="367.56" y2="62.28"/><line class="cls-30" x1="354.78" y1="63.31" x2="358.47" y2="59.62"/><line class="cls-30" x1="357" y1="61.08" x2="368.71" y2="61.08"/><line class="cls-30" x1="366.56" y1="63.31" x2="370.13" y2="59.62"/><line class="cls-30" x1="358.47" y1="59.62" x2="370.13" y2="59.62"/><line class="cls-30" x1="357.83" y1="60.25" x2="369.56" y2="60.25"/><line class="cls-30" x1="354.78" y1="63.31" x2="354.78" y2="67.7"/><line class="cls-30" x1="366.56" y1="63.31" x2="366.56" y2="67.7"/><line class="cls-30" x1="354.78" y1="67.7" x2="366.56" y2="67.7"/><line class="cls-30" x1="368.15" y1="62.82" x2="370.55" y2="62.82"/><line class="cls-30" x1="367.77" y1="65.5" x2="368.35" y2="65.5"/><line class="cls-30" x1="370.55" y1="62.82" x2="370.55" y2="73.35"/><line class="cls-30" x1="368.35" y1="65.5" x2="368.35" y2="71.37"/><line class="cls-30" x1="370.55" y1="73.35" x2="366.14" y2="73.35"/><line class="cls-30" x1="368.35" y1="71.37" x2="364.3" y2="71.37"/><line class="cls-30" x1="366.14" y1="73.35" x2="366.14" y2="76.89"/><line class="cls-30" x1="364.3" y1="71.37" x2="364.3" y2="76.89"/><line class="cls-30" x1="370.13" y1="59.62" x2="370.13" y2="62.82"/><line class="cls-30" x1="366.56" y1="67.7" x2="368.4" y2="65.86"/><line class="cls-30" x1="368.15" y1="62.82" x2="367.6" y2="63.38"/><line class="cls-30" x1="367.77" y1="65.5" x2="367.6" y2="65.33"/><line class="cls-30" x1="367.6" y1="63.38" x2="367.6" y2="65.33"/><line class="cls-30" x1="356.63" y1="67.7" x2="356.63" y2="73.89"/><line class="cls-30" x1="358.32" y1="67.7" x2="358.32" y2="73.35"/><line class="cls-30" x1="366.56" y1="56.56" x2="366.56" y2="59.34"/><line class="cls-30" x1="350.89" y1="69.62" x2="350.89" y2="71.37"/><line class="cls-30" x1="329.57" y1="74.65" x2="331.85" y2="74.65"/><line class="cls-30" x1="337.93" y1="68.44" x2="337.93" y2="71.37"/><line class="cls-30" x1="361.04" y1="56.56" x2="337.93" y2="71.37"/><line class="cls-30" x1="349.48" y1="61.77" x2="349.48" y2="63.97"/><line class="cls-30" x1="360.97" y1="55.25" x2="360.97" y2="56.56"/><line class="cls-30" x1="343.68" y1="64.67" x2="343.68" y2="67.19"/><line class="cls-30" x1="343.42" y1="61.99" x2="342.97" y2="62.44"/><line class="cls-30" x1="343.39" y1="63.38" x2="343.39" y2="61.99"/><line class="cls-30" x1="350.44" y1="67.41" x2="350.6" y2="67"/><line class="cls-30" x1="351.34" y1="66.94" x2="350.6" y2="67"/><line class="cls-30" x1="350.52" y1="68.66" x2="351.34" y2="67.7"/><line class="cls-30" x1="351.34" y1="66.94" x2="351.34" y2="67.7"/><line class="cls-30" x1="350.52" y1="68.66" x2="351.76" y2="68.66"/><line class="cls-30" x1="327.24" y1="72.68" x2="326.54" y2="74.65"/><line class="cls-30" x1="327.75" y1="74.65" x2="326.54" y2="74.65"/><line class="cls-30" x1="327.75" y1="75.49" x2="327.75" y2="73.89"/><line class="cls-30" x1="366.43" y1="54.3" x2="367.16" y2="54.3"/><line class="cls-30" x1="366.43" y1="54.93" x2="367.16" y2="54.93"/><line class="cls-30" x1="367.16" y1="54.3" x2="367.48" y2="54.65"/><line class="cls-30" x1="366.56" y1="55.77" x2="367.16" y2="55.77"/><line class="cls-30" x1="367.16" y1="54.93" x2="367.48" y2="54.65"/><line class="cls-30" x1="367.16" y1="55.77" x2="367.42" y2="55.51"/><line class="cls-30" x1="367.16" y1="54.93" x2="367.42" y2="55.51"/><rect class="cls-30" x="343.61" y="48.62" width="6.48" height="8.44" rx="1.27"/><ellipse class="cls-30" cx="361.71" cy="48.86" rx="3.71" ry="4.47"/><ellipse class="cls-31" cx="360.97" cy="48.86" rx="3.71" ry="4.47"/><circle class="cls-30" cx="344.89" cy="74.65" r="1.68"/><circle class="cls-30" cx="350.44" cy="74.65" r="1.68"/></g></g><g id="guy_left" data-name="guy left"><ellipse class="cls-32" cx="19.19" cy="177.51" rx="5.49" ry="7.4"/><ellipse class="cls-32" cx="43.91" cy="177.51" rx="5.49" ry="7.4"/><path class="cls-33" d="M79.42,163.31a8.68,8.68,0,0,1,.13,1.81c0,.1,0,1.67-.2,1.67H75.11c-.22,0-.3-1.16-.3-1.74s0-1.74.3-1.74Z" transform="translate(-20.41 -5.05)"/><path class="cls-34" d="M64.61,185.72h5.88a6.26,6.26,0,0,0,6.26-6.26V159.67H70.68v17.46a2,2,0,0,1-2,2H64.61c-1.75.13-1.72,3-1.72,3.06C62.84,184.7,63.72,185.72,64.61,185.72Z" transform="translate(-20.41 -5.05)"/><path class="cls-34" d="M39.6,185.72h5.89a6.26,6.26,0,0,0,6.25-6.26V159.67H45.67v17.46a1.94,1.94,0,0,1-1.94,2H39.6c-1.75.13-1.71,3-1.71,3.06C37.83,184.7,38.72,185.72,39.6,185.72Z" transform="translate(-20.41 -5.05)"/><path class="cls-17" d="M47.34,163.31a8.07,8.07,0,0,1,.14,1.81c0,.1,0,1.67-.21,1.67H43c-.22,0-.31-1.16-.31-1.74s0-1.74.31-1.74Z" transform="translate(-20.41 -5.05)"/><path class="cls-35" d="M31.65,164.17l-9.75-3.61a2.45,2.45,0,0,1-1.49-2.42V56.81a2.66,2.66,0,0,1,1-2.18l10.22-7.17" transform="translate(-20.41 -5.05)"/><path class="cls-36" d="M31.65,47.46H86.92a1.92,1.92,0,0,1,1.92,1.91V162.26a1.91,1.91,0,0,1-1.92,1.91H31.65" transform="translate(-20.41 -5.05)"/><path class="cls-37" d="M11.23,127H68.43a0,0,0,0,1,0,0V156.7A2.43,2.43,0,0,1,66,159.12H11.23a0,0,0,0,1,0,0V127A0,0,0,0,1,11.23,127Z"/><rect class="cls-14" x="35.74" y="123.59" width="16.34" height="9.19" rx="2.28"/><path class="cls-13" d="M58.33,132.94v-2.49l.9.64v1.69l-.56.4Zm.9.87v1.69l-.9.64v-2.48l.34-.25Zm4.13-3.47-.89.64H59.39l-.89-.64Zm0,5.91H58.5l.89-.63h3.08Zm-1-3.27.46.32-.46.32H59.28l-.45-.32.45-.32Z" transform="translate(-20.41 -5.05)"/><path class="cls-13" d="M65.47,132.94v-2.49l.9.64v1.69l-.57.4Zm.9.87v1.69l-.9.64v-2.48l.33-.25Zm4-3.47-.89.64H66.52l-.89-.64Zm0,5.91h-4.7l.89-.63h2.92ZM69.55,133l.46.32-.46.32H66.42L66,133.3l.45-.32Zm0-.2v-1.69l.9-.64v2.49l-.33.24Zm.9.88v2.48l-.9-.64v-1.69l.57-.4Z" transform="translate(-20.41 -5.05)"/><path class="cls-37" d="M50.33,157.85A7.66,7.66,0,1,1,58,150.2,7.66,7.66,0,0,1,50.33,157.85Z" transform="translate(-20.41 -5.05)"/><path class="cls-38" d="M50.33,142.92a7.28,7.28,0,1,1-7.28,7.27,7.27,7.27,0,0,1,7.28-7.27m0-.75a8,8,0,1,0,8,8,8,8,0,0,0-8-8Z" transform="translate(-20.41 -5.05)"/><path class="cls-39" d="M55,152.6A5.2,5.2,0,0,0,50.33,145a5.19,5.19,0,0,0-2.41.61Z" transform="translate(-20.41 -5.05)"/><path class="cls-39" d="M45.77,147.66a5.21,5.21,0,0,0,7.16,7.06Z" transform="translate(-20.41 -5.05)"/><path class="cls-37" d="M74.29,157.85a7.66,7.66,0,1,1,7.65-7.65A7.66,7.66,0,0,1,74.29,157.85Z" transform="translate(-20.41 -5.05)"/><path class="cls-38" d="M74.29,142.92A7.28,7.28,0,1,1,67,150.19a7.27,7.27,0,0,1,7.28-7.27m0-.75a8,8,0,1,0,8,8,8,8,0,0,0-8-8Z" transform="translate(-20.41 -5.05)"/><path class="cls-39" d="M78.91,152.6a5.13,5.13,0,0,0,.61-2.41A5.23,5.23,0,0,0,74.29,145a5.16,5.16,0,0,0-2.41.61Z" transform="translate(-20.41 -5.05)"/><path class="cls-39" d="M69.73,147.66a5.21,5.21,0,0,0,7.16,7.06Z" transform="translate(-20.41 -5.05)"/><g id="Layer_11" data-name="Layer 11"><path class="cls-40" d="M88.5,85.3l-.72.46a19.83,19.83,0,0,1-2,1.11L76,91.43a.84.84,0,0,0-.35.3,1.22,1.22,0,0,0,.54,1.77,1,1,0,0,0,.72,0l11.65-4.12A25.64,25.64,0,0,1,88.5,85.3Z" transform="translate(-20.41 -5.05)"/><path class="cls-41" d="M89,121.9l-3.19-6a.65.65,0,0,0-.72-.31l-11.26,2.86v1l10.64,20.27a.62.62,0,0,0,.77.3l3.9-1.44C87.55,133.42,87.92,127.53,89,121.9Z" transform="translate(-20.41 -5.05)"/><path class="cls-42" d="M88.53,135.59V134.1a6,6,0,0,0-.37-2.06l-1.77-4.79a.78.78,0,0,0-.79-.51h0A1.63,1.63,0,0,0,84.13,128h0a5.12,5.12,0,0,0,0,2.27l0,.08a9.38,9.38,0,0,1,.22,3.21L84.25,135a1.07,1.07,0,0,1-.6.85h0a1.08,1.08,0,0,1-1.41-.46l-4.59-8.69-1.36,3.55a2,2,0,0,0-.14.76v.25a2.43,2.43,0,0,1-.44,1.38h0a2.2,2.2,0,0,0-.39,1.45h0a5.46,5.46,0,0,0,.64,2.1l4.72,8.53,7.85-4.66Z" transform="translate(-20.41 -5.05)"/><path class="cls-43" d="M84.37,139.26a12.52,12.52,0,0,0-1.58,2l-1.28,2a13,13,0,0,0-1.63,3.56l-.32,1.12a.52.52,0,0,0,.41.66l4.28.83s3.53,4.46,3.75,4.6.4.26.78.53c-.07-6.2-.21-12.54.12-18.74a13.1,13.1,0,0,0-3.65,2.61Z" transform="translate(-20.41 -5.05)"/></g><g id="Layer_10" data-name="Layer 10"><path class="cls-12" d="M126.24,90.13c0,.18.32,2.12.65,4.12a28.33,28.33,0,0,0,2.88,8.6l.43.81-13.53,4.47-2.37-3.23a.86.86,0,0,0-1.09-.25l-4.4,2.4a1.29,1.29,0,0,1-1.5-.2l-1-1a25.49,25.49,0,0,1-4.78-6.15h0l-2,.3a.54.54,0,0,1-.62-.42l-1-4.12a12.59,12.59,0,0,1-.32-2.8h0a15.47,15.47,0,0,0-.35-3.25L96.5,86.3l3.83-10.47,19.91-3.57Z" transform="translate(-20.41 -5.05)"/><path class="cls-44" d="M95.86,83.75a15.49,15.49,0,0,0,2.68,4.72c1.46,1.78,2.74,2.54,5.87,4.6,7.12,4.67,6.36,4.59,7.92,5.23,1.94.8,5.63,2.26,9.83,1.15a10,10,0,0,0,5.36-3.19,9.72,9.72,0,0,0,1.53-2.81,29.13,29.13,0,0,0,2.3-10,22.06,22.06,0,0,0-.89-8.68,16.32,16.32,0,0,0-15.2-11.87c-1.32-.1-9.72-.62-15.44,5.87C96.53,72.54,94.16,78.55,95.86,83.75Z" transform="translate(-20.41 -5.05)"/><path class="cls-12" d="M102.37,94.6a5.61,5.61,0,0,1-.25-3.58,5.44,5.44,0,0,1,1-3.06,3.9,3.9,0,0,1,3.18-1.53A4.74,4.74,0,0,1,109,87.58c1.12,1.37,1.39,2.39,1.28,4.59A5.52,5.52,0,0,1,108.12,96a3.59,3.59,0,0,1-3.2.77A4.64,4.64,0,0,1,102.37,94.6Z" transform="translate(-20.41 -5.05)"/><path class="cls-10" d="M126.18,64.62a10.08,10.08,0,0,0-5.85-3.76,33.21,33.21,0,0,0-15.67.31l-1.61.42a10.05,10.05,0,0,0-4,2.06,15.67,15.67,0,0,0-5,8.1h0l-.77,9A2.88,2.88,0,0,1,92,83l-4.21,2.7a18.82,18.82,0,0,1-2,1.11L76,91.35a.92.92,0,0,0-.35.3,1.22,1.22,0,0,0,.54,1.77,1,1,0,0,0,.72,0L92,88.09l14.47-5.48a81.71,81.71,0,0,1,8.72-2.46l11.28-2.53,4.45-1A24.5,24.5,0,0,0,126.18,64.62ZM114.71,74l-.61-1.73a4.38,4.38,0,0,1,.5-3.94l0-.07a4.43,4.43,0,0,1,2.26-1.71l.65-.22a4.41,4.41,0,0,1,4.14.73,4.36,4.36,0,0,1,1.44,2.06l.69,2.07Z" transform="translate(-20.41 -5.05)"/><path class="cls-14" d="M73.86,119.41,84.5,139.68a.62.62,0,0,0,.77.3l10.55-3.9a.62.62,0,0,0,.34-.88L85.84,115.84a.64.64,0,0,0-.71-.31l-11.27,2.86Z" transform="translate(-20.41 -5.05)"/><path class="cls-12" d="M88.52,135.51V134a5.82,5.82,0,0,0-.37-2.06l-1.77-4.79a.8.8,0,0,0-.79-.51h0a1.63,1.63,0,0,0-1.47,1.28h0a5.11,5.11,0,0,0,0,2.27l0,.08a9.38,9.38,0,0,1,.22,3.21l-.15,1.42a1.05,1.05,0,0,1-.6.85h0a1.08,1.08,0,0,1-1.41-.46l-4.58-8.69-1.37,3.55a2.18,2.18,0,0,0-.14.76v.25a2.34,2.34,0,0,1-.44,1.38h0a2.26,2.26,0,0,0-.39,1.45h0a5.31,5.31,0,0,0,.65,2.1l4.71,8.53L88.52,140Z" transform="translate(-20.41 -5.05)"/><path class="cls-9" d="M113.27,109.42a16.36,16.36,0,0,1,3.84-2.07l7.22-2.75,3.14-1.19a16,16,0,0,1,5.65-1h1.76a.34.34,0,0,1,.34.34v2.53l4.38,2.2a17.35,17.35,0,0,1,4.88,3.67h0a17.14,17.14,0,0,1,4.16,8l3.69,17v2.36a12.8,12.8,0,0,1-2,6.92h0L147.05,148s-6.55,3.32-6.89,3.41S114,154.22,114,154.22l-5.28-.77-.68-.68-5.84,5.28a4.44,4.44,0,0,1-.59.46l-.71.47a5.07,5.07,0,0,1-2.82.85h0a5.06,5.06,0,0,1-2.92-.92c-2.24-1.59-6.61-4.67-7.2-5-.22-.14-3.75-4.6-3.75-4.6L80,148.45a.53.53,0,0,1-.41-.66l.32-1.12a13,13,0,0,1,1.63-3.56l1.28-2a12,12,0,0,1,1.59-2l.87-.9a13,13,0,0,1,4.2-2.87h0l1.19.68,1.21-1.29a6.33,6.33,0,0,1,3.44-1.89l2.13-.4,5-12,2.16-3.28a19.08,19.08,0,0,1,4.75-5Z" transform="translate(-20.41 -5.05)"/><path class="cls-45" d="M97.33,132.76c-.07,0-.48,2.28-.84,4.32a38.09,38.09,0,0,0-.57,6.49v2.66l-1-1a5.58,5.58,0,0,1-1.68-4.75h0a5.58,5.58,0,0,1,.76-2.17Z" transform="translate(-20.41 -5.05)"/><path class="cls-45" d="M108.07,152.77l3.43-4a40.32,40.32,0,0,0,3.3-5.16l4.55-8.53s1.79,8,1.66,8.75-.12,8.61,0,9.38c.09.61-1.68.46-3.27.64a8.81,8.81,0,0,1-2.61.3l-2.82-.13a11.89,11.89,0,0,1-2-.18c-.63-.1-1.28.24-1.83-.09Z" transform="translate(-20.41 -5.05)"/><path class="cls-14" d="M119.86,238c-.13.38,0,10.34,0,10.34l-9.32.8q-4.08.35-8.19.35H91.52v-2.21l9.8-3a10.36,10.36,0,0,0,3.52-1.86l7.36-5.92Z" transform="translate(-20.41 -5.05)"/><path class="cls-14" d="M148.71,231.49c-.11.39,0,10.34,0,10.34l-8,.8a69.33,69.33,0,0,1-7,.35h-9.32v-2.21l8.43-3a8.46,8.46,0,0,0,3-1.85l6.33-5.92Z" transform="translate(-20.41 -5.05)"/><path class="cls-46" d="M128.4,176.81s1,26.43,1,26.81,1.65,13.79,1.78,14.3,3.45,16.59,3.45,16.59l7.66.64,8.3-.64L150,200.94l-.54-33.45-.13-10.63-18.74,12.42Z" transform="translate(-20.41 -5.05)"/><path class="cls-10" d="M109.52,111.71V111a1.36,1.36,0,0,1,.89-1.28l5.23-1.95a.87.87,0,0,1,1,.26l2.59,3.13a3.13,3.13,0,0,1,.39.72l.78,1.51a105.64,105.64,0,0,1,5.75,23.37L128,151.23a.3.3,0,0,0,.35.25l13-2.17a.26.26,0,0,0,.22-.28L140,124.09l-.64-5.32A54,54,0,0,0,136,105.66h0l3,.81c1.79.83,2.05,1.46,3,2.81l.32.81c.63.89.47,1.41.65,2.48l2.16,13.31,1.91,23.22,1.82,5.81a12.68,12.68,0,0,1,.45,5.61h0a12.74,12.74,0,0,1-4.91,8.35l-3.11,2.36a39,39,0,0,0-6,5.68h0a30.5,30.5,0,0,0-5.92,10.72h0a52.46,52.46,0,0,0-1.93,8.65l-2,14.36-2.3,14.94-.6,4.77a55.5,55.5,0,0,0-.42,6.82v3.47h-3.42a21.53,21.53,0,0,1-8.08-1.58l-3.31-1.35v-32.3l.72-25.79.43-25.87,10.88-.47a.81.81,0,0,0,.77-.76h0a73.45,73.45,0,0,0-1.07-16l-.1-.56a85.39,85.39,0,0,0-5.34-18h0a19.39,19.39,0,0,0-4.12-6.19Z" transform="translate(-20.41 -5.05)"/></g></g></svg>