<svg id="Layer_3" data-name="Layer 3" xmlns="http://www.w3.org/2000/svg" viewBox="0 0 483.64 114.2"><defs><style>.cls-1{fill:#fff;}</style></defs><rect class="cls-1" x="140.42" width="17.04" height="63.29" rx="0.85"/><path class="cls-1" d="M126,108.45,65.74,4.43a3.7,3.7,0,0,0-6.4,0L.18,107.3A4.44,4.44,0,0,0,4.05,114H122.78a3.7,3.7,0,0,0,3.7-3.69A3.81,3.81,0,0,0,126,108.45ZM82.06,72a26.41,26.41,0,0,1-2.59,7.57,40.75,40.75,0,0,0-2,4.67c-1.7,4.87-1.68,5-1.46,6.94.37,3.27.89,6.52,1,7.44a9,9,0,0,1-8.88,10.46h0A9,9,0,0,1,62.48,107,67.26,67.26,0,0,1,50,93.24c-2.79-4.31-5-7.71-6.1-13.12a34.24,34.24,0,0,1,.95-16.76,30.72,30.72,0,0,1,3.62-8.13c.58-1,1.25-2.13,2.13-3.81a22,22,0,0,0,2.57-9.6,25.62,25.62,0,0,0-.92-7.74,9,9,0,0,1,16.42-7c.75,1.29,2.38,4.23,4.89,9.39l1.54,3.18A96,96,0,0,1,80.06,50.9a41.17,41.17,0,0,1,2.5,9.84A38.18,38.18,0,0,1,82.06,72Z" transform="translate(0.43 0.2)"/><path class="cls-1" d="M61,31.5a.1.1,0,0,0-.17.09A34.93,34.93,0,0,1,62.1,42.11a30.9,30.9,0,0,1-3.57,13.43c-2.85,5.47-3.76,5.79-5.1,10.35a25.48,25.48,0,0,0-.77,12.46c.76,3.7,2.23,6,4.86,10.07A57.65,57.65,0,0,0,68.2,100.15a.09.09,0,0,0,.13,0,.1.1,0,0,0,0-.09c-.15-1-.7-4.39-1.1-7.85-.48-4.1.13-5.85,1.92-10.91,2.2-6.23,3.34-6.41,4.21-11a29.27,29.27,0,0,0,.38-8.61,32.32,32.32,0,0,0-2-7.83c-1.53-4.22-2.64-6.29-6.17-13.58C63.17,35.39,61.67,32.67,61,31.5Z" transform="translate(0.43 0.2)"/><path class="cls-1" d="M243.53,8.52a20.55,20.55,0,0,0-8.1-6.89,17.17,17.17,0,0,0-7.2-1.83H169.29V63.09h58.94a16.86,16.86,0,0,0,7.65-2.16,16.92,16.92,0,0,0,5.23-4c2.19-2.39,4-5.38,4.35-7.69a12.13,12.13,0,0,0,.2-1.7V15A12.57,12.57,0,0,0,243.53,8.52Zm-14.68,32.1a6.56,6.56,0,0,1-.11.89,8.79,8.79,0,0,1-2.44,4.12,9.4,9.4,0,0,1-2.92,2.16A9.92,9.92,0,0,1,219.1,49h-33V15h33a10.07,10.07,0,0,1,4,1,11.65,11.65,0,0,1,4.53,3.7,6.55,6.55,0,0,1,1.19,3.46Z" transform="translate(0.43 0.2)"/><rect class="cls-1" x="271.39" y="0.61" width="43.93" height="13.18"/><rect class="cls-1" x="267.45" y="25.45" width="64.99" height="12.73"/><path class="cls-1" d="M275.65,49H332V63.09H275.65Z" transform="translate(0.43 0.2)"/><path class="cls-1" d="M269.25,62.43s-5.2-1.06-8.41-3.86a16.72,16.72,0,0,1-4.2-5.45,20,20,0,0,1-1.37-5.22V15.18s0-4.84,1-6.5a13.45,13.45,0,0,1,3.86-4.95,14.3,14.3,0,0,1,3.52-2.16A12,12,0,0,1,268.9.43H275l7,13.18s-3.15-1-6.74,2.41a10.67,10.67,0,0,0-3,4.84c-1.13,4-.61,13.28-.61,13.28l.2,6.73a15.56,15.56,0,0,0,.33,3.19,7,7,0,0,0,2.47,3.6A5.92,5.92,0,0,0,278.3,49l-1.89,14.1-1.07.06a9.74,9.74,0,0,1-2.09-.1Z" transform="translate(0.43 0.2)"/><path class="cls-1" d="M392.09,1.21a1.55,1.55,0,0,0-1.28-.8H367.75a1.53,1.53,0,0,0-1.27.81L338,62.29a.52.52,0,0,0,.14.72.54.54,0,0,0,.37.08h16.86a1.4,1.4,0,0,0,1.21-.82L360.63,52a1.38,1.38,0,0,1,1.21-.82h35.79a1.53,1.53,0,0,1,1.3.8l5,10.32a1.55,1.55,0,0,0,1.25.8h16.09a.51.51,0,0,0,.59-.42.54.54,0,0,0-.08-.37ZM368.06,39a.52.52,0,0,1-.59-.44.48.48,0,0,1,.09-.36l11.63-23.83c.22-.45.57-.45.79,0l11.93,23.85a.52.52,0,0,1-.1.71.51.51,0,0,1-.39.09Z" transform="translate(0.43 0.2)"/><path class="cls-1" d="M446.92,48a7.53,7.53,0,0,1-7.5-7.49V.43H423.08V45.18A18,18,0,0,0,441,63.12h40.79c.32,0,.64,0,1,0V48Z" transform="translate(0.43 0.2)"/><rect class="cls-1" x="175.95" y="77.57" width="36.81" height="5.76" rx="0.76"/><rect class="cls-1" x="190.94" y="80.45" width="6.67" height="31.06" rx="0.83"/><path class="cls-1" d="M233.82,78.16a1.64,1.64,0,0,0-1.34-.79h-6.09a1.57,1.57,0,0,0-1.29.8l-16.16,32.36a.5.5,0,0,0,.11.71.51.51,0,0,0,.38.09h4.89a1.52,1.52,0,0,0,1.25-.83l2-4.29a1.53,1.53,0,0,1,1.27-.81h21.55a1.57,1.57,0,0,1,1.28.8l2.1,4.33a1.55,1.55,0,0,0,1.28.8h5.19a.5.5,0,0,0,.58-.4.52.52,0,0,0-.1-.4ZM221.4,99.79a.48.48,0,0,1-.58-.39.49.49,0,0,1,.09-.39l7.89-15.09c.23-.44.6-.44.83,0L237.51,99a.49.49,0,0,1-.09.69.45.45,0,0,1-.39.09Z" transform="translate(0.43 0.2)"/><path class="cls-1" d="M376.43,78.16a1.61,1.61,0,0,0-1.3-.79H369a1.57,1.57,0,0,0-1.28.8l-16.18,32.36a.51.51,0,0,0,.49.8H357a1.53,1.53,0,0,0,1.26-.81l2-4.31a1.53,1.53,0,0,1,1.26-.81H383a1.55,1.55,0,0,1,1.28.8l2.09,4.33a1.55,1.55,0,0,0,1.28.8h5.19a.5.5,0,0,0,.58-.39.51.51,0,0,0-.1-.41ZM364,99.79a.49.49,0,0,1-.49-.78l7.89-15.09c.23-.44.6-.44.83,0L380.15,99a.49.49,0,0,1-.09.69.45.45,0,0,1-.39.09Z" transform="translate(0.43 0.2)"/><path class="cls-1" d="M257.93,77.37h11.49a.61.61,0,0,1,.49.25l21.45,28.75a.61.61,0,0,0,.85.12.62.62,0,0,0,.24-.49V78a.61.61,0,0,1,.61-.61h4.24a.6.6,0,0,1,.6.61h0v32.73a.6.6,0,0,1-.6.6H286.08a.65.65,0,0,1-.48-.23L263.71,82.71a.61.61,0,0,0-1.09.37v27.63a.6.6,0,0,1-.59.6h-4.1a.6.6,0,0,1-.61-.6h0V78a.61.61,0,0,1,.61-.61Z" transform="translate(0.43 0.2)"/><path class="cls-1" d="M307.62,78.28V110.4a.89.89,0,0,0,.89.89h25.68A12.81,12.81,0,0,0,347,98.52V90.33a13,13,0,0,0-13-13H308.53a.89.89,0,0,0-.91.88ZM335,105.4H314.12a.89.89,0,0,1-.89-.89V84a.89.89,0,0,1,.89-.89h20.23a7.35,7.35,0,0,1,7.35,7.35v8.24A6.68,6.68,0,0,1,335,105.4Z" transform="translate(0.43 0.2)"/><path class="cls-1" d="M443.82,78.28V110.4a.89.89,0,0,0,.89.89h25.68a12.81,12.81,0,0,0,12.82-12.77V90.33a13,13,0,0,0-12.95-13H444.72a.89.89,0,0,0-.9.88Zm27.42,27.12H450.32a.89.89,0,0,1-.89-.89V84a.89.89,0,0,1,.89-.89h20.26a7.35,7.35,0,0,1,7.34,7.35h0v8.24a6.66,6.66,0,0,1-6.68,6.66Z" transform="translate(0.43 0.2)"/><path class="cls-1" d="M399,78.21V99a.85.85,0,0,0,.85.83h27.54A8.52,8.52,0,0,0,436,91.4V87a9.67,9.67,0,0,0-9.79-9.55h-26.4A.86.86,0,0,0,399,78.21Zm25.21,16.91H405.43a.86.86,0,0,1-.86-.84V84a.85.85,0,0,1,.86-.83h19.14a5.3,5.3,0,0,1,5.37,5.23h0v1.13a5.69,5.69,0,0,1-5.76,5.61Z" transform="translate(0.43 0.2)"/><path class="cls-1" d="M403.9,111.31h-4.4a.53.53,0,0,1-.53-.53h0V82.6a.54.54,0,0,1,.52-.55h4.41a.53.53,0,0,1,.53.53h0v28.2A.53.53,0,0,1,403.9,111.31Z" transform="translate(0.43 0.2)"/><path class="cls-1" d="M427,111.31h8.6a.45.45,0,0,0,.45-.45.45.45,0,0,0-.23-.39L412.86,97.88a.54.54,0,0,0-.21,0h-7.77a.45.45,0,0,0-.45.44v1.25a.46.46,0,0,0,.25.4l22.08,11.34A.46.46,0,0,0,427,111.31Z" transform="translate(0.43 0.2)"/><path class="cls-1" d="M165.44,77.78v4.94a.41.41,0,0,1-.41.41H150.92a3.79,3.79,0,0,0-3.78,3.79h0v.27A3.74,3.74,0,0,0,150.87,91h16.25a8.39,8.39,0,0,1,8.4,8.37v3.75a8.24,8.24,0,0,1-8.24,8.24H142.55a.41.41,0,0,1-.41-.41h0v-5.26a.41.41,0,0,1,.41-.41h23.62a3.9,3.9,0,0,0,3.91-3.9h0a4,4,0,0,0-4-4H150.83a8.69,8.69,0,0,1-8.69-8.69h0V85.4a8,8,0,0,1,8-8H165a.41.41,0,0,1,.43.39Z" transform="translate(0.43 0.2)"/></svg>