<?xml version="1.0" encoding="utf-8"?>
<!-- Generator: Adobe Illustrator 25.0.1, SVG Export Plug-In . SVG Version: 6.00 Build 0)  -->
<svg version="1.1" id="Layer_1" xmlns="http://www.w3.org/2000/svg" xmlns:xlink="http://www.w3.org/1999/xlink" x="0px" y="0px"
	 viewBox="0 0 331.4 114" style="enable-background:new 0 0 331.4 114;" xml:space="preserve">
<style type="text/css">
	.st0{fill:#FFFFFF;}
</style>
<path class="st0" d="M289.5,0.9c-0.3,0.5-1.4,1.1-2.3,1.2c-2.8,0.5-9,3.7-12,6.2c-3.1,2.7-6,6.2-7.3,9.1c-0.5,1.1-1.1,2.4-1.3,2.8
	c-1.2,2.2-1.6,11.5-1.5,40.7l0.1,30.4h-16.6L248.4,47l-0.1-44.4h-24.8l-0.1,54.7c-0.1,30.1-0.1,55,0,55.2c0.3,0.7,41.5,0.7,41.9-0.1
	c0.2-0.3,0.3-4,0.3-8.4c-0.1-5.1,0.1-7.8,0.5-7.8c0.8,0,2.5,1.9,2.8,3.3c0.1,0.7,0.5,1.3,0.7,1.3c0.3,0,0.6,0.4,0.8,1
	c0.7,2.3,8.5,8.7,11.5,9.4c0.8,0.2,1.5,0.6,1.6,0.8c0.1,0.2,1.3,0.6,2.5,0.8c1.3,0.1,2.4,0.5,2.6,0.8c0.4,0.6,17.8,0.6,18.1,0
	c0.1-0.3,1.3-0.6,2.6-0.8c1.2-0.2,2.4-0.6,2.5-0.8c0.1-0.3,0.9-0.6,1.6-0.8c2.2-0.6,6.8-3.8,9.6-6.7c2.7-2.8,5.4-7.6,6.3-11.2
	c0.4-1.3,0.9-2.1,1.3-2.1c0.7,0,0.8-4.5,0.8-33.7c0-29.4-0.1-33.7-0.8-33.7c-0.4,0-0.9-0.6-1.1-1.4c-0.7-3-4-8.8-6.4-11.3
	c-2.9-2.9-8.6-6.8-10.6-7.3c-0.8-0.2-1.5-0.6-1.6-0.8c-0.1-0.2-1.3-0.6-2.6-0.8c-1.6-0.3-2.4-0.6-2.5-1.3c-0.3-0.9-0.9-1-8-1
	C290.9,0,290.1,0.1,289.5,0.9L289.5,0.9z M301.9,25.9c0.8,0.7,1.6,1.5,2.3,2.3l1.1,1.4v55.7l-1.2,1.7c-1.8,2.4-3.5,3.2-6.2,3.3
	c-2,0.1-2.8-0.3-4.4-1.5c-3.5-2.8-3.5-3-3.2-33.3l0.3-26.8l2.2-2C295.7,24.2,299.3,23.8,301.9,25.9L301.9,25.9z M0,57.7V113
	l12.6-0.1l12.5-0.1l0.3-26.1c0.1-14.3,0.5-26.1,0.7-26.1c0.5,0,1.7,2.2,4.2,7.6c2.8,6.2,4.5,9.7,6.7,14.4c1.1,2.4,2.5,5.4,3.1,6.8
	c0.6,1.4,2,4.4,3,6.6c1.1,2.2,2.8,5.9,3.8,8.1s2.3,5,2.9,6.2c0.6,1.3,1.4,2.2,2.1,2.4c0.6,0.1,11.9,0.2,24.9,0.1l23.8-0.1l0.1-55.1
	l0.1-55.1L88.7,2.6L76.5,2.8v53.4c0,42.2-0.1,53.3-0.7,53.3c-1,0-1.7-0.7-2.1-2c-0.2-0.7-1-2.6-1.8-4.3c-3.2-6.9-4.8-10.3-6.1-13.2
	c-0.8-1.7-2.2-4.8-3.2-6.8c-1-2.1-2.5-5.4-3.4-7.3c-1.4-3.1-2.8-6.2-6.7-14.3c-1.2-2.5-1-3.2,1-4.5c2.3-1.5,4-3.2,5.6-5.4
	c0.8-1.1,1.5-2.2,1.7-2.3c0.4-0.4,1.8-3.4,2.8-5.8c1.1-2.7,1.9-10.3,1.5-14.4c-1-10-7-18.5-16.3-23.2c-6.6-3.2-6.6-3.2-28.6-3.3H0
	V57.7z M34.3,22.6c1.8,1.2,2.4,1.9,3.9,4.5c1,1.9,1.1,2.7,1.1,10.9c0,7.6-0.1,9.1-1,10.8c-2.1,4.5-6.6,7.9-10.6,8.1L25.6,57
	l-0.1-17.4c-0.1-13.6,0.1-17.6,0.5-17.9C27,20.9,32.6,21.6,34.3,22.6L34.3,22.6z M112.6,57.6l0.1,55.1h53.7V91.9l-13.9-0.1
	c-7.6-0.1-14.1-0.3-14.3-0.6c-0.5-0.5-0.6-24.5-0.1-25.3c0.2-0.4,4-0.6,11.5-0.6h11.1V56c0-5.2-0.1-9.4-0.4-9.4
	c-0.3-0.1-5.2-0.1-11.2-0.1c-5.9-0.1-10.8-0.2-11-0.4c-0.5-0.5-0.5-23.9-0.1-24.3c0.3-0.3,6.1-0.6,13.4-0.6l12.9-0.1V2.8l-26-0.1
	l-25.9-0.1L112.6,57.6z M173.3,57.7V113l21.7-0.1l21.6-0.1V91.9l-8.6-0.1c-7.3-0.1-8.7-0.3-9.2-1c-0.5-0.7-0.7-10.4-0.7-44.6V2.5
	h-24.8V57.7z"/>
</svg>
