<?xml version="1.0" encoding="utf-8"?>
<!-- Generator: Adobe Illustrator 25.0.1, SVG Export Plug-In . SVG Version: 6.00 Build 0)  -->
<svg version="1.1" id="Layer_1" xmlns="http://www.w3.org/2000/svg" xmlns:xlink="http://www.w3.org/1999/xlink" x="0px" y="0px"
	 viewBox="0 0 520.6 114" style="enable-background:new 0 0 520.6 114;" xml:space="preserve">
<style type="text/css">
	.st0{fill-rule:evenodd;clip-rule:evenodd;fill:#FFFFFF;}
	.st1{fill:#FFFFFF;}
</style>
<path class="st0" d="M132.4,76.8h10.7v4.3c0,1.7,0.4,3.4,0.9,4c0.9,0.7,2.1,1.1,3.3,1.1c3.3,0,4.7-1.7,4.7-5.1
	c0-2.6-2.1-4.7-5.1-7.3c-5.4-3.4-8.8-6.3-9.3-7c-3.1-3.4-4.7-8.1-4.7-12.7v-1.3c0-4.7,1.6-8.3,3.8-10.4c2-2.6,6.4-4.3,10.5-4.3
	c4.3,0,8,1.7,10.5,4.3c3.1,2.8,4.8,7.4,4.8,13.4V57h-10.7c0-2.8-0.4-5.3-0.9-6.6c-1.3-1.3-2.8-2.3-3.8-2.3c-1,0-1.9,0.3-2.6,1
	c-0.7,0-1.1,2-1.1,3.7c0,2.3,1.6,4.7,4.7,6.3c3,2.2,5.9,4.4,8.8,6.7c3.3,2.7,5.6,6.8,5.6,11v2.6c0,5.7-1.7,10.8-4.8,13.4
	c-2.1,2.1-6.3,3.4-10.5,3.4c-4.1,0-8-1.3-10.5-3c-2.7-2.4-4.3-5.8-4.3-10L132.4,76.8L132.4,76.8z M187.4,74.4
	c-2.4,1.1-4.7,2.4-4.7,2.4c-2.3,1.3-3.3,4.3-3.3,7c0,1.3,0.4,2.4,1,2.4c0.7,0.6,1.7,1.1,2.8,1.1c0.9,0,2.1-0.6,2.6-1.1
	c1.1-0.6,1.6-2.4,1.6-4.1L187.4,74.4L187.4,74.4z M187.8,91.5c-0.9,1.3-2.9,3-4.1,3.4c-1.6,0.9-3.8,1.3-5.1,1.3
	c-2.8,0-5.6-1.3-7.1-3c-1.4-1.7-2.6-5.1-2.6-8.7c0-3,1.1-6,2.1-7.7c1-1.3,3.3-3,5.1-4.1c1.3,0,3.7-1.6,7.6-2.9
	c1.3,0,2.1-1.3,2.6-1.7c0.7-0.6,1.1-1.7,1.1-2.3c0-1.1-0.4-2.4-1.1-3c-0.4-1.1-1.3-2-2.6-2c-1,0-2.6,0.9-2.6,1.3
	c-0.7,1.3-1.3,3-1.3,5.4h-10.5c0-4.7,1.7-8.4,3.7-10.5c2.3-2.4,6-3.6,10.3-3.6c5.1,0,9.7,1.1,11.5,3.6c2.1,1,3.3,4.7,3.3,8.8v27.4
	c0,0.6,0.4,1.7,0.4,1.7h-10.7L187.8,91.5L187.8,91.5L187.8,91.5z M222.7,89.8c-1.9,4-5.1,6.4-8.4,6.4c-2.4,0-5.1-0.4-6.1-1.7
	c-1.3-1.3-2.1-4.3-2.1-6.4V53.5h10.5v29.8c0,0.8,0.2,1.7,0.6,2.4c0.6,0.4,1.4,0.6,2.1,0.6c0.4,0,1.6-0.6,2-0.6c0.4-0.6,1-1.9,1-2.4
	V53.5h10.5v41.5h-10.1L222.7,89.8L222.7,89.8z M242.5,94.9V54.2h10v5c0.4-1.6,2.3-3.3,3.3-4c0.9-1,3.3-1.7,4.6-1.7
	c2.3,0,4.3,1.1,6,2.4c1.6,1.1,2.7,3.3,2.7,5.8v33.2h-10.7V66.9c0-0.4-0.4-1.7-0.4-2.1c-0.9-0.9-1.7-1.3-2.1-1.3
	c-0.6,0-1.6,0.4-1.6,0.4c-0.6,0.9-1.3,2-1.3,3v28.1L242.5,94.9z M279,94.9V54.2h10.7v40.7L279,94.9z M279,49.9v-10h10.7v10L279,49.9
	L279,49.9z M309.2,76.4v8.1c0,0.8,0.2,1.5,0.4,2.3c0.4,0.6,1.7,1.3,2.8,1.3c0.9,0,2.6-0.7,3.1-1.9c0-0.6,0.4-3,0.4-5.1h10.8
	l-0.9,1.7c0,4-1,7.4-3,10c-2.1,2.1-5.8,3.4-10.1,3.4c-4.3,0-8.4-1.3-10.7-2.4c-2-1.7-3.7-5.3-3.7-9.3v-17c0-4.7,1.7-8.4,3.7-10.5
	c2.3-2.4,6.4-3.6,10.7-3.6c4.3,0,8,1.1,10.1,2.8c2.6,1.7,4.3,5.4,4.3,8.8v11.3L309.2,76.4L309.2,76.4z M309.2,68.6h7.4v-1.7
	c0-1.7-0.6-3.4-1-4c-0.6-1.1-1.7-2-2.7-2c-1.6,0-3.3,0.9-3.3,2c0,1-0.4,3-0.4,4.7V68.6z M335.1,94.9V54.2h10v6.3
	c0-1.7,1.7-3.4,2.7-4.6c1-1.3,3.3-2.4,5.4-2.4v13.4h-1.7c-0.4,0-1.6-0.4-1.6-0.4c-1.1,0-2.7,0.4-3.1,0.4c-0.4,0.7-0.9,2.4-0.9,3.6
	v24.5L335.1,94.9z M363.7,94.2V40.5h15.4c5.8,0,12.7,2,14.7,3.4c1,0.6,4.3,4.7,5,6.3c7.8,11.5,7.7,33.3-5.8,41.3
	c-1.3,0.6-8,2.7-11.4,2.7L363.7,94.2L363.7,94.2z M376.5,81.4c3.4,0,6.4,0,7.8-0.9c7.8-3.7,9-24.9,0-26.9c-0.4-1-4.4-0.9-7.8-0.9
	V81.4L376.5,81.4z M426.1,89.2c-2.1,4-5.6,6.3-9,6.3c-3,0-6.7-1.6-7.1-1.7c-0.1-0.4-2.1-4.1-2.1-6.3V53.6h11.4v29.2
	c0,0.3,0.4,2.1,0.4,2.1s1.3,0.9,2.6,0.9c0.4,0,1.7-0.9,2.1-0.9c0.7-0.4,1.3-1.7,1.3-2.1V53.6h11.4v40.6h-11L426.1,89.2L426.1,89.2z
	 M450.2,94.2l-8.4-40.6h11.4l3.4,26.5l4.7-26.5h11l-8.5,40.6H450.2z M491.8,74.8c-1.8,0.7-3.5,1.4-5.1,2.3c-2.6,1.3-3.4,4-3.4,7
	c0,0.9,0.4,2.1,0.9,2.1c0.9,0.4,1.7,1.3,3,1.3c1.3,0,2.3-0.9,3-1.3c1-0.4,1.7-2.1,1.7-3.8L491.8,74.8L491.8,74.8z M492.2,91.5
	c-1.1,1-3.6,3.4-4.6,3.4c-1,0.1-4,1-5.7,1c-2.8,0-5.8-1-7.6-2.7c-1.7-1.7-2.8-5.3-2.8-8.7c0-2.7,1.7-6.1,2.4-7.4
	c0.4-0.7,3.4-2.7,5.8-4c1.1,0,3.8-1.7,7.8-3c1.1,0,2.8-1.4,2.8-1.7c0,0,1.3-1.7,1.3-2.1c0-1-0.7-2.3-1.3-2.7
	c-0.4-1.3-1.7-1.9-2.8-1.9c-1,0-2.7,0.6-2.7,1c-0.9,1.3-1.3,3-1.3,5.3h-11.4c0-4.4,2.1-8.5,3.8-10.4c2-1.9,6.3-3.3,11-3.3
	c5.8,0,10.5,1,12.7,3.3c2.1,1.1,3.4,5.7,3.4,8.7v26.9c0,0.6,0.6,1.7,0.6,1.7h-11.5L492.2,91.5L492.2,91.5L492.2,91.5z M509,94.2
	V40.5h11.5v53.7H509z"/>
<path class="st1" d="M84.6,61.6c-5.5,1.8-10.9,3.7-16.3,5.5l8.6-11.7L36,0l-8.5,4.5L61.9,52h-3.4L24.8,6.5l-7.4,5.8L46.9,52h-4.5
	L14.6,15.4l-5.1,6.9L31,52h-4.5L7.1,25.7l-4,9.5L14.3,52H9.5L2.1,40.7c-11.7,44.2,28.4,75.4,59.9,73.2c41.4-2.2,55.4-36.7,57.1-52.3
	C127.3,8.9,59.6,23,84.6,61.6z M97.8,52.6c-2.8,0-5.1-2.3-5.1-5.1c0-2.8,2.3-5.1,5.1-5.1c2.8,0,5.1,2.3,5.1,5.1
	C102.9,50.3,100.6,52.6,97.8,52.6L97.8,52.6z"/>
</svg>
