<?xml version="1.0" encoding="utf-8"?>
<!-- Generator: Adobe Illustrator 25.0.1, SVG Export Plug-In . SVG Version: 6.00 Build 0)  -->
<svg version="1.1" id="Layer_3" xmlns="http://www.w3.org/2000/svg" xmlns:xlink="http://www.w3.org/1999/xlink" x="0px" y="0px"
	 viewBox="0 0 289.4 114" style="enable-background:new 0 0 289.4 114;" xml:space="preserve">
<style type="text/css">
	.st0{fill:#FFFFFF;}
</style>
<path class="st0" d="M63.4,4.5v17.7c0,0-14-7.5-29-4.9c-2.6,0.5-7.5,1.2-9.6,4.9c-3.3,5.4,1.4,12.8,1.6,13.1
	c4.2,6.5,15.9,12.1,24.1,16.3c1.2,0.5,9.6,5.1,15.4,17.5c5.6,11.4,3,28.7-7,37.6c-3.3,2.8-6.5,4-12.8,5.8
	c-7.7,2.3-44.8-0.2-44.8-0.2l0.2-17.5c0,0,5.6,2.6,20.1,1.9c8.6-0.2,19.4,0.2,22.4-4.9c2.8-4.7,0.9-10-0.7-12.1
	c-6.8-9.8-14-8.9-27.1-19.9c-6.1-4.9-10.5-8.9-13.5-15.9s-3.5-14.7-1.2-22C4.7,11.5,12.9,6.1,16.7,3.8C31.6-5.1,63.4,4.5,63.4,4.5z"
	/>
<polyline class="st0" points="63.4,22.5 161.9,22.5 179.7,57 206.8,2.8 224.5,2.8 188.5,74.8 189,114 163.3,114 161.9,71.7 
	143.9,35.5 63.4,37.2 63.4,22.5 63.4,22.5 "/>
<polygon class="st0" points="98.4,50.9 122.7,43.7 122.7,114 98.4,114 "/>
<polygon class="st0" points="214.2,23.4 243,23.4 252.3,43.7 271.9,2.8 289.4,2.8 262.3,58.4 289.4,114 261.4,114 247.9,86.7 
	234.1,114 217,114 239.5,68.7 "/>
</svg>
