<?xml version="1.0" encoding="utf-8"?>
<!-- Generator: Adobe Illustrator 25.0.1, SVG Export Plug-In . SVG Version: 6.00 Build 0)  -->
<svg version="1.1" id="Layer_1" xmlns="http://www.w3.org/2000/svg" xmlns:xlink="http://www.w3.org/1999/xlink" x="0px" y="0px"
	 viewBox="0 0 488 114" style="enable-background:new 0 0 488 114;" xml:space="preserve">
<style type="text/css">
	.st0{fill-rule:evenodd;clip-rule:evenodd;fill:#FFFFFF;}
</style>
<g id="Layer_1_1_">
	<path class="st0" d="M47,88.7c0,0,3.6-1.3,2.3-12.5C48,64.7,41.7,54.1,37.1,52.5c-4.6-1.7-5.6,2-6.3,6.3c-1,3.6-1.3,12.5,5.3,19.1
		c6.6,6.3,6.9,8.9,6.9,8.9s-3.6,2.3-5,4.6c-1,2-1,8.9,4,9.9c4.6,1,6.3,0,7.3-2c0.7-2.3,1.3-4.6-0.7-5.3C45,94,47,88.7,47,88.7
		L47,88.7z M29.3,32.2c1,2.6-13.2-18.8-16.9-21.9c-2-3.5-8.3-4.3-4.6,3.6c3.3,7.9,16,23,18,25.7c0,0,0,0,0,0c0.6,0.7,8,4.1,8,4.1
		L29.3,32.2z M57.2,88.7c0,0-3.3-1.3-2.3-12.5c1.3-11.5,7.9-22.1,12.2-23.7c4.6-1.7,5.6,2,6.6,6.3c0.7,3.6,1,12.5-5.6,19.1
		c-6.6,6.3-6.9,8.9-6.9,8.9s4,2.3,5,4.6c1,2,1,8.9-4,9.9c-4.6,1-6.3,0-7.3-2c-0.7-2.3-1.3-4.6,0.7-5.3C59.2,94,57.2,88.7,57.2,88.7
		L57.2,88.7z M52.6,113.8c0,0.3-7.9-2.3-10.9-7.3l-10.2-5.6c-5-4.6-5.3-13.9-4.6-27.4l1.3-2.3c-4.3-7.3-3.3-19.1,1.3-24.1
		c0,0-20.8-24.7-25.4-32.6c-5-7.9-5.6-10.2-1-13.9c4.6-3.3,32.6,26.7,39.3,38.6c0,0,7.9-1.3,9.9-1.3c3.6,0,9.6,1.7,9.9,1.3
		c4.6-13.5,36.9-40.9,40.2-38.6c3.6,2.3,2,2-1,12.2c-3.3,9.9-26.7,34.3-26.7,34.3c4.6,5,5.6,16.8,1.3,24.1l1.3,2.3
		c0.7,13.5,0.7,22.8-4.6,27.4l-10.2,5.6c-3,5-10.6,7.6-10.6,7.3H52.6L52.6,113.8z M73.1,43.7c0,0,6.4-4.2,6.8-4.8
		c2-2.6,13.8-16.7,17.4-24.7c3.3-7.9-1-6.9-4.5-3.8c-2.1,3.4-19.7,27.1-18.7,24.9L73.1,43.7z M51.9,102.3c-1,1.7-3,2.6-5.3,2.6
		c2.3,3.6,8.9,3.3,9.9,0C54.9,105.2,52.9,103.9,51.9,102.3L51.9,102.3z"/>
	<path class="st0" d="M38.4,68.6l-3-5.9c2,0,5,2.6,6.6,5.9c1.7,3.3,1.3,5.9-0.7,5.9c-2,0-5-2.6-6.6-5.9s-1.3-5.9,0.7-5.9L38.4,68.6z
		 M65.1,68.6l3-5.9c-2,0-5,2.6-6.6,5.9c-1.7,3.3-1.3,5.9,0.7,5.9c2,0,5-2.6,6.6-5.9s1.3-5.9-0.7-5.9L65.1,68.6z"/>
	<path class="st0" d="M38.1,90.1l-27.7-3.3l0.7,2.3l26.7,2.3L38.1,90.1z"/>
	<path class="st0" d="M37.4,95.7L12.7,96l0.7,2.3h24.4L37.4,95.7z M65.8,90.1l28-3.6l-0.7,2.3l-26.7,2.6L65.8,90.1L65.8,90.1z"/>
	<path class="st0" d="M66.5,95.7L91.5,96l-0.7,2.3H66.1L66.5,95.7z"/>
	<path class="st0" d="M461.2,4.1L480.5,0v34.8h7.5V58h-7.5v54.2h-19.3V58h-6.7V34.8h6.7V4.1z M392.8,112.5V34.3h20.6v11.9
		c1.8-3.6,4.4-7.2,7.2-9c3.1-2.6,6.7-3.9,10.3-3.9c4.4,0,8.5,1.8,10.8,5.1c2.6,3.6,3.9,8.8,3.9,14.7v59.1H425V68.1
		c0-2.1-0.3-4.4-1.3-5.1c-1-1.8-2.6-3.3-4.9-3.3c-1.8,0-3.6,1-4.1,2.3c-0.8,2-1.2,4.1-1.3,6.2v44.1L392.8,112.5L392.8,112.5z
		 M302,1.8h21.4v110.1H302V1.8z M270.8,1.6H292V112h-21.1V1.6L270.8,1.6z M250.2,26.6c-3.3,0-6.2-1.3-7.7-3.9
		c-2.3-2.6-3.6-5.7-3.6-9s1.3-7,3.1-9c2.1-2.6,4.9-3.9,7.7-3.9c3.1,0,5.9,1.3,8.3,3.4c2.3,2.6,3.6,5.7,3.6,9c0,3.9-1.3,7.5-3.1,9.6
		c-2.3,2.5-5.4,3.9-8.8,3.9L250.2,26.6z M241.4,34.3h19.1v77.9h-19.1V34.3z M203.3,53.1c-2.8,0-4.6,2.3-5.4,6.2s-1.8,9.6-1.8,15.2
		s1,11.1,1.8,14.7c0.8,3.6,3.1,5.7,5.4,5.7c2.6,0,4.6-2.3,5.7-5.7c1.3-3.9,2.3-9.3,2.3-15.2c0-5.7-0.8-10.8-1.8-14.2
		c-1-4.6-4.1-6.7-6.7-6.7L203.3,53.1L203.3,53.1L203.3,53.1z M210.2,35.6h20.6v76.9h-20.6v-11.9c-1.8,7.7-8.8,12.9-14.7,12.9
		c-5.1,0-10.3-3.3-13.7-9.3c-4.1-7.2-6.2-17.8-6.2-30.2c0-13.4,2.1-23.7,6.2-30.7c3.4-5.4,8-8.8,13.4-8.8c11.6,0,12.1,8.8,14.7,16.5
		L210.2,35.6z M356.7,53.7c-2.6,0-4.4,2.6-5.1,6.2c-1.2,5-1.8,10.1-1.8,15.2c0,5.9,0.8,11.1,1.8,14.7c0.8,3.6,3.1,5.9,5.1,5.9
		c2.8,0,4.9-2.3,5.9-5.9c1-3.6,2.3-9.3,2.3-15.2c0-5.4-1-10.6-1.8-14.2c-1.3-4.6-4.1-6.7-6.7-6.7L356.7,53.7L356.7,53.7L356.7,53.7z
		 M363.9,36.1h20.4v77.1h-20.4v-12.1c-2.1,7.7-8.8,12.9-14.7,12.9c-5.4,0-10.3-3.1-13.9-9c-3.9-7.2-6.2-18-6.2-30.4
		c0-13.4,2.3-23.7,6.2-30.4c3.6-5.7,8-8.8,13.4-8.8c11.6,0,12.4,8.5,15,16.5L363.9,36.1L363.9,36.1z M115.6,2.6l24.2-0.3l7.7,65.5
		l9-65.5h23.7l-21.4,109.6h-23.7L115.6,2.6z"/>
	<polygon class="st0" points="43.1,103.7 52.2,100.1 60.5,104.9 53,111 	"/>
</g>
</svg>
