<?xml version="1.0" encoding="utf-8"?>
<!-- Generator: Adobe Illustrator 25.0.1, SVG Export Plug-In . SVG Version: 6.00 Build 0)  -->
<svg version="1.1" id="Layer_1" xmlns="http://www.w3.org/2000/svg" xmlns:xlink="http://www.w3.org/1999/xlink" x="0px" y="0px"
	 viewBox="0 0 710 114" style="enable-background:new 0 0 710 114;" xml:space="preserve">
<style type="text/css">
	.st0{fill:#FFFFFF;}
</style>
<path id="_48bta" class="st0" d="M342.4,32.1c4.1-3.3,9.1-5.3,14.4-5.6c10.6-1,20.8,1.4,27.4,10.1c2.7,3.4,2.7,7.8,3.1,12.2v46.1
	h-12.6l-0.1-45.7c0-4.6-2.6-8.8-6.8-10.8c-6.2-2.5-13.2-2-19.1,1.3c-3.9,2.5-6.3,6.9-6.3,11.5V95h-12.9V0h12.7L342.4,32.1z
	 M660.5,61.5H710v5h-49.5V61.5z M0,61.5h50.1v4.9H0V61.5z M207.4,44.8c-4.5-8.7-16-11.1-24.1-6.9c-6.4,3.2-9.6,9.7-10.1,16.3H210
	C210,50.9,209.1,47.7,207.4,44.8z M589.6,46.5c-1.5-2.8-3.6-5.3-6.2-7.3c-5.3-3.7-12.1-4.1-17.9-1.3c-12.1,7.2-11.1,24.7-8.7,35.3
	c1.8,6.5,7.1,11.4,13.7,12.7c6.6,1,12.1-0.4,16.1-4.6C594.8,72.7,594.9,56.5,589.6,46.5z M484.2,75c0.1,4.4,2.6,8.5,6.5,10.6
	c7,2.9,15,1.5,20.6-3.5c3.5-3.3,4.9-9.5,4.9-14.3V27.5h12.7v59.2c0.1,2.8,0.4,5.6,0.9,8.3h-12.1c-0.6-2.1-1.1-4.4-1.3-6.6
	c-6.2,7.3-13.4,9.7-24.4,8.6c-7.8-0.8-16-5.4-18.8-13.4c-2.4-7-1.7-11.4-1.7-17.6V27.5h12.9L484.2,75z M79.3,27.5
	c3.8,16,11.9,49.1,11.9,49.1l13-49.1h15.2c0,0,7.5,33,11.7,48.9c0,0,9-34.1,13.1-48.9h11.4L138.1,95h-15.2L111,45.9L97.9,95H82.6
	L66.5,27.5L79.3,27.5z M248,95h-12.5V26H248V95z M317.6,37.1L317.6,37.1L317.6,37.1z M307.6,44.7c-6.5-7.8-15.6-10-25.2-8.3
	c-3.1,0.7-7.2,1.9-8.6,5.4c-0.9,2-0.9,4.3,0,6.4c1.4,2.6,4.6,3.5,7.5,4.1c14.2,2,31.9-0.8,37.6,15.7c2,9-1.9,18.3-9.6,23.2
	c-12,7.8-30.8,7-42.8,0c-4-2.3-7.5-5.3-10.4-8.9l11.2-7.6c6.6,8.3,17.2,12.3,27.6,10.5c5.1-0.9,10.4-3.9,11.4-9.3
	c0.5-3.4-1.1-6.7-4.1-8.2c-13.3-5.6-35.7,1.9-41.2-16.1c-2-6.9,0.1-14.3,5.5-19.1c10-9,30.8-9.2,44.3-0.9c2.4,1.7,4.7,3.6,6.8,5.7
	L307.6,44.7z M217.7,38.9c4.4,7.8,6.4,16.8,5.6,25.8h-50.4c-0.2,6.4,2.6,12.5,7.5,16.7c5.3,4.1,12.1,5.6,18.6,4.2
	c5.4-1,10.3-5.4,13.4-10.6c0,0,10.8,5.2,10.8,5.2c-3.2,7.3-11.1,13.2-18.4,15.7c-10.8,3.5-22.7,1.5-31.9-5.2
	c-12.7-10.6-16.1-27.4-11.2-42.8c2.6-8.8,11.4-18.5,20.8-20.8C195.5,23,210,27.3,217.7,38.9L217.7,38.9z M598,36
	c10.1,12.7,10.4,34.4,2.1,47.9c-6.5,10.5-17.4,14.9-29.4,13.3c-5.6-1-10.7-3.9-14.5-8.3V114h-12.9V27.4h12.7v7.8
	c5.7-7.6,15.2-11.2,24.5-9.5C587.4,26.9,593.6,30.5,598,36L598,36z M631.4,27.5h13.7v11h-13.5v41.3c0,2.1,1.4,3.9,3.3,4.6
	c3.3,1,6.9,0.8,10.2-0.5v11.4c-4.8,1.9-10,2.5-15,1.6c-4.4-0.6-8.2-3.4-10-7.5c-1.6-4.1-1.4-8.7-1.4-14V38.5h-8v-11h7.7V4h12.9V27.5
	z M248,16.9h-12.3V3.3H248V16.9z M455.5,36.8c2.1,3.5,1.9,7.6,1.9,12v31.4c-0.1,4.9,0.3,9.9,1.4,14.7h-12.2
	c-0.6-2.1-1.1-4.3-1.5-6.5c-7.7,9.8-23.6,11.7-35,7.5c-7.4-2.7-12.3-9.6-12.5-17.4c-0.6-7.2,2.5-14.3,8.2-18.8
	c9.6-7.6,23.7-4.7,35.6-9c1.6-0.8,2.8-2.2,3.3-4c0.6-2.7-0.2-5.5-2.1-7.5c-4.3-4.2-17.8-4.4-24.3-1.1c-3.6,2.3-4.4,6.7-4.5,10.4
	h-12.7c-0.4-5.7,1.6-11.4,5.6-15.5c9.9-8.9,26.6-7.2,34.3-6C446.9,28.1,452.3,31.6,455.5,36.8z M445.1,60.1
	c-15.2,6.4-31.5,3.5-34,13.4c-1.2,3.8-0.1,7.9,2.8,10.6c5.9,5.4,15.5,3.2,21.9,0.3c9.9-4.4,9.5-13.3,9.3-23.7L445.1,60.1z"/>
</svg>
