<?xml version="1.0" encoding="utf-8"?>
<!-- Generator: Adobe Illustrator 25.0.1, SVG Export Plug-In . SVG Version: 6.00 Build 0)  -->
<svg version="1.1" id="Calque_1" xmlns="http://www.w3.org/2000/svg" xmlns:xlink="http://www.w3.org/1999/xlink" x="0px" y="0px"
	 viewBox="0 0 85.6 85.6" style="enable-background:new 0 0 85.6 85.6;" xml:space="preserve">
<style type="text/css">
	.st0{fill-rule:evenodd;clip-rule:evenodd;fill:#9D2932;}
	.st1{fill-rule:evenodd;clip-rule:evenodd;fill:#FEFEFE;}
</style>
<rect class="st0" width="85.6" height="85.6"/>
<desc>Created with Sketch.</desc>
<g id="LOGO-COMPLETE">
	<g id="Group-50">
		<g id="Group-49" transform="translate(0.000000, 29.000000)">
			<path id="Fill-3" class="st1" d="M64.8,40.3h-46V9.8c2.4-2.2,18.2-16.3,22.8-20.4C46.3-6.5,62.3,7.7,64.8,9.9V40.3z M44.5-18.5
				c-1.7-1.5-4.3-1.5-6,0l-26,23.3c-0.9,0.8-1.5,2-1.5,3.3v35.2c0,2.5,2,4.5,4.5,4.5H68c2.5,0,4.5-2,4.5-4.5V8.1
				c0-1.3-0.6-2.5-1.5-3.3L44.5-18.5z"/>
			<path id="Fill-5" class="st1" d="M31.1,29.7h21.2v-14c-1.2-1-8.5-7.5-10.7-9.4c-2.1,1.9-9.4,8.4-10.5,9.4V29.7z"/>
		</g>
	</g>
</g>
</svg>
