<svg id="Layer_2" data-name="Layer 2" xmlns="http://www.w3.org/2000/svg" viewBox="0 0 78.77 78.77"><defs><style>.cls-1{fill:#fff;}.cls-2{fill:#e6392c;}</style></defs><rect class="cls-1" width="78.77" height="78.77"/><path class="cls-2" d="M74.36,60.48A5.45,5.45,0,0,1,70.75,66a22.91,22.91,0,0,1-8.55,1.5H57.75a6.9,6.9,0,0,0-.16-1.87,58.12,58.12,0,0,1-7.9,1.87c-12.45,1.45-24.38,0-35-7.1A22.74,22.74,0,0,1,4.65,42.84,32.14,32.14,0,0,1,5.6,30,23.3,23.3,0,0,1,19.34,15.3a49.37,49.37,0,0,1,17-4.1,106.8,106.8,0,0,1,13.74-.29,43.44,43.44,0,0,1,16.35,3.31,11.76,11.76,0,0,1,7.77,9A13.82,13.82,0,0,1,74.38,25C74.36,36.86,74.2,48.68,74.36,60.48Z"/><path class="cls-1" d="M56.59,51.47V27.6c0-2.64-.42-3.32-3.11-3.9a39.77,39.77,0,0,0-21.06,1A13.84,13.84,0,0,0,22.13,39.55,15,15,0,0,0,32.24,53.92,32.87,32.87,0,0,0,44.9,55.87a24.47,24.47,0,0,0,10.29-2.45,1.86,1.86,0,0,0,1.32-2Z"/></svg>