<svg id="Layer_2" data-name="Layer 2" xmlns="http://www.w3.org/2000/svg" viewBox="0 0 78.77 78.77"><defs><style>.cls-1{fill:#fff;}.cls-2{fill:#df2328;}</style></defs><rect class="cls-1" width="78.77" height="78.77"/><path class="cls-2" d="M7.64,49.88,29.05,15.81l22.28.56L71.39,49.51a3.68,3.68,0,0,1-.11,3.34,5.44,5.44,0,0,1-3.23,2.27,3.24,3.24,0,0,1-3.37-1.71L49.39,28.24,33.88,52.51s-1.21,1.92-5.62,2c-4.62.16-17.63.21-20.08-.54C6,52.93,7.64,49.88,7.64,49.88Z"/><path class="cls-2" d="M14.57,59.83H65.48a1.56,1.56,0,0,1,1.57,1.55h0A1.56,1.56,0,0,1,65.5,63H14.57a1.57,1.57,0,0,1-1.52-1.57h0A1.56,1.56,0,0,1,14.57,59.83Z"/><path class="cls-2" d="M43.76,43.76H55.05a1.49,1.49,0,0,1,1.49,1.49h0a1.49,1.49,0,0,1-1.49,1.49H43.76a1.48,1.48,0,0,1-1.49-1.47v0h0A1.49,1.49,0,0,1,43.76,43.76Z"/></svg>