<svg id="Layer_2" data-name="Layer 2" xmlns="http://www.w3.org/2000/svg" viewBox="0 0 78.77 78.77"><defs><style>.cls-1{fill:#fff;}.cls-2{fill:#e91d25;}</style></defs><rect class="cls-1" width="78.77" height="78.77"/><rect class="cls-2" x="2" y="37.01" width="1.77" height="9.12"/><path class="cls-2" d="M46.66,39.36c-1.2,0-1.65.88-1.65,2.19s.51,2.32,1.68,2.32,1.66-.88,1.66-2.32C48.36,40.3,48,39.36,46.66,39.36Z"/><path class="cls-2" d="M70,43.25c3.67-1.85,7.63-4.19,7.63-4.19a29.4,29.4,0,0,1-10.7-.5A69.13,69.13,0,0,1,58,36.27C54.34,35,53,35.33,52.85,34.84a4.69,4.69,0,0,1,1.46-.9,70.55,70.55,0,0,0-14.8-3.07c-5.1-.42-9.92.39-9.78.12a5.85,5.85,0,0,1,1.49-1.79,27.49,27.49,0,0,0-9.49,1.31c-2.55.85-3.41,1.07-4.39,1.52-.16-.24.33-.74.51-1.35a62.14,62.14,0,0,0-7.11,2.81A44.63,44.63,0,0,0,4.54,37v9.13a41.94,41.94,0,0,0,10,4.5c1.51.44,3.58,1.12,7.46,2a45.3,45.3,0,0,0,6,1.19,5.9,5.9,0,0,1-.84-1.49c.7,0,5.37,1.17,12,1.76a107.61,107.61,0,0,0,11.36.18,11.29,11.29,0,0,1-2.63-1.86,13.74,13.74,0,0,1-1.46-1.86,47.31,47.31,0,0,0,8.11-1.07,33.63,33.63,0,0,0,9.21-3,5.34,5.34,0,0,1-1.32-.63C62,45.5,66.09,45.18,70,43.25Zm-58.62,2c-3.07,0-4.07-1.68-4.07-3.67s1.32-3.69,4.16-3.69,3.65,1.36,3.73,2.46H12.7a1.14,1.14,0,0,0-1.31-1c-1.17,0-1.54.94-1.54,2.24s.38,2.25,1.54,2.25a1.24,1.24,0,0,0,1.36-1.05H15.2C14.94,44.19,13.8,45.27,11.33,45.27Zm12.56-2.7c0,1.65-1.05,2.7-3.79,2.7s-3.72-1.06-3.72-2.7V38.05h2.49v4.59c0,.62.22,1.19,1.28,1.19s1.24-.54,1.24-1.19V38.05h2.5Zm8,2.57H25.59V38.05h6.34v1.48H28v1.23h3.79v1.47H28v1.46H32.2Zm9.06,0h-2.9c-2.08-4-2.39-4.66-2.5-4.93h0c.08.88.09,2.11.09,3.34v1.59H33.37V38.05h3c1.92,3.6,2.31,4.42,2.42,4.71h0c-.09-.83-.12-2-.12-3.14V38.05H41Zm5.61.13c-2.94,0-4.18-1.66-4.18-3.73,0-1.85,1.27-3.63,4.32-3.63s4.19,1.71,4.19,3.64S49.69,45.27,46.6,45.27Zm9.17-.13H52.32V38.05h3.51c2.93,0,4.35,1.35,4.35,3.43,0,2.28-1.57,3.67-4.38,3.67Z"/><path class="cls-2" d="M55.68,39.47h-.85v4.28h.82c1.32,0,1.93-.7,1.93-2.24C57.57,40.17,57.06,39.47,55.68,39.47Z"/></svg>