<svg id="Layer_2" data-name="Layer 2" xmlns="http://www.w3.org/2000/svg" viewBox="0 0 78.77 78.77"><defs><style>.cls-1{fill:#fff;}.cls-2{fill:#097ab5;}</style></defs><rect class="cls-1" width="78.77" height="78.77"/><path class="cls-2" d="M52.7,68.15c-7.67,5-11.59,5.34-19,5.58-5.29.17-12.17-1-13.73-2.22-5.33-4.23-3.29-16.28.63-22.78a45.24,45.24,0,0,1,9.74-8.94,7.93,7.93,0,0,0,2.43-4.3,19.47,19.47,0,0,0-.87-7.31s6.76,2.61,8.91,6.48a16.83,16.83,0,0,1,1.29,14.09,21.61,21.61,0,0,1-5.94,6.82h0s1-9.11-.73-8.3a18.88,18.88,0,0,0-7.77,6.18,21.54,21.54,0,0,0-2.43,8.06s12.29,2.17,18.79-1.9A20.73,20.73,0,0,0,54.77,42.28,27.92,27.92,0,0,0,47.3,22a20.68,20.68,0,0,0-16.22-4.51c-3,.73-6.5,1.88-6.5,1.88l-.34,18.06a4.85,4.85,0,0,1-4.69,2.7C16,39.77,11.61,39,11.61,39V11.48A64,64,0,0,1,24.83,5.84a36.82,36.82,0,0,1,20,1.31,35.92,35.92,0,0,1,22.23,31.5A33,33,0,0,1,52.7,68.15"/></svg>