<svg xmlns="http://www.w3.org/2000/svg" xmlns:xlink="http://www.w3.org/1999/xlink" viewBox="0 0 22.11 22.49"><defs><style>.cls-1{fill:none;}.cls-2{fill:#0e58a7;}.cls-3{clip-path:url(#clip-path);}.cls-4{fill:url(#Dégradé_sans_nom_7);}.cls-5{clip-path:url(#clip-path-2);}.cls-6{fill:url(#Dégradé_sans_nom_11);}</style><clipPath id="clip-path"><path class="cls-1" d="M3.61,5.32V17c0,1.51.87,2,1.69,2h12a.63.63,0,0,0,.63-.63.63.63,0,0,0-.63-.63H5.51a.64.64,0,0,1-.64-.64V5.32h0V5.19l0-.1v0L5,5l0-.05,0,0H5L4,4.17a1.84,1.84,0,0,0-.4,1.15"/></clipPath><linearGradient id="Dégradé_sans_nom_7" x1="-572.02" y1="-365.06" x2="-571.47" y2="-365.06" gradientTransform="translate(9019.59 -14098.46) rotate(-90) scale(24.68)" gradientUnits="userSpaceOnUse"><stop offset="0" stop-color="#0e58a7"/><stop offset="0.2" stop-color="#595499"/><stop offset="0.56" stop-color="#e3405d"/><stop offset="0.88" stop-color="#f58536"/><stop offset="1" stop-color="#f58536"/></linearGradient><clipPath id="clip-path-2"><path class="cls-1" d="M5.64,3.42A2,2,0,0,0,4,4.17L5,4.9a.64.64,0,0,1,.48-.22H17.43l.1,0h0l.09,0,.05,0,0,0a.66.66,0,0,1,.22.48V15.71a.63.63,0,0,0,1.26,0V5.46a1.93,1.93,0,0,0-1.9-2Z"/></clipPath><linearGradient id="Dégradé_sans_nom_11" x1="-542.18" y1="-298.53" x2="-541.63" y2="-298.53" gradientTransform="translate(6681.88 -12097.84) rotate(-90) scale(22.34)" gradientUnits="userSpaceOnUse"><stop offset="0" stop-color="#ffd428"/><stop offset="1" stop-color="#f58536"/></linearGradient></defs><title>06</title><g id="Calque_2" data-name="Calque 2"><g id="Mode_Isolation" data-name="Mode Isolation"><g id="_06" data-name="06"><path class="cls-2" d="M15.26,16.34H7.37a3.95,3.95,0,0,1,7.89,0"/><g class="cls-3"><rect class="cls-4" x="1.97" y="2.61" width="17.59" height="17.97" transform="translate(-2.56 3.07) rotate(-14.54)"/></g><g class="cls-5"><rect class="cls-6" x="3.56" y="0.99" width="16.08" height="17.77" transform="translate(-0.69 18.88) rotate(-76.62)"/></g></g></g></g></svg>