<svg id="Layer_2" data-name="Layer 2" xmlns="http://www.w3.org/2000/svg" viewBox="0 0 78.8 78.77"><defs><style>.cls-1{fill:#fff;}.cls-2{fill:#ea202e;}</style></defs><rect class="cls-1" width="78.77" height="78.77"/><path class="cls-2" d="M43.94,5.21s-6.13,5.65-11,19.35c-3.12,8.75-5.4,17.67-5.4,17.67L6.44,44.59s1,4.8,3.42,5.4c5.39,1.35,15.05-.47,15.05-.47L18.29,73s-9.25.13-12.5-3a14.65,14.65,0,0,1-4.27-9.72C-.36,42-.46,33.91,1,19.93a12.85,12.85,0,0,1,4.41-7.84c3.59-3.51,8-4.2,12.9-4.93C42.54,3.74,43.94,5.21,43.94,5.21Z"/><path class="cls-2" d="M36.84,40.51A72.91,72.91,0,0,1,42,22.38,62.8,62.8,0,0,1,53.33,4.9s18.4.65,19,1a14.32,14.32,0,0,1,6.17,11c0,9,.71,26-.28,41.66-.17,2.76-1.91,11.61-6.62,13.25-12.71,4.41-44.4,1.72-44.4,1.72l6.52-24.49L67.86,47a10.39,10.39,0,0,0-4.66-5.87C59.87,39.35,36.84,40.51,36.84,40.51Z"/></svg>