<svg id="Layer_2" data-name="Layer 2" xmlns="http://www.w3.org/2000/svg" viewBox="0 0 78.77 78.77"><defs><style>.cls-1{fill:#fff;}.cls-2{fill:#bbb7ae;stroke:#231f20;stroke-miterlimit:10;}</style></defs><rect class="cls-1" width="78.77" height="78.77"/><path class="cls-2" d="M47.49,38H68.18V65.24s-8,7.43-22.36,8.19c-2.15.1-20-.53-29.82-15.7a34.89,34.89,0,0,1-4.83-25c2.08-10.48,8.74-16.82,12.14-19.88,4.52-4.1,14.05-7.36,21-7.51,12.27-.23,22.07,7.36,22.07,7.36L57.21,31.47a13.22,13.22,0,0,0-7.94-5.15c-4.7-1.23-12.58.43-16.32,6.6-.38.63-3.81,6.48-1.07,12.11a12,12,0,0,0,5.71,5.43,13.86,13.86,0,0,0,9.63.79Z"/></svg>