<svg id="Layer_2" data-name="Layer 2" xmlns="http://www.w3.org/2000/svg" viewBox="0 0 78.77 78.77"><defs><style>.cls-1{fill:#fff;}.cls-2{fill:#da222a;}.cls-3{fill:#049b4c;}</style></defs><rect class="cls-1" width="78.77" height="78.77"/><path class="cls-2" d="M26.91,27.68A20.17,20.17,0,1,0,47.06,47.87h0A20.16,20.16,0,0,0,27,27.68h0Zm0,31.7A11.55,11.55,0,1,1,38.44,47.81v.06h0A11.54,11.54,0,0,1,26.91,59.38Z"/><rect class="cls-2" x="44.58" y="44.87" width="24.62" height="6.62"/><polyline class="cls-2" points="72.05 68 26.91 68 26.91 60.73 72.05 60.73 72.05 68"/><polygon class="cls-2" points="72.04 27.68 69.2 34.81 39.14 34.81 29.82 27.89 72.04 27.68"/><polygon class="cls-3" points="72.05 11.07 72.05 10.74 6.73 10.74 6.73 17.39 69.2 17.39 72.05 11.07"/></svg>