<svg xmlns="http://www.w3.org/2000/svg" viewBox="0 0 17.01 16.19"><defs><style>.cls-1{fill:#d30030;fill-rule:evenodd;}</style></defs><title>08</title><g id="Calque_2" data-name="Calque 2"><g id="Mode_Isolation" data-name="Mode Isolation"><path id="_08" data-name="08" class="cls-1" d="M16,5.05A3,3,0,0,0,10.54,6.2a2.85,2.85,0,0,0,0,1.3,1.59,1.59,0,0,1-1-.71L5,0a5.52,5.52,0,0,0-.5.28c-1,.6-.19,1.65,0,2L8,7.43s-.41.23-.62-.07S3.2,1.12,3.2,1.12a3.29,3.29,0,0,0-.51.44c-.49.53-.13,1.26.15,1.65L5.69,7.43s-.46.2-.64-.08L1.8,2.54a4,4,0,0,0-.4.52,1.27,1.27,0,0,0,.13,1.49l2,2.89s-.42.2-.59-.05S.79,4.27.79,4.27a2.46,2.46,0,0,0-.29.61A1.34,1.34,0,0,0,.65,6.25l.8,1.18s-.4.21-.57,0L.11,6.24c-.93,7,4.43,10,8.44,10a8.28,8.28,0,0,0,6.59-2.87c2.67-3.3,2-6.64.86-8.27M9.29,9.65l1.34-1.92a2.92,2.92,0,0,0,.89,1.37ZM13.21,7.4a.55.55,0,1,1,.56-.53.55.55,0,0,1-.56.53"/></g></g></svg>