<svg id="Layer_2" data-name="Layer 2" xmlns="http://www.w3.org/2000/svg" viewBox="0 0 78.77 78.77"><defs><style>.cls-1{fill:#fff;}.cls-2{fill:#db1f26;}</style></defs><rect class="cls-1" width="78.77" height="78.77"/><path class="cls-2" d="M9.31.32c-.38.44-.21,60.39.17,61.56.14.45.35,1.21.45,1.66A22.28,22.28,0,0,0,13,69.38,26,26,0,0,0,16.9,73c2.3,1.71,8.18,4.45,10.22,4.78a4.63,4.63,0,0,1,1.19.31c.52.27,7.26.67,11.12.67s10.59-.4,11.12-.67a5.36,5.36,0,0,1,1.25-.33,4.76,4.76,0,0,0,1.25-.31,14.39,14.39,0,0,1,1.71-.67A30.76,30.76,0,0,0,65.1,70.26a14.08,14.08,0,0,0,2.57-3.71A12.76,12.76,0,0,0,68.73,64a1.18,1.18,0,0,1,.19-.64,7.73,7.73,0,0,0,.48-1.86c.21-1.34.27-7.72.27-31.5V.14H54.45l-.13,27.11c-.08,19.9-.17,27.43-.35,28.26-1,4.8-2.84,7.35-6.41,9.14-2.25,1.13-3.79,1.46-7.4,1.61-7.62.29-12.43-2.44-14.69-8.33l-.64-1.69-.07-27.82C24.72,8.75,24.64.49,24.47.3,24.14-.11,9.64-.09,9.31.32Z"/></svg>