<svg xmlns="http://www.w3.org/2000/svg" viewBox="0 0 107.77 107.77"><defs><style>.cls-1{fill:#f7f7f7;}.cls-2,.cls-5{opacity:0.46;}.cls-3,.cls-5{fill:#d1ccc5;}.cls-4{fill:#ebe5dd;}.cls-6{fill:#4b4339;}.cls-7{fill:#008dd1;}.cls-8{fill:#cdc7bf;}.cls-9{fill:#bcb9b4;}.cls-10{fill:#837d76;}</style></defs><g id="Layer_2" data-name="Layer 2"><g id="PAC_ext" data-name="PAC ext"><rect class="cls-1" width="107.77" height="107.77" rx="10"/><g id="int"><g class="cls-2"><rect class="cls-3" x="57.26" y="12.19" width="35.32" height="77.11" rx="3"/></g><g class="cls-2"><rect class="cls-4" x="58.82" y="13.65" width="32.2" height="74.19" rx="2"/></g><rect class="cls-5" x="69.93" y="17.64" width="9.99" height="12.49"/><g class="cls-2"><rect class="cls-6" x="72.14" y="19.85" width="5.56" height="4.43" rx="1"/></g></g><g id="Layer_45" data-name="Layer 45"><rect class="cls-6" x="16.37" y="91.16" width="17.3" height="6.01" rx="2.51"/><path class="cls-7" d="M31.16,99.16H18.88a4.52,4.52,0,0,1-4.51-4.5v-1a4.52,4.52,0,0,1,4.51-4.51H31.16a4.51,4.51,0,0,1,4.51,4.51v1A4.51,4.51,0,0,1,31.16,99.16Zm-12.28-6a.52.52,0,0,0-.51.51v1a.52.52,0,0,0,.51.5H31.16a.51.51,0,0,0,.51-.5v-1a.51.51,0,0,0-.51-.51Z"/><rect class="cls-6" x="53.79" y="91.16" width="17.3" height="6.01" rx="2.51"/><path class="cls-7" d="M68.58,99.16H56.3a4.52,4.52,0,0,1-4.51-4.5v-1a4.52,4.52,0,0,1,4.51-4.51H68.58a4.51,4.51,0,0,1,4.51,4.51v1A4.51,4.51,0,0,1,68.58,99.16Zm-12.28-6a.52.52,0,0,0-.51.51v1a.52.52,0,0,0,.51.5H68.58a.51.51,0,0,0,.51-.5v-1a.51.51,0,0,0-.51-.51Z"/><rect class="cls-8" x="9.56" y="47.29" width="69.28" height="46.88" rx="3"/><path class="cls-7" d="M75.85,96.16H12.56a5,5,0,0,1-5-5V50.29a5,5,0,0,1,5-5H75.85a5,5,0,0,1,5,5V91.16A5,5,0,0,1,75.85,96.16ZM12.56,49.29a1,1,0,0,0-1,1V91.16a1,1,0,0,0,1,1H75.85a1,1,0,0,0,1-1V50.29a1,1,0,0,0-1-1Z"/><rect class="cls-4" x="10.82" y="48.36" width="66.68" height="44.55" rx="2"/><path class="cls-7" d="M75.5,94.91H12.82a4,4,0,0,1-4-4V50.36a4,4,0,0,1,4-4H75.5a4,4,0,0,1,4,4V90.91A4,4,0,0,1,75.5,94.91ZM12.82,50.36V90.91H75.5V50.36Z"/><circle class="cls-9" cx="35.5" cy="70.72" r="17.63"/><path class="cls-7" d="M35.5,90.35A19.63,19.63,0,1,1,55.13,70.72,19.64,19.64,0,0,1,35.5,90.35Zm0-35.25A15.63,15.63,0,1,0,51.13,70.72,15.64,15.64,0,0,0,35.5,55.1Z"/><path class="cls-10" d="M36,70.72c1.51.21,3.07-3.76,4.27-8.27.56-2.13,1.84-6.24-1.35-7.65-1.45-.64-4.91-.6-7.55,0A14.09,14.09,0,0,0,25.61,58c-1,.94-4.41,3.55-.11,4.67a9.73,9.73,0,0,1,6,4C33.61,70.09,35.38,70.62,36,70.72Z"/><path class="cls-7" d="M36.21,72.73a3.44,3.44,0,0,1-.46,0h0c-1.44-.21-3.65-1.24-6-5A7.86,7.86,0,0,0,25,64.56c-2-.52-3.19-1.48-3.53-2.87-.53-2.2,1.44-4,2.5-4.93l.27-.25a16,16,0,0,1,6.69-3.61c2.71-.66,6.72-.86,8.83.07,4.61,2,3.17,7.4,2.55,9.69l-.08.3C40.41,69.83,38.63,72.73,36.21,72.73ZM25.73,60.61l.27.08a11.82,11.82,0,0,1,7.17,4.89,8,8,0,0,0,2.7,3c.42-.6,1.34-2.29,2.49-6.63l.09-.31c.86-3.2.78-4.51-.31-5a13.53,13.53,0,0,0-6.26.16A11.78,11.78,0,0,0,27,59.42l-.35.31C26.45,59.91,26,60.28,25.73,60.61Z"/><path class="cls-10" d="M35.32,70.27c-.6-1.41-4.81-.69-9.29.62-2.12.62-6.3,1.66-5.86,5.12.21,1.58,2,4.52,3.95,6.44a14,14,0,0,0,5.67,3.34c1.32.37,5.33,1.95,4.05-2.31a9.81,9.81,0,0,1,.34-7.19C36,72.66,35.58,70.87,35.32,70.27Z"/><path class="cls-7" d="M32.53,88.38a10.47,10.47,0,0,1-2.92-.55l-.35-.11a15.89,15.89,0,0,1-6.56-3.86c-2-2-4.22-5.31-4.51-7.59-.65-5,4.7-6.55,7-7.21l.29-.09c7.25-2.12,10.64-2,11.7.51h0c.57,1.34.83,3.77-1.2,7.72a7.87,7.87,0,0,0-.2,5.7c.59,2,.38,3.5-.63,4.51A3.56,3.56,0,0,1,32.53,88.38Zm.7-16.88a26,26,0,0,0-6.64,1.31l-.31.09c-3.2.92-4.28,1.67-4.12,2.85A13.46,13.46,0,0,0,25.54,81a12.09,12.09,0,0,0,4.78,2.83l.45.13c.26.08.78.23,1.23.32,0-.08,0-.17-.07-.27a11.82,11.82,0,0,1,.47-8.67,8.07,8.07,0,0,0,1.16-3.86Z"/><path class="cls-10" d="M35.29,70.81c-1,1.13,1.41,4.59,4.47,8.06,1.44,1.63,4.13,4.94,7,3.09,1.32-.85,3.19-3.72,4.11-6.24a13.94,13.94,0,0,0,.61-6.48c-.23-1.34-.5-5.59-3.78-2.66a9.65,9.65,0,0,1-6.57,2.71C37.14,69.16,35.72,70.33,35.29,70.81Z"/><path class="cls-7" d="M45,84.53c-3,0-5.38-2.75-6.57-4.11l-.2-.23C33.31,74.58,32,71.47,33.8,69.47h0c1-1.07,3-2.32,7.43-2.17a7.82,7.82,0,0,0,5.18-2.21c1.53-1.37,3-1.82,4.32-1.33,2.12.77,2.5,3.38,2.7,4.78l.06.36a15.9,15.9,0,0,1-.7,7.5c-.95,2.6-3,6-4.92,7.25A5.27,5.27,0,0,1,45,84.53ZM37.18,71.87c.27.68,1.16,2.36,4.08,5.67l.21.24c2.16,2.47,3.27,3.12,4.25,2.49A13.4,13.4,0,0,0,49,75a11.94,11.94,0,0,0,.52-5.46,4.3,4.3,0,0,1-.07-.45c0-.26-.12-.78-.22-1.21l-.19.16a11.69,11.69,0,0,1-8,3.22A8,8,0,0,0,37.18,71.87Z"/><circle class="cls-9" cx="35.5" cy="70.72" r="3.1"/><path class="cls-7" d="M35.5,75.83a5.11,5.11,0,1,1,5.11-5.11A5.11,5.11,0,0,1,35.5,75.83Zm0-6.21a1.11,1.11,0,1,0,1.11,1.1A1.1,1.1,0,0,0,35.5,69.62Z"/></g><g id="ext"><rect class="cls-6" x="16.42" y="91.16" width="17.3" height="6.01" rx="2.51"/><rect class="cls-6" x="53.84" y="91.16" width="17.3" height="6.01" rx="2.51"/><rect class="cls-8" x="9.61" y="47.29" width="69.28" height="46.88" rx="3"/><rect class="cls-4" x="10.86" y="48.36" width="66.68" height="44.55" rx="2"/><circle class="cls-9" cx="35.55" cy="70.72" r="17.63"/><path class="cls-10" d="M36.07,70.72c1.51.21,3.07-3.76,4.27-8.27.57-2.13,1.84-6.24-1.35-7.65-1.45-.64-4.91-.6-7.54,0A14,14,0,0,0,25.66,58c-1,.94-4.42,3.55-.11,4.67a9.73,9.73,0,0,1,6,4C33.65,70.09,35.43,70.62,36.07,70.72Z"/><path class="cls-10" d="M35.37,70.27c-.6-1.41-4.81-.69-9.3.62-2.12.62-6.3,1.66-5.85,5.12.2,1.58,2,4.52,4,6.44a14,14,0,0,0,5.67,3.34c1.31.37,5.32,1.95,4.05-2.31a9.81,9.81,0,0,1,.34-7.19C36.08,72.66,35.62,70.87,35.37,70.27Z"/><path class="cls-10" d="M35.34,70.81c-1,1.13,1.4,4.59,4.46,8.06,1.45,1.63,4.13,4.94,7,3.09,1.33-.85,3.19-3.72,4.11-6.24a13.81,13.81,0,0,0,.61-6.48c-.23-1.34-.49-5.59-3.78-2.66a9.64,9.64,0,0,1-6.57,2.71C37.18,69.16,35.77,70.33,35.34,70.81Z"/><circle class="cls-9" cx="35.55" cy="70.72" r="3.1"/></g></g></g></svg>