<svg xmlns="http://www.w3.org/2000/svg" viewBox="0 0 107.77 107.77"><defs><style>.cls-1{fill:#f7f7f7;}.cls-11,.cls-2{fill:#4b4339;}.cls-2,.cls-3,.cls-6,.cls-7{opacity:0.46;}.cls-4{fill:#cdc7bf;}.cls-5{fill:#ebe5dd;}.cls-6{fill:#bcb9b4;}.cls-7{fill:#837d76;}.cls-10,.cls-8{fill:#d1ccc5;}.cls-9{fill:none;}.cls-10,.cls-9{stroke:#008dd1;stroke-miterlimit:10;stroke-width:4px;}</style></defs><g id="Layer_2" data-name="Layer 2"><g id="PAC_int" data-name="PAC int"><rect class="cls-1" width="107.77" height="107.77" rx="10"/><g id="ext"><g id="Layer_41" data-name="Layer 41"><rect class="cls-2" x="15.06" y="83.99" width="14.45" height="5.02" rx="2.51"/><rect class="cls-2" x="46.31" y="83.99" width="14.45" height="5.02" rx="2.51"/><g class="cls-3"><rect class="cls-4" x="9.37" y="47.35" width="57.87" height="39.15" rx="3"/></g><g class="cls-3"><rect class="cls-5" x="10.42" y="48.24" width="55.7" height="37.21" rx="2"/></g><g id="Layer_27" data-name="Layer 27"><circle class="cls-6" cx="31.04" cy="66.92" r="14.72"/><path class="cls-7" d="M31.47,66.91C32.74,67.09,34,63.78,35,60c.47-1.78,1.54-5.21-1.13-6.39-1.21-.53-4.1-.5-6.3,0a11.6,11.6,0,0,0-4.83,2.6c-.83.79-3.69,3-.1,3.9a8.14,8.14,0,0,1,5,3.34C29.45,66.39,30.94,66.84,31.47,66.91Z"/><path class="cls-7" d="M30.88,66.54c-.5-1.18-4-.57-7.76.52-1.77.52-5.26,1.38-4.89,4.28.17,1.31,1.7,3.77,3.3,5.38a11.72,11.72,0,0,0,4.74,2.79c1.1.3,4.44,1.62,3.38-1.94a8.22,8.22,0,0,1,.28-6C31.48,68.54,31.1,67,30.88,66.54Z"/><path class="cls-7" d="M30.86,67c-.84.94,1.18,3.84,3.73,6.73,1.21,1.37,3.45,4.13,5.88,2.58,1.11-.7,2.66-3.1,3.43-5.21a11.4,11.4,0,0,0,.51-5.41c-.19-1.12-.41-4.67-3.15-2.22a8.15,8.15,0,0,1-5.49,2.27C32.4,65.61,31.22,66.59,30.86,67Z"/><circle class="cls-6" cx="31.04" cy="66.92" r="2.59"/></g></g></g><g id="Layer_46" data-name="Layer 46"><rect class="cls-8" x="52.27" y="11.27" width="39.7" height="86.68" rx="3"/><rect class="cls-9" x="52.27" y="11.27" width="39.7" height="86.68" rx="3"/><rect class="cls-5" x="54.02" y="12.91" width="36.19" height="83.39" rx="2"/><rect class="cls-9" x="54.02" y="12.91" width="36.19" height="83.39" rx="2"/><rect class="cls-10" x="66.5" y="17.39" width="11.23" height="14.04"/><rect class="cls-11" x="68.99" y="19.88" width="6.26" height="4.98" rx="1"/><rect class="cls-9" x="68.99" y="19.88" width="6.26" height="4.98" rx="1"/></g><g id="int"><g id="Layer_37" data-name="Layer 37"><rect class="cls-8" x="52.27" y="11.27" width="39.7" height="86.68" rx="3"/><rect class="cls-5" x="54.02" y="12.91" width="36.19" height="83.39" rx="2"/></g><g id="Layer_38" data-name="Layer 38"><rect class="cls-8" x="66.5" y="17.39" width="11.23" height="14.04"/><rect class="cls-11" x="68.99" y="19.88" width="6.26" height="4.98" rx="1"/></g></g></g></g></svg>