<?xml version="1.0" encoding="UTF-8" standalone="no"?>
<!DOCTYPE svg PUBLIC "-//W3C//DTD SVG 1.1//EN" "http://www.w3.org/Graphics/SVG/1.1/DTD/svg11.dtd">
<svg width="100%" height="100%" viewBox="0 0 1400 600" version="1.1" xmlns="http://www.w3.org/2000/svg" xmlns:xlink="http://www.w3.org/1999/xlink" xml:space="preserve" xmlns:serif="http://www.serif.com/" style="fill-rule:evenodd;clip-rule:evenodd;stroke-linecap:round;stroke-linejoin:round;stroke-miterlimit:1.5;">
    <g transform="matrix(1,0,0,1,0,-1734)">
        <g transform="matrix(1,0,0,1,-259.5,0.5)">
            <g id="abstract-bg-02" transform="matrix(0.999286,0,0,1.41503,259.5,1164.2)">
                <rect x="0" y="402.325" width="1401" height="424.02" style="fill:none;"/>
                <clipPath id="_clip1">
                    <rect x="0" y="402.325" width="1401" height="424.02"/>
                </clipPath>
                <g clip-path="url(#_clip1)">
                    <g>
                        <g id="fond-pointilles" transform="matrix(1,0,0,0.7067,-259.5,-357.183)">
                            <g opacity="0.4">
                                <g transform="matrix(1,0,0,1,-309.738,-83.3333)">
                                    <g transform="matrix(0.0987745,0,0,0.0899554,594.253,1057.32)">
                                        <ellipse cx="268.134" cy="1206.85" rx="40.496" ry="44.466" style="fill:rgb(71,152,250);"/>
                                    </g>
                                    <g transform="matrix(0.0987745,0,0,0.0899554,723.853,1057.32)">
                                        <ellipse cx="268.134" cy="1206.85" rx="40.496" ry="44.466" style="fill:rgb(71,152,250);"/>
                                    </g>
                                    <g transform="matrix(0.0987745,0,0,0.0899554,853.453,1057.32)">
                                        <ellipse cx="268.134" cy="1206.85" rx="40.496" ry="44.466" style="fill:rgb(71,152,250);"/>
                                    </g>
                                    <g transform="matrix(0.0987745,0,0,0.0899554,983.053,1057.32)">
                                        <ellipse cx="268.134" cy="1206.85" rx="40.496" ry="44.466" style="fill:rgb(71,152,250);"/>
                                    </g>
                                    <g transform="matrix(0.0987745,0,0,0.0899554,1112.65,1057.32)">
                                        <ellipse cx="268.134" cy="1206.85" rx="40.496" ry="44.466" style="fill:rgb(71,152,250);"/>
                                    </g>
                                    <g transform="matrix(0.0987745,0,0,0.0899554,1242.25,1057.32)">
                                        <ellipse cx="268.134" cy="1206.85" rx="40.496" ry="44.466" style="fill:rgb(71,152,250);"/>
                                    </g>
                                    <g transform="matrix(0.0987745,0,0,0.0899554,1371.85,1057.32)">
                                        <ellipse cx="268.134" cy="1206.85" rx="40.496" ry="44.466" style="fill:rgb(71,152,250);"/>
                                    </g>
                                    <g transform="matrix(0.0987745,0,0,0.0899554,1501.45,1057.32)">
                                        <ellipse cx="268.134" cy="1206.85" rx="40.496" ry="44.466" style="fill:rgb(71,152,250);"/>
                                    </g>
                                    <g transform="matrix(0.0987745,0,0,0.0899554,1631.05,1057.32)">
                                        <ellipse cx="268.134" cy="1206.85" rx="40.496" ry="44.466" style="fill:rgb(71,152,250);"/>
                                    </g>
                                    <g transform="matrix(0.0987745,0,0,0.0899554,1760.65,1057.32)">
                                        <ellipse cx="268.134" cy="1206.85" rx="40.496" ry="44.466" style="fill:rgb(71,152,250);"/>
                                    </g>
                                    <g transform="matrix(0.0987745,0,0,0.0899554,1890.25,1057.32)">
                                        <ellipse cx="268.134" cy="1206.85" rx="40.496" ry="44.466" style="fill:rgb(71,152,250);"/>
                                    </g>
                                </g>
                                <g transform="matrix(1,0,0,1,-309.738,12.1333)">
                                    <g transform="matrix(0.0987745,0,0,0.0899554,594.253,1057.32)">
                                        <ellipse cx="268.134" cy="1206.85" rx="40.496" ry="44.466" style="fill:rgb(71,152,250);"/>
                                    </g>
                                    <g transform="matrix(0.0987745,0,0,0.0899554,723.853,1057.32)">
                                        <ellipse cx="268.134" cy="1206.85" rx="40.496" ry="44.466" style="fill:rgb(71,152,250);"/>
                                    </g>
                                    <g transform="matrix(0.0987745,0,0,0.0899554,853.453,1057.32)">
                                        <ellipse cx="268.134" cy="1206.85" rx="40.496" ry="44.466" style="fill:rgb(71,152,250);"/>
                                    </g>
                                    <g transform="matrix(0.0987745,0,0,0.0899554,983.053,1057.32)">
                                        <ellipse cx="268.134" cy="1206.85" rx="40.496" ry="44.466" style="fill:rgb(71,152,250);"/>
                                    </g>
                                    <g transform="matrix(0.0987745,0,0,0.0899554,1112.65,1057.32)">
                                        <ellipse cx="268.134" cy="1206.85" rx="40.496" ry="44.466" style="fill:rgb(71,152,250);"/>
                                    </g>
                                    <g transform="matrix(0.0987745,0,0,0.0899554,1242.25,1057.32)">
                                        <ellipse cx="268.134" cy="1206.85" rx="40.496" ry="44.466" style="fill:rgb(71,152,250);"/>
                                    </g>
                                    <g transform="matrix(0.0987745,0,0,0.0899554,1371.85,1057.32)">
                                        <ellipse cx="268.134" cy="1206.85" rx="40.496" ry="44.466" style="fill:rgb(71,152,250);"/>
                                    </g>
                                    <g transform="matrix(0.0987745,0,0,0.0899554,1501.45,1057.32)">
                                        <ellipse cx="268.134" cy="1206.85" rx="40.496" ry="44.466" style="fill:rgb(71,152,250);"/>
                                    </g>
                                    <g transform="matrix(0.0987745,0,0,0.0899554,1631.05,1057.32)">
                                        <ellipse cx="268.134" cy="1206.85" rx="40.496" ry="44.466" style="fill:rgb(71,152,250);"/>
                                    </g>
                                    <g transform="matrix(0.0987745,0,0,0.0899554,1760.65,1057.32)">
                                        <ellipse cx="268.134" cy="1206.85" rx="40.496" ry="44.466" style="fill:rgb(71,152,250);"/>
                                    </g>
                                    <g transform="matrix(0.0987745,0,0,0.0899554,1890.25,1057.32)">
                                        <ellipse cx="268.134" cy="1206.85" rx="40.496" ry="44.466" style="fill:rgb(71,152,250);"/>
                                    </g>
                                </g>
                                <g transform="matrix(1,0,0,1,-309.738,107.6)">
                                    <g transform="matrix(0.0987745,0,0,0.0899554,594.253,1057.32)">
                                        <ellipse cx="268.134" cy="1206.85" rx="40.496" ry="44.466" style="fill:rgb(71,152,250);"/>
                                    </g>
                                    <g transform="matrix(0.0987745,0,0,0.0899554,723.853,1057.32)">
                                        <ellipse cx="268.134" cy="1206.85" rx="40.496" ry="44.466" style="fill:rgb(71,152,250);"/>
                                    </g>
                                    <g transform="matrix(0.0987745,0,0,0.0899554,853.453,1057.32)">
                                        <ellipse cx="268.134" cy="1206.85" rx="40.496" ry="44.466" style="fill:rgb(71,152,250);"/>
                                    </g>
                                    <g transform="matrix(0.0987745,0,0,0.0899554,983.053,1057.32)">
                                        <ellipse cx="268.134" cy="1206.85" rx="40.496" ry="44.466" style="fill:rgb(71,152,250);"/>
                                    </g>
                                    <g transform="matrix(0.0987745,0,0,0.0899554,1112.65,1057.32)">
                                        <ellipse cx="268.134" cy="1206.85" rx="40.496" ry="44.466" style="fill:rgb(71,152,250);"/>
                                    </g>
                                    <g transform="matrix(0.0987745,0,0,0.0899554,1242.25,1057.32)">
                                        <ellipse cx="268.134" cy="1206.85" rx="40.496" ry="44.466" style="fill:rgb(71,152,250);"/>
                                    </g>
                                    <g transform="matrix(0.0987745,0,0,0.0899554,1371.85,1057.32)">
                                        <ellipse cx="268.134" cy="1206.85" rx="40.496" ry="44.466" style="fill:rgb(71,152,250);"/>
                                    </g>
                                    <g transform="matrix(0.0987745,0,0,0.0899554,1501.45,1057.32)">
                                        <ellipse cx="268.134" cy="1206.85" rx="40.496" ry="44.466" style="fill:rgb(71,152,250);"/>
                                    </g>
                                    <g transform="matrix(0.0987745,0,0,0.0899554,1631.05,1057.32)">
                                        <ellipse cx="268.134" cy="1206.85" rx="40.496" ry="44.466" style="fill:rgb(71,152,250);"/>
                                    </g>
                                    <g transform="matrix(0.0987745,0,0,0.0899554,1760.65,1057.32)">
                                        <ellipse cx="268.134" cy="1206.85" rx="40.496" ry="44.466" style="fill:rgb(71,152,250);"/>
                                    </g>
                                    <g transform="matrix(0.0987745,0,0,0.0899554,1890.25,1057.32)">
                                        <ellipse cx="268.134" cy="1206.85" rx="40.496" ry="44.466" style="fill:rgb(71,152,250);"/>
                                    </g>
                                </g>
                                <g transform="matrix(1,0,0,1,-309.738,203.067)">
                                    <g transform="matrix(0.0987745,0,0,0.0899554,594.253,1057.32)">
                                        <ellipse cx="268.134" cy="1206.85" rx="40.496" ry="44.466" style="fill:rgb(71,152,250);"/>
                                    </g>
                                    <g transform="matrix(0.0987745,0,0,0.0899554,723.853,1057.32)">
                                        <ellipse cx="268.134" cy="1206.85" rx="40.496" ry="44.466" style="fill:rgb(71,152,250);"/>
                                    </g>
                                    <g transform="matrix(0.0987745,0,0,0.0899554,853.453,1057.32)">
                                        <ellipse cx="268.134" cy="1206.85" rx="40.496" ry="44.466" style="fill:rgb(71,152,250);"/>
                                    </g>
                                    <g transform="matrix(0.0987745,0,0,0.0899554,983.053,1057.32)">
                                        <ellipse cx="268.134" cy="1206.85" rx="40.496" ry="44.466" style="fill:rgb(71,152,250);"/>
                                    </g>
                                    <g transform="matrix(0.0987745,0,0,0.0899554,1112.65,1057.32)">
                                        <ellipse cx="268.134" cy="1206.85" rx="40.496" ry="44.466" style="fill:rgb(71,152,250);"/>
                                    </g>
                                    <g transform="matrix(0.0987745,0,0,0.0899554,1242.25,1057.32)">
                                        <ellipse cx="268.134" cy="1206.85" rx="40.496" ry="44.466" style="fill:rgb(71,152,250);"/>
                                    </g>
                                    <g transform="matrix(0.0987745,0,0,0.0899554,1371.85,1057.32)">
                                        <ellipse cx="268.134" cy="1206.85" rx="40.496" ry="44.466" style="fill:rgb(71,152,250);"/>
                                    </g>
                                    <g transform="matrix(0.0987745,0,0,0.0899554,1501.45,1057.32)">
                                        <ellipse cx="268.134" cy="1206.85" rx="40.496" ry="44.466" style="fill:rgb(71,152,250);"/>
                                    </g>
                                    <g transform="matrix(0.0987745,0,0,0.0899554,1631.05,1057.32)">
                                        <ellipse cx="268.134" cy="1206.85" rx="40.496" ry="44.466" style="fill:rgb(71,152,250);"/>
                                    </g>
                                    <g transform="matrix(0.0987745,0,0,0.0899554,1760.65,1057.32)">
                                        <ellipse cx="268.134" cy="1206.85" rx="40.496" ry="44.466" style="fill:rgb(71,152,250);"/>
                                    </g>
                                    <g transform="matrix(0.0987745,0,0,0.0899554,1890.25,1057.32)">
                                        <ellipse cx="268.134" cy="1206.85" rx="40.496" ry="44.466" style="fill:rgb(71,152,250);"/>
                                    </g>
                                </g>
                                <g transform="matrix(1,0,0,1,-309.738,298.533)">
                                    <g transform="matrix(0.0987745,0,0,0.0899554,594.253,1057.32)">
                                        <ellipse cx="268.134" cy="1206.85" rx="40.496" ry="44.466" style="fill:rgb(71,152,250);"/>
                                    </g>
                                    <g transform="matrix(0.0987745,0,0,0.0899554,723.853,1057.32)">
                                        <ellipse cx="268.134" cy="1206.85" rx="40.496" ry="44.466" style="fill:rgb(71,152,250);"/>
                                    </g>
                                    <g transform="matrix(0.0987745,0,0,0.0899554,853.453,1057.32)">
                                        <ellipse cx="268.134" cy="1206.85" rx="40.496" ry="44.466" style="fill:rgb(71,152,250);"/>
                                    </g>
                                    <g transform="matrix(0.0987745,0,0,0.0899554,983.053,1057.32)">
                                        <ellipse cx="268.134" cy="1206.85" rx="40.496" ry="44.466" style="fill:rgb(71,152,250);"/>
                                    </g>
                                    <g transform="matrix(0.0987745,0,0,0.0899554,1112.65,1057.32)">
                                        <ellipse cx="268.134" cy="1206.85" rx="40.496" ry="44.466" style="fill:rgb(71,152,250);"/>
                                    </g>
                                    <g transform="matrix(0.0987745,0,0,0.0899554,1242.25,1057.32)">
                                        <ellipse cx="268.134" cy="1206.85" rx="40.496" ry="44.466" style="fill:rgb(71,152,250);"/>
                                    </g>
                                    <g transform="matrix(0.0987745,0,0,0.0899554,1371.85,1057.32)">
                                        <ellipse cx="268.134" cy="1206.85" rx="40.496" ry="44.466" style="fill:rgb(71,152,250);"/>
                                    </g>
                                    <g transform="matrix(0.0987745,0,0,0.0899554,1501.45,1057.32)">
                                        <ellipse cx="268.134" cy="1206.85" rx="40.496" ry="44.466" style="fill:rgb(71,152,250);"/>
                                    </g>
                                    <g transform="matrix(0.0987745,0,0,0.0899554,1631.05,1057.32)">
                                        <ellipse cx="268.134" cy="1206.85" rx="40.496" ry="44.466" style="fill:rgb(71,152,250);"/>
                                    </g>
                                    <g transform="matrix(0.0987745,0,0,0.0899554,1760.65,1057.32)">
                                        <ellipse cx="268.134" cy="1206.85" rx="40.496" ry="44.466" style="fill:rgb(71,152,250);"/>
                                    </g>
                                    <g transform="matrix(0.0987745,0,0,0.0899554,1890.25,1057.32)">
                                        <ellipse cx="268.134" cy="1206.85" rx="40.496" ry="44.466" style="fill:rgb(71,152,250);"/>
                                    </g>
                                </g>
                                <g transform="matrix(1,0,0,1,-309.738,394)">
                                    <g transform="matrix(0.0987745,0,0,0.0899554,594.253,1057.32)">
                                        <ellipse cx="268.134" cy="1206.85" rx="40.496" ry="44.466" style="fill:rgb(71,152,250);"/>
                                    </g>
                                    <g transform="matrix(0.0987745,0,0,0.0899554,723.853,1057.32)">
                                        <ellipse cx="268.134" cy="1206.85" rx="40.496" ry="44.466" style="fill:rgb(71,152,250);"/>
                                    </g>
                                    <g transform="matrix(0.0987745,0,0,0.0899554,853.453,1057.32)">
                                        <ellipse cx="268.134" cy="1206.85" rx="40.496" ry="44.466" style="fill:rgb(71,152,250);"/>
                                    </g>
                                    <g transform="matrix(0.0987745,0,0,0.0899554,983.053,1057.32)">
                                        <ellipse cx="268.134" cy="1206.85" rx="40.496" ry="44.466" style="fill:rgb(71,152,250);"/>
                                    </g>
                                    <g transform="matrix(0.0987745,0,0,0.0899554,1112.65,1057.32)">
                                        <ellipse cx="268.134" cy="1206.85" rx="40.496" ry="44.466" style="fill:rgb(71,152,250);"/>
                                    </g>
                                    <g transform="matrix(0.0987745,0,0,0.0899554,1242.25,1057.32)">
                                        <ellipse cx="268.134" cy="1206.85" rx="40.496" ry="44.466" style="fill:rgb(71,152,250);"/>
                                    </g>
                                    <g transform="matrix(0.0987745,0,0,0.0899554,1371.85,1057.32)">
                                        <ellipse cx="268.134" cy="1206.85" rx="40.496" ry="44.466" style="fill:rgb(71,152,250);"/>
                                    </g>
                                    <g transform="matrix(0.0987745,0,0,0.0899554,1501.45,1057.32)">
                                        <ellipse cx="268.134" cy="1206.85" rx="40.496" ry="44.466" style="fill:rgb(71,152,250);"/>
                                    </g>
                                    <g transform="matrix(0.0987745,0,0,0.0899554,1631.05,1057.32)">
                                        <ellipse cx="268.134" cy="1206.85" rx="40.496" ry="44.466" style="fill:rgb(71,152,250);"/>
                                    </g>
                                    <g transform="matrix(0.0987745,0,0,0.0899554,1760.65,1057.32)">
                                        <ellipse cx="268.134" cy="1206.85" rx="40.496" ry="44.466" style="fill:rgb(71,152,250);"/>
                                    </g>
                                    <g transform="matrix(0.0987745,0,0,0.0899554,1890.25,1057.32)">
                                        <ellipse cx="268.134" cy="1206.85" rx="40.496" ry="44.466" style="fill:rgb(71,152,250);"/>
                                    </g>
                                </g>
                                <g transform="matrix(1,0,0,1,-309.738,489.466)">
                                    <g transform="matrix(0.0987745,0,0,0.0899554,594.253,1057.32)">
                                        <ellipse cx="268.134" cy="1206.85" rx="40.496" ry="44.466" style="fill:rgb(71,152,250);"/>
                                    </g>
                                    <g transform="matrix(0.0987745,0,0,0.0899554,723.853,1057.32)">
                                        <ellipse cx="268.134" cy="1206.85" rx="40.496" ry="44.466" style="fill:rgb(71,152,250);"/>
                                    </g>
                                    <g transform="matrix(0.0987745,0,0,0.0899554,853.453,1057.32)">
                                        <ellipse cx="268.134" cy="1206.85" rx="40.496" ry="44.466" style="fill:rgb(71,152,250);"/>
                                    </g>
                                    <g transform="matrix(0.0987745,0,0,0.0899554,983.053,1057.32)">
                                        <ellipse cx="268.134" cy="1206.85" rx="40.496" ry="44.466" style="fill:rgb(71,152,250);"/>
                                    </g>
                                    <g transform="matrix(0.0987745,0,0,0.0899554,1112.65,1057.32)">
                                        <ellipse cx="268.134" cy="1206.85" rx="40.496" ry="44.466" style="fill:rgb(71,152,250);"/>
                                    </g>
                                    <g transform="matrix(0.0987745,0,0,0.0899554,1242.25,1057.32)">
                                        <ellipse cx="268.134" cy="1206.85" rx="40.496" ry="44.466" style="fill:rgb(71,152,250);"/>
                                    </g>
                                    <g transform="matrix(0.0987745,0,0,0.0899554,1371.85,1057.32)">
                                        <ellipse cx="268.134" cy="1206.85" rx="40.496" ry="44.466" style="fill:rgb(71,152,250);"/>
                                    </g>
                                    <g transform="matrix(0.0987745,0,0,0.0899554,1501.45,1057.32)">
                                        <ellipse cx="268.134" cy="1206.85" rx="40.496" ry="44.466" style="fill:rgb(71,152,250);"/>
                                    </g>
                                    <g transform="matrix(0.0987745,0,0,0.0899554,1631.05,1057.32)">
                                        <ellipse cx="268.134" cy="1206.85" rx="40.496" ry="44.466" style="fill:rgb(71,152,250);"/>
                                    </g>
                                    <g transform="matrix(0.0987745,0,0,0.0899554,1760.65,1057.32)">
                                        <ellipse cx="268.134" cy="1206.85" rx="40.496" ry="44.466" style="fill:rgb(71,152,250);"/>
                                    </g>
                                    <g transform="matrix(0.0987745,0,0,0.0899554,1890.25,1057.32)">
                                        <ellipse cx="268.134" cy="1206.85" rx="40.496" ry="44.466" style="fill:rgb(71,152,250);"/>
                                    </g>
                                </g>
                            </g>
                        </g>
                        <g transform="matrix(0.707107,0.499712,-0.707107,0.499712,672.004,-273.166)">
                            <g opacity="0.8">
                                <g transform="matrix(0.81464,0,0,0.879311,-65.7653,92.9211)">
                                    <rect x="639.123" y="1219.01" width="61.377" height="193.333" style="fill:rgb(56,123,228);"/>
                                </g>
                                <g transform="matrix(4.98823e-17,-0.81464,0.879311,5.38423e-17,-676.997,1795.46)">
                                    <rect x="639.123" y="1219.01" width="61.377" height="193.333" style="fill:rgb(56,123,228);"/>
                                </g>
                            </g>
                        </g>
                        <g transform="matrix(0.482118,0.340713,-0.482118,0.340713,1532.03,-122.677)">
                            <g opacity="0.8">
                                <g transform="matrix(0.707107,-0.707107,0.707107,0.707107,-1149.57,1188.3)">
                                    <path d="M1108.71,1160.34L1151.14,1117.91L1186.49,1153.27L1144.07,1195.69L1186.49,1238.12L1151.14,1273.48L1108.71,1231.05L1066.28,1273.48L1030.93,1238.12L1073.35,1195.69L1030.93,1153.27L1066.28,1117.91L1108.71,1160.34Z" style="fill:none;stroke:rgb(56,123,228);stroke-width:8.8px;"/>
                                </g>
                            </g>
                        </g>
                        <g transform="matrix(1,0,0,0.7067,32.8533,-451.419)">
                            <circle cx="565.331" cy="1189.8" r="122.247" style="fill:none;stroke:rgb(56,123,228);stroke-opacity:0.2;stroke-width:70.02px;"/>
                        </g>
                        <g transform="matrix(0.173262,0,0,0.122444,1212.88,441.588)">
                            <circle cx="565.331" cy="1189.8" r="122.247" style="fill:none;stroke:rgb(56,123,228);stroke-opacity:0.2;stroke-width:57.72px;"/>
                        </g>
                        <g transform="matrix(1,0,0,0.7067,501.76,-127.322)">
                            <circle cx="565.331" cy="1189.8" r="122.247" style="fill:rgb(56,123,228);fill-opacity:0.4;"/>
                        </g>
                        <g transform="matrix(0.23434,0,0,0.165608,163.145,515.902)">
                            <circle cx="565.331" cy="1189.8" r="122.247" style="fill:rgb(56,123,228);fill-opacity:0.2;"/>
                        </g>
                    </g>
                </g>
            </g>
        </g>
    </g>
</svg>
