<?xml version="1.0" encoding="utf-8"?>
<!-- Generator: Adobe Illustrator 22.1.0, SVG Export Plug-In . SVG Version: 6.00 Build 0)  -->
<svg version="1.1" id="Calque_1" xmlns="http://www.w3.org/2000/svg" xmlns:xlink="http://www.w3.org/1999/xlink" x="0px" y="0px"
	 viewBox="0 0 24 24" style="enable-background:new 0 0 24 24;" xml:space="preserve">
<style type="text/css">
	.st0{fill:#969696;}
</style>
<path id="FB" class="st0" d="M18,2H6C5.9,2,5.7,2,5.6,2c-0.1,0-0.3,0-0.4,0.1C5.1,2.1,5,2.1,4.8,2.2c-0.1,0-0.2,0.1-0.4,0.1
	C4.3,2.4,4.2,2.4,4.1,2.5C4,2.5,3.9,2.6,3.8,2.7C3.7,2.7,3.6,2.8,3.5,2.9C3.4,3,3.3,3.1,3.2,3.2S3,3.4,2.9,3.5
	C2.8,3.6,2.7,3.7,2.7,3.8C2.6,3.9,2.5,4,2.5,4.1C2.4,4.2,2.4,4.3,2.3,4.5C2.3,4.6,2.2,4.7,2.2,4.8c0,0.1-0.1,0.3-0.1,0.4
	c0,0.1,0,0.3-0.1,0.4C2,5.7,2,5.9,2,6v12c0,0.1,0,0.3,0,0.4c0,0.1,0,0.3,0.1,0.4c0,0.1,0.1,0.3,0.1,0.4c0,0.1,0.1,0.2,0.1,0.4
	c0.1,0.1,0.1,0.2,0.2,0.4c0.1,0.1,0.1,0.2,0.2,0.3c0.1,0.1,0.2,0.2,0.2,0.3c0.1,0.1,0.2,0.2,0.3,0.3c0.1,0.1,0.2,0.2,0.3,0.3
	c0.1,0.1,0.2,0.2,0.3,0.2c0.1,0.1,0.2,0.1,0.3,0.2c0.1,0.1,0.2,0.1,0.4,0.2s0.2,0.1,0.4,0.1s0.3,0.1,0.4,0.1c0.1,0,0.3,0,0.4,0.1
	c0.1,0,0.3,0,0.4,0h5.9v-6.8H9.5v-2.7h2.4v-2c0-2.3,1.4-3.5,3.5-3.5c1,0,1.9,0.1,2.1,0.1v2.4l-1.4,0c-1.1,0-1.4,0.5-1.4,1.3v1.7h2.7
	l-0.4,2.7h-2.4V22H18c0.1,0,0.3,0,0.4,0c0.1,0,0.3,0,0.4-0.1c0.1,0,0.3-0.1,0.4-0.1s0.2-0.1,0.4-0.1c0.1-0.1,0.2-0.1,0.4-0.2
	c0.1-0.1,0.2-0.1,0.3-0.2c0.1-0.1,0.2-0.2,0.3-0.2c0.1-0.1,0.2-0.2,0.3-0.3c0.1-0.1,0.2-0.2,0.3-0.3c0.1-0.1,0.2-0.2,0.2-0.3
	c0.1-0.1,0.1-0.2,0.2-0.3c0.1-0.1,0.1-0.2,0.2-0.4c0.1-0.1,0.1-0.2,0.1-0.4s0.1-0.3,0.1-0.4c0-0.1,0-0.3,0.1-0.4c0-0.1,0-0.3,0-0.4
	V6c0-0.1,0-0.3,0-0.4c0-0.1,0-0.3-0.1-0.4c0-0.1-0.1-0.3-0.1-0.4c0-0.1-0.1-0.2-0.1-0.4c-0.1-0.1-0.1-0.2-0.2-0.4
	c-0.1-0.1-0.1-0.2-0.2-0.3c-0.1-0.1-0.2-0.2-0.2-0.3c-0.1-0.1-0.2-0.2-0.3-0.3c-0.1-0.1-0.2-0.2-0.3-0.3c-0.1-0.1-0.2-0.2-0.3-0.2
	c-0.1-0.1-0.2-0.1-0.3-0.2c-0.1-0.1-0.2-0.1-0.4-0.2c-0.1-0.1-0.2-0.1-0.4-0.1c-0.1,0-0.3-0.1-0.4-0.1c-0.1,0-0.3,0-0.4-0.1
	C18.3,2,18.1,2,18,2z"/>
</svg>
