<?xml version="1.0" encoding="utf-8"?>
<!-- Generator: Adobe Illustrator 22.1.0, SVG Export Plug-In . SVG Version: 6.00 Build 0)  -->
<svg version="1.1" id="Calque_1" xmlns="http://www.w3.org/2000/svg" xmlns:xlink="http://www.w3.org/1999/xlink" x="0px" y="0px"
	 viewBox="0 0 24 24" style="enable-background:new 0 0 24 24;" xml:space="preserve">
<style type="text/css">
	.st0{fill:#969696;}
</style>
<path class="st0" d="M18.3,2H5.8C3.7,2,2,3.7,2,5.8v12.5C2,20.3,3.7,22,5.8,22h12.5c2.1,0,3.8-1.7,3.8-3.8V5.8C22,3.7,20.3,2,18.3,2
	z M5.1,19l0-9.3h3.1l0,9.3H5.1z M6.6,8.5L6.6,8.5c-1,0-1.7-0.7-1.7-1.6c0-0.9,0.7-1.6,1.7-1.6c1,0,1.7,0.7,1.7,1.6
	C8.3,7.8,7.6,8.5,6.6,8.5z M19,19h-3.1v-5.1c0-1.2-0.3-2.1-1.4-2.1c-0.8,0-1.3,0.6-1.5,1.1c-0.1,0.2-0.1,0.5-0.1,0.7V19H9.7l0-9.3
	h3.1l0,1.3c0.4-0.6,1.1-1.5,2.7-1.5c2,0,3.5,1.3,3.5,4.1V19z"/>
</svg>
