<?xml version="1.0" encoding="utf-8"?>
<!-- Generator: Adobe Illustrator 22.1.0, SVG Export Plug-In . SVG Version: 6.00 Build 0)  -->
<svg version="1.1" id="Calque_2" xmlns="http://www.w3.org/2000/svg" xmlns:xlink="http://www.w3.org/1999/xlink" x="0px" y="0px"
	 viewBox="0 0 113 20.1" style="enable-background:new 0 0 113 20.1;" xml:space="preserve">
<style type="text/css">
	.st0{fill:#FEC109;}
	.st1{fill:#D8D8D8;enable-background:new    ;}
</style>
<path class="st0" d="M11.4,0.5L14.1,6l6.1,0.9C21,7,21.3,8,20.7,8.6l-4.4,4.3l1,6.1c0.1,0.8-0.7,1.4-1.4,1l-5.4-2.9L5.1,20
	c-0.7,0.4-1.5-0.2-1.4-1l1-6.1L0.3,8.6C-0.3,8,0,7,0.8,6.9L6.9,6l2.7-5.5C10-0.2,11-0.2,11.4,0.5z"/>
<path class="st0" d="M34.4,0.5L37.1,6l6.1,0.9C44,7,44.3,8,43.7,8.6l-4.4,4.3l1,6.1c0.1,0.8-0.7,1.4-1.4,1l-5.4-2.9L28.1,20
	c-0.7,0.4-1.5-0.2-1.4-1l1-6.1l-4.4-4.3C22.7,8,23,7,23.8,6.9L29.9,6l2.7-5.5C33-0.2,34-0.2,34.4,0.5z"/>
<path class="st0" d="M57.4,0.5L60.1,6l6.1,0.9C67,7,67.3,8,66.7,8.6l-4.4,4.3l1,6.1c0.1,0.8-0.7,1.4-1.4,1l-5.4-2.9L51.1,20
	c-0.7,0.4-1.5-0.2-1.4-1l1-6.1l-4.4-4.3C45.7,8,46,7,46.8,6.9L52.9,6l2.7-5.5C56-0.2,57-0.2,57.4,0.5z"/>
<path class="st0" d="M80.4,0.5L83.1,6l6.1,0.9C90,7,90.3,8,89.7,8.6l-4.4,4.3l1,6.1c0.1,0.8-0.7,1.4-1.4,1l-5.4-2.9L74.1,20
	c-0.7,0.4-1.5-0.2-1.4-1l1-6.1l-4.4-4.3C68.7,8,69,7,69.8,6.9L75.9,6l2.7-5.5C79-0.2,80-0.2,80.4,0.5z"/>
<path class="st1" d="M103.4,0.5l2.7,5.5l6.1,0.9c0.8,0.1,1.1,1.1,0.5,1.7l-4.4,4.3l1,6.1c0.1,0.8-0.7,1.4-1.4,1l-5.4-2.9L97.1,20
	c-0.7,0.4-1.5-0.2-1.4-1l1-6.1l-4.4-4.3C91.7,8,92,7,92.8,6.9L98.9,6l2.7-5.5C102-0.2,103-0.2,103.4,0.5z"/>
</svg>
