<?xml version="1.0" encoding="utf-8"?>
<!-- Generator: Adobe Illustrator 25.0.1, SVG Export Plug-In . SVG Version: 6.00 Build 0)  -->
<svg version="1.1" id="Layer_1" xmlns="http://www.w3.org/2000/svg" xmlns:xlink="http://www.w3.org/1999/xlink" x="0px" y="0px"
	 viewBox="0 0 693.3 114" style="enable-background:new 0 0 693.3 114;" xml:space="preserve">
<style type="text/css">
	.st0{fill:#FFFFFF;}
</style>
<g id="Layer_2_1_">
	<g id="Layer_2-2">
		<g id="layer1">
			<path id="path5624" class="st0" d="M389.1,37.6c-7.1,0-14.1,0.9-19.9,2.6c-1.5,0.5-3,1-4.5,1.6c-0.2,0.1-0.4,0.2-0.7,0.3
				c-1.5,0.6-3,1.4-4.4,2.3c-1.9,1.3-3.5,3-4.9,4.8c-2.3,3.1-3.5,6.9-3.4,10.7c-0.1,5.4,2.1,10.5,6.1,14c1,1,2.2,1.8,3.5,2.4
				c1.2,0.6,2.4,1.1,3.7,1.5c5.4,1.8,13.3,2.7,20.4,2.3c1.8-0.1,7.4-0.1,12.5-0.1c8.8,0,9.4,0.1,10.3,0.4c0.4,0.1,0.7,0.3,1,0.5
				c0.1,0.1,0.2,0.1,0.3,0.1c0.3,0,2.1,1.8,2.1,2.1c0,0.1,0.1,0.2,0.1,0.2c0.3,0,0.9,2.3,0.9,3.6c0,2.7-1.2,4.9-3.4,5.9
				c-3.6,1.8-11.5,3.1-18.7,3.1c-4.1,0-8.2-0.4-12.2-1c-2.2-0.4-4.4-0.9-6.6-1.7c-5.4-1.7-8.9-3.2-12.5-5.4l-2.1-1.2l-0.3,0.4
				c-0.2,0.2-1.2,1.7-2.3,3.2s-2.8,4.1-3.9,5.6l-1.9,2.8l2.6,1.7c2.5,1.6,6.6,4,6.8,4c0.2,0.1,0.4,0.2,0.5,0.3
				c1,0.7,5.7,2.5,8.3,3.1c1.7,0.4,3,0.8,5.2,1.2c3.5,0.7,7,1.1,10.6,1.3c1.4,0.1,3.3,0.3,4.3,0.3s2.5,0.2,3.3,0.2
				c8.6,0.2,15.8-1,22.7-3.7c1.2-0.5,2.5-1.1,2.9-1.3l1.5-0.8c3.5-1.9,7.4-5.1,9.1-7.6c4.6-6.6,4.3-15.3-0.6-21.7
				c-3.5-4.6-10.3-8.5-17.2-9.8c-3.6-0.7-3.6-0.7-18.6-0.7c-15.9,0-15.8,0-18-1c-3.1-1.4-4.4-4.3-3.2-6.9c0.5-1.1,1.4-2,2.5-2.6
				c2.2-1.1,6.2-1.8,12.4-2.2c2.9-0.2,5.9-0.2,8.8,0c7.9,0.3,11.4,0.8,16.9,2.6c2.4,0.8,4.7,1.9,6.9,3.1l0.6,0.4l1.6-2.1
				c1.8-2.5,4.4-6.1,5.7-7.9c0.4-0.5,0.7-1,0.9-1.5c0-0.5-3.7-2.9-6.1-4c-4.9-2.1-10-3.6-15.3-4.4c-0.6-0.1-1.6-0.2-2.2-0.3
				C397.4,37.9,393.3,37.6,389.1,37.6z M168,39c-1.6,0-3.2,0.4-4.6,1.2c-1.8,1.1-17.2,25-41.7,64.7l-1.6,2.5h9h9l3.6-6l3.6-6
				l22.8,0.2l22.8,0.2l3.5,5.7l3.5,5.7l8.9,0.2l8.9,0.2l-16.5-26.8c-9.1-14.8-18.2-29.5-20.2-32.8c-2.1-3.5-4.7-6.6-6-7.5
				C171.6,39.5,169.8,38.9,168,39L168,39z M559.2,39.1c-3.4,0-7.8,0.2-10,0.5c-3.2,0.4-5.3,0.7-6.6,1L541,41
				c-3.4,0.7-6.6,1.9-9.7,3.3c-3.2,1.5-5.9,3.8-7.8,6.7c-1.1,1.7-2.1,3.5-3,5.4c-0.9,2.2-1.7,4.5-2.2,6.9
				c-2.4,10.3-1.3,21.7,2.9,30.2c1.7,3.7,4.3,7,7.5,9.6c3.7,3,13.5,5.3,25.2,5.8c6.2,0.2,12.3,0,18.4-0.7c7.7-0.9,14-2.8,16.6-4.8
				l1.8-1.4c3.6-2.7,6.1-6.5,7.9-12c1.4-4.1,2.2-8.5,2.4-12.8c0.2-4.4-0.1-8.9-0.9-13.2c-0.5-2.2-1.1-4.4-1.9-6.6
				c-1.1-2.8-3.1-6.3-4.4-7.6c-0.2-0.2-0.4-0.5-0.6-0.7c0-0.3-3.1-2.7-4.5-3.5c-3.7-2-7.7-3.6-11.9-4.5c-5.1-1-10.3-1.6-15.4-1.7
				C560.7,39.2,560,39.2,559.2,39.1L559.2,39.1z M625,39.8c-1.9-0.1-3.8,0.3-5.5,1.2c-1.6,0.9-3,2.2-3.9,3.8c-1,2.1-1-0.5-1,32.8
				V108h16V84.2c0-13.1,0-23.7,0.1-23.6c0.3,0.4,0.6,0.7,0.9,1c0.4,0.4,2.8,2.8,5.2,5.3l6.9,7l4.6,4.7l4.5,4.6
				c1.3,1.3,3.4,3.4,4.6,4.7l4.7,4.7l4.6,4.7c5.3,5.4,9.5,9.5,10.2,9.9c1.3,0.7,2.7,1.2,4.1,1.4c1.2,0.3,2.4,0.3,3.6,0.1
				c1.2-0.2,2.4-0.5,3.5-0.9c2.6-0.8,4.5-2.8,5.3-5.3c0.1-0.4,0.2-9.4,0.2-31.2V40.4h-15.8v23.7c0,14.1-0.1,23.6-0.2,23.5
				c-0.2-0.3-0.5-0.7-7.4-7.5c-3.1-3.1-5.7-5.7-5.7-5.8c0-0.1-2.7-2.7-5.9-5.9c-3.2-3.2-5.8-5.8-5.9-5.9
				c-0.2-0.2-14.1-14.3-19.2-19.3C631.4,40.9,628.2,39.6,625,39.8L625,39.8z M225.5,40.4V108h15.6V84h24.6l0.9,1.3
				c0.5,0.7,1.7,2.4,2.7,3.7s2,2.8,2.3,3.2c0.3,0.5,1.5,2,2.5,3.4l3.7,5.2c1,1.4,2.6,3.6,3.5,4.9l1.6,2.3h9.1c5,0,9.1,0,9.1-0.1
				c0,0-0.9-1.4-2.1-3l-4.7-6.7c-1.5-2.1-2.8-3.9-2.9-4.1c-0.4-0.6-5.3-7.6-6.8-9.7c-0.5-0.6-0.9-1.3-1.3-2c0,0,0.6-0.2,1.3-0.3
				c2.9-0.8,5.6-2.3,7.7-4.4c2.6-2.7,4.4-5.9,5.3-9.5c0.1-0.5,0.3-1.2,0.4-1.6c0.2-1.4,0.2-2.8,0.2-4.2c0-1.4,0-2.8-0.2-4.2
				c-0.1-0.4-0.3-1.1-0.4-1.6c-1.1-4.5-3.8-8.6-7.5-11.4c-2-1.2-4-2.2-6.1-3c-5-1.5-6.4-1.6-35.1-1.6L225.5,40.4z M437.7,40.4v14.6
				h28.5V108h16.1V55.1h27.8V40.4L437.7,40.4L437.7,40.4z M316.7,40.6V108h15.8V40.6L316.7,40.6L316.7,40.6z M558.5,53.9
				c3.5,0,7,0.2,10.4,0.6c1.6,0.2,3,0.4,3.7,0.6c4.1,0.9,5.2,1.4,6.9,3c1.4,1.2,2.5,2.8,3.2,4.5c0.6,1.9,1,3.8,1.3,5.7
				c0.3,3.9,0.3,7.8,0,11.6c-0.8,5.3-1.8,7.6-3.8,9.5c-2.5,2.3-7.5,4-14,4.9c-1.8,0.2-11.8,0.3-13.2,0.1c-4.5-0.7-5.8-0.9-8.1-1.7
				c-1.5-0.5-5.2-2.2-5.4-2.5c-0.2-0.2-0.4-0.4-0.7-0.5c-1.7-1.3-2.9-3.1-3.6-5.1c-2.1-6.6-2.1-15,0-21.1c1.4-4,2.9-5.8,6.3-7.4
				c0.3-0.1,0.6-0.3,0.9-0.5c0.2-0.3,2.7-0.8,5.9-1.2C551.6,54.1,555.1,53.9,558.5,53.9L558.5,53.9z M241.3,54.9h17.2
				c14,0,17.3,0,18.1,0.2c2.8,0.6,5,2.8,5.8,5.5c0.1,0.8,0.2,1.6,0.1,2.4c-0.1,1.6-0.1,1.8-0.7,3c-1,2-2.8,3.5-4.9,4.1
				c-1.1,0.3-4.3,0.4-19.9,0.3l-15.8-0.1l-0.1-7.1c0-3.9,0-7.4,0.1-7.8L241.3,54.9z M167.7,58.7c0.7-0.1,15,22.5,15,23.7
				c0,0.3-6.6,0.5-14.7,0.5c-11.6,0-14.6-0.2-14.3-0.8C154.1,80.9,167,59.4,167.7,58.7L167.7,58.7z"/>
		</g>
		<g id="Layer_3">
			<path class="st0" d="M102.7,41.9c-1.9-1.9-46.1-40.3-46.1-40.3c-1.3-1-2.9-1.6-4.6-1.6c-1.8,0-3.6,0.6-5,1.7L1.8,42
				c0,0-1.7,1.8-1.8,3.7L0,106.3c0,0,0.4,7.7,9,7.7h87.5c0,0,7.8-0.3,8.2-7.6V45.8C104.5,44.3,103.8,42.9,102.7,41.9z M90.8,100.7
				H13.7V49.9L52,16l38.8,33.9L90.8,100.7z"/>
			<polygon class="st0" points="52.1,43.4 33.9,59.3 33.9,83.5 70.4,83.5 70.4,59.4 			"/>
		</g>
	</g>
</g>
</svg>
