<?xml version="1.0" encoding="utf-8"?>
<!-- Generator: Adobe Illustrator 25.0.1, SVG Export Plug-In . SVG Version: 6.00 Build 0)  -->
<svg version="1.1" id="layer" xmlns="http://www.w3.org/2000/svg" xmlns:xlink="http://www.w3.org/1999/xlink" x="0px" y="0px"
	 viewBox="0 0 631.8 114" style="enable-background:new 0 0 631.8 114;" xml:space="preserve">
<style type="text/css">
	.st0{fill:#FFFFFF;}
</style>
<path class="st0" d="M527.1,30.6h-25.8V113h25.8V30.6z M159.8,113.2h3.6V95.5h-2.3c-4.1,0-8.1,0.1-12.2-0.1
	c-5.1-0.2-7.5-2.8-7.5-7.9V50.4c0-0.6,0.1-1.4,0.1-2.2c3.1,0,6.1,0.1,9.1,0c3.8-0.1,7.5-0.8,9.8-4.2c2.8-4,3.2-8.6,3.1-13.5h-22.1
	V18.1H116v70.4c0,2.5,0.2,5,0.8,7.4c2.3,9.4,9.2,14,18,16C143.1,113.9,151.5,113.1,159.8,113.2z M201.7,110.8
	c-0.1-36.1-0.1-72.3-0.1-108.5V0h-25.9v113.1h2c7.2,0,14.4-0.1,21.6,0C201.3,113.2,201.7,112.7,201.7,110.8z M427.9,111.6
	c-0.1-17.7,0.2-35.5-0.3-53.3c-0.3-11.1-5.8-19.5-16.2-24.1c-6.1-2.6-12.7-4-19.4-4c-9.5-0.2-19-0.4-28.5,1.3
	c-3.3,0.5-6.3,1.5-9.6,2.2c-0.1-1.1-0.1-1.9-0.2-3.1c-6.2,0.1-12.3-0.1-18.1,2.1c-4.6,1.7-6.2,4.1-6.2,9.1v71.3h26v-2.4
	c0-17.2,0.2-34.4-0.1-51.5c-0.1-4.3,1.6-6.1,5.2-7.6c8.7-3.7,17.9-4.2,27.2-3.3c9.3,0.9,14.3,4.7,14,16.2
	c-0.3,15.5-0.1,31.1-0.1,46.7c0,1.8,0.5,2.2,2.3,2.2c6.2-0.1,12.3,0,18.5,0h5.1C427.7,112.8,427.8,112.2,427.9,111.6z M485.6,44.6
	c3.4-4.1,3.4-9.1,3.7-14.1H467V18.1h-25.2c0,0.5-0.1,0.8-0.1,1.2v71.1c0,3.6,0.9,7.2,2.6,10.3c4,7.3,10.6,10.6,18.3,11.5
	c7.4,0.8,14.8,0.6,22.1,0.9h4.3V95.5h-2.3c-4.1,0-8.2,0.1-12.2-0.1c-5.2-0.2-7.6-2.8-7.6-7.8V48.3c3.2,0,6.2,0.1,9.2,0
	C479.7,48.2,483.1,47.4,485.6,44.6L485.6,44.6z M526.9,5.6c-5.6-7.2-19.5-7.3-25.1-0.2c-2.6,3.1-2.6,7.6,0,10.6
	c3.3,3.9,7.6,5.2,12.4,5.3c4,0.1,7.9-1.2,11-3.7C529.1,14.4,529.8,9.3,526.9,5.6z M571,87.4c-5.1-5.3-6.2-11.8-5.9-18.8
	c0.3-5.6,2.2-10.4,6.7-13.7c3-2.2,6.4-3.8,9.9-5c10.9-3.3,22-2.8,33.1-1.9c3.4,0.3,6.9,0.7,10.3,1.2V31.7c-1.9-0.2-3.7-0.5-5.5-0.7
	c-10.9-1.1-21.9-1.3-32.8-0.4c-8.4,0.5-16.7,2.3-24.6,5.3c-9.2,3.7-16.5,9.5-20.7,18.8c-2.8,6.6-3.3,13.6-2.8,20.7
	c0.3,6.2,2.2,12.1,5.4,17.4c5.2,8.4,13,13.6,22.1,16.5c17,5.6,34.3,5.9,51.6,3.1c10.5-1.7,15.2-8.7,13.4-18.7
	c-5.3,0.7-10.4,1.5-15.7,2c-9.7,1.1-19.5,1.3-29.2-0.5C580.9,93.8,575.3,91.8,571,87.4z M315.8,102.5c0,3.9-1.7,6.4-5.2,8.2
	c-3.5,1.8-15.3,2.8-19.1,2.1c-0.1-0.9-0.1-1.8-0.2-2.6c-3.9,0.9-7.6,2.2-11.5,2.7c-16.9,2.1-33.1,0.3-48.1-8.2
	c-11.9-6.7-17.7-17.5-18.3-31c-0.4-9.6,1.1-18.7,7.3-26.3c5.4-6.9,12.8-10.7,21-13.3c9.6-3,19.5-4,29.5-4.2
	c9.6-0.4,19.3,0.8,28.6,3.5c3,0.9,5.8,2.2,8.4,3.9c4.9,2.9,7.8,8.2,7.6,13.9C315.7,68.3,315.7,85.4,315.8,102.5z M289.6,89.5
	c-0.1-6.1,0-12.1,0-18.2c0-6.1-0.1-12.1,0-18.2c0.2-1.6-0.8-3.1-2.3-3.6c-0.7-0.3-1.4-0.5-2.1-0.7c-8.7-1.8-17.8-1.7-26.5,0.3
	c-5.3,1.2-10.2,3.3-14,7.3c-4.6,5-5.7,11-5.1,17.5c0.8,8.4,4.6,14.9,12.5,18.2c4.5,1.8,9.1,3,13.9,3.6c7.4,1.2,15.1,0.1,21.8-3.3
	C289.1,91.8,289.7,90.7,289.6,89.5L289.6,89.5z M102.3,102.6c0.2,3.5-1.9,6.8-5.3,8c-4,1.5-8.3,2.3-12.5,2.2c-2.1,0.1-4.2,0-6.5,0
	c-0.1-1.1-0.1-1.9-0.2-2.7c-3.8,0.9-7.6,2.3-11.4,2.7c-18.2,2.1-35.7,0.1-51.2-10.4c-9-6-13.7-14.9-14.8-25.6
	C-0.3,70.4-0.2,64.2,1.7,58c3.2-10.4,10.4-17.1,20.1-21.5c7.9-3.5,16.4-5.5,25-6c6.7-0.6,13.4-0.7,20.1-0.4
	c8.1,0.3,16.2,1.5,23.8,4.8c5.8,2.6,10.3,6.4,11.4,13.2c0.1,0.9,0.2,1.8,0.2,2.6C102.3,68.1,102.2,85.4,102.3,102.6z M76.2,89.5
	c-0.1-6,0-12,0-18v-17c0-3.9-0.6-4.8-4.5-5.7C61.5,46.5,50.9,47,41,50.3C30.5,53.9,25.7,60.9,26,72c0.2,10,5.5,17.5,14.9,21.1
	c5.9,2.1,12.2,3.1,18.5,2.8c5.2-0.1,10.4-1.3,15.1-3.6C75.6,91.9,76.3,90.7,76.2,89.5z"/>
</svg>
