<svg id="Layer_3" data-name="Layer 3" xmlns="http://www.w3.org/2000/svg" viewBox="0 0 226.04 47.06"><defs><style>.cls-1{fill:#ed3c36;}.cls-2{fill:#4f4e53;}</style></defs><path class="cls-1" d="M209.46,31.59a17.61,17.61,0,1,0,17.18,17.6A17.4,17.4,0,0,0,209.46,31.59Zm-.26,29.13A11.73,11.73,0,1,1,220.93,49,11.73,11.73,0,0,1,209.2,60.72Z" transform="translate(-0.61 -19.73)"/><rect class="cls-1" x="191.67" width="5.2" height="29.46"/><path class="cls-1" d="M181.78,56.38a11.64,11.64,0,1,1,3-7.8,12.12,12.12,0,0,1-.18,2h5.8c.06-.6.09-1.2.09-1.81a17.19,17.19,0,1,0-17.19,17.48,17,17,0,0,0,11-4.05Z" transform="translate(-0.61 -19.73)"/><rect class="cls-1" x="160.39" y="25.82" width="25.65" height="4.94"/><path class="cls-1" d="M157.56,31.29l-11.18,35h-5.15l-8.85-26-8.42,26h-5.07l-12-35h5.42l9.07,27.79,6.38-20.84a4.77,4.77,0,0,1,9.1-.06l6.64,20.6,8.59-27.49" transform="translate(-0.61 -19.73)"/><rect class="cls-2" x="97.4" y="11.56" width="6.62" height="34.98"/><path class="cls-2" d="M100.62.82h0a3.82,3.82,0,0,1,3.82,3.82V8.46a0,0,0,0,1,0,0h-3.82A3.82,3.82,0,0,1,96.8,4.64v0A3.82,3.82,0,0,1,100.62.82Z"/><path class="cls-2" d="M81.77,20.54V49.12A10.26,10.26,0,0,0,92,59.39h3.91v6.87H92.08a17,17,0,0,1-17-17V20.54Z" transform="translate(-0.61 -19.73)"/><rect class="cls-2" x="79.6" y="11.56" width="15.74" height="6.79"/><path class="cls-2" d="M55.51,31h0A17.65,17.65,0,0,0,37.86,48.61h0A17.65,17.65,0,0,0,55.51,66.26H73.17V48.61A17.65,17.65,0,0,0,55.51,31ZM65.87,59.47H55.17a10.7,10.7,0,0,1,0-21.4h0a10.7,10.7,0,0,1,10.7,10.7Z" transform="translate(-0.61 -19.73)"/><path class="cls-2" d="M18.26,66.6h0A17.65,17.65,0,0,0,35.92,48.94h0A17.65,17.65,0,0,0,18.26,31.29H.61V48.94A17.65,17.65,0,0,0,18.26,66.6ZM7.91,38.08h10.7a10.7,10.7,0,0,1,0,21.4h0a10.7,10.7,0,0,1-10.7-10.7Z" transform="translate(-0.61 -19.73)"/><rect class="cls-2" y="0.82" width="7.3" height="16.05"/></svg>