<?xml version="1.0" encoding="utf-8"?>
<!-- Generator: Adobe Illustrator 25.0.1, SVG Export Plug-In . SVG Version: 6.00 Build 0)  -->
<svg version="1.1" id="Layer_1" xmlns="http://www.w3.org/2000/svg" xmlns:xlink="http://www.w3.org/1999/xlink" x="0px" y="0px"
	 viewBox="0 0 472.2 114" style="enable-background:new 0 0 472.2 114;" xml:space="preserve">
<style type="text/css">
	.st0{fill:#FFFFFF;}
	.st1{fill-rule:evenodd;clip-rule:evenodd;fill:#FFFFFF;}
</style>
<path class="st0" d="M82.5,37.7l-0.1-3.5l1.4,2.3c4,6.6,6.3,14,6.3,20.9c0,8.8-3.3,15.4-6.3,20.1l-1.4,2.3l0.1-3.9V38.2l0,0.2
	L82.5,37.7 M39.5,65.2V48.1h35.1v17.8H39.5V65.2z M30.1,76.7c-4.2-6.5-6.2-12.6-6.2-19.3c0-8.8,3.4-15.8,6.2-20.2l1.4-2.2l-0.1,3.8
	v36.2l0,1.2l0.1,2.6L30.1,76.7L30.1,76.7z M74.5,22.4v17.6H39.5V22.4c0-2.2-0.7-2.4-1.4-2.4c-0.4,0-0.9,0.1-1.2,0.3
	c-13.1,7.9-20.9,21.8-20.9,37.1c0,14.9,7.6,28,20.9,36.1c0.4,0.2,0.8,0.3,1.2,0.3c1.3,0,1.4-1.4,1.4-1.4V73.9h35.1v18.6
	c0,0.7,0.2,1.4,2.4,1.4c0.3,0,0.5-0.1,0.7-0.2c12.6-7.5,20.4-21.4,20.4-36.3c0-15.2-7.8-29.7-19.9-37.1c-1.1-0.7-2.6-0.3-3.3,0.8
	C74.7,21.6,74.5,22,74.5,22.4 M21.9,92.6c-9.7-9.5-15-21.9-15-35.1c0-27.9,22.7-50.6,50.6-50.6c13.2,0,25.7,5.3,35.1,15.1
	c9.4,9.6,14.6,22.3,14.6,35.6c0,27.4-22.3,49.7-49.7,49.7C44.2,107.1,31.5,102,21.9,92.6 M0,57.5C0,72.7,6,87,16.8,97.6
	C27.7,108.2,42.1,114,57.5,114c31.2,0,56.5-25.3,56.5-56.5c0-15.4-5.8-29.8-16.4-40.6C87,6,72.7,0,57.5,0C25.8,0,0,25.8,0,57.5"/>
<path class="st1" d="M188,73.7c0,12.7-11.7,21.1-23.6,21.1h-38.6V19.3h35.4c13.6,0,23.5,6.8,23.5,20.8c0,11.9-10.4,15.5-10.4,15.5
	C174.3,55.7,188,58.8,188,73.7 M165.4,42.2c0-4.2-2.9-7.1-7.2-7.1h-13.8v14.1h13.5C162.8,49.1,165.4,45.5,165.4,42.2 M167.9,71.6
	c0-4.4-3.2-7.4-10-7.4h-13.5v14.8h13.8C163.9,79.1,167.9,77.1,167.9,71.6 M264.5,57c0,22.2-12.7,39.6-34.8,39.6
	c-21.9,0-34.8-17.4-34.8-39.6c0-22.1,12.8-39.6,34.8-39.6C251.7,17.4,264.5,34.9,264.5,57 M245.9,57c0-11.8-5.4-21.4-16.2-21.4
	s-16.1,9.6-16.1,21.4c0,11.9,5.3,21.5,16.1,21.5S245.9,68.9,245.9,57 M329.4,72c0,16.6-15.1,24.7-29.2,24.7
	c-16.4,0-24.8-6.3-31.4-14.2l12.1-11.8c5.1,6.5,11.7,9.7,19.2,9.7c6.1,0,10.2-3,10.2-7.5c0-4.8-3.6-6.3-13.5-8.4l-2.7-0.6
	c-11.9-2.5-21.7-9.3-21.7-22.8c0-14.9,12.1-23.8,28-23.8c13.5,0,22.3,5.8,27.6,11.8l-11.7,11.6c-3.7-3.9-9.2-7-15.5-7
	c-4.3,0-9.2,2-9.2,7c0,4.6,5.1,6.2,11.5,7.6l2.7,0.6C316.4,51.2,329.4,54.5,329.4,72 M401.3,80.2c-7.7,11.2-14.9,16.4-29.9,16.4
	c-21.3,0-35-17.6-35-40.1c0-21.3,12.4-39.1,35.2-39.1c12.5,0,21.5,4.9,29.1,16.4L385.5,44c-3.1-5.4-7.1-8.5-13.7-8.5
	c-8.4,0-16.5,7.5-16.5,21c0,15.1,8.7,22,17.1,22c7.2,0,10.5-3.6,13.6-8.7L401.3,80.2 M472.2,94.8h-19.9V65h-22.9v29.8h-19.8V19.3
	h19.8v27.8h22.9V19.3h19.9V94.8z"/>
</svg>
