<?xml version="1.0" encoding="utf-8"?>
<!-- Generator: Adobe Illustrator 25.0.1, SVG Export Plug-In . SVG Version: 6.00 Build 0)  -->
<svg version="1.1" id="svg2462" xmlns="http://www.w3.org/2000/svg" xmlns:xlink="http://www.w3.org/1999/xlink" x="0px" y="0px"
	 viewBox="0 0 612.1 114" style="enable-background:new 0 0 612.1 114;" xml:space="preserve">
<style type="text/css">
	.st0{fill:#FFFFFF;}
	.st1{fill:#FCFCFD;}
	.st2{fill:#FEFEFE;}
	.st3{fill:#FDFDFD;}
</style>
<path class="st0" d="M7,84c-11.4-17.8-8.7-46.3,6.2-63.6C22.5,9.6,34.1,2.8,48.3,0.8c7.5,0,15-0.6,22.4,1.1
	c7.4,0.9,13.6,4.8,19.6,8.8c1.8,1.2,0.6,2.5-1,3.1c-3.2,1.2-6.3,2.4-9.6,3.6C60.2,25,41.2,33.5,23,44.1c-1.1,0.6-1.9,1.6-2.9,2.3
	c-1.3,0.7-2.3,1.7-3.5,2.6c-5.2,6.3-6.9,10.1,2.7,17.6c13.3,10.3,28.8,16.7,44.1,23.2c8.3,3.6,16.9,6.7,25.3,10
	c2.8,1.1,3.6,2.2,0.7,4.2c-26.5,18.4-63.7,10.5-79.7-15.6C8.8,86.9,8.4,85.2,7,84z"/>
<path class="st0" d="M113.8,56.9c-0.2,12-3.5,22.9-10.3,32.8c-3.1,4.4-4.9,4.8-9.6,2.3c-12.8-7-25.5-14.3-36.7-23.8
	c-10.6-8.9-10.6-13.2,0.1-22.2c11.5-9.7,24.4-17.1,37.5-24.2c3.2-1.8,5.8-1.3,8.1,1.8C110.1,33.4,113.5,44.7,113.8,56.9z"/>
<path class="st0" d="M331.7,42.9c4.1,0,8.2,0.4,12.3,0c3.7-0.3,2.9,2.1,2.9,4c0,2.1,0.9,4.8-3.1,4.4c-2.8-0.3-5.7,0.1-8.5-0.1
	c-2.9-0.3-3.8,0.7-3.8,3.7c0.1,10.5,0,21-0.1,31.5c-2.2,0.6-4.5,0.6-6.6,0c-0.6-0.4,0.6-0.1,0.1,0.2c2.1,0.9,4.3-0.4,6.4,0.7
	c-2.2,1.5-4.6,0.6-6.9,0.6c-2.3,0-1.5-2.1-1.5-3.3c0-9.9-0.1-19.9,0-29.8c0-2.8-0.7-3.6-3.5-3.5c-5.4,0.2-10.8,0.2-16.2,0
	c-2.9-0.1-3.4,1-3.4,3.6c0.1,10.5,0,21-0.1,31.5c-2.6,1.3-5.7,1.3-8.4,0c0-10.3-0.2-20.7-0.1-31.1c0-2.9-0.4-4.7-3.9-4
	c-4,0.7-3.2-2.2-3.4-4.5c-0.3-2.8,0.4-4.4,3.6-3.9c2.6,0.4,3.6-0.4,3.7-3.4c0.4-11.8,11.4-18.4,22.6-13.8c1.2,0.5,1.3,1.2,1.3,2.3
	v6.8c-2.7-0.6-5.2-1.4-7.6-1.7c-3-0.3-5.6,0.6-6.9,3.7c-2,4.6-1.1,6,3.9,6c5.2,0,10.5,0,15.8,0c1.9,0,2.6-0.3,2.8-2.5
	c1-12.8,8.6-18,21.3-14.7c3.7,2.3,1.8,5.7,1.6,8.7c-1.1-0.3-2.2-0.6-3.2-0.9c-6.3-1.5-9-0.1-11.1,6.1
	C330.6,40.9,330.6,41.9,331.7,42.9z"/>
<path class="st0" d="M137,49.8c2.4-13.3,14-23.6,27.8-24.7c6.1-0.5,12.3,0.2,18.1,2.2c3.8,1.3,6.1,3.3,5.2,7.7c-0.2,1.1,0,2.3,0,3.8
	c-4.2-1.5-7.8-3.7-12-4.4c-11.6-2.1-21.6,1.4-26.9,10c-4.8,7.7-4.3,18.6,1.2,26c6.2,8.3,17.2,11.7,27.9,8.8c3.3-0.9,6.2-2.6,9.7-4
	c0,2.7,0,4.9,0,7.2c0,1.3-0.4,2.1-1.7,2.7c-12.2,5.6-24.3,6-35.8-1.4c-11.1-7.1-15.5-17.7-14.4-30.7c0.1-0.6,0.3-1.1,0.6-1.6
	c0.4,0.2,0.3,0.7,0.6,0.9C137.1,51.5,137.6,50.6,137,49.8z"/>
<path class="st1" d="M476.4,61.8c-0.1-10.8-8-19.2-18.3-19.6c-11-0.5-20,7-21.7,18.1c-2.1,13.5,4.1,24.7,15.8,28
	c7.8,2.2,15.1,0.2,22.3-2.9c1.2-0.5,1.7-1.3,1.7-2.6c0-2.2,0-4.4,0-7.2c-5.6,3.2-11,5.2-16.9,5.4c-6.1,0.3-11.7-3.4-13.7-8.8
	c-1.1-2.9-0.8-4.4,2.9-4.3c8.1,0.2,16.2,0.1,24.3,0c1.3,0,2.9,0.8,3.9-0.7C476.7,65.2,475.3,63.5,476.4,61.8z M467.9,60.9
	c-7.4,0.8-14.8,0.8-22.2,0c-0.6-5.9,3.1-8.8,7.8-10.9c2.2-0.8,4.5-0.8,6.7,0C464.8,52.1,468.5,55,467.9,60.9z"/>
<path class="st2" d="M372.3,42.1c-13.3,0-23.6,10.2-23.5,23.3c-0.1,13,10.4,23.6,23.4,23.7c13.4,0.1,23.7-10.1,23.8-23.6
	C396.1,52.7,385.4,42.1,372.3,42.1z M387.6,69.4c-4.2,9.3-7.7,11.7-16.2,11.4c-6.4-0.3-11.8-4.2-13.4-9.9
	c-2.1-7.4,0.7-15.1,6.6-18.8c5.5-3.4,12.7-2.5,17.8,1.9c2.7,2.3,3.9,5.5,5.3,8.6C388.4,64.9,388.5,67.1,387.6,69.4z"/>
<path class="st1" d="M277.8,54.5c-0.6-5.8-4-9.6-9.4-11.5c-4.1-1.4-8.4-1.2-12.6-0.6c-8.6,1.3-10,3.2-10.2,12.6
	c3.6-2.3,7.6-4,11.7-5.1c1.5-0.9,3.4-0.9,4.9-0.1c0.8,0.3,1.6,0.6,2.4,0.9c3.2,1.2,4.9,3.6,4.6,6.9c-0.3,3.4-3.4,1.1-5.1,2
	c-0.8,0.5-2,0.2-2.9,0.4c-5.4,0.9-10.6,2.3-14.4,6.6c-3.4,3.8-4.9,8.2-3.3,13.3c1.7,5.2,5.4,7.8,10.6,8.6c4.5,0.7,8.7-0.3,12.8-2.2
	c0.7-0.3,1.5-0.6,2.3-0.8c1,4.4,4.6,1.8,6.9,2.4c1.8,0.5,2.5-0.6,2.5-2.4C278.1,75.3,278.8,64.9,277.8,54.5z M269.9,76.3
	c-2.5,4.6-12.3,7.1-16.4,4.1c-2.5-1.9-2.8-4.4-1.6-7.2c2.1-4.8,13-8.6,18-6.1C270.7,70.1,270.7,73.3,269.9,76.3z"/>
<path class="st3" d="M518.4,85.6c0-10.1,0.1-20.2-0.2-30.3c-0.2-6.2-4.4-10.9-10.4-12.5c-4.5-1.2-9-1-13.5,0
	c-6.6,1.3-7.8,2.7-8.4,9.1c-0.2,2,0.3,2.8,2.3,1.7c2.9-1.7,6-2.5,9.1-3.6c1.6-1,3.2-0.8,4.8-0.2c1.4,0.6,3,0.9,4.3,1.7
	c2.3,1.4,3.5,4,3,6.6c-0.3,2.2-2.9,1.2-4.3,1.4c-5.8,0.8-11.6,1.7-16.4,5.4c-4.7,3.6-6.5,8.5-5.4,14.3c0.9,4.9,4.9,8.3,10.4,9.3
	c4.5,0.8,8.7-0.1,12.8-2c1.4-0.6,2.1-1.5,3.5,0.7c1.3,2,4.7,0.6,7.2,0.6C518.6,87.9,518.4,86.5,518.4,85.6z M507.7,79.1
	c-4.4,2-8.8,3.5-13.4,1.3c-3.5-1.7-3.7-6.9-0.2-9.7c4-3.3,8.9-4.2,13.9-4.6c1.7-0.1,1.9,0.8,1.8,2.1v4.6
	C509.2,74.7,511.1,77.6,507.7,79.1z"/>
<path class="st0" d="M206.3,44.7c3.7-1.2,7.4-2.8,11.5-2.7c10.3,0.1,17.5,6.2,18.1,16.4c0.6,9.1,0.2,18.2,0.3,27.2
	c0,4.1-3.1,2.2-5,2.4c-1.7,0.2-4.1,0.9-4-2.5c0.2-7.4,0.1-14.8,0-22.1c-0.1-5-0.9-10-6.2-12.1c-5.4-2.1-10.6-1.1-14.9,3
	c-1.1,3.9-0.4,7.8-0.5,11.7c-0.1,5.2,0,10.5,0,15.8c0,6.1-1.2,6.9-7.4,4.8c-0.5-18.2-0.1-36.4-0.2-54.6c0-1.7,0.3-3.4-0.3-5.1
	c2.7-1.1,5.6-1.1,8.3,0C205.5,32.7,204.9,38.7,206.3,44.7z"/>
<path class="st0" d="M564.3,87.4c-3,0.5-6.2,2.5-8.7-1.2c-0.6-0.9-1.5,0.3-2.1,0.6c-13.7,6.2-26.3-1.1-27.3-16.2
	c-0.6-8.4-0.1-16.8-0.2-25.2c0-1.6,0.5-2.2,2.2-2.3c6.4-0.6,6.7-0.5,6.7,5.9s-0.2,12.8,0,19.2c0.5,10.4,8.3,15.4,17.6,11.3
	c2.4-1.1,3.7-2.4,3.6-5.4c-0.2-9-0.1-17.9,0-26.9c0-1.2-0.9-2.9,0.7-3.8c0.6,0.1-0.2,0.1,0.4,0.2c6.9,1.3,6.9,1.3,6.9,8.5
	c0,10.5,0,21,0,31.5c0,2.5-0.3,4.2-3.6,3.3C561.8,87.2,563.1,86.5,564.3,87.4z"/>
<path class="st0" d="M571.1,86.5c4.4-6.8,8.7-13.6,13.3-20.2c1.4-2,1.3-3.3,0-5.2c-4.1-5.7-8-11.6-12.4-18c3.4,0,6.1,0.1,8.7,0
	c1.7,0,2.1,1.1,2.8,2.2c2.4,3.8,4.9,7.6,7.6,11.8c1.8-2.9,3.9-5.2,4.9-7.8c2.6-6.6,7.5-6.9,13.7-5.8c-3.7,5.5-7,10.9-10.9,16
	c-2.3,3.1-2.5,5.2-0.1,8.4c4.4,5.7,8.2,11.9,12.2,17.9c-2.8,3.2-6.1,1.4-9.3,1.1c-3.4-5.2-6.9-10.3-10.6-15.8
	c-3.5,5.4-7,10.6-10.4,15.8C577.5,87.4,574.3,88.1,571.1,86.5z"/>
<path class="st0" d="M406.2,51.6c-0.7,0-1.4-0.2-2.1-0.2c-4.7-0.1-6.4-2.6-5-7.1c0.6-1.9,2-1.4,3.1-1.2c3.2,0.4,4.5-0.7,4-4
	c-0.1-1.1,0.1-2.3,0-3.4c-0.3-2.1,0.4-2.9,2.7-3c6.2-0.1,6.4-0.2,6.1,5.9c-0.1,3.4,0.6,4.9,4.3,4.5c2.9-0.3,6,0.1,8.9-0.1
	c3.2-0.3,3.2,1.7,2.9,3.7c-0.3,1.9,1.5,4.9-2.7,4.7c-3.3-0.1-6.5,0.1-9.8-0.1c-2.7-0.2-3.8,0.5-3.6,3.4c0.2,6,0,11.9,0.1,17.9
	c0,6.2,3.2,8.8,9.2,7.7c2.2-0.4,4.2-1.4,6.3-2.2c0.2,0.2,0.4,0.5,0.4,0.6c0.3,8.6-0.9,9.8-9.7,10c-8.9,0.2-14.7-4.7-14.9-12.6
	C407,68.1,407.7,59.8,406.2,51.6z"/>
<path class="st0" d="M197.6,26.8c1.2,1.3,0.7,3,0.7,4.5c0,18.4,0.1,36.8,0,55.2c0.3,0.7,0,1-0.7,0.8c-0.1-16-0.2-31.9-0.3-47.9
	C197.3,35.3,197.5,31,197.6,26.8z"/>
<path class="st0" d="M564.3,87.4h-7.4c0.4-0.7,0.6-1.1,0.6-1.1c5.9,0.4,5.9,0.4,5.9-5.2c0-10.4-0.1-20.7,0-31.1c0-3.4-0.2-6-4.6-5.2
	c-1.1,0.2-2-0.2-2.2-1.4c0.3,0,0.6,0,0.9,0c1.9,0.4,3.9,0.4,5.9,0c1,0,1.2,0.6,1.2,1.3C564.4,58.8,565.1,73.1,564.3,87.4z"/>
<path class="st0" d="M197.6,87.3c0.2-0.3,0.5-0.6,0.7-0.8c7.8-0.1,6.8,0.9,6.8-6.7c0-8.5,0-16.9,0-25.4c0-0.1,0.1-0.3,0.2-0.3
	c0.2,0,0.5,0,0.7,0.1c0,10.4,0.1,20.8,0.2,31.3c0,2.1-0.8,2.9-2.8,2.5C201.6,87.7,199.4,89,197.6,87.3z"/>
<path class="st0" d="M406.2,51.6c0.2,0.1,0.6,0.3,0.7,0.5c0.6,8.1,1.2,16.1-0.3,24.2C405.7,68.1,406.3,59.8,406.2,51.6z"/>
<path class="st0" d="M70.8,2c-7.5-0.4-14.9-0.8-22.4-1.1C55.9-0.3,63.4-0.6,70.8,2z"/>
<path class="st0" d="M601.7,86.8c3-1.2,6.4,0.9,9.3-1.1c0.4,0.7,1.8,2.2,0.5,2.1C608.3,87.7,604.7,89.7,601.7,86.8z"/>
<path class="st0" d="M571.1,86.5l9.6,0.3c-3.2,2.4-6.7,1.3-10.2,0.7C570.7,87.2,570.9,86.8,571.1,86.5z"/>
<path class="st0" d="M206.3,44.7c-2-1.3-1.1-3.4-1.1-5c0.2-4.3-1-8.6,0.7-12.8C206.7,32.7,206,38.7,206.3,44.7z"/>
<path class="st0" d="M291.3,86.5h8.4C297.9,88.7,293.1,88.7,291.3,86.5z"/>
<path class="st0" d="M345.9,34.6c-0.1-1.4,0-2.8,0.1-4.2c0.3-2.6-0.6-4-3.5-3.6c0.5-1.1,1.3-0.7,1.9-0.9c1.1,0,2.5-0.4,2.6,1.2
	c0,2.6,0.6,5.2-0.4,7.8c0,0-0.2,0-0.3,0C346.1,34.8,346,34.7,345.9,34.6z"/>
<path class="st0" d="M476.6,67c-1.5-1.7-1.4-3.4-0.1-5.2C476.8,63.5,477.3,65.2,476.6,67z"/>
<path class="st0" d="M331.3,87.4h-6.6v-0.9h6.8C331.4,86.8,331.4,87.1,331.3,87.4z"/>
<path class="st0" d="M257.2,49.9c1.7-1.8,3.8-0.7,5.7-0.9c0,0,0.1,0.3,0.1,0.3l-1,0.6C260.5,49.9,258.9,49.9,257.2,49.9z"/>
<path class="st0" d="M497.2,50c1.6-2,3.2-1.1,4.9-0.1L497.2,50z"/>
<path class="st0" d="M563.4,43.2c-1.8,1-4.1,1-5.9,0H563.4z"/>
<path class="st0" d="M7,84c2,0.8,2.5,2.5,2.7,4.5C8.4,87.2,7.5,85.7,7,84z"/>
<path class="st0" d="M16.6,49c0.8-1.4,1.7-2.6,3.5-2.6C19,47.5,18.3,48.9,16.6,49z"/>
<path class="st0" d="M331.7,42.9c-1.8-1-1.2-2.7-0.9-4c0.1-0.4,0.5,0.5,0.7,0.9C331.6,40.8,331.7,41.9,331.7,42.9z"/>
<path class="st0" d="M137,49.8c1,1,0.9,2.1,0.4,4c-0.3-1.2-0.4-1.9-0.6-2.5C136.9,50.8,136.9,50.4,137,49.8z"/>
<path class="st0" d="M321.9,44.5h-21.1v-0.4h21C321.8,44.2,321.9,44.4,321.9,44.5z"/>
<path class="st0" d="M303.3,50.1h18.4v0.3h-18.4V50.1z"/>
<path class="st0" d="M445.7,60.8h22.2c-4.8,2.1-9.9,0.6-14.9,0.8C450.6,61.8,448,62.7,445.7,60.8z"/>
<path class="st0" d="M460.2,49.9c-2.3,0-4.5,0-6.7,0C455.8,48.4,458,48.6,460.2,49.9z"/>
<path class="st0" d="M387.6,69.4c0-2.3,0.1-4.6,0.1-6.8C389,64.9,389.2,67.2,387.6,69.4z"/>
<path class="st0" d="M356.5,63.2c0.7,1.7,0.6,3.1,0.1,4.8C355.9,66.3,356,64.9,356.5,63.2z"/>
<path class="st0" d="M269.9,76.3c-0.4-3.1-0.4-6.1,0-9.2C271.6,70.2,271.2,73.3,269.9,76.3z"/>
</svg>
