<?xml version="1.0" encoding="utf-8"?>
<!-- Generator: Adobe Illustrator 25.0.1, SVG Export Plug-In . SVG Version: 6.00 Build 0)  -->
<svg version="1.1" id="Layer_1" xmlns="http://www.w3.org/2000/svg" xmlns:xlink="http://www.w3.org/1999/xlink" x="0px" y="0px"
	 viewBox="0 0 542.5 114" style="enable-background:new 0 0 542.5 114;" xml:space="preserve">
<style type="text/css">
	.st0{fill:#FFFFFF;}
</style>
<g>
	<polygon class="st0" points="123.6,0 70.3,0 0,65.9 0,114 	"/>
</g>
<polygon class="st0" points="0,0 0,59.4 0,59.4 "/>
<path class="st0" d="M61.8,0H0v57L61.8,0z"/>
<path class="st0" d="M296.1,24.8L280,89.2h28.5l16.1-64.5H296.1z M227,24.8l-36.7,64.5h18.9l6.1-10.7h26.2l2,10.7h27.8l-11.8-64.5
	H227z M231,62.2h-6.5l10.5-18.6l3.4,18.6H231z M426.3,24.8l-16.1,64.5h28.5l16.1-64.5H426.3z M413.5,24.8h-29.2l-24.4,21.1l5.3-21.1
	h-27.3l-16.1,64.5h27.2l5.6-22.3l14.6,22.3h33l-24.4-33.8L413.5,24.8z M166.5,24.8l-7.4,0h-35.7l-16.1,64.5h35.4l14,0
	c19.7,0,39.1-14.7,39.1-37.2C195.9,25.6,166.5,24.8,166.5,24.8 M168,54.1c0,0-1.8,20.9-19.7,20.9h-10.1l8.9-34.8h9.2
	C159.5,40.3,169,41.1,168,54.1 M522.8,24.8l-9.5,38l-12.7-38H469l-16.1,64.5h19.7l9.6-38.3l12.7,38.3h31.6l16.1-64.5H522.8z"/>
</svg>
