<?xml version="1.0" encoding="utf-8"?>
<!-- Generator: Adobe Illustrator 25.0.1, SVG Export Plug-In . SVG Version: 6.00 Build 0)  -->
<svg version="1.1" id="Layer_1" xmlns="http://www.w3.org/2000/svg" xmlns:xlink="http://www.w3.org/1999/xlink" x="0px" y="0px"
	 viewBox="0 0 547.6 114" style="enable-background:new 0 0 547.6 114;" xml:space="preserve">
<style type="text/css">
	.st0{fill-rule:evenodd;clip-rule:evenodd;fill:#FFFFFF;}
</style>
<path class="st0" d="M489.7,36.8c11.9,0,21.5,9.6,21.5,21.5s-9.6,21.5-21.5,21.5c-11.9,0-21.5-9.6-21.5-21.5c0,0,0,0,0,0
	C468.2,46.5,477.8,36.9,489.7,36.8z"/>
<path class="st0" d="M447.9,43.1L490,0.5c0.5-0.6,1.1-0.6,1.7,0l49.1,47.9l-30.9-18.7c4.9,7.6,7.2,15.6,6.4,22.8
	c-5.4-14-14.8-20.6-27.8-20.4c-13,0.2-25,12.3-24.5,29.9l-16.1-17C447.2,44.3,447.2,43.7,447.9,43.1L447.9,43.1z"/>
<path class="st0" d="M489.6,85.1c15.5-1.3,24.7-13.7,43.6-32.1c2.2-2.2,7.4-3,10.3-1.9c1.9,0.7,3.1,2.9,3.7,4.1
	c0.6,1.2,0.8,4.9-1.1,6.5c-1.9,1.6-34.1,33.4-51.1,50.4c-2.7,2.5-5.4,2.5-8.1,0C471.2,96.1,451,77.2,435.5,61
	c-1.7-1.8-1.8-3.8-0.2-6.1l4.5-5c1.9-2,3.7-1.6,6.2,1.2C453,57.4,476.5,86.2,489.6,85.1L489.6,85.1z"/>
<path class="st0" d="M50.1,57.4c0,21-9.2,31.5-27.7,31.5H0V26.1h23.5c7.2,0,12.7,1.7,16.6,5.1c3.9,3.4,6.6,7.5,7.9,12.2
	C49.4,48,50.1,52.7,50.1,57.4L50.1,57.4z M36.2,57.7c0-12.9-4.8-19.4-14.3-19.4h-9v38.4h8.2c5.2,0,9-1.6,11.4-4.8
	C35,68.7,36.2,63.9,36.2,57.7L36.2,57.7z M97.2,69.5h-29c0,3.2,0.7,6,2.2,8.4c1.5,2.4,3.8,3.6,6.8,3.6c1.7,0,3.5-0.5,4.9-1.5
	c1.4-1,2.4-2.5,2.8-4.2h11.5c-2.3,9.9-8.9,14.9-19.7,14.9c-2.9,0-5.7-0.5-8.4-1.5c-2.5-1-4.7-2.5-6.4-4.5c-1.8-2-3.2-4.6-4.1-7.7
	c-1-3.1-1.4-6.7-1.4-10.8c0-4.8,0.8-9.1,2.5-12.7c1.5-3.5,4.1-6.5,7.3-8.5c3.2-2,7-3.1,11.4-3.1c7.4,0,12.5,2.6,15.2,7.9
	c1.4,2.7,2.4,5.5,3.2,8.4c0.7,2.9,1.1,6,1.1,9L97.2,69.5L97.2,69.5z M85.5,61.9c0-4.3-0.9-7.2-2.6-8.8c-1.7-1.5-3.4-2.2-5.4-2.2
	c-3.1,0-5.4,1.2-6.9,3.5c-1.4,2.3-2.2,4.9-2.4,7.5H85.5z M178.3,57.4c0,21-9.2,31.5-27.7,31.5h-22.4V26.1h23.5
	c7.2,0,12.7,1.7,16.6,5.1c3.9,3.4,6.6,7.5,7.9,12.2C177.6,48,178.3,52.7,178.3,57.4z M164.4,57.7c0-12.9-4.8-19.4-14.3-19.4h-9v38.4
	h8.2c5.2,0,9-1.6,11.4-4.8S164.4,63.9,164.4,57.7L164.4,57.7z M198,37.1h-11.8V26.4H198V37.1z M197.7,89h-11.3V43.5h11.3V89
	L197.7,89z M246.1,69.5h-29c0,3.2,0.7,6,2.2,8.4c1.5,2.4,3.8,3.6,6.8,3.6c1.7,0,3.5-0.5,4.9-1.5c1.4-1,2.4-2.5,2.8-4.2h11.5
	c-2.3,9.9-8.9,14.9-19.7,14.9c-2.9,0-5.7-0.5-8.4-1.5c-2.5-1-4.7-2.5-6.4-4.5c-1.8-2-3.2-4.6-4.1-7.7c-1-3.1-1.4-6.7-1.4-10.8
	c0-4.8,0.8-9.1,2.5-12.7c1.5-3.5,4.1-6.5,7.3-8.5c3.2-2,7-3.1,11.4-3.1c7.4,0,12.5,2.6,15.2,7.9c1.4,2.7,2.4,5.5,3.2,8.4
	c0.7,2.9,1.1,6,1.1,9L246.1,69.5L246.1,69.5z M234.4,61.9c0-4.3-0.9-7.2-2.6-8.8c-1.7-1.5-3.4-2.2-5.4-2.2c-3.1,0-5.4,1.2-6.9,3.5
	c-1.4,2.3-2.2,4.9-2.4,7.5H234.4z M276.3,89c-3.5,0.8-6.6,1.2-9.3,1.2c-2.7,0-4.7-0.5-6.1-1.5s-2.5-2.4-3.1-4.3s-0.9-4.4-0.9-7.5
	V52.7H250v-9.1h6.8V30h11.3v13.5h8.1v9.1h-8.1v21.8c0,2.1,0.2,3.7,0.7,4.7c0.5,1,1.7,1.5,3.7,1.5c1.2,0,2.5-0.3,3.6-0.8L276.3,89
	L276.3,89z M308.4,50.9l-2.4-0.2c-3.3,0-5.9,0.9-7.7,2.8c-1.8,1.9-3.1,4.3-3.7,7.2c-0.3,1.5-0.5,3-0.7,4.5c-0.2,1.6-0.2,3.3-0.2,5.1
	V89h-11.3V43.5h11.3v7.4c2.4-6.1,6.9-9.1,13.4-9.1h1.3L308.4,50.9L308.4,50.9z M325.5,37.1h-11.8V26.4h11.8V37.1z M325.2,89h-11.3
	V43.5h11.3V89L325.2,89z M371.7,71.8c0,1-0.1,2-0.3,3c-0.2,1-0.6,2.4-1.2,4.2c-0.9,2.8-2.7,5.5-5.5,8s-6.7,3.8-11.7,3.8
	c-4.4,0-8.1-1-11.1-3c-3-2-5.3-4.9-6.8-8.5c-1.5-3.7-2.3-7.9-2.3-12.8c0-3.8,0.6-7.6,1.7-11.2c1.1-3.6,3.2-6.8,6.3-9.4
	c3.1-2.6,7.4-3.9,12.8-3.9c3.3,0,6,0.6,8.3,1.7c1.1,0.5,2.1,1.2,3,1.9c0.9,0.7,1.6,1.5,2.2,2.4c1.3,1.7,2.3,3.7,2.9,5.8
	c0.6,2,1,4,1.2,6.1h-10.9c-0.3-3.5-1.1-5.8-2.4-7c-1.3-1.2-2.9-1.8-4.8-1.8c-3.1,0-5.3,1.4-6.6,4.3c-1.3,2.8-1.9,6.2-1.9,10.1
	c0,10.8,2.8,16.2,8.5,16.2c2.5,0,4.3-1,5.5-3c1.3-2,2-4.4,1.9-6.8L371.7,71.8L371.7,71.8L371.7,71.8z M415.6,89h-11.3V62.7
	c0-7.8-2.1-11.8-6.4-11.8c-2.5,0-4.5,1.2-5.7,3.6c-1.3,2.4-1.9,5.3-1.9,8.8V89H379V26.4h11.3v22c3.1-4.4,7.4-6.6,12.9-6.6
	c8.3,0,12.5,6.2,12.5,18.6L415.6,89L415.6,89z"/>
</svg>
