<?xml version="1.0" encoding="utf-8"?>
<!-- Generator: Adobe Illustrator 25.0.1, SVG Export Plug-In . SVG Version: 6.00 Build 0)  -->
<svg version="1.1" id="Layer_1" xmlns="http://www.w3.org/2000/svg" xmlns:xlink="http://www.w3.org/1999/xlink" x="0px" y="0px"
	 viewBox="0 0 472.4 114" style="enable-background:new 0 0 472.4 114;" xml:space="preserve">
<style type="text/css">
	.st0{fill:#FFFFFF;}
</style>
<path class="st0" d="M172.9,73c-2.9,4.7-7.6,7.1-13.8,7.1c-9.7,0-16.4-6.6-16.4-16.2c0-9.9,6.6-16.9,16-16.9
	c9.3,0,14.8,6.2,14.8,16.4v2.5H152c0.4,2.8,0.8,3.9,1.9,5.1c1.3,1.5,3,2.1,5.3,2.1c3,0,4.8-1,6.5-3.7L172.9,73z M164.5,60.3
	c-0.5-4.5-2.2-6.5-5.9-6.5c-3.6,0-5.6,2-6.4,6.5H164.5z M179.4,33.9h9.3v45.5h-9.3V33.9z M205.8,52.5C208,48.8,211,47,215,47
	c3.9,0,6.6,1.7,8.4,5.3c2.8-3.7,5.8-5.3,9.8-5.3c6.3,0,9.9,4.4,9.9,12v20.4h-9.3V59.8c0-3.8-1.5-5.6-4.2-5.6c-3.1,0-5.1,2.4-5.1,6.2
	v19.1h-9.3V59.7c0-3.6-1.5-5.5-4.3-5.5c-3.1,0-5.1,2.3-5.1,6v19.2h-9.3V47.8h9.3L205.8,52.5z M261.1,74.4c0,3.1-2.5,5.7-5.7,5.7
	c0,0,0,0,0,0h0c-3.1,0-5.7-2.5-5.7-5.6c0,0,0-0.1,0-0.1c0-3.2,2.5-5.7,5.7-5.7C258.6,68.7,261.1,71.3,261.1,74.4L261.1,74.4z
	 M268.2,33.9h9.3v45.5h-9.3V33.9z M313.7,73c-2.9,4.7-7.6,7.1-13.8,7.1c-9.7,0-16.4-6.6-16.4-16.2c0-9.9,6.6-16.9,16-16.9
	c9.3,0,14.8,6.2,14.8,16.4v2.5h-21.5c0.4,2.8,0.8,3.9,1.9,5.1c1.3,1.5,3,2.1,5.3,2.1c3,0,4.8-1,6.5-3.7L313.7,73z M305.3,60.3
	c-0.5-4.5-2.2-6.5-5.9-6.5c-3.6,0-5.6,2-6.4,6.5H305.3z M329.3,52.6c2.4-3.7,5.5-5.6,9.7-5.6c7.7,0,12.9,6.6,12.9,16.5
	c0,10.2-5,16.6-13.1,16.6c-4.2,0-7.5-1.9-9.5-5.6v4.9H320V33.9h9.3V52.6z M329,63.6c0,5.9,2.4,9.3,6.8,9.3c4.4,0,6.6-3.1,6.6-9.3
	c0-6-2.4-9.4-6.5-9.4C331.5,54.2,329,57.6,329,63.6z M357.9,33.9h9.3v45.5h-9.3V33.9z M392.8,79.4c-0.3-0.8-0.6-2.2-0.8-3.7
	c-2.2,3-5.1,4.4-9,4.4c-6,0-9.9-3.5-9.9-9c0-7.3,5.9-10.8,18.5-10.9v-0.8c0-3.5-1.5-5-5.1-5c-3,0-5.7,0.9-9,3.1l-3.9-5.9
	c4.1-3.2,8.4-4.6,14.2-4.6c5.1,0,8.6,1.3,10.8,4.2c1.6,2.1,2.3,4.4,2.3,8.4v14.3c0,2.1,0.3,3.7,0.8,5.1v0.4L392.8,79.4z M391.7,65.8
	c-6.7,0.1-9.5,1.5-9.5,4.5c0,2,1.4,3.2,3.7,3.2c3.4,0,5.7-2,5.7-4.9V65.8z M408.3,47.8h9.3v5c2.1-3.9,5.3-5.7,9.8-5.7
	c6.4,0,10,4.3,10,12v20.4h-9.3V60.2c0-4.1-1.5-6-4.8-6c-3.6,0-5.7,2.4-5.7,6.6v18.6h-9.3L408.3,47.8z M472.4,71.6
	c-2.7,5.7-7.3,8.5-13.8,8.5c-9.5,0-15.7-6.4-15.7-16.3c0-10,6.3-16.8,15.6-16.8c6.2,0,10.6,2.8,13.5,8.4l-7.7,3.6
	c-1.5-3.6-2.9-4.8-5.5-4.8c-4.2,0-6.5,3.3-6.5,9.4c0,6.1,2.3,9.3,6.6,9.3c3,0,4.7-1.4,6.1-4.8L472.4,71.6z M85.2,94.5H27.5
	c-0.1-15.9,12.7-28.9,28.6-29.1C72,65.3,85,78.1,85.2,94C85.2,94.2,85.2,94.3,85.2,94.5z"/>
<path class="st0" d="M100.2,104.8H13.9c-2.6,0-4.7-2.1-4.7-4.7V13.9c0,0,0,0,0,0c0-0.3,0-0.6,0.1-1c0.1-0.3,0.1-0.5,0.2-0.7
	c0,0,0-0.1,0.1-0.1c0.1-0.2,0.2-0.4,0.3-0.6c0.1-0.1,0.2-0.2,0.3-0.4c0.1-0.1,0.1-0.1,0.2-0.2c0,0,0,0,0,0L2.9,5.5
	C1,7.9,0,10.9,0,13.9v85.2c0,11,6.4,14.9,12.4,14.9h87.8c2.5,0,4.6-2.1,4.6-4.6C104.7,106.9,102.7,104.8,100.2,104.8L100.2,104.8z"
	/>
<path class="st0" d="M10.4,10.8c0.9-1,2.2-1.6,3.6-1.6h86.2c0,0,0,0,0,0c0.3,0,0.7,0,1,0.1c0.2,0.1,0.5,0.1,0.7,0.2
	c0,0,0.1,0,0.1,0.1c0.2,0.1,0.4,0.2,0.6,0.3c0.1,0.1,0.2,0.2,0.4,0.3c0.1,0.1,0.1,0.1,0.2,0.2c1,0.9,1.6,2.2,1.6,3.6v75.9
	c0.1,2.5,2.2,4.6,4.7,4.5c2.5-0.1,4.5-2,4.5-4.5V14.9C114,6.4,108,0,100.1,0H14.9c-5,0-9.3,2.1-12,5.5L10.4,10.8z"/>
</svg>
