<svg xmlns="http://www.w3.org/2000/svg" xmlns:xlink="http://www.w3.org/1999/xlink" viewBox="0 0 480 96.85"><defs><style>.cls-1{fill:url(#linear-gradient);}.cls-2{fill:#fff;}</style><linearGradient id="linear-gradient" y1="38.21" x2="480" y2="38.21" gradientUnits="userSpaceOnUse"><stop offset="0" stop-color="#00388b"/><stop offset="0.05" stop-color="#003f8f"/><stop offset="0.34" stop-color="#0069a6"/><stop offset="0.61" stop-color="#0086b6"/><stop offset="0.84" stop-color="#0099c0"/><stop offset="1" stop-color="#009fc4"/></linearGradient></defs><g id="Layer_2" data-name="Layer 2"><rect class="cls-1" width="480" height="76.43"/><rect y="76.43" width="480" height="4.26"/></g><g id="Layer_3" data-name="Layer 3"><path class="cls-2" d="M14.14,167.29V114.58a.71.71,0,0,1,.81-.8H27.61a.71.71,0,0,1,.81.8v40.57a.43.43,0,0,0,.49.48H52.27a.71.71,0,0,1,.81.8v10.86a.71.71,0,0,1-.81.8H15A.71.71,0,0,1,14.14,167.29Z" transform="translate(0 -103.13)"/><path class="cls-2" d="M118.74,168.09H107.13c-.53,0-.79-.29-.79-.85V143.62q0-6-4.63-6a4.15,4.15,0,0,0-3.45,1.61A7,7,0,0,0,97,143.62v23.62c0,.56-.26.85-.78.85H84.6c-.52,0-.78-.29-.78-.85V127.57c0-.57.26-.85.78-.85H96.22c.52,0,.78.28.78.85v3h.08q3.06-4.84,9.81-4.84,6.28,0,9.46,4.16t3.18,11.3v26.08C119.53,167.8,119.27,168.09,118.74,168.09Z" transform="translate(0 -103.13)"/><path class="cls-2" d="M143.47,169.11q-11.24,0-18.21-6.38a.81.81,0,0,1-.08-1.18l5.57-7.22a.84.84,0,0,1,1.1-.17,21.3,21.3,0,0,0,12.4,4.41c3.24,0,4.87-1,4.87-3a2,2,0,0,0-1-1.78,10.78,10.78,0,0,0-3.81-.94l-4.24-.42q-13.18-1.62-13.18-13.17a12.29,12.29,0,0,1,4.39-9.9q4.39-3.69,12.09-3.69,10,0,16.48,5.18a1,1,0,0,1,.16,1.27l-4.95,6.8a.87.87,0,0,1-1.18.25A18.9,18.9,0,0,0,143.23,136q-4,0-4,2.54a1.91,1.91,0,0,0,.9,1.7,8.49,8.49,0,0,0,3.49.85l4.24.51q7.21.76,10.44,4.17a12.18,12.18,0,0,1,3.14,8.92,13.14,13.14,0,0,1-4.83,10.53Q151.85,169.1,143.47,169.11Z" transform="translate(0 -103.13)"/><path class="cls-2" d="M187.1,168.6h-4.39q-7.54,0-10.72-3.61t-3.18-12V137.42c0-.34-.15-.51-.47-.51h-2.19c-.53,0-.79-.28-.79-.85v-8.49c0-.57.26-.85.79-.85h2.19c.32,0,.47-.17.47-.51V115.42c0-.57.27-.85.79-.85h11.46c.52,0,.78.28.78.85v10.79c0,.34.16.51.47.51h4.79c.52,0,.79.28.79.85v8.49c0,.57-.27.85-.79.85h-4.79c-.31,0-.47.17-.47.51v15a5.39,5.39,0,0,0,.79,3.4,3.43,3.43,0,0,0,2.74.93h1.73c.52,0,.79.29.79.85v10.2C187.89,168.31,187.62,168.6,187.1,168.6Z" transform="translate(0 -103.13)"/><path class="cls-2" d="M227.44,168.09H216.61c-.52,0-.79-.29-.79-.85v-2.38h-.07q-3.37,4.24-10.29,4.25a12.64,12.64,0,0,1-8.86-3.23q-3.54-3.23-3.54-9.52,0-6.71,4.4-10.15t11.85-3.44h6c.32,0,.47-.17.47-.51v-1.1a3.67,3.67,0,0,0-1.53-3.36q-1.53-1-5.84-1a13.3,13.3,0,0,0-8.24,2.37c-.47.29-.82.2-1-.25l-4.09-7.82a1.15,1.15,0,0,1,.24-1.36q5.49-4.07,14.83-4.07,9.81,0,13.93,3.65t4.12,11.81v26.08C228.22,167.8,228,168.09,227.44,168.09Zm-17.58-9.18q6,0,6-4.41V152c0-.34-.15-.51-.47-.51h-4.63c-3.56,0-5.33,1.3-5.33,3.9Q205.39,158.91,209.86,158.91Z" transform="translate(0 -103.13)"/><path class="cls-2" d="M254.2,168.6h-4.79q-7.14,0-10.2-3.36t-3.06-11.17v-42.9c0-.57.26-.85.79-.85h11.61c.52,0,.79.28.79.85v41.46q0,4.06,3.21,4.07h1.65c.52,0,.79.29.79.85v10.2C255,168.31,254.72,168.6,254.2,168.6Z" transform="translate(0 -103.13)"/><path class="cls-2" d="M278.53,168.6h-4.79q-7.14,0-10.2-3.36t-3.06-11.17v-42.9c0-.57.26-.85.78-.85h11.62c.52,0,.78.28.78.85v41.46c0,2.71,1.08,4.07,3.22,4.07h1.65c.52,0,.78.29.78.85v10.2C279.31,168.31,279.05,168.6,278.53,168.6Z" transform="translate(0 -103.13)"/><path class="cls-2" d="M318.24,168.09H307.41c-.52,0-.78-.29-.78-.85v-2.38h-.08q-3.37,4.24-10.28,4.25a12.65,12.65,0,0,1-8.87-3.23q-3.54-3.23-3.53-9.52,0-6.71,4.39-10.15t11.85-3.44h6q.48,0,.48-.51v-1.1a3.67,3.67,0,0,0-1.53-3.36q-1.53-1-5.85-1A13.32,13.32,0,0,0,291,139.2c-.47.29-.81.2-1-.25l-4.08-7.82a1.17,1.17,0,0,1,.23-1.36q5.49-4.07,14.83-4.07,9.82,0,13.94,3.65T319,141.16v26.08C319,167.8,318.76,168.09,318.24,168.09Zm-17.58-9.18q6,0,6-4.41V152q0-.51-.48-.51h-4.63q-5.32,0-5.33,3.9Q296.19,158.91,300.66,158.91Z" transform="translate(0 -103.13)"/><path class="cls-2" d="M346.42,168.6H342q-7.53,0-10.71-3.61t-3.18-12V137.42c0-.34-.16-.51-.47-.51h-2.2c-.52,0-.78-.28-.78-.85v-8.49c0-.57.26-.85.78-.85h2.2c.31,0,.47-.17.47-.51V115.42c0-.57.26-.85.78-.85h11.46c.52,0,.79.28.79.85v10.79c0,.34.15.51.47.51h4.79c.52,0,.78.28.78.85v8.49c0,.57-.26.85-.78.85h-4.79c-.32,0-.47.17-.47.51v15a5.47,5.47,0,0,0,.78,3.4,3.44,3.44,0,0,0,2.75.93h1.73c.52,0,.78.29.78.85v10.2C347.2,168.31,346.94,168.6,346.42,168.6Z" transform="translate(0 -103.13)"/><path class="cls-2" d="M371.29,169.11a19.71,19.71,0,0,1-11.49-3.19,16.14,16.14,0,0,1-6.32-9,31.33,31.33,0,0,1-1.26-9.52,34.5,34.5,0,0,1,1.18-9.6,16.82,16.82,0,0,1,6.24-9,18.15,18.15,0,0,1,10.87-3.18,19,19,0,0,1,11.18,3.1,15.59,15.59,0,0,1,6.08,8.87q1.26,4.08,1.26,12.92a.76.76,0,0,1-.86.85H365.49c-.32,0-.47.17-.47.51a10.61,10.61,0,0,0,.31,1.7q1.34,4.5,7.38,4.5a12.59,12.59,0,0,0,8.55-3.32.74.74,0,0,1,1.18,0L388,161c.47.39.44.82-.08,1.27A22,22,0,0,1,371.29,169.11Zm-5.8-26.34h10.36c.31,0,.47-.17.47-.51a8.3,8.3,0,0,0-.32-2.55q-1.1-3.74-5.33-3.73t-5.34,3.73a11.36,11.36,0,0,0-.31,2.55C365,142.6,365.17,142.77,365.49,142.77Z" transform="translate(0 -103.13)"/><path class="cls-2" d="M430.15,168.09H418.54c-.52,0-.79-.29-.79-.85v-3h-.07q-3.23,4.85-9.74,4.85-6.27,0-9.41-4.17t-3.14-11.29V127.57c0-.57.26-.85.78-.85h11.62c.52,0,.78.28.78.85v23.61a7.34,7.34,0,0,0,1.18,4.42,4,4,0,0,0,3.45,1.61c3,0,4.55-2,4.55-6V127.57c0-.57.27-.85.79-.85h11.61c.53,0,.79.28.79.85v39.67C430.94,167.8,430.68,168.09,430.15,168.09Z" transform="translate(0 -103.13)"/><path class="cls-2" d="M451.66,168.09H440c-.52,0-.78-.29-.78-.85V127.57c0-.57.26-.85.78-.85h11.62c.52,0,.78.28.78.85v3.65h.08q2.75-5.52,9.89-5.52a7.88,7.88,0,0,1,5.26,1.61.84.84,0,0,1,.39,1.11l-4.47,12c-.27.34-.63.37-1.1.09a8.17,8.17,0,0,0-5.57-1.62q-4.49.34-4.48,7.22v21.16C452.44,167.8,452.18,168.09,451.66,168.09Z" transform="translate(0 -103.13)"/><path class="cls-2" d="M63.06,131.47v37.64h14.3V126.72a32.18,32.18,0,0,1-7.15,3.57A22.44,22.44,0,0,1,63.06,131.47Z" transform="translate(0 -103.13)"/><path class="cls-2" d="M53.45,126.62s7.34,1.25,13.1-1.71c2.39-1.22,4.81-2.46,6-5.27a8.93,8.93,0,0,0-1.87-9.53,8.41,8.41,0,0,0-6.81-2.39,7.85,7.85,0,0,0-6.47,5.45c-.71,3,.62,4.63,0,7.66A9.31,9.31,0,0,1,53.45,126.62Z" transform="translate(0 -103.13)"/><path d="M18.87,197.22c-.07.37-.41,1.62-.53,2H13v-.34c1-.11,1.13-.17,1.13-1.18v-4.76c0-1-.11-1.08-1-1.17v-.34h3.08v.34c-.92.09-1.05.14-1.05,1.17v4.88c0,.73.09.89.75.91h.9c.59,0,.76-.07,1-.37a4.5,4.5,0,0,0,.7-1.24Z" transform="translate(0 -103.13)"/><path d="M25.59,197.3c-.07.31-.38,1.55-.5,1.91H19.52v-.34c1.06-.08,1.14-.19,1.14-1.17V193c0-1.07-.12-1.13-1-1.21v-.34h3.51c1.08,0,1.52,0,1.66,0,0,.3.06,1.19.11,1.83l-.35.06a4.17,4.17,0,0,0-.34-.91c-.19-.4-.45-.48-1.14-.48H22c-.35,0-.38,0-.38.38v2.65h1.28c.86,0,.91-.18,1-1h.36v2.46H24c-.15-.86-.24-1-1.07-1H21.66v2.39c0,.83.25.91.83.92h1.07c.7,0,.81-.11,1.06-.42a5,5,0,0,0,.62-1.1Z" transform="translate(0 -103.13)"/><path d="M35.46,199.21v-.34c.94-.09,1-.17,1-1.45v-4.88c-.94,2.19-2.45,5.61-2.85,6.67h-.3c-.39-1.09-1.69-4.39-2.56-6.55-.2,4.19-.21,5.13-.21,5.36,0,.67.3.77,1.08.85v.34H28.87v-.34c.67-.07.94-.21,1-.86s.08-1,.38-5.33c0-.62-.07-.83-1.08-.92v-.34h2l2.54,6.07,2.72-6.07h2v.34c-1,.12-1.11.22-1.09,1.06l.05,4.6c0,1.28.08,1.34,1.09,1.45v.34Z" transform="translate(0 -103.13)"/><path d="M43.68,199.21v-.34c.74-.09.84-.21.68-.67s-.38-1.07-.62-1.82H41.26c-.19.54-.36,1-.52,1.5-.25.78-.09.87.85,1v.34H38.94v-.34c.72-.09.91-.18,1.31-1.26l2.37-6.28.37-.08c.72,2.05,1.51,4.32,2.24,6.39.37,1,.47,1.14,1.28,1.23v.34Zm-1.15-6.39-1.1,3.07h2.15Z" transform="translate(0 -103.13)"/><path d="M54.4,195.94c-.71.09-.76.16-.76.87v1a6.64,6.64,0,0,0,.07,1.14,11.64,11.64,0,0,1-2.61.43,3.89,3.89,0,0,1-4.18-4.1,4,4,0,0,1,4.27-4,11.12,11.12,0,0,1,2.38.3c0,.45.08,1.18.17,1.93l-.34.07c-.28-1-.61-1.45-1.33-1.7A4,4,0,0,0,51,191.7c-1.75,0-2.89,1.25-2.89,3.45,0,1.9.94,3.79,3.17,3.79a2.19,2.19,0,0,0,1-.2c.24-.14.39-.28.39-.77v-1c0-.87-.09-1-1.19-1.05v-.35H54.4Z" transform="translate(0 -103.13)"/><path d="M59.63,199.21v-.34c.75-.09.84-.21.68-.67s-.38-1.07-.62-1.82H57.21c-.18.54-.35,1-.51,1.5-.26.78-.1.87.85,1v.34H54.89v-.34c.73-.09.91-.18,1.31-1.26l2.38-6.28.37-.08c.72,2.05,1.51,4.32,2.23,6.39.37,1,.47,1.14,1.29,1.23v.34Zm-1.14-6.39-1.1,3.07h2.14Z" transform="translate(0 -103.13)"/><path d="M69.61,197.16c-.08.41-.36,1.53-.47,2.05h-6l-.1-.19c1.59-2.3,3.19-4.69,4.81-7.12H65.62c-1,0-1.2.07-1.44.44a4.69,4.69,0,0,0-.44,1H63.4c.06-.63.2-1.67.22-2.19h.3c.12.28.26.27.6.27h4.64l.09.19c-1.59,2.34-3.14,4.66-4.73,7.08.36,0,1.11,0,1.89,0,1.5,0,1.84-.06,2.17-.43a4.51,4.51,0,0,0,.7-1.22Z" transform="translate(0 -103.13)"/><path d="M70.45,199.21v-.34c.94-.11,1-.15,1-1.17v-4.76c0-1-.09-1.08-1-1.18v-.34h3.07v.34c-1,.1-1,.15-1,1.18v4.76c0,1,.09,1.06,1,1.17v.34Z" transform="translate(0 -103.13)"/><path d="M82.61,191.76c-.73.08-1,.2-1,.75,0,.38,0,.89,0,2v4.8h-.44l-4.91-6.26v3c0,1.08,0,1.62.06,2,0,.61.31.79,1.14.86v.34H74.63v-.34c.71-.06,1-.24,1-.83,0-.38.06-.92.06-2V193a1.09,1.09,0,0,0-.23-.79c-.22-.3-.46-.37-1-.43v-.34h1.72l4.86,6v-2.94c0-1.11,0-1.63,0-2,0-.54-.3-.7-1.22-.76v-.34h2.83Z" transform="translate(0 -103.13)"/><path d="M89.49,197.3c-.07.31-.38,1.55-.49,1.91H83.42v-.34c1.07-.08,1.15-.19,1.15-1.17V193c0-1.07-.13-1.13-1-1.21v-.34h3.51c1.08,0,1.53,0,1.67,0,0,.3,0,1.19.1,1.83l-.34.06a4.13,4.13,0,0,0-.35-.91c-.18-.4-.45-.48-1.14-.48H85.94c-.35,0-.37,0-.37.38v2.65h1.27c.86,0,.92-.18,1-1h.36v2.46h-.36c-.14-.86-.24-1-1.06-1H85.57v2.39c0,.83.25.91.82.92h1.07c.7,0,.81-.11,1.07-.42a5.46,5.46,0,0,0,.62-1.1Z" transform="translate(0 -103.13)"/><path d="M96.16,191.42a4.47,4.47,0,0,1,3.35,1,3.58,3.58,0,0,1,1,2.57,4,4,0,0,1-1.44,3.23,5.29,5.29,0,0,1-3.39,1H93v-.34c1-.09,1-.18,1-1.16v-4.78c0-1-.13-1.08-1-1.17v-.34ZM95,197.61c0,.9.37,1.15,1.23,1.15,2.06,0,3.12-1.47,3.12-3.57A3.15,3.15,0,0,0,98,192.32a3.48,3.48,0,0,0-2-.48,1.55,1.55,0,0,0-.91.17c-.1.07-.15.2-.15.67Z" transform="translate(0 -103.13)"/><path d="M107.56,197.3c-.07.31-.38,1.55-.5,1.91h-5.57v-.34c1.07-.08,1.15-.19,1.15-1.17V193c0-1.07-.13-1.13-1-1.21v-.34h3.51c1.08,0,1.53,0,1.66,0,0,.3.06,1.19.11,1.83l-.35.06a4.17,4.17,0,0,0-.34-.91c-.18-.4-.45-.48-1.14-.48H104c-.35,0-.38,0-.38.38v2.65h1.28c.86,0,.92-.18,1-1h.36v2.46H106c-.15-.86-.24-1-1.06-1h-1.27v2.39c0,.83.26.91.83.92h1.07c.7,0,.81-.11,1.06-.42a5,5,0,0,0,.62-1.1Z" transform="translate(0 -103.13)"/><path d="M112.35,193.24c-.2-.79-.52-1.57-1.6-1.57a1.18,1.18,0,0,0-1.2,1.31c0,.82.5,1.24,1.45,1.76,1.38.74,2,1.29,2,2.43a2.32,2.32,0,0,1-2.53,2.22,4.61,4.61,0,0,1-1.75-.4,14.79,14.79,0,0,1-.31-1.8l.35-.09c.23.8.74,1.84,1.93,1.84a1.29,1.29,0,0,0,1.33-1.37c0-.93-.47-1.3-1.48-1.87-1.2-.69-1.88-1.26-1.88-2.37a2.16,2.16,0,0,1,2.36-2.08,6.87,6.87,0,0,1,1.52.23c0,.43.09.91.18,1.69Z" transform="translate(0 -103.13)"/><path d="M119.65,191.42a3.16,3.16,0,0,1,1.94.52,2.06,2.06,0,0,1,.75,1.7,2.41,2.41,0,0,1-2.52,2.45l-.31,0-.79-.22v1.87c0,1,.08,1,1.13,1.15v.34h-3.16v-.34c1-.11,1-.18,1-1.17v-4.76c0-1.06-.13-1.09-1-1.18v-.34Zm-.93,4a1.81,1.81,0,0,0,.83.16,1.88,1.88,0,0,0-.06-3.76,1,1,0,0,0-.65.14c-.09.09-.12.23-.12.55Z" transform="translate(0 -103.13)"/><path d="M130.1,199.3l-.42,0a2,2,0,0,1-1.79-1c-.43-.61-.84-1.37-1.21-2-.23-.38-.38-.45-1-.45h-.4v1.88c0,1,.12,1.08,1,1.17v.34H123.3v-.34c1-.11,1-.15,1-1.17v-4.78c0-1-.13-1.06-1-1.16v-.34h2.92a3.14,3.14,0,0,1,1.84.41,1.81,1.81,0,0,1,.78,1.58,2.21,2.21,0,0,1-1.48,2.06c.21.37.7,1.17,1,1.71a11.9,11.9,0,0,0,.91,1.24,1.66,1.66,0,0,0,.84.55Zm-4.23-3.89a1.79,1.79,0,0,0,1.26-.35,1.7,1.7,0,0,0,.63-1.47,1.58,1.58,0,0,0-1.7-1.75,1,1,0,0,0-.6.12c-.11.08-.14.2-.14.52v2.93Z" transform="translate(0 -103.13)"/><path d="M134.37,191.25a3.77,3.77,0,0,1,3.72,4c0,2.57-1.67,4.18-3.79,4.18a3.82,3.82,0,0,1-3.8-4A3.91,3.91,0,0,1,134.37,191.25Zm-.23.45c-1.28,0-2.45,1.12-2.45,3.36s1.17,3.87,2.8,3.87c1.39,0,2.43-1.08,2.43-3.39C136.92,193,135.65,191.7,134.14,191.7Z" transform="translate(0 -103.13)"/><path d="M144.22,193.29a3.75,3.75,0,0,0-.35-.89c-.22-.4-.39-.5-1-.5h-1.22c-.34,0-.37,0-.37.38v2.77h1.42c.83,0,.89-.14,1.06-1h.34v2.5h-.35c-.15-.84-.23-1-1.05-1h-1.42v2.15c0,1,.11,1.09,1.16,1.18v.34h-3.19v-.34c.93-.07,1-.15,1-1.18v-4.75c0-1-.11-1.09-1-1.18v-.34h3.64c1,0,1.42,0,1.61,0,0,.43.06,1.27.12,1.84Z" transform="translate(0 -103.13)"/><path d="M151.51,197.3c-.07.31-.38,1.55-.49,1.91h-5.58v-.34c1.07-.08,1.15-.19,1.15-1.17V193c0-1.07-.13-1.13-1-1.21v-.34h3.51c1.08,0,1.53,0,1.67,0,0,.3.05,1.19.1,1.83l-.34.06a4.13,4.13,0,0,0-.35-.91c-.18-.4-.45-.48-1.13-.48H148c-.36,0-.38,0-.38.38v2.65h1.27c.86,0,.92-.18,1.06-1h.35v2.46h-.35c-.15-.86-.25-1-1.07-1h-1.26v2.39c0,.83.25.91.82.92h1.07c.7,0,.81-.11,1.07-.42a5,5,0,0,0,.62-1.1Z" transform="translate(0 -103.13)"/><path d="M156.3,193.24c-.2-.79-.52-1.57-1.6-1.57a1.18,1.18,0,0,0-1.2,1.31c0,.82.5,1.24,1.46,1.76,1.37.74,2,1.29,2,2.43a2.31,2.31,0,0,1-2.53,2.22,4.65,4.65,0,0,1-1.75-.4,17.06,17.06,0,0,1-.31-1.8l.36-.09c.22.8.73,1.84,1.92,1.84a1.29,1.29,0,0,0,1.33-1.37c0-.93-.47-1.3-1.48-1.87-1.2-.69-1.88-1.26-1.88-2.37a2.16,2.16,0,0,1,2.37-2.08,6.86,6.86,0,0,1,1.51.23c.05.43.09.91.18,1.69Z" transform="translate(0 -103.13)"/><path d="M162,193.24c-.2-.79-.52-1.57-1.6-1.57a1.18,1.18,0,0,0-1.2,1.31c0,.82.5,1.24,1.45,1.76,1.38.74,2,1.29,2,2.43a2.32,2.32,0,0,1-2.53,2.22,4.65,4.65,0,0,1-1.75-.4,17.06,17.06,0,0,1-.31-1.8l.35-.09c.23.8.74,1.84,1.93,1.84a1.29,1.29,0,0,0,1.33-1.37c0-.93-.47-1.3-1.48-1.87-1.2-.69-1.88-1.26-1.88-2.37a2.16,2.16,0,0,1,2.36-2.08,6.87,6.87,0,0,1,1.52.23c0,.43.09.91.18,1.69Z" transform="translate(0 -103.13)"/><path d="M163.66,199.21v-.34c.94-.11,1-.15,1-1.17v-4.76c0-1-.09-1.08-1-1.18v-.34h3.07v.34c-.95.1-1,.15-1,1.18v4.76c0,1,.09,1.06,1,1.17v.34Z" transform="translate(0 -103.13)"/><path d="M171.7,191.25a3.77,3.77,0,0,1,3.72,4c0,2.57-1.67,4.18-3.79,4.18a3.82,3.82,0,0,1-3.81-4A3.92,3.92,0,0,1,171.7,191.25Zm-.23.45c-1.28,0-2.45,1.12-2.45,3.36s1.17,3.87,2.8,3.87c1.39,0,2.43-1.08,2.43-3.39C174.25,193,173,191.7,171.47,191.7Z" transform="translate(0 -103.13)"/><path d="M184.47,191.76c-.74.08-1,.2-1,.75,0,.38,0,.89,0,2v4.8H183l-4.92-6.26v3c0,1.08,0,1.62.06,2,0,.61.31.79,1.14.86v.34h-2.79v-.34c.71-.06,1-.24,1-.83,0-.38.06-.92.06-2V193a1,1,0,0,0-.23-.79c-.22-.3-.46-.37-1-.43v-.34H178l4.87,6v-2.94c0-1.11,0-1.63-.06-2,0-.54-.3-.7-1.22-.76v-.34h2.84Z" transform="translate(0 -103.13)"/><path d="M193.32,191.76c-.74.08-1,.2-1,.75,0,.38,0,.89,0,2v4.8h-.43l-4.91-6.26v3c0,1.08,0,1.62,0,2,0,.61.31.79,1.14.86v.34h-2.79v-.34c.71-.06,1-.24,1-.83,0-.38.06-.92.06-2V193a1,1,0,0,0-.23-.79c-.22-.3-.46-.37-1-.43v-.34h1.72l4.87,6v-2.94c0-1.11,0-1.63-.06-2,0-.54-.3-.7-1.22-.76v-.34h2.84Z" transform="translate(0 -103.13)"/><path d="M200.19,197.3c-.07.31-.38,1.55-.49,1.91h-5.58v-.34c1.07-.08,1.15-.19,1.15-1.17V193c0-1.07-.13-1.13-1-1.21v-.34h3.51c1.08,0,1.53,0,1.67,0,0,.3.06,1.19.1,1.83l-.34.06a4.13,4.13,0,0,0-.35-.91c-.18-.4-.44-.48-1.13-.48h-1.09c-.36,0-.38,0-.38.38v2.65h1.27c.86,0,.92-.18,1.06-1H199v2.46h-.35c-.15-.86-.24-1-1.07-1h-1.26v2.39c0,.83.25.91.82.92h1.07c.7,0,.82-.11,1.07-.42a5,5,0,0,0,.62-1.1Z" transform="translate(0 -103.13)"/><path d="M206.76,197.22c-.07.37-.41,1.62-.53,2H200.9v-.34c1-.11,1.13-.17,1.13-1.18v-4.76c0-1-.11-1.08-1-1.17v-.34h3.07v.34c-.91.09-1,.14-1,1.17v4.88c0,.73.09.89.75.91h.9c.59,0,.76-.07,1-.37a4,4,0,0,0,.7-1.24Z" transform="translate(0 -103.13)"/><path d="M211.7,193.24c-.2-.79-.52-1.57-1.6-1.57a1.18,1.18,0,0,0-1.2,1.31c0,.82.5,1.24,1.45,1.76,1.38.74,2,1.29,2,2.43a2.32,2.32,0,0,1-2.53,2.22,4.61,4.61,0,0,1-1.75-.4,14.79,14.79,0,0,1-.31-1.8l.35-.09c.23.8.74,1.84,1.93,1.84a1.29,1.29,0,0,0,1.33-1.37c0-.93-.47-1.3-1.48-1.87-1.2-.69-1.88-1.26-1.88-2.37a2.16,2.16,0,0,1,2.36-2.08,6.87,6.87,0,0,1,1.52.23c0,.43.09.91.18,1.69Z" transform="translate(0 -103.13)"/><path d="M219.24,191.42a3.66,3.66,0,0,1,2.06.49,2,2,0,0,1,.9,1.8,2.47,2.47,0,0,1-2.64,2.48l-.35,0-.66-.18v1.62c0,1,.08,1.06,1.08,1.15v.45H216v-.45c.86-.1,1-.14,1-1.15V193c0-1-.11-1.12-1-1.18v-.44Zm-.69,4.06a1.47,1.47,0,0,0,.61.12c.52,0,1.39-.32,1.39-1.9,0-1.34-.7-1.79-1.45-1.79a.69.69,0,0,0-.45.12c-.08.07-.1.19-.1.37Z" transform="translate(0 -103.13)"/><path d="M229.38,197.1c-.09.51-.41,1.78-.51,2.11h-5.69v-.45c1-.07,1.1-.15,1.1-1.16V193c0-1-.12-1.1-1-1.18v-.44h3.58v.44c-.89.09-1,.17-1,1.18v4.65c0,.65,0,.95.66,1h.59a1.13,1.13,0,0,0,1.1-.47A5.06,5.06,0,0,0,229,197Z" transform="translate(0 -103.13)"/><path d="M234.26,191.25a3.82,3.82,0,0,1,3.86,4,3.94,3.94,0,1,1-3.86-4Zm-.17.53c-1.17,0-2,1.2-2,3.32s.77,3.76,2.32,3.76c1.09,0,1.94-1.1,1.94-3.29C236.32,193.19,235.42,191.78,234.09,191.78Z" transform="translate(0 -103.13)"/><path d="M245.31,199.21v-.45c.87-.09.92-.18.92-1.25v-4.68c-.82,2.06-1.73,4.34-2.56,6.38h-.37c-.75-2-1.57-4.18-2.39-6.28-.15,3.76-.15,4.5-.15,4.94,0,.64.24.81,1.1.89v.45H239v-.45c.65-.06,1-.19,1-.91,0-.36.09-1,.36-5,0-.58,0-.9-1-1v-.44h2.48l2.22,5.28,2.22-5.28h2.42v.44c-.91.1-1,.2-1,1.15l.09,4.5c0,1.07.05,1.12,1,1.25v.45Z" transform="translate(0 -103.13)"/><path d="M254.27,194.92c1.21.23,2,.83,2,2a2.14,2.14,0,0,1-1.1,1.82,4.31,4.31,0,0,1-2.18.51h-3.21v-.45c.88-.09,1-.15,1-1.16V193c0-1-.15-1.12-1-1.18v-.44h3.49a3.26,3.26,0,0,1,1.88.42,1.54,1.54,0,0,1,.7,1.33A1.93,1.93,0,0,1,254.27,194.92Zm-1.46-.16c1.09,0,1.5-.49,1.5-1.37A1.27,1.27,0,0,0,253,192a1.06,1.06,0,0,0-.54.09c-.13.09-.11.2-.11.45v2.27Zm-.44,2.82c0,.86.37,1.12,1,1.11s1.26-.58,1.26-1.7-.57-1.71-1.85-1.71h-.4Z" transform="translate(0 -103.13)"/><path d="M257.37,199.21v-.45c.87-.08,1-.15,1-1.16V193c0-1-.12-1.1-1-1.18v-.44h3.55v.44c-.86.09-1,.17-1,1.18v4.56c0,1,.11,1.07,1,1.16v.45Z" transform="translate(0 -103.13)"/><path d="M268.38,197.17c-.06.32-.38,1.7-.48,2h-6v-.43c1-.11,1.11-.17,1.11-1.18V193c0-1-.13-1.09-.91-1.17v-.44h3.73c1.2,0,1.6,0,1.76,0,0,.21.07,1.19.12,1.94l-.45.06a3.15,3.15,0,0,0-.49-1.12c-.21-.24-.36-.31-.94-.31h-.75c-.44,0-.48,0-.48.43v2.51h1.12c.64,0,.76-.18.93-1h.45v2.67h-.45c-.18-.89-.27-1-.94-1h-1.11v2.06c0,.82,0,1.08.73,1.09h.82c.64,0,.81-.09,1.06-.41a5.16,5.16,0,0,0,.7-1.2Z" transform="translate(0 -103.13)"/><path d="M276.46,199.28h-.35c-1.45-.07-1.88-.4-2.22-.9a21.57,21.57,0,0,1-1.18-2.11.65.65,0,0,0-.7-.39l-.23,0v1.75c0,1,.11,1.06,1,1.16v.45h-3.51v-.45c.87-.09,1-.19,1-1.16V193c0-.94-.12-1.07-1-1.15v-.44h3.33a3.36,3.36,0,0,1,2.08.46,1.86,1.86,0,0,1,.76,1.59,2,2,0,0,1-1.43,1.94c.17.36.62,1.14,1,1.69a9.62,9.62,0,0,0,.88,1.24,1.35,1.35,0,0,0,.72.53Zm-4.37-3.92a1.61,1.61,0,0,0,1.12-.31,1.74,1.74,0,0,0,.54-1.4c0-1.27-.7-1.73-1.34-1.73-.31,0-.46.05-.53.12s-.1.22-.1.46v2.86Z" transform="translate(0 -103.13)"/><path d="M281.58,193.4c-.23-.77-.55-1.64-1.61-1.64a1.08,1.08,0,0,0-1.1,1.16c0,.66.43,1.05,1.44,1.58,1.22.63,2,1.26,2,2.44a2.51,2.51,0,0,1-2.76,2.45,6.62,6.62,0,0,1-1.93-.37c-.07-.28-.26-1.53-.34-2.09l.44-.11c.23.76.88,2.06,2,2.06a1.08,1.08,0,0,0,1.12-1.22c0-.69-.41-1.1-1.37-1.64-1.2-.67-2-1.27-2-2.51s.94-2.26,2.67-2.26a7.85,7.85,0,0,1,1.64.22c0,.44.12,1.07.22,1.82Z" transform="translate(0 -103.13)"/><path d="M287.09,200h-.79l3.06-8.78h.82Z" transform="translate(0 -103.13)"/><path d="M301.09,197.15a18.17,18.17,0,0,1-.64,1.93,9.62,9.62,0,0,1-2.11.31c-3.09,0-4.36-2.08-4.36-4,0-2.48,1.81-4.16,4.57-4.16a11.15,11.15,0,0,1,2.16.29c.06.56.14,1.45.22,2l-.46.08a2,2,0,0,0-1.19-1.63,2.8,2.8,0,0,0-1-.17c-1.66,0-2.5,1.45-2.5,3.33,0,2.2,1.08,3.68,2.65,3.68,1,0,1.61-.52,2.23-1.84Z" transform="translate(0 -103.13)"/><path d="M310.49,191.86c-.89.1-1,.17-1,1.17v4.58c0,1,.09,1.07,1,1.15v.45H307v-.45c.9-.12,1-.15,1-1.15v-2.25h-3.1v2.25c0,1,.11,1.06,1,1.15v.45h-3.54v-.45c.85-.09,1-.15,1-1.15V193c0-1-.1-1.09-1-1.17v-.44h3.54v.44c-.87.09-1,.17-1,1.17v1.71h3.1V193c0-1-.11-1.07-1-1.17v-.44h3.54Z" transform="translate(0 -103.13)"/><path d="M315.47,199.21v-.45c.72-.1.72-.24.56-.75-.12-.36-.3-.9-.47-1.38h-2.24c-.13.37-.29.83-.4,1.2-.24.75,0,.85.94.93v.45H311v-.45c.72-.09.9-.2,1.29-1.21l2.39-6.19.55-.11c.73,2.09,1.51,4.22,2.26,6.22.42,1.11.53,1.2,1.27,1.29v.45Zm-1-5.73c-.34.86-.66,1.67-.94,2.54h1.82Z" transform="translate(0 -103.13)"/><path d="M326.77,191.86c-.73.08-.93.3-1,.73a14.23,14.23,0,0,0-.06,1.61v1.57a4,4,0,0,1-.82,2.79,2.9,2.9,0,0,1-2.15.83,3.16,3.16,0,0,1-2.06-.63,2.93,2.93,0,0,1-1-2.59v-3c0-1.1-.11-1.18-1-1.27v-.44h3.55v.44c-.86.09-1,.17-1,1.27v3.19c0,1.34.63,2.23,1.86,2.23s2-1.06,2-2.85v-1.5c0-.83,0-1.26,0-1.62-.05-.55-.37-.67-1.17-.72v-.44h2.84Z" transform="translate(0 -103.13)"/><path d="M332.84,193.41a3.23,3.23,0,0,0-.5-1.13c-.24-.26-.39-.31-.94-.31h-.86c-.39,0-.44,0-.44.43V195h1.23c.68,0,.77-.18.94-1h.43v2.66h-.44c-.13-.82-.3-1-.93-1H330.1v1.87c0,1.1.07,1.18,1.1,1.25v.45h-3.67v-.45c.87-.08,1-.15,1-1.25V193.1c0-1.07-.11-1.16-1-1.24v-.44h3.89c1,0,1.56,0,1.75,0,0,.2.06,1.23.12,1.94Z" transform="translate(0 -103.13)"/><path d="M339.62,193.41a3.23,3.23,0,0,0-.51-1.13c-.24-.26-.39-.31-.94-.31h-.86c-.39,0-.44,0-.44.43V195h1.23c.68,0,.77-.18.94-1h.43v2.66H339c-.12-.82-.3-1-.93-1h-1.23v1.87c0,1.1.07,1.18,1.11,1.25v.45H334.3v-.45c.88-.08,1-.15,1-1.25V193.1c0-1.07-.1-1.16-1-1.24v-.44h3.89c1,0,1.56,0,1.75,0,0,.2.07,1.23.12,1.94Z" transform="translate(0 -103.13)"/><path d="M344.21,199.21v-.45c.72-.1.72-.24.56-.75-.11-.36-.3-.9-.47-1.38h-2.24c-.12.37-.28.83-.4,1.2-.24.75,0,.85.94.93v.45h-2.83v-.45c.72-.09.91-.2,1.29-1.21l2.39-6.19.55-.11c.74,2.09,1.52,4.22,2.26,6.22.43,1.11.53,1.2,1.28,1.29v.45Zm-1-5.73c-.33.86-.65,1.67-.94,2.54h1.82Z" transform="translate(0 -103.13)"/><path d="M355.74,195.92c-.65.12-.73.17-.73,1v.92a6.75,6.75,0,0,0,.07,1.16,16.62,16.62,0,0,1-2.78.4,3.9,3.9,0,0,1-4.24-4.09c0-2.69,2.1-4.05,4.54-4.05a16.74,16.74,0,0,1,2.32.28c0,.53.11,1.44.19,2.09l-.44.09a2.26,2.26,0,0,0-1.42-1.79,3.45,3.45,0,0,0-1-.14c-1.39,0-2.43,1.26-2.43,3.32s.71,3.77,2.59,3.77a1.33,1.33,0,0,0,.73-.17c.18-.1.27-.31.27-.68V197c0-.84-.16-.93-1.13-1.05v-.44h3.43Z" transform="translate(0 -103.13)"/><path d="M356.73,199.21v-.45c.88-.08,1-.15,1-1.16V193c0-1-.11-1.1-1-1.18v-.44h3.55v.44c-.86.09-1,.17-1,1.18v4.56c0,1,.1,1.07,1,1.16v.45Z" transform="translate(0 -103.13)"/><path d="M365.67,193.4c-.22-.77-.55-1.64-1.6-1.64a1.08,1.08,0,0,0-1.1,1.16c0,.66.42,1.05,1.43,1.58,1.23.63,2,1.26,2,2.44a2.52,2.52,0,0,1-2.77,2.45,6.61,6.61,0,0,1-1.92-.37c-.07-.28-.27-1.53-.35-2.09l.45-.11c.23.76.87,2.06,2,2.06a1.08,1.08,0,0,0,1.12-1.22c0-.69-.41-1.1-1.38-1.64-1.19-.67-2-1.27-2-2.51s.94-2.26,2.66-2.26a7.74,7.74,0,0,1,1.64.22c.05.44.13,1.07.22,1.82Z" transform="translate(0 -103.13)"/><path d="M373.79,193.49a4,4,0,0,0-.49-1.17c-.21-.25-.3-.35-1-.35h-.73v5.63c0,1,.11,1.08,1.13,1.16v.45h-3.81v-.45c1-.08,1.08-.15,1.08-1.16V192h-.7c-.64,0-.82.11-1,.4a4.6,4.6,0,0,0-.47,1.14h-.44c.08-.88.16-1.81.18-2.39h.35c.17.28.31.3.65.3h4.59a.75.75,0,0,0,.67-.3h.33c0,.5.06,1.56.11,2.34Z" transform="translate(0 -103.13)"/><path d="M381.52,197.17c-.06.32-.38,1.7-.49,2h-5.95v-.43c1-.11,1.11-.17,1.11-1.18V193c0-1-.14-1.09-.92-1.17v-.44H379c1.21,0,1.61,0,1.77,0,0,.21.07,1.19.11,1.94l-.44.06a3.15,3.15,0,0,0-.5-1.12c-.2-.24-.35-.31-.94-.31h-.74c-.44,0-.49,0-.49.43v2.51h1.13c.64,0,.76-.18.93-1h.45v2.67h-.45c-.19-.89-.28-1-.94-1h-1.12v2.06c0,.82,0,1.08.74,1.09h.81c.65,0,.82-.09,1.07-.41a5.16,5.16,0,0,0,.7-1.2Z" transform="translate(0 -103.13)"/><path d="M386.84,193.4c-.23-.77-.55-1.64-1.61-1.64a1.08,1.08,0,0,0-1.1,1.16c0,.66.43,1.05,1.44,1.58,1.23.63,2,1.26,2,2.44a2.52,2.52,0,0,1-2.77,2.45,6.69,6.69,0,0,1-1.93-.37c-.07-.28-.26-1.53-.34-2.09l.45-.11c.23.76.87,2.06,2,2.06a1.08,1.08,0,0,0,1.13-1.22c0-.69-.42-1.1-1.38-1.64-1.19-.67-2-1.27-2-2.51s.94-2.26,2.66-2.26a7.74,7.74,0,0,1,1.64.22c.05.44.13,1.07.22,1.82Z" transform="translate(0 -103.13)"/><path d="M392.35,200h-.79l3.07-8.78h.81Z" transform="translate(0 -103.13)"/><path d="M406.36,197.15a18,18,0,0,1-.65,1.93,9.62,9.62,0,0,1-2.11.31c-3.08,0-4.36-2.08-4.36-4,0-2.48,1.81-4.16,4.57-4.16a11.29,11.29,0,0,1,2.17.29c0,.56.13,1.45.21,2l-.45.08a2.07,2.07,0,0,0-1.2-1.63,2.77,2.77,0,0,0-1-.17c-1.66,0-2.5,1.45-2.5,3.33,0,2.2,1.08,3.68,2.65,3.68,1,0,1.61-.52,2.23-1.84Z" transform="translate(0 -103.13)"/><path d="M411.53,191.25a3.82,3.82,0,0,1,3.86,4,3.94,3.94,0,1,1-3.86-4Zm-.17.53c-1.17,0-2,1.2-2,3.32s.77,3.76,2.32,3.76c1.09,0,1.94-1.1,1.94-3.29C413.59,193.19,412.69,191.78,411.36,191.78Z" transform="translate(0 -103.13)"/><path d="M424.48,191.86c-.73.08-.93.3-1,.73s-.05.77-.05,1.61v1.57a4,4,0,0,1-.82,2.79,2.92,2.92,0,0,1-2.16.83,3.15,3.15,0,0,1-2.05-.63,2.94,2.94,0,0,1-1-2.59v-3c0-1.1-.1-1.18-1-1.27v-.44H420v.44c-.87.09-1,.17-1,1.27v3.19c0,1.34.63,2.23,1.86,2.23s2-1.06,2-2.85v-1.5c0-.83,0-1.26-.05-1.62-.05-.55-.37-.67-1.18-.72v-.44h2.85Z" transform="translate(0 -103.13)"/><path d="M433,191.86c-.76.09-1,.2-1.42,1.33-.36.93-1.54,3.9-2.39,6.15h-.63c-.32-.94-1.81-5-2.29-6.31-.36-.9-.51-1.09-1.26-1.17v-.44h3.5v.44c-.83.12-.83.21-.65.71.35,1,1.22,3.47,1.6,4.53.69-1.71,1.31-3.34,1.58-4.12s.2-1-.76-1.12v-.44H433Z" transform="translate(0 -103.13)"/><path d="M440.91,199.28h-.35c-1.45-.07-1.88-.4-2.22-.9a24,24,0,0,1-1.19-2.11.63.63,0,0,0-.69-.39l-.23,0v1.75c0,1,.11,1.06,1,1.16v.45h-3.51v-.45c.87-.09,1-.19,1-1.16V193c0-.94-.12-1.07-1-1.15v-.44H437a3.32,3.32,0,0,1,2.07.46,1.85,1.85,0,0,1,.77,1.59,2,2,0,0,1-1.43,1.94c.17.36.62,1.14,1,1.69a8.71,8.71,0,0,0,.88,1.24,1.31,1.31,0,0,0,.72.53Zm-4.37-3.92a1.61,1.61,0,0,0,1.12-.31,1.74,1.74,0,0,0,.54-1.4c0-1.27-.7-1.73-1.34-1.73-.31,0-.46.05-.53.12s-.1.22-.1.46v2.86Z" transform="translate(0 -103.13)"/><path d="M447.88,197.17c-.06.32-.38,1.7-.49,2h-5.95v-.43c1-.11,1.11-.17,1.11-1.18V193c0-1-.14-1.09-.92-1.17v-.44h3.73c1.21,0,1.61,0,1.77,0,0,.21.07,1.19.11,1.94l-.44.06a3.15,3.15,0,0,0-.5-1.12c-.2-.24-.35-.31-.94-.31h-.74c-.44,0-.49,0-.49.43v2.51h1.13c.64,0,.76-.18.93-1h.45v2.67h-.45c-.19-.89-.28-1-.94-1h-1.12v2.06c0,.82,0,1.08.74,1.09h.81c.65,0,.82-.09,1.07-.41a5.16,5.16,0,0,0,.7-1.2Z" transform="translate(0 -103.13)"/><path d="M456.41,191.86c-.73.08-.93.3-1,.73a14.23,14.23,0,0,0-.06,1.61v1.57a4.09,4.09,0,0,1-.81,2.79,2.94,2.94,0,0,1-2.16.83,3.11,3.11,0,0,1-2.05-.63,2.91,2.91,0,0,1-1-2.59v-3c0-1.1-.1-1.18-1-1.27v-.44h3.55v.44c-.86.09-1,.17-1,1.27v3.19c0,1.34.63,2.23,1.85,2.23,1.37,0,2-1.06,2-2.85v-1.5c0-.83,0-1.26-.06-1.62-.05-.55-.37-.67-1.17-.72v-.44h2.84Z" transform="translate(0 -103.13)"/><path d="M464.39,199.28h-.34c-1.46-.07-1.88-.4-2.23-.9a21.57,21.57,0,0,1-1.18-2.11.64.64,0,0,0-.7-.39l-.23,0v1.75c0,1,.12,1.06,1,1.16v.45h-3.51v-.45c.87-.09,1-.19,1-1.16V193c0-.94-.11-1.07-1-1.15v-.44h3.32a3.36,3.36,0,0,1,2.08.46,1.85,1.85,0,0,1,.77,1.59,2,2,0,0,1-1.43,1.94c.17.36.61,1.14,1,1.69a8.88,8.88,0,0,0,.87,1.24,1.39,1.39,0,0,0,.72.53ZM460,195.36a1.64,1.64,0,0,0,1.13-.31,1.77,1.77,0,0,0,.54-1.4c0-1.27-.7-1.73-1.35-1.73-.31,0-.46.05-.53.12s-.1.22-.1.46v2.86Z" transform="translate(0 -103.13)"/><path d="M469.51,193.4c-.23-.77-.55-1.64-1.6-1.64a1.08,1.08,0,0,0-1.1,1.16c0,.66.42,1.05,1.43,1.58,1.23.63,2,1.26,2,2.44a2.52,2.52,0,0,1-2.77,2.45,6.55,6.55,0,0,1-1.92-.37c-.07-.28-.27-1.53-.35-2.09l.45-.11c.23.76.87,2.06,2,2.06a1.08,1.08,0,0,0,1.13-1.22c0-.69-.41-1.1-1.38-1.64-1.19-.67-2-1.27-2-2.51s.94-2.26,2.66-2.26a7.74,7.74,0,0,1,1.64.22c0,.44.13,1.07.22,1.82Z" transform="translate(0 -103.13)"/></g></svg>