<svg id="Layer_2" data-name="Layer 2" xmlns="http://www.w3.org/2000/svg" viewBox="0 0 79.15 118.35"><defs><style>.cls-1{fill:#d51820;}.cls-2{fill:#88ab2e;}.cls-3{fill:#f14226;}.cls-4{fill:#0093ce;}.cls-5{fill:#bcda35;}.cls-6{fill:#00aff0;}.cls-7{fill:#6a8215;}.cls-8{fill:#ae2b17;}.cls-9{fill:#0177ad;}</style></defs><polygon class="cls-1" points="27.14 79.15 51.26 64.27 51.26 0 27.14 18.84 27.14 79.15"/><polygon class="cls-2" points="62.56 57.29 79.15 66.33 79.15 92.72 62.56 83.67 62.56 57.29"/><polygon class="cls-3" points="51.26 64.27 62.56 57.29 73.62 63.32 73.62 17.34 51.26 0 51.26 64.27"/><polygon class="cls-4" points="0 108.55 39.2 85.18 62.56 96.86 27.14 118.35 0 108.55"/><polygon class="cls-5" points="62.56 83.67 62.56 96.86 51.26 103.72 56.91 108.55 79.15 92.72 62.56 83.67"/><polygon class="cls-6" points="39.2 85.18 27.14 79.15 27.14 63.32 0 79.15 0 108.55 39.2 85.18"/><polygon class="cls-7" points="51.26 79.15 62.56 57.29 62.56 96.86 51.26 79.15"/><polygon class="cls-8" points="51.26 79.15 62.56 57.29 27.14 79.15 51.26 79.15"/><polygon class="cls-9" points="51.26 79.15 62.56 96.86 27.14 79.15 51.26 79.15"/></svg>