<?xml version="1.0" encoding="utf-8"?>
<!-- Generator: Adobe Illustrator 25.0.1, SVG Export Plug-In . SVG Version: 6.00 Build 0)  -->
<svg version="1.1" id="Layer_1" xmlns="http://www.w3.org/2000/svg" xmlns:xlink="http://www.w3.org/1999/xlink" x="0px" y="0px"
	 viewBox="0 0 390.6 114" style="enable-background:new 0 0 390.6 114;" xml:space="preserve">
<style type="text/css">
	.st0{fill-rule:evenodd;clip-rule:evenodd;fill:#FFFFFF;}
</style>
<path class="st0" d="M43.6,113.8H0l21.8-37.9h43.6L43.6,113.8z M87.1,113.8h43.6l-21.8-37.9H65.4L87.1,113.8z M87.1,37.9L65.4,0
	L43.6,37.9l21.8,37.9L87.1,37.9L87.1,37.9z"/>
<path class="st0" d="M150.3,97.7h17.5v-6.4h-17.5v-7.8h19.6v-6.4h-27v36.7h27.5v-6.4h-20.2V97.7z M149.8,43.7l7.8,27.3h7.1l7.8-27.3
	V71h6.9V34.3h-10.6l-7.6,25.8l-7.6-25.8h-10.6V71h6.9V43.7z M317.8,34.3h-7.4V71h7.4V34.3z M323.8,77.1h-7.4v36.7h7.4V77.1z
	 M390.6,34.3h-7.4V71h7.4V34.3z M189.6,34.3h-7.4V71h7.4L189.6,34.3z M372.9,48.6h-14.6V34.3h-7.2V71h7.2V55h14.6v16h7.2V34.3h-7.2
	L372.9,48.6z M200.4,71h7.5V40.7h8.9v-6.4h-25.3v6.4h8.9V71z M267.5,113.8h7.5V83.5h8.9v-6.4h-25.4v6.4h8.9V113.8z M262.5,72
	c9.4,0,14.6-4.3,14.6-12.5V34.3h-7.4v25.9c0,3.2-2.7,5.8-7.2,5.8c-5.5,0-7.2-3.1-7.2-5.8V34.3h-7.2v25.2
	C248.1,68.4,253.6,72,262.5,72L262.5,72z M206.9,97.7h17.5v-6.4h-17.5v-7.8h19.6v-6.4h-27v36.7h27.5v-6.4h-20.2V97.7z M287.2,71
	h10.5c6.9,0,11-4.1,11-9.9c0-4.7-3.4-8.7-7-9.6c3.2-0.8,5.8-4.1,5.8-8.2c0-5.4-4-9-11.4-9h-16.5V71L287.2,71L287.2,71z M295.6,65.5
	H287V54.8h8.5c3.1,0,5.7,1.8,5.7,5.3C301.2,63.1,298.8,65.5,295.6,65.5L295.6,65.5z M296.1,40.1c2,0,4.3,1.9,4.3,4.3
	c0,2.2-1.6,4.6-4.7,4.6H287v-9L296.1,40.1L296.1,40.1z M307.8,96.2c3.1-1,6.5-3.8,6.5-8.9c0-6.5-4.4-10.3-11.9-10.3h-16.7v36.7h7.4
	V99.3h6.3c3.8,0,5.9,2,6.5,4.6c0.7,2.9,0.5,7.2,1.2,9.9h7.4c-0.7-2.8-1.2-6.6-1.3-9.6C313,99.2,310.4,97.2,307.8,96.2L307.8,96.2z
	 M293.1,93.4v-10h8.9c3,0,5,2.1,5,5c0,2-1.8,5-4.8,5L293.1,93.4z M180.2,77.1h-7.4v36.7h24.6v-6.4h-17.2L180.2,77.1z M229.2,55.5
	c5.9,1,9.3,2.1,9.3,5.7c0,2.4-2.4,4.7-7.3,4.7s-7.4-2.8-7.4-6.1h-7.1c0,6.4,4.1,12.2,14.8,12.2c10.2,0,14.6-5.4,14.6-11.6
	c0-5.8-3.8-9.5-10.5-10.8c-6.5-1.3-10.9-1.6-10.9-5.7c0-2.8,2.6-4.5,6.5-4.5c4.2,0,6.6,2.1,6.6,5.6h7.1c0-5.8-4.4-11.8-14.1-11.8
	c-6.7,0-13.6,3.9-13.6,11.1C217.4,50.4,221.8,54.2,229.2,55.5L229.2,55.5z M332.1,55.5c5.9,1,9.3,2.1,9.3,5.7c0,2.4-2.4,4.7-7.3,4.7
	s-7.4-2.8-7.4-6.1h-7.1c0,6.4,4.1,12.2,14.8,12.2c10.2,0,14.6-5.4,14.6-11.6c0-5.8-3.8-9.5-10.5-10.8c-6.5-1.3-10.9-1.6-10.9-5.7
	c0-2.8,2.6-4.5,6.5-4.5c4.2,0,6.6,2.1,6.6,5.6h7.1c0-5.8-4.4-11.8-14.1-11.8c-6.7,0-13.6,3.9-13.6,11.1
	C320.3,50.4,324.7,54.2,332.1,55.5L332.1,55.5z"/>
<path class="st0" d="M243.7,108.2c-5.9,0-9.4-5.9-9.4-12.8s3.3-12.8,9.4-12.8c4.5,0,6.8,2.8,7.8,6.3h7.7
	c-1.3-7.2-6.8-12.5-15.7-12.5c-11.2,0-16.8,8.6-16.8,19.2s5.9,19.2,16.8,19.2c8.8,0,14.7-5.1,15.7-13h-7.7
	C250.5,105.3,248.1,108.2,243.7,108.2z M342.6,108.2c-6,0-9.4-5.9-9.4-12.8s3.3-12.8,9.4-12.8c4.5,0,6.8,2.8,7.8,6.3h7.7
	c-1.3-7.2-6.8-12.5-15.7-12.5c-11.2,0-16.8,8.6-16.8,19.2s5.9,19.2,16.8,19.2c8.8,0,14.7-5.1,15.7-13h-7.7
	C349.5,105.3,347.1,108.2,342.6,108.2z"/>
</svg>
