<?xml version="1.0" encoding="utf-8"?>
<!-- Generator: Adobe Illustrator 25.0.1, SVG Export Plug-In . SVG Version: 6.00 Build 0)  -->
<svg version="1.1" id="Layer_3" xmlns="http://www.w3.org/2000/svg" xmlns:xlink="http://www.w3.org/1999/xlink" x="0px" y="0px"
	 viewBox="0 0 463.4 114" style="enable-background:new 0 0 463.4 114;" xml:space="preserve">
<style type="text/css">
	.st0{fill:#FFFFFF;}
</style>
<rect x="441.8" y="30.5" class="st0" width="21.7" height="83.8"/>
<rect x="368.8" y="30.5" class="st0" width="19.5" height="83.8"/>
<rect x="388.3" y="99.1" class="st0" width="42.6" height="15.2"/>
<rect x="308.4" y="37.9" class="st0" width="19.4" height="76.4"/>
<polygon class="st0" points="284.1,30.5 357.9,30.5 350.5,45.3 284.1,45.3 "/>
<rect x="197.4" y="30.5" class="st0" width="17.7" height="83.8"/>
<path class="st0" d="M210,64.5l38.6,0.2c7.7-1.1,10.7-6.9,10.7-10.3s-1.7-9.1-8.9-10.6L210,43.6V30.5h48c13,3.4,17.9,14.8,17.6,23.7
	c-0.1,5.6-0.8,18.2-19.1,23.2l24.1,36.9h-24.6l-23.7-34.2L210,79.2L210,64.5z"/>
<path class="st0" d="M92.6,30.5c-23.1,0-41.9,18.8-41.9,41.9s18.8,41.9,41.9,41.9s41.9-18.8,41.9-41.9l0,0
	C134.5,49.2,115.7,30.5,92.6,30.5z M92.6,96.4c-13.3,0-24-10.7-24-24c0-13.3,10.7-24,24-24c13.3,0,24,10.7,24,24l0,0
	C116.6,85.6,105.9,96.4,92.6,96.4z"/>
<rect x="129.4" y="66.2" class="st0" width="51.2" height="13.8"/>
<rect x="92.6" y="99.1" class="st0" width="93.8" height="15.1"/>
<polygon class="st0" points="186.4,30.5 180.5,45.3 118.1,45.3 98.7,30.9 "/>
<polygon class="st0" points="304,15.8 0,15.8 0,0.3 "/>
<polygon class="st0" points="308.4,0.3 304,15.8 0,15.8 0,0.3 "/>
</svg>
