<?xml version="1.0" encoding="utf-8"?>
<!-- Generator: Adobe Illustrator 25.0.1, SVG Export Plug-In . SVG Version: 6.00 Build 0)  -->
<svg version="1.1" id="Layer_1" xmlns="http://www.w3.org/2000/svg" xmlns:xlink="http://www.w3.org/1999/xlink" x="0px" y="0px"
	 viewBox="0 0 745 114" style="enable-background:new 0 0 745 114;" xml:space="preserve">
<style type="text/css">
	.st0{fill:#FFFFFF;}
	.st1{fill:#FFFFFF;stroke:#FFFFFF;stroke-width:0.96;stroke-miterlimit:12.82;}
</style>
<path class="st0" d="M43.4,22l0.5,0.7l-0.1,13.6c-0.6,0.5-1.2,0-1.9,0c-6.9-2.2-16.6-4.4-23.2,0c-1.1,1.2-1.7,2.7-1.2,4.3
	c1.9,3.5,5.9,4.8,9.1,6.3c10.5,4,25.2,8.1,27.5,21.6c1.5,8.3-1.4,16.5-8.5,20.9c-13.1,8.5-32.3,5.9-45-1.6L0,87.2l0.1-15.1
	c1.1-0.3,2.3,1,3.5,1.4c7.7,4.9,16.5,8.3,26.5,6.7c2-0.4,4-1.5,5.3-3.4c0.8-1.6,0.8-4.2-0.4-5.7c-1.3-1.6-3-2.3-4.7-3.2l-15.6-6.1
	c-8.1-3-15.7-10.3-15.7-19.5C-1.4,35.8,0.6,29.7,6,25.8C15.9,17.8,31.7,19,43.4,22L43.4,22z M96.3,20.7c2.1,0,4.1,0,6.3,0
	c0.2,4,0.2,9.3,0,13.7l-0.5,0.4l-16.9,0.1l-0.5,0.4L84.5,93c0,0.8-0.9,0.5-1.3,0.7L66,93.6l-0.2-0.9V35.1l-0.7-0.4
	c-5.5,0-11.2-0.1-16.7-0.1l-0.4-0.4l0.1-13l0.3-0.4L96.3,20.7z M124.8,20.8c1.2,0.3,0.7,1.9,0.8,3l-0.2,69.5l-0.3,0.4l-17.7-0.1
	l-0.5-0.2l0-33.2l-0.1-23.1l0-15.7l0.6-0.6L124.8,20.8z M183,20.9c0.4,0.2,0.5,0.3,0.6,0.7l-0.1,12.6l-0.6,0.5l-25,0.1
	c-0.2,0.1-0.4,0.3-0.6,0.5c0,4.1,0.2,9.3,0.2,13.7l23.7,0l0.5,0.2c0.2,4.5,0.1,9.1-0.1,13.6l-0.8,0.2l-23.1,0.1l-0.4,0.3
	c-0.1,5.8-0.2,10.6,0,16.3l0.4,0.4h26l0.3,0.3c0,4.4,0.2,8.6-0.1,13.1l-0.5,0.3l-44.5,0l-0.3-0.5l0.2-38.4l0.1-33.4
	c0.7-1,2.1-0.3,3.1-0.6L183,20.9z M303.2,21.6l0.4,0.3l0,13l-0.5,0.5l-25.9,0.1c-0.4,4.4-0.3,9.4,0,13.8l0.7,0.3l23.7,0.3l0.3,0.2
	l0,13.1l-0.5,0.5l-24,0.1l-0.4,0.5l0.1,16.1l0.4,0.3l26.3,0.2l0.5,0.5l-0.1,12.5l-0.4,0.3l-37.8,0l-7.2,0l-0.3-0.5l0-71.3
	c0.2-0.4,0.2-0.9,0.6-1h29.2L303.2,21.6z M334.8,21.9l0.1,24.1l-0.1,27.7l0.1,6.4l0.4,0.4l23.3,0l0.4,0.3c0.1,4.2,0.4,8.3-0.2,12.7
	l-1.4,0.3l-40.7,0l-0.4-0.3l-0.1-25l0.2-46.9c0.4-0.7,1.3-0.1,1.8-0.4l16.4,0.1L334.8,21.9z M432.9,21.2l0.5,0.5
	c-0.1,4.3,0.2,8.7-0.2,13.1c-8.8,0.7-17.3,0-25.9,0.4l-0.3,0.4c0.2,4.9,0.1,9,0.1,13.8h24.2l0.5,0.6l-0.1,12.8l-0.3,0.4l-24,0.3
	c-0.7,0.3-0.6,1.2-0.6,1.7l0.1,14.8l0.5,0.4l26.3-0.1l0.4,0.5l-0.1,12.8l-0.5,0.2l-45,0.2l-0.2-1.2l0.1-36.3l0.1-35l1.1-0.3
	l22.3-0.1l0.1-0.1C418.7,21.4,425.9,21.1,432.9,21.2L432.9,21.2z M530.2,21.1l0,13.2l-0.4,0.4l-17.1,0.2l-0.3,0.5l-0.1,24.9l0,33.1
	l-0.5,0.5l-17.8-0.1l-0.4-0.3l-0.1-24.8l0-33c0.1-0.3,0-0.6-0.3-0.7c0,0-0.1,0-0.1,0l-17,0l-0.3-0.3c-0.2-4.6-0.3-9.3,0-13.3
	l0.8-0.3l53-0.1L530.2,21.1z M463,21c0.8,0.4,0.6,1.2,0.6,2v28.4c0.1,0.2-0.2,0.8,0.2,1h-0.1l-0.2,6.1l0.1,20.9l0.2,0.4l6.6,0.2
	l16.9-0.1c0.1,0.2,0.2,0.2,0.4,0.2c0.4,4.3,0.2,9.1,0.1,13.3l-0.4,0.3l-42.2,0.1l-0.3-0.5L445,25l0.1-3.5c0.3-0.7,1.1-0.2,1.5-0.5
	L463,21z M707.4,34.1l19.4,26.5l0.4-0.3l0.1-26.8l0.1-12.6l0.5-0.2c5.9,0,11.8,0,17.7,0l0,1.6l-0.2,61l-0.1,10.1l-0.4,0.3l-14.5,0.1
	l-1.5-1.6l-26.6-36.7c-0.9-1.2-1.7-2.8-3-3.8l-0.2,1.4L699,93.4l-0.4,0.5l-17.4,0.1l-0.3-0.4l-0.1-37.5l0.1-34.6
	c0.1-0.3,0.2-0.5,0.5-0.7c6,0,10.5-0.1,16.3,0L707.4,34.1z M599.4,93.2L590,72.8c-1.9-3.3-3.3-7-6.2-9.9c-0.9-1.2-2.4-2.1-3.2-3.2
	c5.7-2.4,10.4-8.6,11.3-14.6c1.1-8.6-2.6-16.7-10.1-21.2c-5.9-3.4-13.7-2.6-20.6-3.2v0.1l-24.8,0.1l-0.7,0.5l-0.1,19.4l0,50.3v2.9
	l17.4,0l1.1-0.2l0.3-29c1.4-0.6,3.4-0.2,5.1-0.3c5.2-0.2,8.6,5.1,10.7,9l8.8,19.7l0.8,0.8l19.2,0.1
	C599.1,93.8,599.6,93.6,599.4,93.2L599.4,93.2z M572.2,45.9c-3.2,6.6-11.5,3.9-17.6,4.4c-0.5-5.1,0-10.5-0.1-15.6
	c3.4-0.4,7-0.2,10.6-0.1c2.5,0.4,5.1,1,6.5,3.3C572.9,40.1,573.4,43.5,572.2,45.9L572.2,45.9z M666,36.7c-4.7-7.6-13-13.4-21.3-15.6
	c-12.5-3.2-25.8,0.4-35,9.4c-11.1,10.6-13.1,28.4-7.8,42.1c4.4,11.9,16.7,21,29.1,22.2c14.6,1.6,27.8-4.6,35.5-17.1
	C673.5,65.7,673.7,48.4,666,36.7L666,36.7z M648.1,73.9c-3.8,4.8-9.5,6.7-15.4,5.8c-4.9-0.5-9.5-3.9-11.9-8.4
	c-4.3-9.2-4.1-21.6,1.9-30c4.7-5.8,12.8-6.5,19.4-4.3c3.4,1.2,6.4,4.4,8.1,7.6C653.9,53.4,653.9,66.1,648.1,73.9L648.1,73.9z
	 M248.2,64.6c-1.7-4.9-6.9-8.8-11.5-10.7c1.9-1.6,3.8-3.5,5.3-5.5c3.8-5.3,3.4-13.5-0.2-18.7c-4.2-6.2-11.1-8.6-18.3-8.7l-27.2,0
	c-0.4,0.2-1.1,0.1-1.1,0.7l0,71.4l0.4,0.8h29.9c6.8-0.2,13.3-1.1,18.2-5.8C249.6,82.1,250.8,72.5,248.2,64.6z M212.3,34.7
	c0.7-0.5,1.7,0,2.5-0.3c2.1,0.2,4.4,0,6.3,0.6c2,0.1,4.1,0.8,5.5,2.7c1.4,2.4,1.1,5.8,0.3,8.4c-3.4,4.3-8.8,3.3-14.2,3.5l-0.5-0.6
	L212.3,34.7z M231.9,74.8c-0.5,1.6-1.6,3-3.1,3.8c-5,1.7-10.6,1.4-16.3,1.3c-0.4-5.4-0.3-11-0.2-16.5c3.1-0.4,6.7,0,10.3,0
	c2.6,0.4,5.3,0.7,7.4,2.3C232.7,67.9,232.1,71.8,231.9,74.8L231.9,74.8z"/>
<path class="st1" d="M0.3,0h745.4v13.9H0.3V0z M0.3,100.1h745.4V114H0.3V100.1z"/>
</svg>
