<svg id="Layer_1" data-name="Layer 1" xmlns="http://www.w3.org/2000/svg" viewBox="0 0 153.89 153.89"><defs><style>.cls-1{fill:#387be4;}.cls-2{fill:#fff;}</style></defs><g id="Layer_3-2" data-name="Layer 3-2"><circle class="cls-1" cx="76.94" cy="76.94" r="76.94"/></g><g id="Layer_2" data-name="Layer 2"><g id="Layer_8" data-name="Layer 8"><path class="cls-2" d="M85.54,110.71A23,23,0,0,1,94.39,92.5a30.05,30.05,0,0,0-6.61-.76H67.08a29.33,29.33,0,0,0-29.33,29.32H88A22.93,22.93,0,0,1,85.54,110.71Z"/><path class="cls-2" d="M83.22,78.54c0-3.33,3.55-5.75,8.45-5.75a10.11,10.11,0,0,1,6.72,2.13,1.26,1.26,0,0,0,1.78-.11l.14-.19A25.79,25.79,0,1,0,87,85.79a1.28,1.28,0,0,0,.67-1.66,1.29,1.29,0,0,0-.67-.67A5.44,5.44,0,0,1,83.22,78.54Z"/><path class="cls-2" d="M44.14,50.51a34.87,34.87,0,0,1,67.23,0h3.38a38.12,38.12,0,0,0-74,0Z"/><path class="cls-2" d="M39.2,66.94l4,1.66A1,1,0,0,0,44.52,68a.84.84,0,0,0,.08-.27L46.55,51.1A1,1,0,0,0,45.68,50H41.1a1.18,1.18,0,0,0-.61.18c-3.6,2.53-4,5.73-4.25,8.52s0,6,2.69,8.16Z"/><path class="cls-2" d="M49.49,50.7c.93,0,1.82.82,1.57,1.69a36.93,36.93,0,0,0-1.38,7.51,49.39,49.39,0,0,0,.41,7.59,3.6,3.6,0,0,1-.75,1,1.44,1.44,0,0,1-.9.49l-.63.2A1.6,1.6,0,0,1,46,67.89a3.08,3.08,0,0,1,0-.43L47.7,52.1A1.82,1.82,0,0,1,49.49,50.7Z"/><path class="cls-2" d="M116,67.32,112.17,69a1,1,0,0,1-1.26-.55.71.71,0,0,1,0-.29L109,51.46a1,1,0,0,1,.83-1.15h4.37a1,1,0,0,1,.57.19c3.4,2.53,3.79,5.73,4,8.51s0,6-2.53,8.16A.71.71,0,0,1,116,67.32Z"/><path class="cls-2" d="M106.24,51.06a1.46,1.46,0,0,0-1.53,1.37,1.41,1.41,0,0,0,0,.29A38.16,38.16,0,0,1,106,60.23a52,52,0,0,1-.38,7.59,2.92,2.92,0,0,0,.7,1,1.41,1.41,0,0,0,.86.48l.64.1a1.54,1.54,0,0,0,1.72-1.27,3.08,3.08,0,0,0,0-.43L108,52.43A1.74,1.74,0,0,0,106.24,51.06Z"/><ellipse class="cls-2" cx="91.61" cy="78.54" rx="5.48" ry="2.77"/><path class="cls-2" d="M93.77,79.72h12.45A6.66,6.66,0,0,0,112.54,75l3.06-10.3h-2.3L111,72.5a6.64,6.64,0,0,1-5.74,4.7L93.77,78.29Z"/></g></g><g id="Layer_2-2" data-name="Layer 2"><path class="cls-2" d="M107.39,91.55A18.38,18.38,0,1,0,125.73,110v0h0A18.37,18.37,0,0,0,107.39,91.55Zm0,34A15.62,15.62,0,1,1,123,109.91h0a15.64,15.64,0,0,1-15.56,15.62Z"/><rect class="cls-2" x="105.49" y="87.41" width="3.73" height="4.55"/><rect class="cls-2" x="102.48" y="84.8" width="9.77" height="4.55" rx="1.08"/><path class="cls-2" d="M121.59,95.83l-1.25-1.14a12.53,12.53,0,0,0-1.67-1.22l-1.65-1a1,1,0,0,1-.43-.7,1,1,0,0,1,.21-.8l1.29-1.72a1.07,1.07,0,0,1,1.48-.23l1.29.75a12.37,12.37,0,0,1,2.2,1.6l1.08,1a1.22,1.22,0,0,1,.43.71,1,1,0,0,1-.14.82l-1.27,1.73a1.08,1.08,0,0,1-1.5.27A.45.45,0,0,1,121.59,95.83Z"/><path class="cls-2" d="M116.08,108.92H108l-.75.74a4.34,4.34,0,0,1,0,.51.74.74,0,0,0,.64.82h8.21a.5.5,0,0,0,.5-.5h0v-1a.5.5,0,0,0-.48-.53Z"/><path class="cls-2" d="M116.64,110.67a9.34,9.34,0,0,0-9-9.23.41.41,0,0,0-.44.37h0l-.06,8.43"/></g></svg>