<svg id="Layer_1" data-name="Layer 1" xmlns="http://www.w3.org/2000/svg" viewBox="0 0 153.89 153.89"><defs><style>.cls-1{fill:#387be4;}.cls-2{fill:none;}.cls-3{fill:#fff;}</style></defs><g id="Layer_3-2" data-name="Layer 3-2"><circle class="cls-1" cx="76.94" cy="76.94" r="76.94"/></g><g id="Layer_2-2" data-name="Layer 2-2"><g id="Layer_4" data-name="Layer 4"><g id="Layer_6" data-name="Layer 6"><line class="cls-2" x1="76.28" y1="55.06" x2="76.28" y2="55.44"/></g><path class="cls-3" d="M106.84,108.18h1.78v-1.69h-3.94a2,2,0,0,1-2.05-1.72,1.88,1.88,0,0,1,1.71-2h4.35V99.77H100.4a2,2,0,0,1-2-1.72A1.88,1.88,0,0,1,100.07,96h8.58V94.38h0a19.86,19.86,0,0,1-2.55.17A19.41,19.41,0,0,1,86.78,76.77h-36a1.84,1.84,0,0,0-1.31.55L27.31,99.46a7.48,7.48,0,0,0-2.2,5.36v7A1.85,1.85,0,0,0,27,113.71h5.14a7.8,7.8,0,0,1,15.6,0H87a7.8,7.8,0,0,1,15.59,0h4.18a1.77,1.77,0,0,0,1.78-1.7h-2a1.9,1.9,0,0,1-1.79-2v-.14A2,2,0,0,1,106.84,108.18ZM56.11,93.75a1.54,1.54,0,0,1-1.54,1.54H40a1.55,1.55,0,0,1-1.54-1.54,1.52,1.52,0,0,1,.44-1.07l9.77-10a1.52,1.52,0,0,1,1.09-.43h4.81a1.53,1.53,0,0,1,1.54,1.53h0Z"/><circle class="cls-3" cx="40.01" cy="114.22" r="5.98"/><circle class="cls-3" cx="94.94" cy="114.22" r="5.98"/><rect class="cls-3" x="117.35" y="82.41" width="18.54" height="1.93" rx="0.69"/><rect class="cls-3" x="119.57" y="92.9" width="12.92" height="1.86" rx="0.74"/><rect class="cls-3" x="116.74" y="103.33" width="20.36" height="1.98" rx="0.57"/><polygon class="cls-3" points="108.65 95.24 108.56 112.01 104.38 112.01 96.4 95.24 108.65 95.24"/><rect class="cls-3" x="71.4" y="76.77" width="37.25" height="24.07" rx="1.61"/></g><g id="Layer_4-2" data-name="Layer 4-2"><path class="cls-3" d="M78,20.12a23.07,23.07,0,1,0,23,23.1v0h0A23.06,23.06,0,0,0,78,20.12Zm0,42.73A19.61,19.61,0,1,1,97.52,43.17h0A19.65,19.65,0,0,1,78,62.79Z"/><rect class="cls-3" x="75.6" y="14.92" width="4.68" height="5.71"/><rect class="cls-3" x="71.82" y="11.64" width="12.26" height="5.71" rx="1.36"/><path class="cls-3" d="M95.81,25.49l-1.58-1.43a15,15,0,0,0-2.09-1.54L90.07,21.3a1.29,1.29,0,0,1-.54-.88,1.31,1.31,0,0,1,.26-1l1.62-2.15A1.34,1.34,0,0,1,93.27,17l1.62.94a15.11,15.11,0,0,1,2.76,2L99,21.14a1.48,1.48,0,0,1,.53.89,1.31,1.31,0,0,1-.17,1l-1.6,2.18a1.37,1.37,0,0,1-1.88.33Z"/><path class="cls-3" d="M88.88,41.92H78.73l-1,.93a3.42,3.42,0,0,1,0,.64.93.93,0,0,0,.82,1H88.88a.63.63,0,0,0,.64-.63h0V42.58a.64.64,0,0,0-.61-.66Z"/><path class="cls-3" d="M89.59,44.12A11.73,11.73,0,0,0,78.32,32.53a.52.52,0,0,0-.55.47h0L77.7,43.58"/></g></g></svg>