<?xml version="1.0" encoding="utf-8"?>
<!-- Generator: Adobe Illustrator 25.0.1, SVG Export Plug-In . SVG Version: 6.00 Build 0)  -->
<svg version="1.1" id="Layer_2_1_" xmlns="http://www.w3.org/2000/svg" xmlns:xlink="http://www.w3.org/1999/xlink" x="0px" y="0px"
	 viewBox="0 0 337.1 114" style="enable-background:new 0 0 337.1 114;" xml:space="preserve">
<style type="text/css">
	.st0{enable-background:new    ;}
	.st1{fill:#FFFFFF;}
</style>
<g class="st0">
	<path class="st1" d="M35.6,113.8c-11.1,0-19.8-2.8-26.1-8.4C3.2,99.8,0,91.2,0,79.8V16.5h16.5v63.1c0,12.9,6.4,19.4,19.3,19.4
		c6.1,0,10.7-1.7,14-5c3.3-3.3,4.9-8.2,4.9-14.7V16.5h16.6v63.4c0,5.7-0.8,10.6-2.5,14.9s-4,7.8-7.1,10.6c-3.1,2.8-6.8,5-11.2,6.4
		C46.1,113.1,41.1,113.8,35.6,113.8z"/>
	<path class="st1" d="M100.1,53.5h0.4c2.1-3.9,4.8-6.8,8.1-8.8c3.3-2,7.2-3,11.8-3c6.9,0,12.3,2.1,16.2,6.4
		c3.9,4.2,5.8,10.1,5.8,17.6v46.5h-15.2V68.3c0-4.1-1.1-7.3-3.2-9.6c-2.1-2.3-5.1-3.5-9-3.5c-2.2,0-4.1,0.4-5.9,1.2
		c-1.8,0.8-3.3,2-4.5,3.5c-1.3,1.5-2.3,3.3-3,5.3c-0.7,2.1-1.1,4.3-1.1,6.7v40.2H85.3V43.5h14.8V53.5z"/>
	<path class="st1" d="M155.5,16.5H171v15.8h-15.5V16.5z M155.7,43.5h15.2v68.7h-15.2V43.5z"/>
</g>
<g class="st0">
	<path class="st1" d="M213.8,114.2c-4.9,0-9.4-0.9-13.4-2.8c-4-1.9-7.4-4.5-10.2-7.7c-2.8-3.3-5-7.1-6.5-11.5
		c-1.5-4.4-2.3-9.2-2.3-14.2c0-5.1,0.8-9.9,2.3-14.3c1.5-4.4,3.7-8.2,6.5-11.5c2.8-3.3,6.2-5.8,10.1-7.7c3.9-1.8,8.4-2.8,13.3-2.8
		c4.1,0,7.8,0.6,11.1,1.8c3.3,1.2,6.2,2.9,8.6,5c2.4,2.1,4.4,4.7,6,7.8c1.6,3,2.6,6.4,3.2,10.1h-14.8c-0.7-3.8-2.3-6.8-4.6-8.9
		c-2.4-2.2-5.4-3.3-9.3-3.3c-2.8,0-5.2,0.6-7.4,1.7c-2.1,1.2-3.9,2.8-5.3,5c-1.4,2.1-2.5,4.7-3.2,7.6c-0.7,2.9-1.1,6.1-1.1,9.5
		c0,3.3,0.4,6.5,1.1,9.3c0.7,2.9,1.8,5.4,3.2,7.5c1.4,2.1,3.1,3.8,5.3,5c2.1,1.2,4.6,1.8,7.4,1.8c4.2,0,7.6-1.2,10-3.7
		c2.4-2.5,3.8-6,4.2-10.5h14.8c-0.2,4-1.1,7.7-2.5,11c-1.4,3.3-3.4,6.1-5.9,8.5c-2.5,2.4-5.5,4.2-8.9,5.5
		C222,113.5,218.1,114.2,213.8,114.2z"/>
</g>
<g class="st0">
	<path class="st1" d="M295.2,112.1c-0.6-0.8-1-1.9-1.4-3.3c-0.4-1.4-0.6-3.3-0.8-5.6h-0.2c-2.1,3-4.7,5.5-7.8,7.5
		c-3.1,2-7.2,3-12.3,3c-3.1,0-6-0.4-8.7-1.3c-2.7-0.9-5-2.1-6.9-3.9c-1.9-1.7-3.4-3.8-4.5-6.4c-1.1-2.5-1.7-5.5-1.7-8.8
		c0-3.9,0.7-7,2-9.6c1.3-2.5,3.1-4.6,5.4-6.1c2.3-1.5,5.1-2.7,8.3-3.5c3.2-0.8,6.7-1.5,10.5-2c5.3-0.7,9.2-1.6,11.8-2.9
		c2.6-1.2,3.9-3.4,3.9-6.5c0-3-1-5.4-2.9-7.2s-4.8-2.7-8.6-2.7c-4.3,0-7.5,1-9.6,3c-2.1,2-3.2,4.7-3.4,8.1h-14.3
		c0.1-2.9,0.7-5.7,1.9-8.4c1.2-2.7,2.9-5.1,5.1-7.1c2.3-2.1,5.1-3.7,8.4-5c3.3-1.2,7.3-1.9,11.8-1.9c3.7,0,6.9,0.3,9.7,0.9
		c2.8,0.6,5.3,1.6,7.4,3.1c6.1,3.9,9.1,10.5,9.1,19.5v36.1c0,2.8,0.2,5,0.7,6.6c0.4,1.5,1,2.6,1.7,3.1v1.2H295.2z M277.2,102.6
		c2.6,0,4.9-0.5,6.9-1.4c2-0.9,3.7-2.1,5-3.5c1.4-1.4,2.4-3,3.1-4.9c0.7-1.8,1.1-3.7,1.1-5.7V77c-1.5,1-3.4,1.9-5.6,2.6
		c-2.2,0.7-4.5,1.3-6.8,1.9c-4.7,0.9-8.3,2.2-10.9,3.7c-2.6,1.5-3.8,4.1-3.8,7.9c0,1.8,0.3,3.3,0.9,4.6c0.6,1.2,1.4,2.2,2.4,3
		c1,0.7,2.2,1.2,3.5,1.5C274.4,102.5,275.8,102.6,277.2,102.6z"/>
	<path class="st1" d="M321.8,16.5h15.3v95.7h-15.3V16.5z"/>
</g>
<g class="st0">
	<path class="st1" d="M311.8,30c0,2.3-0.8,4.3-2.5,5.9c-1.6,1.6-3.6,2.5-5.9,2.5c-2.3,0-4.3-0.8-5.9-2.5c-1.6-1.6-2.5-3.6-2.5-5.9
		c0-2.3,0.8-4.3,2.5-5.9c1.6-1.6,3.6-2.5,5.9-2.5c2.3,0,4.3,0.8,5.9,2.5C311,25.7,311.8,27.7,311.8,30z M310.8,30
		c0-2-0.7-3.8-2.1-5.2c-1.4-1.4-3.2-2.1-5.2-2.1c-2,0-3.8,0.7-5.2,2.2c-1.4,1.5-2.2,3.2-2.2,5.2c0,2,0.7,3.7,2.2,5.2
		c1.4,1.4,3.2,2.2,5.2,2.2c2,0,3.7-0.7,5.2-2.2C310.1,33.7,310.8,32,310.8,30z M300.1,34.5v-8.8h3.7c1,0,1.7,0.2,2.2,0.7
		c0.5,0.4,0.8,1,0.8,1.7c0,0.6-0.2,1.1-0.6,1.6c-0.4,0.5-1.1,0.8-2,0.9c0.6,0.2,1.1,0.6,1.4,1c0.1,0.2,0.3,0.5,0.6,1.1
		c0.3,0.5,0.6,1.2,0.9,1.9h-1.3c-0.8-1.7-1.4-2.8-1.8-3.2c-0.4-0.4-1.2-0.6-2.2-0.6h-0.5v3.8H300.1z M301.2,26.6v3.2h1.4
		c1.2,0,1.9-0.1,2.3-0.4c0.3-0.3,0.5-0.7,0.5-1.2c0-0.5-0.1-0.8-0.4-1.1c-0.3-0.3-1-0.4-2.2-0.4H301.2z"/>
</g>
</svg>
