<?xml version="1.0" encoding="utf-8"?>
<!-- Generator: Adobe Illustrator 25.0.1, SVG Export Plug-In . SVG Version: 6.00 Build 0)  -->
<svg version="1.1" id="Layer_1" xmlns="http://www.w3.org/2000/svg" xmlns:xlink="http://www.w3.org/1999/xlink" x="0px" y="0px"
	 viewBox="0 0 491.1 114.4" style="enable-background:new 0 0 491.1 114.4;" xml:space="preserve">
<style type="text/css">
	.st0{fill-rule:evenodd;clip-rule:evenodd;fill:#FFFFFF;stroke:#FFFFFF;stroke-miterlimit:33.89;}
</style>
<path class="st0" d="M15.9,30.1H0l22,53.2h17.4l22-53.2H45.6l-15,35.8L15.9,30.1L15.9,30.1z M423.2,30.4h-15.6v32.1l-19.9-32.1H369
	v52.9h15.3V51.2l20.2,32.1h18.7L423.2,30.4L423.2,30.4z M491,29.7h-15.9v32.1l-19.5-32.1h-18.6v52.9h15.3V50.5l20.2,32.1h18.7
	L491,29.7z M323.5,30.4h15.9l26,52.9h-16.8l-4.3-8.9h-25.7l-4.3,8.9h-15.9L323.5,30.4z M331.4,45.9l-8,15.6h15.6L331.4,45.9z
	 M228.4,30.1v53.5h15.9V51.5l11.9,31.8h11l12.2-32.1v32.1h15.6V30.1h-22.6l-10.7,29.6l-11-29.6H228.4z M199.6,101.6
	c2.8,0,4.9-0.9,4.9-3.4c0-3.4-2.8-4-5.8-4h-22.9c-8.3-0.3-15.9-6.1-16.2-15.9c0-7.3,5.2-16.2,15.6-17.1h39.1v12.9h-38.5
	c-1.8,0-2.8,2.1-2.8,3.7c0,1.8,1.2,3.7,3.1,3.7l23.2,0.3c10.4,0,18.1,5.8,18.1,17.1c0,11.9-11.9,15.6-17.7,15.6h-36.7v-12.9
	L199.6,101.6L199.6,101.6L199.6,101.6z M199.6,40.4c2.8,0,4.9-1.2,4.9-3.4c0-3.4-2.8-4-5.8-4h-22.9c-8.3-0.3-15.9-6.1-16.2-15.9
	c0-7.3,5.2-16.2,15.6-17.1h39.1v12.9h-38.5c-1.8,0-2.8,2.1-2.8,3.7c0,1.8,1.2,3.7,3.1,3.7h23.2c10.4,0.3,18.1,6.1,18.1,17.4
	c0,11.9-11.9,15.6-17.7,15.6h-36.7V40.3L199.6,40.4z M97.5,83.3V30.4h52.3v12.9h-36.7v7.3h29.7v12.9h-29.7v7h36.7v12.9L97.5,83.3z
	 M67.9,30.4h15.6v52.9H67.9V30.4z"/>
</svg>
